<svg width="256" height="51" viewBox="0 0 256 51" fill="none" xmlns="http://www.w3.org/2000/svg">
<g clip-path="url(#clip0_2_2847)">
<path d="M0 4.98983C0 2.23402 2.23402 0 4.98983 0H251.01C253.766 0 256 2.23402 256 4.98983V46.0102C256 48.766 253.766 51 251.01 51H4.98984C2.23403 51 0 48.766 0 46.0102V4.98983Z" fill="white"/>
<rect width="335" height="51.4644" fill="#F070A9"/>
<rect width="335" height="51.4644" fill="url(#paint0_linear_2_2847)"/>
<g clip-path="url(#clip1_2_2847)">
<rect x="13.9996" y="7.48474" width="24.9492" height="24.9492" rx="12.4746" fill="white"/>
<rect x="47.9498" y="9.35779" width="1.24746" height="21.2068" rx="0.623729" fill="white"/>
<rect x="66.6617" y="9.35779" width="1.24746" height="21.2068" rx="0.623729" fill="white"/>
<rect x="115.312" y="9.35779" width="1.24746" height="21.2068" rx="0.623729" fill="white"/>
<rect x="85.3737" y="9.35779" width="1.24746" height="21.2068" rx="0.623729" fill="white"/>
<rect x="134.024" y="9.35779" width="1.24746" height="21.2068" rx="0.623729" fill="white"/>
<rect width="1.24746" height="21.2068" rx="0.623729" transform="matrix(-1 0 0 1 172.695 9.35779)" fill="white"/>
<rect width="1.24746" height="21.2068" rx="0.623729" transform="matrix(-1 0 0 1 90.3629 9.35779)" fill="white"/>
<rect width="1.24746" height="21.2068" rx="0.623729" transform="matrix(-1 0 0 1 139.014 9.35779)" fill="white"/>
<rect x="167.706" y="9.35779" width="1.24746" height="21.2068" rx="0.623729" fill="white"/>
<rect x="51.692" y="15.5941" width="1.24746" height="8.7322" rx="0.623729" fill="white"/>
<rect x="70.4039" y="15.5941" width="1.24746" height="8.7322" rx="0.623729" fill="white"/>
<rect x="119.054" y="15.5941" width="1.24746" height="8.7322" rx="0.623729" fill="white"/>
<rect width="1.24746" height="8.7322" rx="0.623729" transform="matrix(-1 0 0 1 105.333 15.5941)" fill="white"/>
<rect width="1.24746" height="8.7322" rx="0.623729" transform="matrix(-1 0 0 1 153.983 15.5941)" fill="white"/>
<rect x="59.1764" y="15.5941" width="1.24746" height="8.7322" rx="0.623729" fill="white"/>
<rect x="107.828" y="15.5941" width="1.24746" height="8.7322" rx="0.623729" fill="white"/>
<rect x="77.8883" y="15.5941" width="1.24746" height="8.7322" rx="0.623729" fill="white"/>
<rect x="126.54" y="15.5941" width="1.24746" height="8.7322" rx="0.623729" fill="white"/>
<rect width="1.24746" height="8.7322" rx="0.623729" transform="matrix(-1 0 0 1 97.8483 15.5941)" fill="white"/>
<rect width="1.24746" height="8.7322" rx="0.623729" transform="matrix(-1 0 0 1 146.499 15.5941)" fill="white"/>
<rect x="160.22" y="15.5941" width="1.24746" height="8.7322" rx="0.623729" fill="white"/>
<rect width="1.24746" height="8.7322" rx="0.623729" transform="matrix(-1 0 0 1 180.18 15.5941)" fill="white"/>
<rect width="1.24746" height="8.7322" rx="0.623729" transform="matrix(-1 0 0 1 183.922 15.5941)" fill="white"/>
<rect x="55.4342" y="12.475" width="1.24746" height="14.9695" rx="0.623729" fill="white"/>
<rect x="74.1461" y="12.475" width="1.24746" height="14.9695" rx="0.623729" fill="white"/>
<rect x="122.797" y="12.475" width="1.24746" height="14.9695" rx="0.623729" fill="white"/>
<rect width="1.24746" height="14.9695" rx="0.623729" transform="matrix(-1 0 0 1 101.59 12.475)" fill="white"/>
<rect width="1.24746" height="14.9695" rx="0.623729" transform="matrix(-1 0 0 1 150.241 12.475)" fill="white"/>
<rect x="156.478" y="12.475" width="1.24746" height="14.9695" rx="0.623729" fill="white"/>
<rect x="62.9196" y="12.475" width="1.24746" height="14.9695" rx="0.623729" fill="white"/>
<rect x="111.57" y="12.475" width="1.24746" height="14.9695" rx="0.623729" fill="white"/>
<rect x="81.6305" y="12.475" width="1.24746" height="14.9695" rx="0.623729" fill="white"/>
<rect x="130.282" y="12.475" width="1.24746" height="14.9695" rx="0.623729" fill="white"/>
<rect width="1.24746" height="14.9695" rx="0.623729" transform="matrix(-1 0 0 1 94.1051 12.475)" fill="white"/>
<rect width="1.24746" height="14.9695" rx="0.623729" transform="matrix(-1 0 0 1 142.756 12.475)" fill="white"/>
<rect x="163.964" y="12.475" width="1.24746" height="14.9695" rx="0.623729" fill="white"/>
<rect width="1.24746" height="14.9695" rx="0.623729" transform="matrix(-1 0 0 1 176.438 12.475)" fill="white"/>
<rect x="187" y="9.35779" width="1.24746" height="21.2068" rx="0.623729" fill="white"/>
<rect x="205.712" y="9.35779" width="1.24746" height="21.2068" rx="0.623729" fill="white"/>
<rect x="224.423" y="9.35779" width="1.24746" height="21.2068" rx="0.623729" fill="white"/>
<rect width="1.24746" height="21.2068" rx="0.623729" transform="matrix(-1 0 0 1 229.413 9.35779)" fill="white"/>
<rect x="190.742" y="15.5941" width="1.24746" height="8.7322" rx="0.623729" fill="white"/>
<rect x="209.454" y="15.5941" width="1.24746" height="8.7322" rx="0.623729" fill="white"/>
<rect width="1.24746" height="8.7322" rx="0.623729" transform="matrix(-1 0 0 1 244.382 15.5941)" fill="white"/>
<rect x="198.226" y="15.5941" width="1.24746" height="8.7322" rx="0.623729" fill="white"/>
<rect x="216.938" y="15.5941" width="1.24746" height="8.7322" rx="0.623729" fill="white"/>
<rect width="1.24746" height="8.7322" rx="0.623729" transform="matrix(-1 0 0 1 236.898 15.5941)" fill="white"/>
<rect x="194.484" y="12.475" width="1.24746" height="14.9695" rx="0.623729" fill="white"/>
<rect x="213.196" y="12.475" width="1.24746" height="14.9695" rx="0.623729" fill="white"/>
<rect width="1.24746" height="14.9695" rx="0.623729" transform="matrix(-1 0 0 1 240.64 12.475)" fill="white"/>
<rect x="201.969" y="12.475" width="1.24746" height="14.9695" rx="0.623729" fill="white"/>
<rect x="220.68" y="12.475" width="1.24746" height="14.9695" rx="0.623729" fill="white"/>
<rect width="1.24746" height="14.9695" rx="0.623729" transform="matrix(-1 0 0 1 233.155 12.475)" fill="white"/>
</g>
<path d="M54.386 39.5583C54.386 39.2539 54.4159 38.9745 54.4758 38.72C54.5357 38.4606 54.623 38.2385 54.7378 38.0539C54.8525 37.8643 54.9898 37.7196 55.1494 37.6198C55.3141 37.515 55.4962 37.4626 55.6958 37.4626C55.9004 37.4626 56.0825 37.515 56.2422 37.6198C56.4019 37.7196 56.5391 37.8643 56.6539 38.0539C56.7686 38.2385 56.856 38.4606 56.9158 38.72C56.9757 38.9745 57.0057 39.2539 57.0057 39.5583C57.0057 39.8627 56.9757 40.1446 56.9158 40.4041C56.856 40.6586 56.7686 40.8806 56.6539 41.0702C56.5391 41.2549 56.4019 41.3996 56.2422 41.5044C56.0825 41.6041 55.9004 41.654 55.6958 41.654C55.4962 41.654 55.3141 41.6041 55.1494 41.5044C54.9898 41.3996 54.8525 41.2549 54.7378 41.0702C54.623 40.8806 54.5357 40.6586 54.4758 40.4041C54.4159 40.1446 54.386 39.8627 54.386 39.5583ZM53.7498 39.5583C53.7498 40.0822 53.8321 40.5463 53.9968 40.9505C54.1615 41.3547 54.3885 41.674 54.6779 41.9085C54.9723 42.1381 55.3116 42.2528 55.6958 42.2528C56.08 42.2528 56.4169 42.1381 56.7063 41.9085C57.0007 41.674 57.2302 41.3547 57.3949 40.9505C57.5595 40.5463 57.6419 40.0822 57.6419 39.5583C57.6419 39.0344 57.5595 38.5703 57.3949 38.1662C57.2302 37.762 57.0007 37.4451 56.7063 37.2156C56.4169 36.9811 56.08 36.8638 55.6958 36.8638C55.3116 36.8638 54.9723 36.9811 54.6779 37.2156C54.3885 37.4451 54.1615 37.762 53.9968 38.1662C53.8321 38.5703 53.7498 39.0344 53.7498 39.5583ZM58.6494 41.8786C58.6494 41.9884 58.6893 42.0857 58.7691 42.1705C58.854 42.2503 58.9513 42.2902 59.061 42.2902C59.1758 42.2902 59.2731 42.2503 59.3529 42.1705C59.4328 42.0857 59.4727 41.9884 59.4727 41.8786C59.4727 41.7638 59.4328 41.6665 59.3529 41.5867C59.2731 41.5068 59.1758 41.4669 59.061 41.4669C58.9513 41.4669 58.854 41.5068 58.7691 41.5867C58.6893 41.6665 58.6494 41.7638 58.6494 41.8786ZM58.6494 39.0344C58.6494 39.1442 58.6893 39.2415 58.7691 39.3263C58.854 39.4061 58.9513 39.446 59.061 39.446C59.1758 39.446 59.2731 39.4061 59.3529 39.3263C59.4328 39.2415 59.4727 39.1442 59.4727 39.0344C59.4727 38.9196 59.4328 38.8223 59.3529 38.7425C59.2731 38.6626 59.1758 38.6227 59.061 38.6227C58.9513 38.6227 58.854 38.6626 58.7691 38.7425C58.6893 38.8223 58.6494 38.9196 58.6494 39.0344ZM64.1043 40.4565C64.1043 40.1072 64.0369 39.8003 63.9022 39.5359C63.7675 39.2714 63.5804 39.0643 63.3409 38.9146C63.1063 38.7649 62.8394 38.6901 62.54 38.6901C62.4102 38.6901 62.278 38.7076 62.1433 38.7425C62.0136 38.7724 61.8863 38.8198 61.7616 38.8847L62.1134 37.5H64.0893V36.9387H61.6194L60.9308 39.7305C61.1104 39.6057 61.2676 39.5109 61.4023 39.446C61.542 39.3762 61.6792 39.3288 61.814 39.3038C61.9537 39.2739 62.1059 39.2589 62.2705 39.2589C62.4951 39.2589 62.6947 39.3088 62.8693 39.4086C63.0489 39.5084 63.1887 39.6481 63.2885 39.8278C63.3932 40.0074 63.4456 40.217 63.4456 40.4565C63.4456 40.696 63.3982 40.9056 63.3034 41.0852C63.2136 41.2648 63.0814 41.4046 62.9067 41.5044C62.7321 41.6041 62.52 41.654 62.2705 41.654C62.0809 41.654 61.8988 41.6141 61.7241 41.5343C61.5495 41.4495 61.3948 41.3422 61.2601 41.2124C61.1304 41.0777 61.0256 40.9355 60.9457 40.7858L60.4068 41.1526C60.5216 41.3522 60.6613 41.5368 60.826 41.7064C60.9956 41.8711 61.1977 42.0033 61.4322 42.1031C61.6718 42.2029 61.9512 42.2528 62.2705 42.2528C62.525 42.2528 62.762 42.2154 62.9816 42.1406C63.2011 42.0657 63.3957 41.9534 63.5654 41.8037C63.735 41.654 63.8673 41.4669 63.9621 41.2424C64.0569 41.0178 64.1043 40.7559 64.1043 40.4565ZM65.0059 37.9716L66.166 37.6273V42.178H66.8022V36.8638L65.0059 37.3129V37.9716Z" fill="white"/>
<path d="M227.716 37.9724L228.876 37.6281V42.1788H229.513V36.8647L227.716 37.3137V37.9724ZM232.381 39.5966C232.72 39.5966 233.017 39.5367 233.271 39.417C233.526 39.2972 233.725 39.135 233.87 38.9305C234.015 38.7259 234.087 38.5013 234.087 38.2568C234.087 38.0073 234.027 37.7778 233.908 37.5682C233.793 37.3587 233.626 37.189 233.406 37.0593C233.192 36.9295 232.935 36.8647 232.635 36.8647C232.351 36.8647 232.096 36.9245 231.872 37.0443C231.652 37.1591 231.477 37.3187 231.348 37.5233C231.223 37.7279 231.161 37.9674 231.161 38.2419H231.767C231.767 38.0123 231.852 37.8227 232.021 37.673C232.191 37.5183 232.398 37.441 232.643 37.441C232.817 37.441 232.962 37.4759 233.077 37.5458C233.196 37.6156 233.286 37.7154 233.346 37.8452C233.406 37.9699 233.436 38.1146 233.436 38.2793C233.436 38.404 233.411 38.5213 233.361 38.6311C233.316 38.7408 233.249 38.8381 233.159 38.923C233.069 39.0028 232.959 39.0677 232.83 39.1176C232.7 39.1625 232.55 39.1849 232.381 39.1849V39.5966ZM232.605 42.2537C232.92 42.2537 233.199 42.1938 233.443 42.074C233.688 41.9543 233.88 41.7846 234.02 41.5651C234.165 41.3455 234.237 41.0886 234.237 40.7942C234.237 40.5347 234.187 40.3126 234.087 40.128C233.992 39.9434 233.858 39.7937 233.683 39.6789C233.513 39.5592 233.316 39.4718 233.092 39.417C232.872 39.3621 232.635 39.3346 232.381 39.3346V39.7463C232.55 39.7463 232.707 39.7662 232.852 39.8062C232.997 39.8461 233.124 39.9085 233.234 39.9933C233.344 40.0731 233.429 40.1754 233.488 40.3002C233.553 40.4199 233.586 40.5596 233.586 40.7193C233.586 40.9089 233.546 41.0736 233.466 41.2133C233.386 41.353 233.271 41.4628 233.122 41.5426C232.977 41.6175 232.805 41.6549 232.605 41.6549C232.406 41.6549 232.228 41.6175 232.074 41.5426C231.919 41.4678 231.797 41.3655 231.707 41.2358C231.622 41.106 231.58 40.9588 231.58 40.7942H230.936C230.936 40.9987 230.976 41.1908 231.056 41.3705C231.136 41.5451 231.248 41.6998 231.393 41.8345C231.537 41.9643 231.712 42.0666 231.917 42.1414C232.121 42.2163 232.351 42.2537 232.605 42.2537ZM235.284 41.8794C235.284 41.9892 235.324 42.0865 235.404 42.1713C235.489 42.2512 235.586 42.2911 235.696 42.2911C235.81 42.2911 235.908 42.2512 235.988 42.1713C236.067 42.0865 236.107 41.9892 236.107 41.8794C236.107 41.7647 236.067 41.6674 235.988 41.5875C235.908 41.5077 235.81 41.4678 235.696 41.4678C235.586 41.4678 235.489 41.5077 235.404 41.5875C235.324 41.6674 235.284 41.7647 235.284 41.8794ZM235.284 39.0352C235.284 39.145 235.324 39.2423 235.404 39.3271C235.489 39.407 235.586 39.4469 235.696 39.4469C235.81 39.4469 235.908 39.407 235.988 39.3271C236.067 39.2423 236.107 39.145 236.107 39.0352C236.107 38.9205 236.067 38.8232 235.988 38.7433C235.908 38.6635 235.81 38.6236 235.696 38.6236C235.586 38.6236 235.489 38.6635 235.404 38.7433C235.324 38.8232 235.284 38.9205 235.284 39.0352ZM237.416 37.9724L238.576 37.6281V42.1788H239.212V36.8647L237.416 37.3137V37.9724ZM240.336 42.1788H244.034V41.5801H241.646L243.315 39.881C243.52 39.6714 243.687 39.4344 243.817 39.17C243.946 38.9055 244.011 38.6385 244.011 38.3691C244.011 38.2094 243.979 38.0423 243.914 37.8676C243.849 37.693 243.749 37.5308 243.614 37.3811C243.48 37.2264 243.308 37.1017 243.098 37.0069C242.888 36.9071 242.639 36.8572 242.35 36.8572C241.99 36.8572 241.681 36.937 241.421 37.0967C241.167 37.2514 240.972 37.4709 240.838 37.7553C240.703 38.0348 240.636 38.3616 240.636 38.7358H241.272C241.272 38.4714 241.314 38.2444 241.399 38.0547C241.484 37.8601 241.606 37.7129 241.766 37.6131C241.93 37.5084 242.125 37.456 242.35 37.456C242.509 37.456 242.651 37.4834 242.776 37.5383C242.901 37.5932 243.006 37.6655 243.091 37.7553C243.18 37.8452 243.248 37.945 243.293 38.0547C243.338 38.1645 243.36 38.2768 243.36 38.3916C243.36 38.5313 243.338 38.666 243.293 38.7957C243.253 38.9205 243.19 39.0452 243.106 39.17C243.026 39.2897 242.928 39.412 242.814 39.5367L240.336 42.1788Z" fill="white"/>
</g>
<defs>
<linearGradient id="paint0_linear_2_2847" x1="335" y1="51.4644" x2="319.432" y2="-49.3355" gradientUnits="userSpaceOnUse">
<stop stop-color="#F4A93C"/>
<stop offset="1" stop-color="#F4C03C"/>
</linearGradient>
<clipPath id="clip0_2_2847">
<path d="M0 4.98983C0 2.23402 2.23402 0 4.98983 0H251.01C253.766 0 256 2.23402 256 4.98983V46.0102C256 48.766 253.766 51 251.01 51H4.98984C2.23403 51 0 48.766 0 46.0102V4.98983Z" fill="white"/>
</clipPath>
<clipPath id="clip1_2_2847">
<rect width="317" height="25" fill="white" transform="translate(10.5153 7.48474)"/>
</clipPath>
</defs>
</svg>
