<svg width="106" height="20" viewBox="0 0 106 20" fill="none" xmlns="http://www.w3.org/2000/svg">
<path d="M2.74955 15.9068C1.96087 15.9085 1.23226 15.4857 0.84242 14.8001C0.458196 14.1187 0.481236 13.281 0.90233 12.6217L4.82976 6.45432C5.239 5.77951 5.97966 5.37707 6.76851 5.40091C7.55678 5.4198 8.27379 5.86176 8.64485 6.5575C9.01097 7.24979 8.96521 8.08271 8.5267 8.73256L4.60177 14.9C4.19724 15.5303 3.49854 15.9101 2.74955 15.9068Z" fill="#7B7B7B"/>
<path d="M9.48597 15.9065C8.69383 15.9065 7.96493 15.483 7.58217 14.8023C7.1988 14.1228 7.22184 13.2871 7.64208 12.6298L11.562 6.47652C11.9653 5.79202 12.7082 5.38013 13.5024 5.40063C14.3012 5.41811 15.0251 5.86494 15.3913 6.56388C15.7549 7.26283 15.7016 8.10074 15.2498 8.74893L11.3307 14.9022C10.9275 15.5298 10.232 15.9084 9.48597 15.9065Z" fill="#7B7B7B"/>
<path d="M16.0712 15.9593C17.1879 15.9593 18.0932 15.073 18.0932 13.9798C18.0932 12.8865 17.1879 12.0002 16.0712 12.0002C14.9545 12.0002 14.0493 12.8865 14.0493 13.9798C14.0493 15.073 14.9545 15.9593 16.0712 15.9593Z" fill="#7B7B7B"/>
<path d="M103.911 12.114C104.522 12.114 104.887 12.5484 104.887 13.2598V15.6978H105.717V13.204C105.717 11.9942 105.147 11.2928 104.075 11.2928C103.656 11.2928 102.99 11.4076 102.593 12.1789C102.405 11.7154 101.978 11.3926 101.48 11.3385C101.327 11.3104 101.17 11.3012 101.014 11.3111C100.673 11.3385 100.066 11.5507 99.8387 12.0316V11.3851H99.0083V15.6978H99.8387V13.3705C99.8387 12.4652 100.431 12.114 101.024 12.114C101.58 12.114 101.946 12.5392 101.946 13.2506V15.6978H102.771V13.3705C102.771 12.6499 103.204 12.1057 103.911 12.114ZM95.9604 14.9772C96.3398 14.9855 96.706 14.8341 96.9714 14.5595C97.2377 14.2849 97.3791 13.9113 97.365 13.5277C97.365 12.659 96.7259 12.114 95.9604 12.114C95.1941 12.114 94.5559 12.659 94.5559 13.5277C94.5409 13.9105 94.6823 14.2833 94.9469 14.557C95.2115 14.8316 95.576 14.9839 95.9538 14.9772H95.9604ZM95.9604 15.786C94.7472 15.786 93.7346 14.8898 93.7346 13.5227C93.7346 12.1556 94.7472 11.2878 95.9604 11.2878C97.1736 11.2878 98.1946 12.1556 98.1946 13.5227C98.1946 14.8898 97.1678 15.7902 95.9546 15.7902L95.9604 15.786ZM89.4619 13.5227L89.4535 13.5277C89.4535 12.1606 90.4928 11.2928 91.7143 11.2878C92.3349 11.2758 92.9314 11.5273 93.356 11.9801L92.7269 12.5159C92.4571 12.2509 92.0925 12.1047 91.7143 12.1099C90.9488 12.1099 90.2831 12.6549 90.2831 13.5227C90.2831 14.1094 90.6318 14.6377 91.1668 14.8624C91.7018 15.0871 92.3176 14.9622 92.7269 14.5479L93.3651 15.0837C92.9392 15.5411 92.3392 15.7964 91.7143 15.786C90.502 15.786 89.4619 14.8898 89.4619 13.5227ZM86.805 14.8699C86.8032 14.7176 86.862 14.5709 86.9685 14.4619C87.0749 14.353 87.2202 14.2908 87.3725 14.2891C87.5248 14.2908 87.6701 14.353 87.7765 14.4619C87.883 14.5709 87.9418 14.7176 87.94 14.8699C87.9246 15.173 87.676 15.4118 87.3725 15.4149C87.069 15.4118 86.8204 15.173 86.805 14.8699Z" fill="#7B7B7B"/>
<path d="M89.0747 5.90159H86.1199L84.0489 11.2411L81.9886 5.90159H79.0339L82.626 14.3389L80.3919 19.9172H83.325L89.0747 5.90159ZM71.105 10.5945C71.105 11.9425 72.2832 12.8295 73.4407 12.8295C74.5781 12.8295 75.6956 12.0041 75.6956 10.5937C75.6956 9.18333 74.5781 8.35707 73.4407 8.35707C72.2832 8.35707 71.105 9.2449 71.105 10.5937V10.5945ZM75.6956 15.3058V14.2382C75.0965 15.1452 73.6986 15.488 72.9814 15.488C70.6066 15.488 68.231 13.6158 68.231 10.5937C68.231 7.57242 70.6058 5.70023 72.9814 5.70023C73.5796 5.70023 74.9775 5.89993 75.6956 6.94835V5.90492H78.4498V15.3075L75.6956 15.3066V15.3058ZM67.4472 15.3058H64.693V14.1375C64.2328 15.0029 63.117 15.5072 61.9588 15.5072C59.5632 15.5072 57.4472 13.5942 57.4472 10.632C57.4472 7.61402 59.5632 5.69857 61.9588 5.69857C63.1154 5.69857 64.2345 6.18117 64.693 7.04737V0.779297H67.4472V15.3058ZM64.6331 10.5729C64.6331 9.16336 63.6154 8.3371 62.478 8.3371C61.2998 8.3371 60.3212 9.22327 60.3212 10.5729C60.3212 11.9658 61.2998 12.8478 62.4771 12.8478C63.6362 12.8495 64.6331 11.9225 64.6331 10.5729ZM50.6375 10.3299C50.6375 8.90042 51.3763 8.41698 52.354 8.41698C53.2918 8.41698 53.9708 9.04104 53.9708 10.2892V15.3041H56.7449V9.6859C56.7449 7.00826 55.4269 5.69857 53.3309 5.69857C52.2334 5.69857 51.1359 6.32263 50.6366 7.26954V5.90159H47.8641V15.3041H50.6375V10.3299ZM42.2309 15.4655C39.5966 15.4655 37.399 13.5326 37.399 10.5721C37.399 7.60986 39.5941 5.69607 42.2309 5.69607C44.8678 5.69607 47.082 7.60986 47.082 10.5721C47.082 13.5343 44.8653 15.4664 42.2309 15.4664V15.4655ZM42.2309 12.728C43.3875 12.728 44.3469 11.8809 44.3469 10.5729C44.3469 9.30398 43.3884 8.43778 42.2309 8.43778C41.6677 8.42897 41.1256 8.65189 40.7315 9.05435C40.3352 9.45887 40.12 10.0068 40.1349 10.5729C40.1357 11.8826 41.0935 12.728 42.2309 12.728ZM32.4257 8.41781C33.2436 8.41781 33.9625 9.06268 33.9625 10.29V15.3058H36.7167V9.96548C36.7167 7.12642 35.3363 5.6969 33.1238 5.6969C32.4664 5.6969 31.2283 5.8966 30.3297 7.36772C29.8104 6.28019 28.8128 5.71604 27.3383 5.71604C26.2928 5.71072 25.3407 6.31723 24.9036 7.26704V5.90243H22.1278V15.305H24.9012V10.3299C24.9012 8.90042 25.68 8.41698 26.5179 8.41698C27.3167 8.41698 28.0339 9.04104 28.0547 10.2293V15.305H30.8289V10.3299C30.8289 8.96282 31.5478 8.41864 32.4257 8.41864V8.41781Z" fill="#7B7B7B"/>
</svg>
