<svg width="106" height="25" viewBox="0 0 106 25" fill="none" xmlns="http://www.w3.org/2000/svg">
<path d="M1.08121 18.6794C0.955111 18.6066 0.851807 18.428 0.851807 18.2831V6.4126C0.851807 6.2674 0.955111 6.08912 1.08121 6.01612L11.4933 0.0827258C11.6195 0.00985961 11.826 0.00985961 11.9522 0.0827258L22.3637 6.01678C22.4899 6.08964 22.5931 6.26792 22.5931 6.41313V18.2836C22.5931 18.4284 22.4899 18.6068 22.3637 18.68L11.9522 24.6135C11.826 24.6863 11.6195 24.6863 11.4933 24.6135L1.08121 18.6794ZM32.3731 7.59401V12.4087H34.4319C35.9262 12.4087 36.5903 11.8 36.5903 10.8038V9.19891C36.5903 8.2029 35.9262 7.59401 34.4319 7.59401H32.3731ZM32.3731 13.9398V18.238C32.3731 18.4961 32.3067 18.6068 32.0743 18.6068H31.0614C30.8456 18.6068 30.7625 18.4961 30.7625 18.238V6.43197C30.7625 6.17371 30.8456 6.0629 31.0614 6.0629H34.4319C37.2877 6.0629 38.2008 7.39109 38.2008 8.90376V11.0991C38.2008 12.6116 37.2877 13.9398 34.4319 13.9398H32.3731ZM41.9477 7.59401V12.1136H44.0064C45.5008 12.1136 46.165 11.5233 46.165 10.5087V9.19891C46.165 8.2029 45.5008 7.59401 44.0064 7.59401H41.9477ZM41.9477 13.6447V18.238C41.9477 18.4961 41.8812 18.6068 41.6487 18.6068H40.636C40.4201 18.6068 40.3371 18.4961 40.3371 18.238V6.43197C40.3371 6.17371 40.4201 6.0629 40.636 6.0629H44.0064C46.8623 6.0629 47.7754 7.39109 47.7754 8.90376V10.8223C47.7754 11.9475 47.2607 12.9621 45.8328 13.405L47.8252 18.238C47.9082 18.4594 47.7588 18.6068 47.5264 18.6068H46.5301C46.2977 18.6068 46.2645 18.4594 46.165 18.238L44.2886 13.6447H41.9477ZM56.5037 9.05133C56.5037 8.05519 55.8028 7.44643 54.2256 7.44643C52.6659 7.44643 51.965 8.05519 51.965 9.05133V15.6184C51.965 16.6147 52.6659 17.2233 54.2256 17.2233C55.8028 17.2233 56.5037 16.6147 56.5037 15.6184V9.05133ZM50.2476 8.75618C50.2476 7.24351 51.229 5.91545 54.2256 5.91545C57.2397 5.91545 58.2212 7.24351 58.2212 8.75618V15.9137C58.2212 17.4263 57.2397 18.7545 54.2256 18.7545C51.229 18.7545 50.2476 17.4263 50.2476 15.9137V8.75618ZM67.4741 6.0629C67.7019 6.0629 67.807 6.15526 67.807 6.41339V7.24351C67.807 7.50177 67.7019 7.59401 67.4741 7.59401H64.6702V18.238C64.6702 18.4961 64.5826 18.6068 64.3547 18.6068H63.2683C63.0404 18.6068 62.9528 18.4961 62.9528 18.238V7.59401H60.1488C59.9036 7.59401 59.816 7.50177 59.816 7.24351V6.41339C59.816 6.15526 59.9036 6.0629 60.1488 6.0629H67.4741ZM75.6409 9.05133C75.6409 8.05519 74.9399 7.44643 73.3628 7.44643C71.8031 7.44643 71.1021 8.05519 71.1021 9.05133V15.6184C71.1021 16.6147 71.8031 17.2233 73.3628 17.2233C74.9399 17.2233 75.6409 16.6147 75.6409 15.6184V9.05133ZM69.3847 8.75618C69.3847 7.24351 70.3661 5.91545 73.3628 5.91545C76.3769 5.91545 77.3583 7.24351 77.3583 8.75618V15.9137C77.3583 17.4263 76.3769 18.7545 73.3628 18.7545C70.3661 18.7545 69.3847 17.4263 69.3847 15.9137V8.75618ZM87.502 18.2563C87.502 18.4961 87.4356 18.6068 87.2032 18.6068H86.2899C86.1239 18.6068 86.0575 18.5515 85.9912 18.4408L82.0893 10.8408C81.7241 10.1582 81.5249 9.5863 81.4915 9.51251V18.2563C81.4915 18.4961 81.4085 18.6068 81.1927 18.6068H80.2629C80.0471 18.6068 79.9641 18.4961 79.9641 18.2563V6.41339C79.9641 6.17371 80.0471 6.0629 80.2629 6.0629H81.1927C81.3255 6.0629 81.4085 6.11824 81.4583 6.21047L85.4598 13.9767C85.6922 14.4195 85.9746 15.1572 85.9746 15.1572V6.41339C85.9746 6.17371 86.0741 6.0629 86.2899 6.0629H87.2032C87.4356 6.0629 87.502 6.17371 87.502 6.41339V18.2563ZM90.3571 18.6068C90.1414 18.6068 90.0584 18.4961 90.0584 18.238V6.43197C90.0584 6.17371 90.1414 6.0629 90.3571 6.0629H96.0355C96.2514 6.0629 96.351 6.15526 96.351 6.41339V7.24351C96.351 7.50177 96.2514 7.59401 96.0355 7.59401H91.6688V11.3203H95.7365C95.9691 11.3203 96.0687 11.4126 96.0687 11.6708V12.4641C96.0687 12.7039 95.9691 12.8146 95.7365 12.8146H91.6688V17.0758H96.2181C96.434 17.0758 96.5336 17.1496 96.5336 17.4078V18.2563C96.5336 18.5147 96.434 18.6068 96.2181 18.6068H90.3571ZM105.685 6.0629C105.901 6.0629 106.001 6.15526 106.001 6.41339V7.24351C106.001 7.50177 105.901 7.59401 105.685 7.59401H103.028V18.238C103.028 18.4961 102.945 18.6068 102.73 18.6068H101.7C101.484 18.6068 101.401 18.4961 101.401 18.238V7.59401H98.7449C98.5125 7.59401 98.4293 7.50177 98.4293 7.24351V6.41339C98.4293 6.15526 98.5125 6.0629 98.7449 6.0629H105.685Z" fill="#7B7B7B"/>
</svg>
