<svg width="135" height="40" viewBox="0 0 135 40" fill="none" xmlns="http://www.w3.org/2000/svg">
<path d="M130 40H5C2.25 40 0 37.75 0 35V5C0 2.25 2.25 0 5 0H130C132.75 0 135 2.25 135 5V35C135 37.75 132.75 40 130 40Z" fill="black"/>
<path d="M130 0.8C132.32 0.8 134.2 2.68 134.2 5V35C134.2 37.32 132.32 39.2 130 39.2H5C2.68 39.2 0.8 37.32 0.8 35V5C0.8 2.68 2.68 0.8 5 0.8H130ZM130 0H5C2.25 0 0 2.25 0 5V35C0 37.75 2.25 40 5 40H130C132.75 40 135 37.75 135 35V5C135 2.25 132.75 0 130 0Z" fill="#A6A6A6"/>
<path d="M47.4201 10.2401C47.4201 11.0801 47.1701 11.7501 46.6701 12.2401C46.1101 12.8301 45.3701 13.1301 44.4701 13.1301C43.6001 13.1301 42.8701 12.8301 42.2601 12.2301C41.6501 11.6301 41.3501 10.8801 41.3501 10.0001C41.3501 9.11012 41.6501 8.37012 42.2601 7.77012C42.8701 7.17012 43.6001 6.87012 44.4701 6.87012C44.9001 6.87012 45.3101 6.95012 45.7001 7.12012C46.0901 7.29012 46.4001 7.51012 46.6401 7.79012L46.1101 8.32012C45.7101 7.85012 45.1701 7.61012 44.4701 7.61012C43.8401 7.61012 43.2901 7.83012 42.8301 8.28012C42.3701 8.72012 42.1401 9.30012 42.1401 10.0101C42.1401 10.7201 42.3701 11.3001 42.8301 11.7401C43.2901 12.1801 43.8401 12.4101 44.4701 12.4101C45.1401 12.4101 45.7001 12.1901 46.1501 11.7401C46.4401 11.4501 46.6101 11.0401 46.6501 10.5201H44.4701V9.79012H47.3801C47.4001 9.95012 47.4201 10.1001 47.4201 10.2401Z" fill="white" stroke="white" stroke-width="0.2" stroke-miterlimit="10"/>
<path d="M52.03 7.74H49.3V9.64H51.76V10.36H49.3V12.26H52.03V13H48.53V7H52.03V7.74Z" fill="white" stroke="white" stroke-width="0.2" stroke-miterlimit="10"/>
<path d="M55.2801 13H54.5101V7.74H52.8301V7H56.9501V7.74H55.2701V13H55.2801Z" fill="white" stroke="white" stroke-width="0.2" stroke-miterlimit="10"/>
<path d="M59.9402 13V7H60.7102V13H59.9402Z" fill="white" stroke="white" stroke-width="0.2" stroke-miterlimit="10"/>
<path d="M64.1302 13H63.3602V7.74H61.6802V7H65.8002V7.74H64.1202V13H64.1302Z" fill="white" stroke="white" stroke-width="0.2" stroke-miterlimit="10"/>
<path d="M73.6101 12.2201C73.0201 12.8301 72.2901 13.1301 71.4101 13.1301C70.5301 13.1301 69.8001 12.8301 69.2101 12.2201C68.6201 11.6101 68.3301 10.8701 68.3301 10.0001C68.3301 9.13012 68.6201 8.38012 69.2101 7.78012C69.8001 7.17012 70.5301 6.87012 71.4101 6.87012C72.2801 6.87012 73.0101 7.17012 73.6101 7.78012C74.2001 8.39012 74.5001 9.13012 74.5001 10.0001C74.4901 10.8801 74.2001 11.6201 73.6101 12.2201ZM69.7801 11.7201C70.2201 12.1701 70.7701 12.3901 71.4101 12.3901C72.0501 12.3901 72.6001 12.1701 73.0401 11.7201C73.4801 11.2701 73.7101 10.7001 73.7101 10.0001C73.7101 9.30012 73.4901 8.73012 73.0401 8.28012C72.6001 7.83012 72.0501 7.60012 71.4101 7.60012C70.7701 7.60012 70.2201 7.82012 69.7801 8.27012C69.3401 8.73012 69.1101 9.30012 69.1101 10.0001C69.1101 10.7001 69.3401 11.2701 69.7801 11.7201Z" fill="white" stroke="white" stroke-width="0.2" stroke-miterlimit="10"/>
<path d="M75.5801 13V7H76.5201L79.4401 11.67H79.4701L79.4401 10.51V7H80.2101V13H79.4101L76.3601 8.11H76.3301L76.3601 9.27V13H75.5801Z" fill="white" stroke="white" stroke-width="0.2" stroke-miterlimit="10"/>
<path d="M68.14 21.75C65.79 21.75 63.87 23.54 63.87 26C63.87 28.45 65.79 30.25 68.14 30.25C70.49 30.25 72.41 28.45 72.41 26C72.41 23.54 70.49 21.75 68.14 21.75ZM68.14 28.58C66.85 28.58 65.74 27.5201 65.74 26C65.74 24.47 66.85 23.42 68.14 23.42C69.43 23.42 70.54 24.47 70.54 26C70.54 27.5201 69.42 28.58 68.14 28.58ZM58.82 21.75C56.47 21.75 54.55 23.54 54.55 26C54.55 28.45 56.47 30.25 58.82 30.25C61.17 30.25 63.09 28.45 63.09 26C63.09 23.54 61.17 21.75 58.82 21.75ZM58.82 28.58C57.53 28.58 56.42 27.5201 56.42 26C56.42 24.47 57.53 23.42 58.82 23.42C60.11 23.42 61.22 24.47 61.22 26C61.22 27.5201 60.11 28.58 58.82 28.58ZM47.74 23.06V24.8601H52.06C51.93 25.8701 51.59 26.62 51.08 27.13C50.45 27.76 49.47 28.4501 47.75 28.4501C45.09 28.4501 43.01 26.31 43.01 23.65C43.01 20.99 45.09 18.85 47.75 18.85C49.18 18.85 50.23 19.41 51 20.14L52.27 18.8701C51.19 17.8401 49.76 17.05 47.74 17.05C44.1 17.05 41.04 20.01 41.04 23.66C41.04 27.3 44.1 30.2701 47.74 30.2701C49.71 30.2701 51.19 29.63 52.35 28.42C53.54 27.23 53.91 25.5501 53.91 24.2001C53.91 23.7801 53.88 23.39 53.81 23.07H47.74V23.06ZM93.05 24.46C92.7 23.51 91.62 21.75 89.41 21.75C87.22 21.75 85.4 23.47 85.4 26C85.4 28.38 87.2 30.25 89.62 30.25C91.57 30.25 92.7 29.0601 93.16 28.3701L91.71 27.4C91.23 28.11 90.57 28.58 89.62 28.58C88.67 28.58 87.99 28.1401 87.56 27.2901L93.25 24.9401L93.05 24.46ZM87.25 25.88C87.2 24.24 88.52 23.4 89.47 23.4C90.21 23.4 90.84 23.77 91.05 24.3L87.25 25.88ZM82.63 30H84.5V17.5H82.63V30ZM79.57 22.7001H79.5C79.08 22.2001 78.28 21.75 77.26 21.75C75.13 21.75 73.18 23.62 73.18 26.0201C73.18 28.4001 75.13 30.26 77.26 30.26C78.27 30.26 79.08 29.8101 79.5 29.2901H79.56V29.9C79.56 31.53 78.69 32.4001 77.29 32.4001C76.15 32.4001 75.44 31.58 75.15 30.89L73.52 31.57C73.99 32.7 75.23 34.0801 77.29 34.0801C79.48 34.0801 81.33 32.79 81.33 29.65V22.01H79.56V22.7001H79.57ZM77.42 28.58C76.13 28.58 75.05 27.5 75.05 26.0201C75.05 24.5201 76.13 23.43 77.42 23.43C78.69 23.43 79.69 24.5301 79.69 26.0201C79.7 27.5 78.7 28.58 77.42 28.58ZM101.81 17.5H97.34V30H99.21V25.26H101.82C103.89 25.26 105.92 23.76 105.92 21.38C105.92 19 103.87 17.5 101.81 17.5ZM101.85 23.5201H99.2V19.23H101.85C103.25 19.23 104.04 20.3901 104.04 21.3701C104.04 22.3501 103.25 23.5201 101.85 23.5201ZM113.39 21.73C112.04 21.73 110.64 22.33 110.06 23.64L111.72 24.33C112.07 23.64 112.73 23.41 113.42 23.41C114.39 23.41 115.37 23.9901 115.38 25.0201V25.15C115.04 24.96 114.32 24.67 113.43 24.67C111.64 24.67 109.83 25.65 109.83 27.48C109.83 29.15 111.29 30.23 112.93 30.23C114.18 30.23 114.88 29.67 115.31 29.01H115.37V29.98H117.17V25.1901C117.18 22.97 115.52 21.73 113.39 21.73ZM113.16 28.58C112.55 28.58 111.7 28.2701 111.7 27.5201C111.7 26.5601 112.76 26.1901 113.68 26.1901C114.5 26.1901 114.89 26.3701 115.38 26.6101C115.24 27.76 114.24 28.58 113.16 28.58ZM123.74 22L121.6 27.42H121.54L119.32 22H117.31L120.64 29.58L118.74 33.7901H120.69L125.82 22H123.74ZM106.94 30H108.81V17.5H106.94V30Z" fill="white"/>
<path d="M10.44 7.53997C10.15 7.84997 9.97998 8.32997 9.97998 8.93997V31.06C9.97998 31.68 10.15 32.16 10.44 32.46L10.51 32.53L22.9 20.15V20V19.85L10.51 7.46997L10.44 7.53997Z" fill="url(#paint0_linear_78_5737)"/>
<path d="M27.0299 24.28L22.8999 20.15V20V19.85L27.0299 15.72L27.1199 15.77L32.0099 18.55C33.4099 19.34 33.4099 20.64 32.0099 21.44L27.1199 24.22L27.0299 24.28Z" fill="url(#paint1_linear_78_5737)"/>
<path d="M27.1199 24.23L22.8999 20L10.4399 32.46C10.8999 32.95 11.6599 33.01 12.5199 32.52L27.1199 24.23Z" fill="url(#paint2_linear_78_5737)"/>
<path d="M27.1199 15.78L12.5099 7.47999C11.6499 6.98999 10.8899 7.04999 10.4299 7.53999L22.8999 20L27.1199 15.78Z" fill="url(#paint3_linear_78_5737)"/>
<path opacity="0.2" d="M27.0299 24.1299L12.5099 32.3799C11.6999 32.8399 10.9699 32.8099 10.5099 32.3899L10.4399 32.4599L10.5099 32.5299C10.9799 32.9499 11.6999 32.9799 12.5099 32.5199L27.1199 24.2199L27.0299 24.1299Z" fill="black"/>
<path opacity="0.12" d="M10.44 32.3199C10.15 32.0099 9.97998 31.5299 9.97998 30.9199V31.0699C9.97998 31.6899 10.15 32.1699 10.44 32.4699L10.51 32.3999L10.44 32.3199Z" fill="black"/>
<path opacity="0.12" d="M32.01 21.3L27.02 24.13L27.11 24.22L32 21.44C32.7 21.04 33.05 20.52 33.05 20C33 20.47 32.65 20.94 32.01 21.3Z" fill="black"/>
<path opacity="0.25" d="M12.51 7.61994L32.01 18.6999C32.64 19.0599 33 19.5199 33.06 19.9999C33.06 19.4799 32.71 18.9499 32.01 18.5599L12.51 7.47994C11.11 6.68994 9.96997 7.34994 9.96997 8.94994V9.09994C9.96997 7.48994 11.12 6.82994 12.51 7.61994Z" fill="white"/>
<defs>
<linearGradient id="paint0_linear_78_5737" x1="21.7996" y1="8.70977" x2="5.01718" y2="25.4922" gradientUnits="userSpaceOnUse">
<stop stop-color="#00A0FF"/>
<stop offset="0.00657445" stop-color="#00A1FF"/>
<stop offset="0.2601" stop-color="#00BEFF"/>
<stop offset="0.5122" stop-color="#00D2FF"/>
<stop offset="0.7604" stop-color="#00DFFF"/>
<stop offset="1" stop-color="#00E3FF"/>
</linearGradient>
<linearGradient id="paint1_linear_78_5737" x1="33.8342" y1="20.0015" x2="9.6373" y2="20.0015" gradientUnits="userSpaceOnUse">
<stop stop-color="#FFE000"/>
<stop offset="0.4087" stop-color="#FFBD00"/>
<stop offset="0.7754" stop-color="#FFA500"/>
<stop offset="1" stop-color="#FF9C00"/>
</linearGradient>
<linearGradient id="paint2_linear_78_5737" x1="24.8268" y1="22.2962" x2="2.06854" y2="45.0544" gradientUnits="userSpaceOnUse">
<stop stop-color="#FF3A44"/>
<stop offset="1" stop-color="#C31162"/>
</linearGradient>
<linearGradient id="paint3_linear_78_5737" x1="7.29713" y1="0.176187" x2="17.4597" y2="10.3388" gradientUnits="userSpaceOnUse">
<stop stop-color="#32A071"/>
<stop offset="0.0685" stop-color="#2DA771"/>
<stop offset="0.4762" stop-color="#15CF74"/>
<stop offset="0.8009" stop-color="#06E775"/>
<stop offset="1" stop-color="#00F076"/>
</linearGradient>
</defs>
</svg>
