<svg width="108" height="34" viewBox="0 0 108 34" fill="none" xmlns="http://www.w3.org/2000/svg">
<path d="M19.6167 9.02493H20.2042V8.4374H19.6167V9.02493ZM18.756 23.7787L19.2776 24.0492L19.2784 24.0476L18.756 23.7787ZM16.1741 26.3484L16.4458 26.8693L16.4487 26.8678L16.1741 26.3484ZM4.23581 9.02493V8.4374H3.64828V9.02493H4.23581ZM9.11686 9.02493H9.70439V8.4374H9.11686V9.02493ZM13.5553 22.832L13.8532 23.3385L13.8605 23.3341L13.5553 22.832ZM14.4651 21.6394L13.9129 21.4386L13.9103 21.4461L14.4651 21.6394ZM14.7602 9.02493V8.4374H14.1727V9.02493H14.7602ZM19.0291 9.02493V19.8444H20.2042V9.02493H19.0291ZM19.0291 19.8444C19.0291 21.2778 18.7567 22.4936 18.2336 23.5099L19.2784 24.0476C19.9028 22.8345 20.2042 21.4273 20.2042 19.8444H19.0291ZM18.2344 23.5083C17.7181 24.5041 16.9459 25.2758 15.8996 25.8289L16.4487 26.8678C17.6973 26.2078 18.6464 25.2665 19.2776 24.0492L18.2344 23.5083ZM15.9025 25.8274C14.8622 26.3698 13.524 26.6584 11.8586 26.6584V27.8334C13.6522 27.8334 15.191 27.5236 16.4458 26.8693L15.9025 25.8274ZM11.8586 26.6584C9.48011 26.6584 7.75969 26.0492 6.60081 24.9195L5.78057 25.7609C7.22819 27.1721 9.28639 27.8334 11.8586 27.8334V26.6584ZM6.60081 24.9195C5.44007 23.7879 4.82334 22.1621 4.82334 19.955H3.64828C3.64828 22.3873 4.3348 24.3515 5.78057 25.7609L6.60081 24.9195ZM4.82334 19.955V9.02493H3.64828V19.955H4.82334ZM4.23581 9.61246H9.11686V8.4374H4.23581V9.61246ZM8.52933 9.02493V19.5739H9.70439V9.02493H8.52933ZM8.52933 19.5739C8.52933 20.8932 8.77159 21.9838 9.37755 22.7151L10.2824 21.9654C9.93754 21.5492 9.70439 20.7955 9.70439 19.5739H8.52933ZM9.37755 22.7151C9.99115 23.4556 10.8776 23.7884 11.9324 23.7884V22.6134C11.1347 22.6134 10.6196 22.3724 10.2824 21.9654L9.37755 22.7151ZM11.9324 23.7884C12.664 23.7884 13.3175 23.6536 13.8532 23.3385L13.2574 22.3256C12.957 22.5023 12.5286 22.6134 11.9324 22.6134V23.7884ZM13.8605 23.3341C14.4143 22.9974 14.7946 22.4794 15.0199 21.8328L13.9103 21.4461C13.7586 21.8814 13.5323 22.1585 13.2501 22.33L13.8605 23.3341ZM15.0173 21.8402C15.2458 21.2119 15.3477 20.4405 15.3477 19.5493H14.1727C14.1727 20.3631 14.0779 20.9851 13.913 21.4387L15.0173 21.8402ZM15.3477 19.5493V9.02493H14.1727V19.5493H15.3477ZM14.7602 9.61246H19.6167V8.4374H14.7602V9.61246ZM32.3418 12.8855L32.2587 13.4671L32.2669 13.4683L32.2751 13.4692L32.3418 12.8855ZM32.9812 12.9716L33.5661 13.0271L33.6173 12.4872L33.0833 12.393L32.9812 12.9716ZM32.5508 17.5084L32.4013 18.0766L33.0704 18.2526L33.1358 17.5639L32.5508 17.5084ZM31.9484 17.41L31.8708 17.9924L31.8803 17.9937L31.8899 17.9946L31.9484 17.41ZM28.9608 17.8157L29.261 18.3208L29.265 18.3184L28.9608 17.8157ZM28.2108 18.6518L28.7292 18.9283L28.7317 18.9236L28.2108 18.6518ZM27.9157 27V27.5875H28.5032V27H27.9157ZM23.1084 27H22.5209V27.5875H23.1084V27ZM23.1084 13.0699V12.4824H22.5209V13.0699H23.1084ZM26.6862 13.0699L27.243 12.8823L27.1082 12.4824H26.6862V13.0699ZM27.4362 15.2953L26.8794 15.4829L27.0142 15.8828H27.4362V15.2953ZM27.6698 15.2953V15.8828H28.0161L28.1838 15.5799L27.6698 15.2953ZM28.6411 14.0535L29.0429 14.4821L29.0432 14.4819L28.6411 14.0535ZM29.9812 13.156L29.7434 12.6187L29.7401 12.6202L29.9812 13.156ZM31.5181 13.4116C31.7499 13.4116 31.9966 13.4297 32.2587 13.4671L32.4249 12.3039C32.1133 12.2594 31.8109 12.2365 31.5181 12.2365V13.4116ZM32.2751 13.4692C32.5597 13.5018 32.7581 13.5288 32.8791 13.5502L33.0833 12.393C32.9255 12.3651 32.6978 12.3348 32.4086 12.3018L32.2751 13.4692ZM32.3963 12.9161L31.9659 17.4529L33.1358 17.5639L33.5661 13.0271L32.3963 12.9161ZM32.7004 16.9402C32.5034 16.8884 32.2691 16.8516 32.0069 16.8254L31.8899 17.9946C32.1195 18.0176 32.2868 18.0464 32.4013 18.0766L32.7004 16.9402ZM32.0261 16.8276C31.7419 16.7898 31.3675 16.7733 30.9156 16.7733V17.9484C31.349 17.9484 31.6631 17.9647 31.8708 17.9924L32.0261 16.8276ZM30.9156 16.7733C30.5756 16.7733 30.2193 16.8054 29.8478 16.8674L30.0409 18.0264C30.3579 17.9736 30.6491 17.9484 30.9156 17.9484V16.7733ZM29.8478 16.8674C29.4269 16.9375 29.0289 17.0877 28.6565 17.3131L29.265 18.3184C29.5155 18.1667 29.7733 18.071 30.0409 18.0264L29.8478 16.8674ZM28.6605 17.3107C28.2458 17.5573 27.9266 17.9262 27.6899 18.38L28.7317 18.9236C28.8883 18.6233 29.0692 18.4348 29.261 18.3207L28.6605 17.3107ZM27.6924 18.3753C27.4329 18.8617 27.3282 19.4693 27.3282 20.1518H28.5032C28.5032 19.572 28.5952 19.1796 28.7292 18.9283L27.6924 18.3753ZM27.3282 20.1518V27H28.5032V20.1518H27.3282ZM27.9157 26.4125H23.1084V27.5875H27.9157V26.4125ZM23.6959 27V13.0699H22.5209V27H23.6959ZM23.1084 13.6575H26.6862V12.4824H23.1084V13.6575ZM26.1294 13.2576L26.8794 15.4829L27.993 15.1077L27.243 12.8823L26.1294 13.2576ZM27.4362 15.8828H27.6698V14.7078H27.4362V15.8828ZM28.1838 15.5799C28.4074 15.1759 28.6929 14.8103 29.0429 14.4821L28.2393 13.6249C27.8024 14.0344 27.4403 14.4967 27.1558 15.0108L28.1838 15.5799ZM29.0432 14.4819C29.3985 14.1483 29.7911 13.8858 30.2223 13.6918L29.7401 12.6202C29.1878 12.8688 28.6869 13.2046 28.239 13.6252L29.0432 14.4819ZM30.219 13.6933C30.6474 13.5037 31.0789 13.4116 31.5181 13.4116V12.2365C30.9081 12.2365 30.3151 12.3657 29.7434 12.6187L30.219 13.6933ZM45.8662 14.1396L45.477 14.5797L45.479 14.5815L45.8662 14.1396ZM47.3539 27V27.5875H47.9414V27H47.3539ZM44.0219 27L43.4964 27.2628L43.6588 27.5875H44.0219V27ZM43.0998 25.1558L43.6253 24.893L43.4629 24.5682H43.0998V25.1558ZM43.0015 25.1558V24.5682H42.7191L42.5427 24.7887L43.0015 25.1558ZM41.7843 26.3607L42.1338 26.833L42.1353 26.8318L41.7843 26.3607ZM40.3704 27.0246L40.2217 26.4561L40.2136 26.4584L40.3704 27.0246ZM40.2228 18.2092L40.2042 17.6219L40.1958 17.6223L40.2228 18.2092ZM42.5466 18.1354L42.5652 18.7226L43.1341 18.7046V18.1354H42.5466ZM42.0794 16.6108L41.695 17.0553L41.7009 17.0603L42.0794 16.6108ZM39.0056 16.5125L39.1643 17.0782L39.1688 17.0769L39.0056 16.5125ZM36.977 17.2502L36.4388 17.4859L36.6761 18.0276L37.2162 17.7868L36.977 17.2502ZM35.5877 14.0781L35.3207 13.5548L34.8273 13.8065L35.0495 14.3138L35.5877 14.0781ZM42.5712 20.7788H43.1587V20.1646L42.5451 20.1919L42.5712 20.7788ZM41.4646 20.828L41.4864 21.4151L41.4907 21.4149L41.4646 20.828ZM39.5958 21.2952L39.9535 21.7613L39.955 21.7601L39.5958 21.2952ZM39.4483 23.5206L39.0544 23.9566L39.0624 23.9636L39.4483 23.5206ZM41.9441 23.2992L41.5554 22.8587L41.5511 22.8625L41.9441 23.2992ZM41.7351 13.4116C43.4022 13.4116 44.6239 13.8253 45.477 14.5797L46.2554 13.6995C45.1249 12.6998 43.5926 12.2365 41.7351 12.2365V13.4116ZM45.479 14.5815C46.3154 15.3142 46.7663 16.3782 46.7663 17.8649H47.9414C47.9414 16.1222 47.4006 14.7027 46.2533 13.6976L45.479 14.5815ZM46.7663 17.8649V27H47.9414V17.8649H46.7663ZM47.3539 26.4125H44.0219V27.5875H47.3539V26.4125ZM44.5474 26.7372L43.6253 24.893L42.5743 25.4185L43.4964 27.2628L44.5474 26.7372ZM43.0998 24.5682H43.0015V25.7433H43.0998V24.5682ZM42.5427 24.7887C42.1743 25.2492 41.8037 25.6135 41.4332 25.8895L42.1353 26.8318C42.6009 26.4849 43.0418 26.0459 43.4603 25.5228L42.5427 24.7887ZM41.4348 25.8884C41.0898 26.1436 40.6879 26.3343 40.2217 26.4562L40.519 27.593C41.1184 27.4362 41.6591 27.1842 42.1338 26.8329L41.4348 25.8884ZM40.2136 26.4584C39.7475 26.5874 39.1521 26.6584 38.4155 26.6584V27.8334C39.2198 27.8334 39.9277 27.7568 40.5272 27.5908L40.2136 26.4584ZM38.4155 26.6584C37.6943 26.6584 37.0667 26.5118 36.5197 26.2313L35.9835 27.2769C36.7152 27.6521 37.5301 27.8334 38.4155 27.8334V26.6584ZM36.5197 26.2313C35.99 25.9596 35.5687 25.5494 35.2529 24.9811L34.2257 25.5518C34.6477 26.3113 35.2346 26.8928 35.9835 27.2769L36.5197 26.2313ZM35.2529 24.9811C34.9462 24.429 34.7736 23.695 34.7736 22.746H33.5985C33.5985 23.8297 33.7947 24.776 34.2257 25.5518L35.2529 24.9811ZM34.7736 22.746C34.7736 21.4057 35.2267 20.4982 36.0716 19.9081L35.3988 18.9447C34.1782 19.7972 33.5985 21.1027 33.5985 22.746H34.7736ZM36.0716 19.9081C36.9758 19.2766 38.345 18.8838 40.2498 18.7961L40.1958 17.6223C38.1827 17.7149 36.5602 18.1336 35.3988 18.9447L36.0716 19.9081ZM40.2415 18.7964L42.5652 18.7226L42.5279 17.5482L40.2042 17.6219L40.2415 18.7964ZM43.1341 18.1354V17.9387H41.959V18.1354H43.1341ZM43.1341 17.9387C43.1341 17.235 42.9592 16.5837 42.4578 16.1614L41.7009 17.0603C41.8224 17.1626 41.959 17.3965 41.959 17.9387H43.1341ZM42.4637 16.1665C42.0259 15.7879 41.4658 15.6299 40.8499 15.6299V16.8049C41.2667 16.8049 41.5262 16.9093 41.695 17.0552L42.4637 16.1665ZM40.8499 15.6299C40.2322 15.6299 39.5613 15.7402 38.8424 15.9481L39.1688 17.0769C39.8106 16.8913 40.3692 16.8049 40.8499 16.8049V15.6299ZM38.847 15.9468C38.1456 16.1435 37.4425 16.3994 36.7378 16.7136L37.2162 17.7868C37.8722 17.4944 38.5215 17.2585 39.1643 17.0782L38.847 15.9468ZM37.5152 17.0145L36.1259 13.8424L35.0495 14.3138L36.4388 17.4859L37.5152 17.0145ZM35.8547 14.6015C36.6053 14.2185 37.4647 13.9227 38.4377 13.7187L38.1966 12.5687C37.1368 12.7909 36.1766 13.118 35.3207 13.5548L35.8547 14.6015ZM38.4377 13.7187C39.407 13.5155 40.505 13.4116 41.7351 13.4116V12.2365C40.4407 12.2365 39.26 12.3457 38.1966 12.5687L38.4377 13.7187ZM42.5451 20.1919L41.4385 20.241L41.4907 21.4149L42.5972 21.3658L42.5451 20.1919ZM41.4429 20.2409C40.5327 20.2746 39.7501 20.4334 39.2366 20.8303L39.955 21.7601C40.1628 21.5996 40.6261 21.447 41.4864 21.4151L41.4429 20.2409ZM39.2381 20.8291C38.7186 21.2278 38.4796 21.8022 38.4796 22.4632H39.6547C39.6547 22.1078 39.7681 21.9036 39.9535 21.7613L39.2381 20.8291ZM38.4796 22.4632C38.4796 23.038 38.6349 23.5776 39.0544 23.9566L39.8421 23.0845C39.7534 23.0045 39.6547 22.8392 39.6547 22.4632H38.4796ZM39.0624 23.9636C39.4474 24.299 39.932 24.44 40.4564 24.44V23.265C40.1449 23.265 39.9573 23.1848 39.8341 23.0775L39.0624 23.9636ZM40.4564 24.44C41.1747 24.44 41.8131 24.2076 42.3372 23.736L41.5511 22.8625C41.2555 23.1286 40.9021 23.265 40.4564 23.265V24.44ZM42.3328 23.7398C42.8854 23.2522 43.1587 22.6083 43.1587 21.8608H41.9836C41.9836 22.2935 41.8389 22.6086 41.5554 22.8587L42.3328 23.7398ZM43.1587 21.8608V20.7788H41.9836V21.8608H43.1587ZM57.9151 13.8322L57.5105 14.2582L57.5159 14.2634L57.5215 14.2684L57.9151 13.8322ZM58.7881 14.865L58.2928 15.1811L58.4661 15.4525H58.7881V14.865ZM58.8864 14.865V15.4525H59.5773L59.4663 14.7706L58.8864 14.865ZM58.7266 13.4142L58.1409 13.4604L58.1409 13.461L58.7266 13.4142ZM58.6528 7.86921V7.28168H58.0653V7.86921H58.6528ZM63.497 7.86921H64.0845V7.28168H63.497V7.86921ZM63.497 27V27.5875H64.0845V27H63.497ZM59.87 27L59.3634 27.2976L59.5337 27.5875H59.87V27ZM58.8372 25.2418L59.3438 24.9443L59.1735 24.6543H58.8372V25.2418ZM58.6528 25.2418V24.6543H58.3202L58.149 24.9396L58.6528 25.2418ZM57.8168 26.25L57.4231 25.8138L57.4178 25.8187L57.8168 26.25ZM56.6119 26.9754L56.4035 26.4261L56.4003 26.4273L56.6119 26.9754ZM58.5422 22.7214L58.0496 22.4012L58.0482 22.4033L58.5422 22.7214ZM59.0586 20.4837L59.6459 20.4982L59.6461 20.491V20.4837H59.0586ZM58.5913 17.5821L58.0687 17.8507L58.0733 17.8594L58.5913 17.5821ZM55.4439 22.6599L54.9642 22.9994L54.9703 23.0077L55.4439 22.6599ZM54.9521 26.6584C53.7157 26.6584 52.7033 26.1454 51.8793 25.0589L50.943 25.769C51.9715 27.1251 53.3197 27.8334 54.9521 27.8334V26.6584ZM51.8793 25.0589C51.0622 23.9815 50.6094 22.3423 50.6094 20.0534H49.4343C49.4343 22.4694 49.9077 24.4039 50.943 25.769L51.8793 25.0589ZM50.6094 20.0534C50.6094 17.7409 51.0741 16.0927 51.9116 15.0169L50.9844 14.295C49.9204 15.6618 49.4343 17.6119 49.4343 20.0534H50.6094ZM51.9116 15.0169C52.7545 13.9342 53.815 13.4116 55.1365 13.4116V12.2365C53.4416 12.2365 52.0431 12.9352 50.9844 14.295L51.9116 15.0169ZM55.1365 13.4116C55.7049 13.4116 56.1641 13.4941 56.5289 13.64L56.9653 12.549C56.4285 12.3343 55.814 12.2365 55.1365 12.2365V13.4116ZM56.5289 13.64C56.9157 13.7947 57.2405 14.0017 57.5105 14.2582L58.3198 13.4063C57.934 13.0398 57.4802 12.755 56.9653 12.549L56.5289 13.64ZM57.5215 14.2684C57.8181 14.536 58.075 14.8398 58.2928 15.1811L59.2833 14.5489C59.0093 14.1197 58.6843 13.7349 58.3088 13.396L57.5215 14.2684ZM58.7881 15.4525H58.8864V14.2775H58.7881V15.4525ZM59.4663 14.7706C59.4127 14.4412 59.3609 13.9758 59.3122 13.3673L58.1409 13.461C58.1906 14.0821 58.2454 14.5839 58.3065 14.9594L59.4663 14.7706ZM59.3123 13.3679C59.2643 12.7595 59.2404 12.1684 59.2404 11.5946H58.0653C58.0653 12.201 58.0906 12.823 58.1409 13.4604L59.3123 13.3679ZM59.2404 11.5946V7.86921H58.0653V11.5946H59.2404ZM58.6528 8.45674H63.497V7.28168H58.6528V8.45674ZM62.9095 7.86921V27H64.0845V7.86921H62.9095ZM63.497 26.4125H59.87V27.5875H63.497V26.4125ZM60.3766 26.7024L59.3438 24.9443L58.3307 25.5394L59.3634 27.2976L60.3766 26.7024ZM58.8372 24.6543H58.6528V25.8294H58.8372V24.6543ZM58.149 24.9396C57.9591 25.256 57.7183 25.5475 57.4231 25.8138L58.2104 26.6862C58.5873 26.346 58.9039 25.9654 59.1566 25.5441L58.149 24.9396ZM57.4178 25.8187C57.1524 26.0642 56.8181 26.2688 56.4035 26.4261L56.8202 27.5247C57.3565 27.3214 57.8254 27.0424 58.2157 26.6813L57.4178 25.8187ZM56.4003 26.4273C56.0164 26.5755 55.5382 26.6584 54.9521 26.6584V27.8334C55.6446 27.8334 56.2729 27.736 56.8234 27.5235L56.4003 26.4273ZM56.9192 24.0343C57.814 24.0343 58.5811 23.7459 59.0361 23.0395L58.0482 22.4033C57.8803 22.664 57.5655 22.8593 56.9192 22.8593V24.0343ZM59.0348 23.0416C59.4421 22.4149 59.6203 21.5392 59.6459 20.4982L58.4712 20.4693C58.4476 21.4283 58.2815 22.0443 58.0496 22.4012L59.0348 23.0416ZM59.6461 20.4837V20.1026H58.471V20.4837H59.6461ZM59.6461 20.1026C59.6461 18.9642 59.4873 18.011 59.1094 17.3049L58.0733 17.8594C58.3184 18.3172 58.471 19.0443 58.471 20.1026H59.6461ZM59.1139 17.3136C58.6812 16.4716 57.8635 16.1094 56.8701 16.1094V17.2844C57.5651 17.2844 57.8949 17.5124 58.0688 17.8507L59.1139 17.3136ZM56.8701 16.1094C56.0653 16.1094 55.4217 16.5171 54.9572 17.2038L55.9305 17.8622C56.2201 17.4341 56.5273 17.2844 56.8701 17.2844V16.1094ZM54.9572 17.2038C54.4816 17.9068 54.2908 18.9146 54.2908 20.1272H55.4658C55.4658 18.9956 55.652 18.2738 55.9305 17.8622L54.9572 17.2038ZM54.2908 20.1272C54.2908 21.322 54.481 22.3164 54.9643 22.9993L55.9234 22.3205C55.6527 21.9379 55.4658 21.2438 55.4658 20.1272H54.2908ZM54.9703 23.0077C55.455 23.6676 56.1156 24.0343 56.9192 24.0343V22.8593C56.5262 22.8593 56.2032 22.7014 55.9174 22.3122L54.9703 23.0077ZM71.6608 13.0699H72.2483V12.4824H71.6608V13.0699ZM71.6608 27V27.5875H72.2483V27H71.6608ZM66.8535 27H66.266V27.5875H66.8535V27ZM66.8535 13.0699V12.4824H66.266V13.0699H66.8535ZM71.0706 7.8938L70.7818 8.40545L70.7853 8.40739L71.0706 7.8938ZM71.0706 11.2872L71.3595 11.7988L71.3621 11.7973L71.0706 11.2872ZM67.4682 11.2872L67.1659 11.7911L67.1758 11.7968L67.4682 11.2872ZM67.4682 7.8938L67.1758 7.38418L67.1722 7.3863L67.4682 7.8938ZM71.0732 13.0699V27H72.2483V13.0699H71.0732ZM71.6608 26.4125H66.8535V27.5875H71.6608V26.4125ZM67.441 27V13.0699H66.266V27H67.441ZM66.8535 13.6575H71.6608V12.4824H66.8535V13.6575ZM69.2756 8.05101C69.8812 8.05101 70.3764 8.17658 70.7818 8.40544L71.3595 7.38216C70.7485 7.03726 70.047 6.87595 69.2756 6.87595V8.05101ZM70.7853 8.40739C71.0385 8.54805 71.2577 8.85855 71.2577 9.60278H72.4327C72.4327 8.64213 72.1355 7.81331 71.356 7.38021L70.7853 8.40739ZM71.2577 9.60278C71.2577 10.3125 71.0441 10.6257 70.7791 10.7771L71.3621 11.7973C72.1299 11.3586 72.4327 10.5487 72.4327 9.60278H71.2577ZM70.7818 10.7755C70.3764 11.0044 69.8812 11.13 69.2756 11.13V12.305C70.047 12.305 70.7485 12.1437 71.3595 11.7988L70.7818 10.7755ZM69.2756 11.13C68.6505 11.13 68.1538 11.0032 67.7606 10.7776L67.1758 11.7968C67.7827 12.145 68.4908 12.305 69.2756 12.305V11.13ZM67.7705 10.7834C67.5275 10.6375 67.3181 10.3246 67.3181 9.60278H66.143C66.143 10.5367 66.4254 11.3467 67.166 11.791L67.7705 10.7834ZM67.3181 9.60278C67.3181 8.84648 67.5328 8.5363 67.7643 8.4013L67.1722 7.3863C66.42 7.82506 66.143 8.65421 66.143 9.60278H67.3181ZM67.7606 8.4034C68.1538 8.17782 68.6505 8.05101 69.2756 8.05101V6.87595C68.4908 6.87595 67.7827 7.03602 67.1758 7.3842L67.7606 8.4034ZM83.2302 27V27.5875H83.8178V27H83.2302ZM78.3738 27H77.7862V27.5875H78.3738V27ZM78.3738 12.9962H78.9613V12.4086H78.3738V12.9962ZM73.9845 12.9962H73.397V13.5837H73.9845V12.9962ZM73.9845 9.02493V8.4374H73.397V9.02493H73.9845ZM87.6072 9.02493H88.1947V8.4374H87.6072V9.02493ZM87.6072 12.9962V13.5837H88.1947V12.9962H87.6072ZM83.2302 12.9962V12.4086H82.6427V12.9962H83.2302ZM83.2302 26.4125H78.3738V27.5875H83.2302V26.4125ZM78.9613 27V12.9962H77.7862V27H78.9613ZM78.3738 12.4086H73.9845V13.5837H78.3738V12.4086ZM74.572 12.9962V9.02493H73.397V12.9962H74.572ZM73.9845 9.61246H87.6072V8.4374H73.9845V9.61246ZM87.0197 9.02493V12.9962H88.1947V9.02493H87.0197ZM87.6072 12.4086H83.2302V13.5837H87.6072V12.4086ZM82.6427 12.9962V27H83.8178V12.9962H82.6427ZM99.1275 26.7787L99.3274 27.3312L99.332 27.3295L99.1275 26.7787ZM93.435 26.7787L93.2251 27.3275L93.2316 27.3299L93.435 26.7787ZM89.7957 23.1025L89.2451 23.3077L89.2468 23.3121L89.7957 23.1025ZM90.1276 16.0945L89.6087 15.819L89.607 15.8221L90.1276 16.0945ZM92.5374 13.6601L92.2618 13.1412L92.2601 13.1421L92.5374 13.6601ZM102.3 16.0945L101.786 16.3791L101.787 16.3821L102.3 16.0945ZM94.3817 22.0206L93.8122 22.1651L93.8127 22.1671L94.3817 22.0206ZM95.0456 23.2624L94.6418 23.6892L94.6478 23.6948L94.6538 23.7002L95.0456 23.2624ZM97.4554 23.2624L97.8588 23.6896L97.8649 23.6836L97.4554 23.2624ZM98.0947 22.0206L97.5252 21.8761L97.5237 21.8822L98.0947 22.0206ZM98.0947 18.0125L97.5241 18.1529L97.5263 18.1611L98.0947 18.0125ZM97.4431 16.8076L97.046 17.2407L97.052 17.246L97.4431 16.8076ZM94.6522 17.3117L94.1353 17.0323L94.1324 17.0377L94.6522 17.3117ZM102.61 20.0042C102.61 21.1153 102.457 22.0796 102.164 22.9062L103.271 23.2989C103.618 22.3222 103.785 21.221 103.785 20.0042H102.61ZM102.164 22.9062C101.87 23.7355 101.45 24.4173 100.91 24.9644L101.746 25.7897C102.42 25.1074 102.926 24.2728 103.271 23.2989L102.164 22.9062ZM100.91 24.9644C100.368 25.5143 99.7083 25.9362 98.9229 26.2279L99.332 27.3295C100.268 26.9818 101.076 26.4694 101.746 25.7897L100.91 24.9644ZM98.9275 26.2262C98.1415 26.5107 97.2395 26.6584 96.2136 26.6584V27.8334C97.3516 27.8334 98.3922 27.6696 99.3274 27.3312L98.9275 26.2262ZM96.2136 26.6584C95.2665 26.6584 94.4101 26.5122 93.6383 26.2275L93.2316 27.3299C94.1483 27.6681 95.1443 27.8334 96.2136 27.8334V26.6584ZM93.6448 26.2299C92.8829 25.9386 92.2229 25.5152 91.6592 24.9589L90.8338 25.7953C91.5159 26.4684 92.3149 26.9795 93.2251 27.3275L93.6448 26.2299ZM91.6592 24.9589C91.1019 24.409 90.662 23.7242 90.3446 22.893L89.2468 23.3121C89.6179 24.2841 90.1452 25.1157 90.8338 25.7953L91.6592 24.9589ZM90.3462 22.8973C90.0392 22.0735 89.8791 21.1123 89.8791 20.0042H88.7041C88.7041 21.2239 88.8801 22.3283 89.2452 23.3077L90.3462 22.8973ZM89.8791 20.0042C89.8791 18.5322 90.1455 17.328 90.6483 16.3668L89.607 15.8221C88.9951 16.9921 88.7041 18.3944 88.7041 20.0042H89.8791ZM90.6466 16.3699C91.1587 15.405 91.879 14.6791 92.8148 14.178L92.2601 13.1421C91.114 13.7558 90.2277 14.6528 89.6087 15.819L90.6466 16.3699ZM92.8131 14.1789C93.7606 13.6756 94.9117 13.4116 96.2874 13.4116V12.2365C94.7615 12.2365 93.4126 12.5298 92.2618 13.1412L92.8131 14.1789ZM96.2874 13.4116C97.5395 13.4116 98.6306 13.6721 99.5755 14.178L100.13 13.1421C98.9933 12.5334 97.7073 12.2365 96.2874 12.2365V13.4116ZM99.5755 14.178C100.514 14.6803 101.248 15.4092 101.786 16.3791L102.814 15.8098C102.17 14.6486 101.274 13.7546 100.13 13.1421L99.5755 14.178ZM101.787 16.3821C102.325 17.3398 102.61 18.5382 102.61 20.0042H103.785C103.785 18.3884 103.471 16.9803 102.812 15.8068L101.787 16.3821ZM93.5851 20.0042C93.5851 20.8301 93.6571 21.554 93.8122 22.1651L94.9511 21.8761C94.8275 21.3888 94.7602 20.7685 94.7602 20.0042H93.5851ZM93.8127 22.1671C93.9706 22.78 94.2353 23.3047 94.6418 23.6892L95.4493 22.8355C95.2493 22.6463 95.0715 22.3431 94.9506 21.874L93.8127 22.1671ZM94.6538 23.7002C95.0934 24.0935 95.6481 24.2679 96.2628 24.2679V23.0929C95.8774 23.0929 95.6207 22.9886 95.4373 22.8245L94.6538 23.7002ZM96.2628 24.2679C96.8762 24.2679 97.4307 24.0938 97.8588 23.6895L97.052 22.8352C96.8899 22.9883 96.6494 23.0929 96.2628 23.0929V24.2679ZM97.8649 23.6836C98.2627 23.2969 98.5174 22.7708 98.6657 22.159L97.5237 21.8822C97.4097 22.3523 97.2382 22.6541 97.0458 22.8411L97.8649 23.6836ZM98.6642 22.1651C98.8192 21.554 98.8913 20.8301 98.8913 20.0042H97.7162C97.7162 20.7685 97.6489 21.3888 97.5252 21.8761L98.6642 22.1651ZM98.8913 20.0042C98.8913 19.1791 98.8194 18.4613 98.6631 17.8638L97.5263 18.1611C97.6487 18.6291 97.7162 19.2392 97.7162 20.0042H98.8913ZM98.6652 17.872C98.5154 17.2635 98.2521 16.7418 97.8342 16.3691L97.052 17.246C97.2406 17.4143 97.4117 17.6958 97.5242 18.1529L98.6652 17.872ZM97.8401 16.3745C97.4098 15.98 96.8523 15.8143 96.2382 15.8143V16.9894C96.6405 16.9894 96.8863 17.0942 97.0461 17.2407L97.8401 16.3745ZM96.2382 15.8143C95.7911 15.8143 95.3716 15.9078 95.0022 16.1197C94.6311 16.3326 94.3442 16.6458 94.1353 17.0323L95.169 17.591C95.288 17.371 95.4294 17.2293 95.5869 17.1389C95.7462 17.0475 95.9558 16.9894 96.2382 16.9894V15.8143ZM94.1324 17.0377C93.7466 17.7697 93.5851 18.7809 93.5851 20.0042H94.7602C94.7602 18.8506 94.9183 18.0667 95.1719 17.5856L94.1324 17.0377Z" fill="white"/>
<path d="M20.9333 9.02493V19.8444C20.9333 21.3526 20.6464 22.664 20.0727 23.7787C19.4989 24.8853 18.6383 25.7418 17.4908 26.3484C16.3432 26.9467 14.9047 27.2459 13.1753 27.2459C10.6999 27.2459 8.81059 26.6107 7.50734 25.3402C6.20408 24.0697 5.55246 22.2747 5.55246 19.955V9.02493H10.4335V19.5739C10.4335 20.8444 10.6712 21.7665 11.1466 22.3403C11.622 22.914 12.3228 23.2009 13.249 23.2009C13.913 23.2009 14.4539 23.0779 14.872 22.832C15.29 22.578 15.5933 22.1804 15.7818 21.6394C15.9785 21.0985 16.0769 20.4018 16.0769 19.5493V9.02493H20.9333ZM32.8347 12.824C33.097 12.824 33.3716 12.8445 33.6585 12.8855C33.9454 12.9183 34.1585 12.947 34.2978 12.9716L33.8675 17.5084C33.7118 17.4674 33.511 17.4346 33.2651 17.41C33.0192 17.3772 32.6749 17.3608 32.2323 17.3608C31.929 17.3608 31.6052 17.3895 31.261 17.4469C30.9167 17.5043 30.5889 17.6272 30.2774 17.8157C29.9741 17.9961 29.7241 18.2748 29.5274 18.6518C29.3307 19.0206 29.2323 19.5206 29.2323 20.1518V27H24.4251V13.0699H28.0029L28.7528 15.2953H28.9864C29.2405 14.8363 29.5643 14.4224 29.9577 14.0535C30.3594 13.6765 30.8061 13.3773 31.2979 13.156C31.7979 12.9347 32.3102 12.824 32.8347 12.824ZM43.0518 12.824C44.814 12.824 46.191 13.2626 47.1828 14.1396C48.1746 15.0084 48.6705 16.2502 48.6705 17.8649V27H45.3386L44.4165 25.1558H44.3181C43.9247 25.6476 43.519 26.0492 43.1009 26.3607C42.6911 26.6639 42.2198 26.8852 41.687 27.0246C41.1542 27.1721 40.5026 27.2459 39.7321 27.2459C38.9289 27.2459 38.2076 27.082 37.5682 26.7541C36.9289 26.4262 36.4248 25.9303 36.056 25.2664C35.6871 24.6025 35.5027 23.7624 35.5027 22.746C35.5027 21.2542 36.0191 20.1477 37.0519 19.4264C38.0846 18.7051 39.5805 18.2993 41.5395 18.2092L43.8632 18.1354V17.9387C43.8632 17.3158 43.7075 16.8731 43.396 16.6108C43.0927 16.3486 42.6829 16.2174 42.1665 16.2174C41.6174 16.2174 41.0026 16.3158 40.3223 16.5125C39.6502 16.701 38.974 16.9469 38.2936 17.2502L36.9043 14.0781C37.7076 13.6683 38.6174 13.3568 39.6338 13.1437C40.6502 12.9306 41.7895 12.824 43.0518 12.824ZM43.8878 20.7788L42.7813 20.828C41.896 20.8608 41.2731 21.0165 40.9124 21.2952C40.56 21.5657 40.3838 21.955 40.3838 22.4632C40.3838 22.9386 40.5108 23.2911 40.7649 23.5206C41.019 23.7419 41.3551 23.8525 41.7731 23.8525C42.355 23.8525 42.8509 23.6681 43.2608 23.2992C43.6788 22.9304 43.8878 22.4509 43.8878 21.8608V20.7788ZM56.2687 27.2459C54.8343 27.2459 53.654 26.6353 52.7278 25.414C51.8016 24.1927 51.3385 22.4058 51.3385 20.0534C51.3385 17.6764 51.8139 15.8773 52.7647 14.656C53.7155 13.4347 54.945 12.824 56.4531 12.824C57.0761 12.824 57.613 12.9142 58.0638 13.0945C58.5146 13.2748 58.9039 13.5207 59.2318 13.8322C59.5678 14.1355 59.8588 14.4797 60.1047 14.865H60.2031C60.1457 14.5125 60.0924 14.0289 60.0432 13.4142C59.9941 12.7912 59.9695 12.1847 59.9695 11.5946V7.86921H64.8136V27H61.1867L60.1539 25.2418H59.9695C59.7482 25.6107 59.4695 25.9467 59.1334 26.25C58.8056 26.5533 58.4039 26.7951 57.9285 26.9754C57.4613 27.1557 56.9081 27.2459 56.2687 27.2459ZM58.2359 23.4468C59.0064 23.4468 59.5473 23.205 59.8588 22.7214C60.1785 22.2296 60.3506 21.4837 60.3752 20.4837V20.1026C60.3752 19.0042 60.2195 18.1641 59.908 17.5821C59.6047 16.992 59.031 16.6969 58.1867 16.6969C57.613 16.6969 57.1376 16.9756 56.7605 17.533C56.3835 18.0903 56.195 18.9551 56.195 20.1272C56.195 21.2829 56.3835 22.1271 56.7605 22.6599C57.1458 23.1845 57.6375 23.4468 58.2359 23.4468ZM72.9774 13.0699V27H68.1701V13.0699H72.9774ZM70.5922 7.46348C71.2807 7.46348 71.8791 7.60692 72.3873 7.8938C72.9037 8.18068 73.1619 8.75034 73.1619 9.60278C73.1619 10.4306 72.9037 10.9921 72.3873 11.2872C71.8791 11.5741 71.2807 11.7175 70.5922 11.7175C69.8873 11.7175 69.2849 11.5741 68.7849 11.2872C68.2931 10.9921 68.0472 10.4306 68.0472 9.60278C68.0472 8.75034 68.2931 8.18068 68.7849 7.8938C69.2849 7.60692 69.8873 7.46348 70.5922 7.46348ZM84.5469 27H79.6904V12.9962H75.3012V9.02493H88.9239V12.9962H84.5469V27ZM104.514 20.0042C104.514 21.1681 104.354 22.2009 104.034 23.1025C103.715 24.0042 103.251 24.7623 102.645 25.3771C102.038 25.9918 101.305 26.459 100.444 26.7787C99.5835 27.0902 98.6122 27.2459 97.5302 27.2459C96.5221 27.2459 95.5959 27.0902 94.7516 26.7787C93.9156 26.459 93.1861 25.9918 92.5631 25.3771C91.9402 24.7623 91.4566 24.0042 91.1123 23.1025C90.7763 22.2009 90.6082 21.1681 90.6082 20.0042C90.6082 18.4633 90.8869 17.16 91.4443 16.0945C92.0099 15.0289 92.8131 14.2175 93.8541 13.6601C94.9032 13.1027 96.1532 12.824 97.604 12.824C98.9401 12.824 100.129 13.1027 101.17 13.6601C102.21 14.2175 103.026 15.0289 103.616 16.0945C104.215 17.16 104.514 18.4633 104.514 20.0042ZM95.4893 20.0042C95.4893 20.7993 95.559 21.4714 95.6983 22.0206C95.8377 22.5616 96.059 22.9755 96.3622 23.2624C96.6737 23.541 97.0794 23.6804 97.5794 23.6804C98.0794 23.6804 98.477 23.541 98.772 23.2624C99.0671 22.9755 99.2802 22.5616 99.4114 22.0206C99.5507 21.4714 99.6204 20.7993 99.6204 20.0042C99.6204 19.2092 99.5507 18.5452 99.4114 18.0125C99.2802 17.4797 99.063 17.0781 98.7597 16.8076C98.4647 16.5371 98.063 16.4018 97.5548 16.4018C96.8253 16.4018 96.2967 16.7051 95.9688 17.3117C95.6491 17.9182 95.4893 18.8157 95.4893 20.0042Z" fill="white"/>
</svg>
