<svg width="35" height="41" viewBox="0 0 35 41" fill="none" xmlns="http://www.w3.org/2000/svg">
<path d="M34.3811 13.5478C32.3249 4.50034 24.4328 0.427002 17.5003 0.427002C17.5003 0.427002 17.5003 0.427002 17.4807 0.427002C10.5678 0.427002 2.65614 4.48075 0.599892 13.5283C-1.69136 23.6333 4.49698 32.1912 10.0978 37.5766C12.1736 39.5741 14.837 40.5728 17.5003 40.5728C20.1636 40.5728 22.827 39.5741 24.8832 37.5766C30.4841 32.1912 36.6724 23.6528 34.3811 13.5478ZM17.5003 23.3591C14.0928 23.3591 11.3316 20.5978 11.3316 17.1903C11.3316 13.7828 14.0928 11.0216 17.5003 11.0216C20.9078 11.0216 23.6691 13.7828 23.6691 17.1903C23.6691 20.5978 20.9078 23.3591 17.5003 23.3591Z" fill="#292D32"/>
<path d="M34.3811 13.5478C32.3249 4.50034 24.4328 0.427002 17.5003 0.427002C17.5003 0.427002 17.5003 0.427002 17.4807 0.427002C10.5678 0.427002 2.65614 4.48075 0.599892 13.5283C-1.69136 23.6333 4.49698 32.1912 10.0978 37.5766C12.1736 39.5741 14.837 40.5728 17.5003 40.5728C20.1636 40.5728 22.827 39.5741 24.8832 37.5766C30.4841 32.1912 36.6724 23.6528 34.3811 13.5478ZM17.5003 23.3591C14.0928 23.3591 11.3316 20.5978 11.3316 17.1903C11.3316 13.7828 14.0928 11.0216 17.5003 11.0216C20.9078 11.0216 23.6691 13.7828 23.6691 17.1903C23.6691 20.5978 20.9078 23.3591 17.5003 23.3591Z" fill="url(#paint0_linear_101_172)"/>
<defs>
<linearGradient id="paint0_linear_101_172" x1="34.8707" y1="40.5728" x2="-4.93765" y2="6.28832" gradientUnits="userSpaceOnUse">
<stop stop-color="#F4A93C"/>
<stop offset="1" stop-color="#F4C03C"/>
</linearGradient>
</defs>
</svg>
