<svg width="186" height="134" viewBox="0 0 186 134" fill="none" xmlns="http://www.w3.org/2000/svg">
<path opacity="0.05" d="M1.72934 124.676C9.5535 116.492 15.701 108.865 20.172 101.797C24.6429 94.7286 26.8784 88.9624 26.8784 84.4982C26.8784 81.8941 25.947 79.4759 24.0841 77.2438C22.5937 75.0117 20.172 72.5936 16.8188 69.9895C11.6027 65.8973 7.50431 61.6191 4.52368 57.1549C1.54305 52.6907 0.0527344 46.7384 0.0527344 39.2981C0.0527344 27.7656 3.59222 18.4652 10.6712 11.3968C17.7502 3.9565 26.6921 0.236328 37.4969 0.236328C49.0469 0.236328 58.3613 3.9565 65.4403 11.3968C72.8919 18.4652 76.6177 27.7656 76.6177 39.2981C76.6177 53.8068 70.4701 69.8035 58.175 87.2883C46.2525 104.401 30.2316 119.654 10.1124 133.046L1.72934 124.676ZM110.15 124.676C117.974 116.492 124.122 108.865 128.592 101.797C133.063 94.7286 135.299 88.9624 135.299 84.4982C135.299 81.8941 134.367 79.4759 132.505 77.2438C131.014 75.0117 128.592 72.5936 125.239 69.9895C120.023 65.8973 115.925 61.6191 112.944 57.1549C109.964 52.6907 108.473 46.7384 108.473 39.2981C108.473 27.7656 112.013 18.4652 119.092 11.3968C126.171 3.9565 135.113 0.236328 145.917 0.236328C157.467 0.236328 166.782 3.9565 173.861 11.3968C181.312 18.4652 185.038 27.7656 185.038 39.2981C185.038 53.8068 178.891 69.8035 166.596 87.2883C154.673 104.401 138.652 119.654 118.533 133.046L110.15 124.676Z" fill="black"/>
</svg>
