<svg width="32" height="32" viewBox="0 0 32 32" fill="none" xmlns="http://www.w3.org/2000/svg">
<path d="M22.6668 30.3333H9.3335C8.78683 30.3333 8.3335 29.8799 8.3335 29.3333C8.3335 28.7866 8.78683 28.3333 9.3335 28.3333H22.6668C23.2135 28.3333 23.6668 28.7866 23.6668 29.3333C23.6668 29.8799 23.2135 30.3333 22.6668 30.3333Z" fill="#292D32"/>
<path d="M23.9998 2.66675H7.99984C5.05317 2.66675 2.6665 5.05341 2.6665 8.00008V20.0001C2.6665 22.9467 5.05317 25.3334 7.99984 25.3334H23.9998C26.9465 25.3334 29.3332 22.9467 29.3332 20.0001V8.00008C29.3332 5.05341 26.9465 2.66675 23.9998 2.66675ZM13.3198 9.76008C14.0665 9.76008 14.6665 10.3601 14.6665 11.0934C14.6665 11.8267 14.0665 12.4267 13.3332 12.4267C12.5998 12.4267 11.9998 11.8267 11.9998 11.0934C11.9998 10.3601 12.5865 9.76008 13.3198 9.76008ZM9.11984 9.76008C9.8665 9.76008 10.4665 10.3601 10.4665 11.0934C10.4665 11.8267 9.8665 12.4267 9.13317 12.4267C8.39984 12.4267 7.79984 11.8267 7.79984 11.0934C7.79984 10.3601 8.37317 9.76008 9.11984 9.76008ZM23.0132 19.8134H9.01317C8.45317 19.8134 7.99984 19.3601 7.99984 18.8134C7.99984 18.2667 8.43984 17.8134 8.9865 17.8134H23.0265C23.5732 17.8134 24.0265 18.2667 24.0265 18.8134C24.0265 19.3601 23.5732 19.8134 23.0132 19.8134ZM23.0132 12.0934H18.1065C17.5598 12.0934 17.1065 11.6401 17.1065 11.0934C17.1065 10.5467 17.5598 10.0934 18.1065 10.0934H23.0132C23.5598 10.0934 24.0132 10.5467 24.0132 11.0934C24.0132 11.6401 23.5732 12.0934 23.0132 12.0934Z" fill="#292D32"/>
</svg>
