<svg width="32" height="32" viewBox="0 0 32 32" fill="none" xmlns="http://www.w3.org/2000/svg">
<path d="M25.8267 6.51991L18.0133 3.03991C16.8667 2.53325 15.1333 2.53325 13.9867 3.03991L6.17334 6.51991C4.20001 7.39991 3.90668 8.59991 3.90668 9.23991C3.90668 9.87991 4.20001 11.0799 6.17334 11.9599L13.9867 15.4399C14.56 15.6932 15.28 15.8266 16 15.8266C16.72 15.8266 17.44 15.6932 18.0133 15.4399L25.8267 11.9599C27.8 11.0799 28.0933 9.87991 28.0933 9.23991C28.0933 8.59991 27.8133 7.39991 25.8267 6.51991Z" fill="#292D32"/>
<path d="M16 22.7201C15.4933 22.7201 14.9867 22.6134 14.52 22.4134L5.53332 18.4134C4.15999 17.8001 3.09332 16.1601 3.09332 14.6534C3.09332 14.1067 3.53332 13.6667 4.07999 13.6667C4.62666 13.6667 5.06666 14.1067 5.06666 14.6534C5.06666 15.3734 5.66666 16.3067 6.33332 16.6001L15.32 20.6001C15.7467 20.7867 16.24 20.7867 16.6667 20.6001L25.6533 16.6001C26.32 16.3067 26.92 15.3867 26.92 14.6534C26.92 14.1067 27.36 13.6667 27.9067 13.6667C28.4533 13.6667 28.8933 14.1067 28.8933 14.6534C28.8933 16.1467 27.8267 17.8001 26.4533 18.4134L17.4667 22.4134C17.0133 22.6134 16.5067 22.7201 16 22.7201Z" fill="#292D32"/>
<path d="M16 29.3334C15.4933 29.3334 14.9867 29.2267 14.52 29.0267L5.53332 25.0267C4.05332 24.3734 3.09332 22.8934 3.09332 21.2667C3.09332 20.72 3.53332 20.28 4.07999 20.28C4.62666 20.28 5.06666 20.72 5.06666 21.2667C5.06666 22.1067 5.55999 22.8667 6.33332 23.2134L15.32 27.2134C15.7467 27.4 16.24 27.4 16.6667 27.2134L25.6533 23.2134C26.4133 22.88 26.92 22.1067 26.92 21.2667C26.92 20.72 27.36 20.28 27.9067 20.28C28.4533 20.28 28.8933 20.72 28.8933 21.2667C28.8933 22.8934 27.9333 24.36 26.4533 25.0267L17.4667 29.0267C17.0133 29.2267 16.5067 29.3334 16 29.3334Z" fill="#292D32"/>
</svg>
