<svg width="32" height="32" viewBox="0 0 32 32" fill="none" xmlns="http://www.w3.org/2000/svg">
<path d="M28.3332 24.6267L26.1332 25.1467C25.6398 25.2667 25.2532 25.6401 25.1465 26.1334L24.6798 28.0934C24.4265 29.1601 23.0665 29.4934 22.3598 28.6534L18.3732 24.0667C18.0532 23.6934 18.2265 23.1067 18.7065 22.9867C21.0665 22.4134 23.1865 21.0934 24.7465 19.2134C24.9998 18.9067 25.4532 18.8667 25.7332 19.1467L28.6932 22.1067C29.7065 23.1201 29.3465 24.3867 28.3332 24.6267Z" fill="#292D32"/>
<path d="M3.60022 24.6267L5.80022 25.1467C6.29355 25.2667 6.68022 25.6401 6.78688 26.1334L7.25355 28.0934C7.50688 29.1601 8.86688 29.4934 9.57355 28.6534L13.5602 24.0667C13.8802 23.6934 13.7069 23.1067 13.2269 22.9867C10.8669 22.4134 8.74688 21.0934 7.18688 19.2134C6.93355 18.9067 6.48022 18.8667 6.20022 19.1467L3.24022 22.1067C2.22688 23.1201 2.58688 24.3867 3.60022 24.6267Z" fill="#292D32"/>
<path d="M15.9998 2.66675C10.8398 2.66675 6.6665 6.84008 6.6665 12.0001C6.6665 13.9334 7.23984 15.7067 8.2265 17.1867C9.6665 19.3201 11.9465 20.8267 14.5998 21.2134C15.0532 21.2934 15.5198 21.3334 15.9998 21.3334C16.4798 21.3334 16.9465 21.2934 17.3998 21.2134C20.0532 20.8267 22.3332 19.3201 23.7732 17.1867C24.7598 15.7067 25.3332 13.9334 25.3332 12.0001C25.3332 6.84008 21.1598 2.66675 15.9998 2.66675ZM20.0798 11.7067L18.9732 12.8134C18.7865 13.0001 18.6798 13.3601 18.7465 13.6267L19.0665 15.0001C19.3198 16.0801 18.7465 16.5067 17.7865 15.9334L16.4532 15.1467C16.2132 15.0001 15.8132 15.0001 15.5732 15.1467L14.2398 15.9334C13.2798 16.4934 12.7065 16.0801 12.9598 15.0001L13.2798 13.6267C13.3332 13.3734 13.2398 13.0001 13.0532 12.8134L11.9198 11.7067C11.2665 11.0534 11.4798 10.4001 12.3865 10.2534L13.8132 10.0134C14.0532 9.97342 14.3332 9.76008 14.4398 9.54675L15.2265 7.97341C15.6532 7.12008 16.3465 7.12008 16.7732 7.97341L17.5598 9.54675C17.6665 9.76008 17.9465 9.97342 18.1998 10.0134L19.6265 10.2534C20.5198 10.4001 20.7332 11.0534 20.0798 11.7067Z" fill="#292D32"/>
</svg>
