<svg width="295" height="82" viewBox="0 0 295 82" fill="none" xmlns="http://www.w3.org/2000/svg">
<g clip-path="url(#clip0_2_1754)">
<path d="M0 8C0 3.58173 3.58172 0 8 0H287C291.418 0 295 3.58172 295 8V74C295 78.4183 291.418 82 287 82H7.99999C3.58172 82 0 78.4183 0 74V8Z" fill="white"/>
<rect width="295" height="82" fill="#F070A9"/>
<rect width="295" height="82" fill="url(#paint0_linear_2_1754)"/>
<g clip-path="url(#clip1_2_1754)">
<rect x="11.9999" y="12" width="40" height="40" rx="20" fill="white"/>
<path d="M25.9998 24.8317C25.9998 24.0405 26.8751 23.5627 27.5406 23.9905L38.6913 31.1588C39.3036 31.5525 39.3036 32.4475 38.6913 32.8412L27.5406 40.0095C26.8751 40.4373 25.9998 39.9595 25.9998 39.1683V24.8317Z" fill="#FFA2CB"/>
<path d="M25.9998 24.8317C25.9998 24.0405 26.8751 23.5627 27.5406 23.9905L38.6913 31.1588C39.3036 31.5525 39.3036 32.4475 38.6913 32.8412L27.5406 40.0095C26.8751 40.4373 25.9998 39.9595 25.9998 39.1683V24.8317Z" fill="url(#paint1_linear_2_1754)"/>
<rect x="63.9999" y="15" width="2" height="34" rx="1" fill="white"/>
<rect x="93.9999" y="15" width="2" height="34" rx="1" fill="white"/>
<rect x="172" y="15" width="2" height="34" rx="1" fill="white"/>
<rect x="124" y="15" width="2" height="34" rx="1" fill="white"/>
<rect x="202" y="15" width="2" height="34" rx="1" fill="white"/>
<rect width="2" height="34" rx="1" transform="matrix(-1 0 0 1 264 15)" fill="white"/>
<rect width="2" height="34" rx="1" transform="matrix(-1 0 0 1 132 15)" fill="white"/>
<rect width="2" height="34" rx="1" transform="matrix(-1 0 0 1 210 15)" fill="white"/>
<rect x="256" y="15" width="2" height="34" rx="1" fill="white"/>
<rect x="69.9999" y="25" width="2" height="14" rx="1" fill="white"/>
<rect x="99.9999" y="25" width="2" height="14" rx="1" fill="white"/>
<rect x="178" y="25" width="2" height="14" rx="1" fill="white"/>
<rect width="2" height="14" rx="1" transform="matrix(-1 0 0 1 156 25)" fill="white"/>
<rect width="2" height="14" rx="1" transform="matrix(-1 0 0 1 234 25)" fill="white"/>
<rect x="81.9998" y="25" width="2" height="14" rx="1" fill="white"/>
<rect x="160" y="25" width="2" height="14" rx="1" fill="white"/>
<rect x="112" y="25" width="2" height="14" rx="1" fill="white"/>
<rect x="190" y="25" width="2" height="14" rx="1" fill="white"/>
<rect width="2" height="14" rx="1" transform="matrix(-1 0 0 1 144 25)" fill="white"/>
<rect width="2" height="14" rx="1" transform="matrix(-1 0 0 1 222 25)" fill="white"/>
<rect x="244" y="25" width="2" height="14" rx="1" fill="white"/>
<rect width="2" height="14" rx="1" transform="matrix(-1 0 0 1 276 25)" fill="white"/>
<rect width="2" height="14" rx="1" transform="matrix(-1 0 0 1 282 25)" fill="white"/>
<rect x="75.9999" y="20" width="2" height="24" rx="1" fill="white"/>
<rect x="106" y="20" width="2" height="24" rx="1" fill="white"/>
<rect x="184" y="20" width="2" height="24" rx="1" fill="white"/>
<rect width="2" height="24" rx="1" transform="matrix(-1 0 0 1 150 20)" fill="white"/>
<rect width="2" height="24" rx="1" transform="matrix(-1 0 0 1 228 20)" fill="white"/>
<rect x="238" y="20" width="2" height="24" rx="1" fill="white"/>
<rect x="87.9998" y="20" width="2" height="24" rx="1" fill="white"/>
<rect x="166" y="20" width="2" height="24" rx="1" fill="white"/>
<rect x="118" y="20" width="2" height="24" rx="1" fill="white"/>
<rect x="196" y="20" width="2" height="24" rx="1" fill="white"/>
<rect width="2" height="24" rx="1" transform="matrix(-1 0 0 1 138 20)" fill="white"/>
<rect width="2" height="24" rx="1" transform="matrix(-1 0 0 1 216 20)" fill="white"/>
<rect x="250" y="20" width="2" height="24" rx="1" fill="white"/>
<rect width="2" height="24" rx="1" transform="matrix(-1 0 0 1 270 20)" fill="white"/>
</g>
<path d="M23.0156 63.3C23.0156 62.812 23.0636 62.364 23.1596 61.956C23.2556 61.54 23.3956 61.184 23.5796 60.888C23.7636 60.584 23.9836 60.352 24.2396 60.192C24.5036 60.024 24.7956 59.94 25.1156 59.94C25.4436 59.94 25.7356 60.024 25.9916 60.192C26.2476 60.352 26.4676 60.584 26.6516 60.888C26.8356 61.184 26.9756 61.54 27.0716 61.956C27.1676 62.364 27.2156 62.812 27.2156 63.3C27.2156 63.788 27.1676 64.24 27.0716 64.656C26.9756 65.064 26.8356 65.42 26.6516 65.724C26.4676 66.02 26.2476 66.252 25.9916 66.42C25.7356 66.58 25.4436 66.66 25.1156 66.66C24.7956 66.66 24.5036 66.58 24.2396 66.42C23.9836 66.252 23.7636 66.02 23.5796 65.724C23.3956 65.42 23.2556 65.064 23.1596 64.656C23.0636 64.24 23.0156 63.788 23.0156 63.3ZM21.9956 63.3C21.9956 64.14 22.1276 64.884 22.3916 65.532C22.6556 66.18 23.0196 66.692 23.4836 67.068C23.9556 67.436 24.4996 67.62 25.1156 67.62C25.7316 67.62 26.2716 67.436 26.7356 67.068C27.2076 66.692 27.5756 66.18 27.8396 65.532C28.1036 64.884 28.2356 64.14 28.2356 63.3C28.2356 62.46 28.1036 61.716 27.8396 61.068C27.5756 60.42 27.2076 59.912 26.7356 59.544C26.2716 59.168 25.7316 58.98 25.1156 58.98C24.4996 58.98 23.9556 59.168 23.4836 59.544C23.0196 59.912 22.6556 60.42 22.3916 61.068C22.1276 61.716 21.9956 62.46 21.9956 63.3ZM29.8509 67.02C29.8509 67.196 29.9149 67.352 30.0429 67.488C30.1789 67.616 30.3349 67.68 30.5109 67.68C30.6949 67.68 30.8509 67.616 30.9789 67.488C31.1069 67.352 31.1709 67.196 31.1709 67.02C31.1709 66.836 31.1069 66.68 30.9789 66.552C30.8509 66.424 30.6949 66.36 30.5109 66.36C30.3349 66.36 30.1789 66.424 30.0429 66.552C29.9149 66.68 29.8509 66.836 29.8509 67.02ZM29.8509 62.46C29.8509 62.636 29.9149 62.792 30.0429 62.928C30.1789 63.056 30.3349 63.12 30.5109 63.12C30.6949 63.12 30.8509 63.056 30.9789 62.928C31.1069 62.792 31.1709 62.636 31.1709 62.46C31.1709 62.276 31.1069 62.12 30.9789 61.992C30.8509 61.864 30.6949 61.8 30.5109 61.8C30.3349 61.8 30.1789 61.864 30.0429 61.992C29.9149 62.12 29.8509 62.276 29.8509 62.46ZM38.5965 64.74C38.5965 64.18 38.4885 63.688 38.2725 63.264C38.0565 62.84 37.7565 62.508 37.3725 62.268C36.9965 62.028 36.5685 61.908 36.0885 61.908C35.8805 61.908 35.6685 61.936 35.4525 61.992C35.2445 62.04 35.0405 62.116 34.8405 62.22L35.4045 60H38.5725V59.1H34.6125L33.5085 63.576C33.7965 63.376 34.0485 63.224 34.2645 63.12C34.4885 63.008 34.7085 62.932 34.9245 62.892C35.1485 62.844 35.3925 62.82 35.6565 62.82C36.0165 62.82 36.3365 62.9 36.6165 63.06C36.9045 63.22 37.1285 63.444 37.2885 63.732C37.4565 64.02 37.5405 64.356 37.5405 64.74C37.5405 65.124 37.4645 65.46 37.3125 65.748C37.1685 66.036 36.9565 66.26 36.6765 66.42C36.3965 66.58 36.0565 66.66 35.6565 66.66C35.3525 66.66 35.0605 66.596 34.7805 66.468C34.5005 66.332 34.2525 66.16 34.0365 65.952C33.8285 65.736 33.6605 65.508 33.5325 65.268L32.6685 65.856C32.8525 66.176 33.0765 66.472 33.3405 66.744C33.6125 67.008 33.9365 67.22 34.3125 67.38C34.6965 67.54 35.1445 67.62 35.6565 67.62C36.0645 67.62 36.4445 67.56 36.7965 67.44C37.1485 67.32 37.4605 67.14 37.7325 66.9C38.0045 66.66 38.2165 66.36 38.3685 66C38.5205 65.64 38.5965 65.22 38.5965 64.74ZM40.042 60.756L41.902 60.204V67.5H42.922V58.98L40.042 59.7V60.756Z" fill="white"/>
<path d="M256.067 60.756L257.927 60.204V67.5H258.947V58.98L256.067 59.7V60.756ZM263.546 63.36C264.09 63.36 264.566 63.264 264.974 63.072C265.382 62.88 265.702 62.62 265.934 62.292C266.166 61.964 266.282 61.604 266.282 61.212C266.282 60.812 266.186 60.444 265.994 60.108C265.81 59.772 265.542 59.5 265.19 59.292C264.846 59.084 264.434 58.98 263.954 58.98C263.498 58.98 263.09 59.076 262.73 59.268C262.378 59.452 262.098 59.708 261.89 60.036C261.69 60.364 261.59 60.748 261.59 61.188H262.562C262.562 60.82 262.698 60.516 262.97 60.276C263.242 60.028 263.574 59.904 263.966 59.904C264.246 59.904 264.478 59.96 264.662 60.072C264.854 60.184 264.998 60.344 265.094 60.552C265.19 60.752 265.238 60.984 265.238 61.248C265.238 61.448 265.198 61.636 265.118 61.812C265.046 61.988 264.938 62.144 264.794 62.28C264.65 62.408 264.474 62.512 264.266 62.592C264.058 62.664 263.818 62.7 263.546 62.7V63.36ZM263.906 67.62C264.41 67.62 264.858 67.524 265.25 67.332C265.642 67.14 265.95 66.868 266.174 66.516C266.406 66.164 266.522 65.752 266.522 65.28C266.522 64.864 266.442 64.508 266.282 64.212C266.13 63.916 265.914 63.676 265.634 63.492C265.362 63.3 265.046 63.16 264.686 63.072C264.334 62.984 263.954 62.94 263.546 62.94V63.6C263.818 63.6 264.07 63.632 264.302 63.696C264.534 63.76 264.738 63.86 264.914 63.996C265.09 64.124 265.226 64.288 265.322 64.488C265.426 64.68 265.478 64.904 265.478 65.16C265.478 65.464 265.414 65.728 265.286 65.952C265.158 66.176 264.974 66.352 264.734 66.48C264.502 66.6 264.226 66.66 263.906 66.66C263.586 66.66 263.302 66.6 263.054 66.48C262.806 66.36 262.61 66.196 262.466 65.988C262.33 65.78 262.262 65.544 262.262 65.28H261.23C261.23 65.608 261.294 65.916 261.422 66.204C261.55 66.484 261.73 66.732 261.962 66.948C262.194 67.156 262.474 67.32 262.802 67.44C263.13 67.56 263.498 67.62 263.906 67.62ZM268.201 67.02C268.201 67.196 268.265 67.352 268.393 67.488C268.529 67.616 268.685 67.68 268.861 67.68C269.045 67.68 269.201 67.616 269.329 67.488C269.457 67.352 269.521 67.196 269.521 67.02C269.521 66.836 269.457 66.68 269.329 66.552C269.201 66.424 269.045 66.36 268.861 66.36C268.685 66.36 268.529 66.424 268.393 66.552C268.265 66.68 268.201 66.836 268.201 67.02ZM268.201 62.46C268.201 62.636 268.265 62.792 268.393 62.928C268.529 63.056 268.685 63.12 268.861 63.12C269.045 63.12 269.201 63.056 269.329 62.928C269.457 62.792 269.521 62.636 269.521 62.46C269.521 62.276 269.457 62.12 269.329 61.992C269.201 61.864 269.045 61.8 268.861 61.8C268.685 61.8 268.529 61.864 268.393 61.992C268.265 62.12 268.201 62.276 268.201 62.46ZM271.618 60.756L273.478 60.204V67.5H274.498V58.98L271.618 59.7V60.756ZM276.301 67.5H282.229V66.54H278.401L281.077 63.816C281.405 63.48 281.673 63.1 281.881 62.676C282.089 62.252 282.193 61.824 282.193 61.392C282.193 61.136 282.141 60.868 282.037 60.588C281.933 60.308 281.773 60.048 281.557 59.808C281.341 59.56 281.065 59.36 280.729 59.208C280.393 59.048 279.993 58.968 279.529 58.968C278.953 58.968 278.457 59.096 278.041 59.352C277.633 59.6 277.321 59.952 277.105 60.408C276.889 60.856 276.781 61.38 276.781 61.98H277.801C277.801 61.556 277.869 61.192 278.005 60.888C278.141 60.576 278.337 60.34 278.593 60.18C278.857 60.012 279.169 59.928 279.529 59.928C279.785 59.928 280.013 59.972 280.213 60.06C280.413 60.148 280.581 60.264 280.717 60.408C280.861 60.552 280.969 60.712 281.041 60.888C281.113 61.064 281.149 61.244 281.149 61.428C281.149 61.652 281.113 61.868 281.041 62.076C280.977 62.276 280.877 62.476 280.741 62.676C280.613 62.868 280.457 63.064 280.273 63.264L276.301 67.5Z" fill="white"/>
</g>
<defs>
<linearGradient id="paint0_linear_2_1754" x1="295" y1="82" x2="252.376" y2="-70.5275" gradientUnits="userSpaceOnUse">
<stop stop-color="#F4A93C"/>
<stop offset="1" stop-color="#F4C03C"/>
</linearGradient>
<linearGradient id="paint1_linear_2_1754" x1="39.9998" y1="41" x2="22.5302" y2="27.4849" gradientUnits="userSpaceOnUse">
<stop stop-color="#F4A93C"/>
<stop offset="1" stop-color="#F4C03C"/>
</linearGradient>
<clipPath id="clip0_2_1754">
<path d="M0 8C0 3.58173 3.58172 0 8 0H287C291.418 0 295 3.58172 295 8V74C295 78.4183 291.418 82 287 82H7.99999C3.58172 82 0 78.4183 0 74V8Z" fill="white"/>
</clipPath>
<clipPath id="clip1_2_1754">
<rect width="271" height="40" fill="white" transform="translate(11.9999 12)"/>
</clipPath>
</defs>
</svg>
