<svg width="106" height="23" viewBox="0 0 106 23" fill="none" xmlns="http://www.w3.org/2000/svg">
<path d="M19.6826 12.1151L19.6965 12.1162L21.1499 12.2681C21.2519 12.2791 21.3456 12.3289 21.4118 12.4067L21.4226 12.42L21.4088 12.4269C21.4767 12.5126 21.5067 12.6223 21.4917 12.7307C21.1741 15.2551 19.9776 17.5871 18.1121 19.3173C16.1764 21.1126 13.6338 22.1101 10.9937 22.1101C9.71144 22.1122 8.44008 21.8761 7.2443 21.414L7.17915 21.3886C7.08128 21.3524 7.00264 21.278 6.96101 21.1829L6.95475 21.1677C6.91398 21.073 6.91172 20.9663 6.94795 20.8703L7.52163 19.4707C7.59936 19.2729 7.81966 19.1732 8.01861 19.2433L8.03184 19.2483C10.9641 20.3805 14.2852 19.7428 16.5897 17.6051C18.0565 16.2573 19.0023 14.4364 19.2616 12.4614C19.289 12.2574 19.466 12.1091 19.6687 12.1145L19.6826 12.1151ZM54.0073 6.17509C55.2465 6.17509 56.2157 6.55318 56.8346 7.27932L56.8553 7.30393V6.68944C56.8636 6.51793 56.9964 6.37931 57.166 6.36257L57.1798 6.36148H58.8334C59.0035 6.37324 59.1388 6.50715 59.1535 6.6757L59.1545 6.68944V15.8687C59.2079 17.163 58.8101 18.4357 58.0291 19.4692C57.1384 20.5532 55.7852 21.1021 54.0073 21.1021C51.5356 21.1021 49.5851 19.5383 49.2641 17.3047C49.2481 17.1435 49.3464 16.9935 49.499 16.943L49.5126 16.9388L51.1282 16.5591C51.1366 16.5572 51.1451 16.5556 51.1536 16.5543C51.331 16.5283 51.4958 16.651 51.5217 16.8284C51.6693 18.0812 52.7462 19.0159 54.0073 18.9859C55.9178 18.9859 56.8166 18.0149 56.8343 15.9857L56.8346 15.9239V15.1196C56.1185 15.9227 55.0828 16.3666 54.0073 16.3312C51.2594 16.3312 49.2676 14.1978 49.2676 11.2635C49.2424 9.94328 49.7073 8.66049 50.5724 7.66292C51.4512 6.6975 52.702 6.15572 54.0073 6.17509ZM4.24178 17.3392L4.26227 17.339L4.28283 17.3392C4.94243 17.3468 5.47351 17.8801 5.48068 18.5373L5.48073 18.5579C5.48073 18.5647 5.48065 18.5716 5.48053 18.5784C5.46905 19.2513 4.91431 19.7876 4.24138 19.7761C3.56846 19.7646 3.03225 19.2099 3.04362 18.537C3.05487 17.8778 3.58743 17.3497 4.24178 17.3392ZM82.6308 6.04736L82.7155 6.04799C85.6695 6.08878 87.4998 8.14498 87.4998 11.4361C87.4998 11.6102 87.4904 11.7842 87.472 11.9574C87.457 12.1166 87.3268 12.2394 87.1683 12.247L87.1546 12.2473H80.1329C80.1761 13.7221 81.3953 14.8889 82.8708 14.8675C84.0141 14.9394 85.0562 14.2122 85.3837 13.1139C85.4436 12.9562 85.6136 12.8714 85.7745 12.9166L85.7875 12.9205L87.189 13.4142C87.2664 13.4391 87.3298 13.494 87.3656 13.5662L87.3719 13.5799C87.4104 13.6559 87.4169 13.7443 87.3897 13.825C86.7384 15.7524 84.9041 17.0278 82.8708 16.9664C81.5374 16.9797 80.2543 16.4588 79.3081 15.52C78.2749 14.4331 77.7237 12.9759 77.7787 11.4775C77.7787 8.11122 80.1981 6.0881 82.5606 6.04798L82.6308 6.04736ZM42.8983 6.04737H42.9018C45.9086 6.04737 47.7762 8.11173 47.7762 11.4361C47.776 11.6102 47.7668 11.7842 47.7486 11.9574C47.7346 12.1175 47.6035 12.2411 47.4443 12.2471L47.431 12.2473H40.4094C40.4526 13.7262 41.6781 14.8947 43.1572 14.8676C44.3015 14.9407 45.3442 14.213 45.6704 13.1139C45.7289 12.9549 45.9002 12.8695 46.0613 12.9164L46.0743 12.9205L47.4759 13.4142C47.5578 13.4406 47.6244 13.501 47.6588 13.5799C47.6916 13.6583 47.6916 13.7466 47.6588 13.825C47.0083 15.7512 45.1757 17.0262 43.1435 16.9664C41.808 16.9815 40.5222 16.4605 39.5739 15.52C38.5424 14.4323 37.9913 12.9757 38.0446 11.4775C38.0446 8.07721 40.5129 6.04737 42.8983 6.04737ZM32.2658 6.04388C33.6155 6.04388 34.7064 6.37184 35.5142 7.01735C36.0604 7.45266 36.4653 8.04009 36.6776 8.70549L36.6782 8.70816C36.706 8.82287 36.6385 8.93842 36.5267 8.97167L36.5154 8.97472L34.8411 9.52709C34.7668 9.55652 34.684 9.55652 34.6098 9.52709C34.5464 9.49749 34.4987 9.44218 34.4786 9.37522L34.4697 9.34226C34.3172 8.79712 33.8186 7.92184 32.2658 7.92184C31.1611 7.92184 30.4983 8.55705 30.4983 9.17153L30.4986 9.19587C30.5069 9.59543 30.7241 10.097 31.6768 10.2877L31.7065 10.2934L33.55 10.6386C35.5868 11.0488 36.7609 12.1558 36.7842 13.6987L36.7846 13.7456L36.7777 13.718L36.7773 13.7648C36.7476 15.3114 35.2517 16.9388 32.4971 16.9388C29.2693 16.9388 28.0024 15.1126 27.7676 14.0356C27.7523 13.9229 27.8211 13.8165 27.9286 13.7834L27.9402 13.7801L29.6663 13.2416C29.6972 13.2365 29.7287 13.2365 29.7595 13.2416C29.8034 13.2408 29.8468 13.2501 29.8864 13.2687L29.901 13.2761C29.9645 13.3065 30.0112 13.3634 30.0288 13.4314C30.2463 14.4671 31.1818 15.085 32.5281 15.085C33.7813 15.085 34.3509 14.4291 34.3509 13.8353C34.3509 13.2481 33.8545 12.8128 32.9987 12.633L32.97 12.6271L31.0334 12.2508C29.2279 11.9091 28.1025 10.7871 28.1025 9.32684C28.1025 7.549 30.0115 6.04388 32.2658 6.04388ZM101.888 3.16828H103.397C103.575 3.17896 103.715 3.32333 103.721 3.50015L103.722 3.51347V6.34768H105.537C105.714 6.3601 105.852 6.50382 105.858 6.67932L105.859 6.69288V8.19801L105.858 8.21111C105.853 8.37987 105.719 8.51693 105.55 8.52555L105.537 8.52597H103.722V13.5626C103.722 14.398 104.053 14.7433 104.905 14.7433C105.078 14.7403 105.251 14.7272 105.421 14.704L105.486 14.6949C105.58 14.679 105.676 14.7056 105.748 14.7674C105.813 14.8279 105.852 14.911 105.858 14.9994L105.859 15.016V16.4348C105.86 16.5794 105.766 16.7074 105.627 16.749C105.229 16.8602 104.819 16.9161 104.406 16.9151L104.35 16.9146C102.549 16.9146 101.424 15.7676 101.402 13.9125L101.402 13.8561V8.54669H99.8309C99.6597 8.5366 99.5222 8.40223 99.5074 8.23256L99.5065 8.21872V6.70668C99.5059 6.52829 99.6417 6.37984 99.8177 6.36253L99.8309 6.36148L100.253 6.36143L100.298 6.36062C100.791 6.34647 101.548 6.14668 101.564 5.04633L101.564 5.01167V3.51347C101.563 3.33509 101.699 3.18663 101.875 3.16933L101.888 3.16828ZM72.5678 6.04583L72.6073 6.04737H72.6038C74.3811 6.04737 76.1752 7.28565 76.2109 9.99008L76.2114 10.0725V16.4659C76.2034 16.6374 76.0701 16.7759 75.9008 16.7927L75.887 16.7938H74.2332C74.062 16.7837 73.925 16.6494 73.9097 16.4797L73.9087 16.4659V10.2797L73.9084 10.232C73.8984 9.44378 73.6305 8.17728 72.0069 8.17728C70.807 8.17728 69.9524 9.11113 69.9354 10.4696L69.9352 10.5109V16.4659C69.9271 16.6374 69.7944 16.7759 69.6245 16.7927L69.6107 16.7938H67.9368C67.765 16.7837 67.628 16.6494 67.6133 16.4797L67.6123 16.4659V10.2797L67.612 10.232C67.602 9.44378 67.3341 8.17728 65.7099 8.17728C64.4625 8.17728 63.6179 9.10434 63.6011 10.4895L63.6009 10.5317V16.4659C63.5922 16.6374 63.4595 16.7759 63.2902 16.7927L63.2764 16.7938H61.6226C61.4526 16.7821 61.3173 16.6481 61.3026 16.4796L61.3017 16.4659V6.66872C61.3098 6.49842 61.4408 6.36028 61.6089 6.34198L61.6226 6.34076H63.2142C63.3854 6.35085 63.523 6.48522 63.5378 6.65489L63.5387 6.66872V7.25905C64.2545 6.47416 65.2724 6.03316 66.3346 6.04737C67.565 6.01131 68.7131 6.66179 69.314 7.73539C70.0298 6.64181 71.2637 6.00204 72.5678 6.04583ZM97.3281 7.26592C97.9616 8.10051 98.2883 9.12701 98.2546 10.1733L98.253 10.2175V16.4659C98.2449 16.6362 98.1139 16.7743 97.9458 16.7926L97.9321 16.7938H96.2582C96.0864 16.7837 95.9494 16.6494 95.9341 16.4797L95.9331 16.4659V10.5524C95.9331 9.00581 95.2049 8.21872 93.8241 8.21872C93.2142 8.19901 92.631 8.47072 92.2532 8.95056C91.888 9.47727 91.6993 10.1059 91.7139 10.746L91.715 10.7836V16.4659C91.7064 16.6374 91.5737 16.7759 91.4044 16.7927L91.3905 16.7938H89.7196C89.5484 16.7837 89.4109 16.6494 89.3961 16.4797L89.3952 16.4659V6.66179C89.4032 6.49028 89.5365 6.35172 89.7058 6.33492L89.7196 6.33383H91.3526C91.5227 6.34559 91.658 6.47956 91.6726 6.64806L91.6736 6.66179V7.35224C92.374 6.50364 93.425 6.0228 94.5251 6.04737C95.5968 6.00154 96.6306 6.45089 97.3281 7.26592ZM1.11029 12.5339H12.996C13.2144 12.5358 13.3909 12.7106 13.3964 12.9274L13.3965 12.9413V14.4292C13.3983 14.6476 13.2264 14.827 13.0098 14.8361L12.996 14.8365H1.11029C0.891836 14.8346 0.715446 14.6597 0.709839 14.443V14.4291V12.9412V12.9273C0.715329 12.7154 0.884303 12.5434 1.09611 12.5343L1.11029 12.5339ZM54.2938 8.23945C52.6644 8.23945 51.6288 9.39938 51.6288 11.2635C51.6288 13.1277 52.6506 14.2841 54.2938 14.2841C55.8611 14.2841 56.9174 13.069 56.9174 11.2635C56.9174 9.45456 55.8611 8.23945 54.2938 8.23945ZM40.4828 10.2564L40.4784 10.2934H45.3908C45.2712 8.98111 44.3463 8.16273 42.9612 8.1465L42.919 8.14625C41.6985 8.1264 40.6591 9.01909 40.4878 10.2199L40.4828 10.2564ZM80.2202 10.2564L80.2158 10.2934H85.1285C85.0089 8.98111 84.0838 8.16273 82.6986 8.1465L82.6564 8.14625C81.436 8.1264 80.3965 9.01909 80.2252 10.2199L80.2202 10.2564ZM14.4839 1.17982C14.5868 1.21695 14.6702 1.29416 14.7151 1.39387C14.7564 1.49452 14.7564 1.60738 14.7151 1.70798L14.1973 3.08888C14.1256 3.29362 13.9017 3.40168 13.6968 3.33051C10.984 2.38386 7.97387 2.92173 5.75687 4.74931C4.3752 5.9058 3.39415 7.46924 2.95374 9.21636C2.90815 9.3928 2.74929 9.5162 2.5671 9.51673H2.47734L1.05505 9.17497C0.949004 9.15004 0.857938 9.0826 0.803051 8.98852H0.796123C0.738571 8.89449 0.722347 8.78087 0.751301 8.67441C1.31611 6.43792 2.57989 4.44005 4.35874 2.97146C7.18733 0.642786 11.0279 -0.0368287 14.4839 1.17982ZM9.21936 7.14513H21.105C21.3181 7.14686 21.4922 7.31349 21.5049 7.52451L21.5055 7.53864V9.02653C21.5073 9.24499 21.3355 9.42438 21.1189 9.43354L21.105 9.4339H9.21936C9.00233 9.43019 8.82796 9.25593 8.82246 9.04063L8.82232 9.02653V7.55243C8.82044 7.33541 8.99016 7.15667 9.20527 7.14561L9.21936 7.14513ZM17.4703 2.60552L17.4908 2.60536L17.5114 2.60554C18.171 2.6131 18.7021 3.14645 18.7092 3.80357L18.7093 3.82415C18.7093 3.83102 18.7092 3.83788 18.7091 3.84469C18.6977 4.51762 18.1429 5.05382 17.4699 5.0424C16.797 5.03097 16.2608 4.47617 16.2722 3.80331C16.2834 3.14406 16.816 2.61606 17.4703 2.60552Z" fill="#7B7B7B"/>
</svg>
