<svg width="106" height="15" viewBox="0 0 106 15" fill="none" xmlns="http://www.w3.org/2000/svg">
<path d="M45.5354 9.40648H52.4834L48.8096 3.49578L42.0667 14.1826H38.998L47.1995 1.34546C47.5561 0.826785 48.1504 0.513428 48.8096 0.513428C49.447 0.513428 50.0413 0.815985 50.3871 1.32385L58.621 14.1826H55.5523L54.1043 11.7945H47.0698L45.5354 9.40648ZM77.4121 11.7945V0.643096H74.8079V12.8859C74.8079 13.2209 74.9376 13.545 75.1861 13.7936C75.4346 14.0421 75.7696 14.1826 76.137 14.1826H88.0125L89.5468 11.7945H77.4121ZM34.3299 9.79548C36.8585 9.79548 38.9116 7.75322 38.9116 5.22469C38.9116 2.69617 36.8585 0.643096 34.3299 0.643096H22.9375V14.1826H25.5406V3.03115H34.157C35.3673 3.03115 36.3398 4.01445 36.3398 5.22469C36.3398 6.43492 35.3673 7.41824 34.157 7.41824L26.8157 7.40743L34.5892 14.1826H38.3713L33.1414 9.79548H34.3299ZM6.91279 14.1826C3.17507 14.1826 0.141907 11.157 0.141907 7.41824C0.141907 3.67948 3.17507 0.643096 6.91279 0.643096H14.7825C18.5212 0.643096 21.5523 3.67948 21.5523 7.41824C21.5523 11.157 18.5212 14.1826 14.7825 14.1826H6.91279ZM14.6074 11.7945C17.029 11.7945 18.9903 9.8387 18.9903 7.41824C18.9903 4.99777 17.029 3.03115 14.6074 3.03115H7.08672C4.66626 3.03115 2.70391 4.99777 2.70391 7.41824C2.70391 9.8387 4.66626 11.7945 7.08672 11.7945H14.6074ZM64.0563 14.1826C60.3175 14.1826 57.2812 11.157 57.2812 7.41824C57.2812 3.67948 60.3175 0.643096 64.0563 0.643096H73.4032L71.8796 3.03115H64.2292C61.8087 3.03115 59.8421 4.99777 59.8421 7.41824C59.8421 9.8387 61.8087 11.7945 64.2292 11.7945H73.6193L72.0849 14.1826H64.0563ZM95.9006 11.7945C93.9015 11.7945 92.205 10.4546 91.6863 8.60686H102.816L104.351 6.21881H91.6863C92.205 4.38185 93.9015 3.03115 95.9006 3.03115H103.54L105.085 0.643096H95.7277C91.9889 0.643096 88.9526 3.67948 88.9526 7.41824C88.9526 11.157 91.9889 14.1826 95.7277 14.1826H103.756L105.291 11.7945H95.9006Z" fill="#7B7B7B"/>
</svg>
