<svg width="106" height="23" viewBox="0 0 106 23" fill="none" xmlns="http://www.w3.org/2000/svg">
<path d="M104.536 8.03971C105.361 8.70663 104.488 9.76159 103.76 9.2281C102.863 8.65818 100.826 8.39143 100.571 9.65245C100.244 11.6412 105.518 10.5013 105.434 13.7268C105.349 16.8069 100.886 16.8796 99.2128 15.4972C98.8127 15.1699 98.8248 14.6363 99.0431 14.3089C99.3583 13.9937 99.71 13.8845 100.122 14.224C101.117 14.9031 103.675 15.4124 103.857 13.6905C103.7 11.8958 98.6551 12.975 99.031 9.53125C99.3098 7.17877 102.863 6.75432 104.536 8.03971ZM96.5811 8.51261V12.9023C96.5811 17.4374 89.269 17.4374 89.269 12.9023V8.51261C89.269 7.42134 90.8576 7.37279 90.8576 8.51261V12.9023C90.8576 15.2911 94.9925 15.4366 94.9925 12.9023V8.51261C94.9925 7.43338 96.5811 7.34851 96.5811 8.51261ZM46.511 7.4092C48.6331 7.51825 50.8521 8.98552 50.8521 11.8595C50.8521 14.7333 48.6331 16.2248 46.511 16.2248C44.2677 16.3219 41.9395 14.8303 41.9395 11.8595C41.9395 8.87637 44.2677 7.4092 46.511 7.4092ZM57.1944 7.71227C60.2744 7.71227 60.9049 11.8352 58.3342 12.8659L59.947 14.8303C60.5775 15.7641 59.3164 16.6613 58.5888 15.7398L56.7578 13.1206H54.854V15.3154C54.854 16.3703 53.2412 16.4067 53.2412 15.3396V8.45202C53.2412 8.02757 53.5687 7.71227 53.9688 7.71227H57.1944ZM32.0684 7.60322C32.4201 7.60322 32.6263 7.80937 32.8324 8.03971L35.5001 11.6412L38.2649 7.90629C38.665 7.40921 39.6472 7.60322 39.6472 8.43989V15.2669C39.6472 15.8004 39.3077 16.1036 38.9197 16.1036C38.4831 16.1036 38.1436 15.8004 38.1436 15.2669V10.7802L36.1307 13.3267C35.6941 13.8602 35.1485 13.8602 34.7483 13.3267L32.9415 10.7802V15.2669C32.9415 15.8004 32.505 16.1036 32.0684 16.1036C31.6804 16.1036 31.3409 15.8004 31.3409 15.2669V8.43988C31.3409 7.80938 31.8744 7.60322 32.0684 7.60322ZM65.9861 7.60322C67.5625 7.60322 68.9812 8.65818 68.9812 10.6832C68.9812 12.5991 67.5625 13.6662 65.9861 13.6662H63.961V15.2669C63.961 15.8004 63.6215 16.1036 63.1849 16.1036C62.7848 16.1036 62.3603 15.8004 62.3603 15.2669V8.43988C62.3603 8.03971 62.6756 7.60322 63.1849 7.60322H65.9861ZM77.5668 7.71227C77.9913 7.71227 78.3187 8.02757 78.3187 8.46416V15.3518C78.3187 15.7761 77.9913 16.1036 77.5668 16.1036C77.1303 16.1036 76.7423 15.7761 76.7423 15.3518V12.6961H72.7892V15.3518C72.7892 15.7761 72.4739 16.1036 72.0494 16.1036C71.5038 16.1036 71.1885 15.7761 71.1885 15.3518V8.46416C71.1885 8.02757 71.5038 7.71227 72.0494 7.71227C72.4739 7.71227 72.7892 8.02757 72.7892 8.46416V11.1077H76.7423V8.46416C76.7423 8.02757 77.1303 7.71227 77.5668 7.71227ZM86.0069 7.71227C87.1225 7.71227 87.0982 9.28868 86.0069 9.28868H82.5146V11.1077H85.5704C86.6496 11.1077 86.6496 12.6961 85.5704 12.6961H82.5146V14.515H86.2131C87.3165 14.515 87.4014 16.1036 86.2131 16.1036H81.6537C81.2292 16.1036 80.9018 15.7761 80.9018 15.3518V8.46416C80.9018 8.02757 81.2292 7.71227 81.6537 7.71227H86.0069ZM46.3776 8.98552C45.0195 8.98552 43.5401 9.94357 43.5401 11.8595C43.5401 13.7632 45.0195 14.7333 46.3776 14.7333C47.7721 14.7333 49.2636 13.7632 49.2636 11.8595C49.2636 9.94357 47.7721 8.98552 46.3776 8.98552ZM65.9861 9.13108H63.961V12.1505H65.9861C66.7985 12.1505 67.4412 11.435 67.4412 10.6832C67.4412 9.83442 66.7985 9.13108 65.9861 9.13108ZM57.1944 9.17953H54.854V11.726H57.1944C58.7707 11.726 58.8677 9.17953 57.1944 9.17953Z" fill="#7B7B7B"/>
<path d="M21.7213 14.0774C20.5391 18.827 16.2136 22.2061 11.1191 22.2061C6.00161 22.2061 1.71335 18.627 0.57959 13.8578C1.94288 13.8578 3.21736 13.864 3.80904 13.864C4.08816 13.864 4.14236 13.8688 4.15851 13.8677C4.60372 13.8458 5.16195 13.6988 5.53334 12.7957L6.94853 9.09375L10.0915 16.661C10.3741 17.2642 10.8458 17.2215 11.1272 17.2215H11.1537C11.7028 17.2215 11.9415 17.0291 12.1503 16.6312L15.7004 9.15049L16.9114 12.5219L16.9852 12.6851C17.2413 13.2468 17.4255 13.8016 18.0591 13.8741C18.1897 13.8891 19.7067 13.8626 21.7516 13.8626C21.7516 13.8626 21.7516 13.8757 21.7213 14.0774Z" fill="#7B7B7B"/>
<path d="M22.0676 11.2809C22.0676 11.3374 22.0676 11.4795 22.0665 11.4795H22.0642H18.8002L16.8959 6.16008C16.7263 5.76447 16.4714 5.1714 15.7287 5.1714C15.2742 5.1714 14.8636 5.54671 14.6307 6.16607L11.1786 14.1621L7.85573 6.21457C7.53047 5.50871 7.30557 5.17674 6.65506 5.17674C6.21332 5.17674 5.88922 5.33946 5.53629 6.17566L3.56402 11.5585L0.28727 11.5551C0.284961 11.4732 0.283813 11.3913 0.283813 11.3094C0.283813 5.32571 5.13491 0.489746 11.1186 0.489746C17.1023 0.489746 22.0676 5.29716 22.0676 11.2809Z" fill="#7B7B7B"/>
</svg>
