<svg width="32" height="32" viewBox="0 0 32 32" fill="none" xmlns="http://www.w3.org/2000/svg">
<path d="M16 1C9.45001 1 3.90001 5.2 1.85001 11H30.15C28.1 5.2 22.55 1 16 1Z" fill="#ED4C5C"/>
<path d="M16 31C22.55 31 28.1 26.85 30.15 21H1.85001C3.90001 26.85 9.45001 31 16 31Z" fill="#F9F9F9"/>
<path d="M1.85 11C1.3 12.55 1 14.25 1 16C1 17.75 1.3 19.45 1.85 21H30.15C30.7 19.45 31 17.75 31 16C31 14.25 30.7 12.55 30.15 11H1.85Z" fill="#2872A0"/>
<path d="M7.75 10.8501V18.9501C7.75 21.7501 10.1 24.0001 13 24.0001C15.9 24.0001 18.25 21.7501 18.25 18.9501V10.8501H7.75Z" fill="#ED4C5C"/>
<path d="M14.9 23.15L14.8 22.7L14.4 22L14.55 21.9L14.45 21.45L14.1 20.9L14.2 20.85L14.1 20.4L13.85 19.9L14.25 19.15L14.5 19.95L14.7 19.65L15 20.1L15.1 19.8L15.4 19.95L15.35 19.35L16.05 19.55L15.55 18.9H15.6L15.2 18.1L15.3 17.8L15.55 18.3L15.65 18.1L16.05 19.2V19.15L16.25 19.55L16.35 19.35L16.75 20.15L16.9 19.7L17.5 20.15C17.5 20.15 17.45 18.65 17.45 18.2C17.55 16.9 18 14.25 17.65 13.05C17.5 12.45 16.3 11 16.3 11C16.3 11 16.25 12.75 15.95 13.3C15.85 13.5 14.95 14.05 14.95 14.05L14.6 14L14.75 13.95L14.1 13.3L14.35 12L15 11.05L14 11.1L13.25 11.3L13.45 11.6L13 13.2L12.55 11.65L12.75 11.35L12 11.1L11 11.05L11.65 12L11.9 13.3L11.25 13.95L11.4 14L11 14.1C11 14.1 10.1 13.55 10 13.35C9.70001 12.85 9.65001 11.05 9.65001 11.05C9.65001 11.05 8.45001 12.5 8.30001 13.1C7.95001 14.35 8.45001 17 8.50001 18.25C8.55001 18.75 8.45001 20.2 8.45001 20.2L9.05001 19.75L9.20001 20.2L9.60001 19.4L9.70001 19.6L9.90001 19.2V19.25L10.3 18.15L10.4 18.35L10.65 17.85L10.75 18.15L10.35 18.95H10.4L9.90001 19.6L10.6 19.4V20L10.9 19.85L11 20.15L11.3 19.7L11.5 20L11.75 19.2L12.15 19.95L11.9 20.45L11.8 20.9L11.9 20.95L11.55 21.5L11.45 21.95L11.6 22.05L11.25 22.8L11.15 23.25L14.9 23.15Z" fill="white"/>
<path d="M10 20.85L10.1 20.65L10.55 20.45L10.85 20.35H11.05L11.1 20.3L10.8 20.15L10.75 20.1L10.5 20.2L10.3 20.35L10.7 19.85L11.05 19.05L10.5 19.4L10 20.3L9.8 20.4H9.3L9.05 20.35L8.75 20.5L8.8 20.55H9L9.2 20.65L9.65 20.6L9.15 20.75L9.05 20.95V21.25H9.1L9.15 21.1H9.4L9.85 20.7L9.5 21.25L9.45 21.5L9.6 21.85L9.7 21.8V21.55L9.9 21.35L10 20.85ZM15.95 20.85L15.9 20.65L15.45 20.45L15.15 20.35H14.95L14.9 20.3L15.2 20.15L15.25 20.1L15.5 20.2L15.7 20.35L15.3 19.85L14.95 19.05L15.5 19.4L16 20.3L16.2 20.4H16.7L16.95 20.35L17.25 20.5L17.2 20.55H17L16.8 20.65L16.35 20.6L16.85 20.75L16.95 20.95V21.25H16.9L16.85 21.1H16.6L16.15 20.7L16.5 21.25L16.55 21.5L16.4 21.85L16.3 21.8V21.55L16.1 21.35L15.95 20.85ZM10.7 11.1C10.2 11.15 10.25 11.5 10.7 11.95C10.8 12.05 10.8 12.05 10.85 11.95C10.9 11.8 11.05 11.7 11.15 11.8C11.2 11.9 11.2 11.95 11.4 11.9C11.45 11.95 11.55 12 11.6 12.05C11.55 12.05 11.35 12.1 11.05 12.15C10.8 12.2 10.65 12.1 10.45 11.9C10.5 12.15 11.1 12.3 11.05 12.3C11.1 12.4 11.1 12.45 11.15 12.45C11.35 12.5 11.55 12.35 11.75 12.4C12.2 12.5 11.45 11.25 11.5 11.2C11.55 11.1 10.85 10.9 10.7 11.1ZM14.8 12.5C14.85 12.5 14.85 12.5 14.9 12.35C14.85 12.35 15.45 12.2 15.5 11.95C15.35 12.15 15.15 12.25 14.9 12.2C14.6 12.15 14.4 12.05 14.35 12.1C14.4 12.05 14.45 12 14.55 11.95C14.75 12 14.75 11.95 14.8 11.85C14.9 11.75 15.05 11.8 15.1 12C15.1 12.1 15.15 12.1 15.25 12C15.7 11.55 15.75 11.2 15.25 11.15C15.15 10.95 14.45 11.15 14.5 11.3C14.5 11.35 13.8 12.6 14.25 12.5C14.4 12.4 14.6 12.5 14.8 12.5Z" fill="#FFCE31"/>
<path d="M10.8 14.3V17.95C10.8 19.05 11.8 19.95 13 19.95C14.2 19.95 15.2 19.05 15.2 17.95V14.3H10.8Z" fill="#ED4C5C"/>
<path d="M12.4 13.6499H13.65V21.1499H12.4V13.6499Z" fill="white"/>
<path d="M9.54999 16.15H16.45V17.4H9.54999V16.15ZM12 15.2L11.5 15.7L11.65 15.2L11.5 14.75L12 15.2ZM12 18.35L11.5 18.85L11.65 18.35L11.5 17.85L12 18.35ZM14 15.2L14.5 15.7L14.4 15.2L14.5 14.75L14 15.2ZM14 18.35L14.5 18.85L14.4 18.35L14.5 17.85L14 18.35Z" fill="white"/>
<path d="M13.5 5.8501H12.5V6.8501H13.5V5.8501Z" fill="#428BC1"/>
<path d="M12.55 5.2L12.65 5.25L12.75 5.2H12.9V5.8H12.5V6H13.5V5.8H13.1V5.2H13.25L13.35 5.25L13.45 5.2L13.55 5.1L13.45 5L13.35 4.9L13.25 5H13.1V4.8L13.2 4.7L13.1 4.6L13 4.5L12.9 4.6L12.8 4.7L12.9 4.8V5H12.75L12.65 4.9L12.55 5L12.45 5.1L12.55 5.2ZM16.25 7.2C15.6 6.85 15.2 6.75 15.05 7C15.05 7 15.05 7.05 15 7.05C14.2 6.65 13.6 6.6 13 6.85C12.4 6.6 11.85 6.65 11 7.05C11 7 11 7 10.95 7C10.8 6.75 10.4 6.8 9.74999 7.2C9.09999 7.55 8.49999 8.05 8.64999 8.25C8.69999 8.6 8.89999 8.9 9.24999 9.25C9.64999 9.45 10.45 9.5 11.3 9.45C12.4 9.4 13.55 9.4 14.65 9.45C15.5 9.5 16.3 9.45 16.7 9.25C17.05 8.9 17.25 8.6 17.3 8.25C17.5 8.1 16.85 7.6 16.25 7.2Z" fill="#FFCE31"/>
<path d="M13.7 8.59999C14.1 8.24999 14.35 7.89999 14.55 7.54999C14.2 7.44999 13.85 7.39999 13.55 7.44999C13.6 7.84999 13.65 8.24999 13.7 8.59999ZM12.3 8.59999C12.35 8.19999 12.4 7.79999 12.5 7.39999C12.2 7.34999 11.85 7.39999 11.5 7.49999C11.6 7.89999 11.9 8.24999 12.3 8.59999ZM16.3 7.89999C16.25 7.84999 16.15 7.74999 16 7.69999C15.85 7.64999 15.7 7.59999 15.6 7.59999C15.55 7.99999 15.4 8.39999 15.05 8.79999C15.2 8.79999 15.35 8.74999 15.45 8.69999C15.85 8.49999 16.1 8.24999 16.3 8.04999C16.35 7.99999 16.35 7.94999 16.3 7.89999ZM10.4 7.54999C10.3 7.54999 10.15 7.59999 9.99999 7.64999C9.74999 7.74999 9.59999 7.94999 9.69999 7.99999C9.89999 8.19999 10.15 8.39999 10.55 8.64999C10.65 8.69999 10.8 8.69999 10.95 8.74999C10.6 8.34999 10.45 7.99999 10.4 7.54999Z" fill="#ED4C5C"/>
<path d="M9.29999 9.25H16.7V10.25H9.29999V9.25Z" fill="#FFCE31"/>
<path d="M9.30001 9.44995L9.10001 9.79995L9.35001 10.05L9.70001 9.69995L9.30001 9.44995ZM16.7 9.44995L16.3 9.69995L16.65 10.05L16.9 9.79995L16.7 9.44995ZM13 9.19995L12.6 9.54995L13 9.84995L13.4 9.54995L13 9.19995Z" fill="#428BC1"/>
<path d="M11.15 9.90005L11.5 9.55005L11.1 9.30005L10.75 9.60005L11.15 9.90005ZM14.85 9.90005L15.25 9.60005L14.9 9.30005L14.5 9.55005L14.85 9.90005Z" fill="#ED4C5C"/>
</svg>
