<svg width="169" height="56" viewBox="0 0 169 56" fill="none" xmlns="http://www.w3.org/2000/svg">
<path d="M28.1191 14.7489H28.802V14.0659H28.1191V14.7489ZM26.7186 38.758L27.3248 39.0724L27.3258 39.0705L26.7186 38.758ZM22.517 42.9396L22.8327 43.5452L22.8361 43.5434L22.517 42.9396ZM3.08956 14.7489V14.0659H2.40663V14.7489H3.08956ZM11.0326 14.7489H11.7155V14.0659H11.0326V14.7489ZM18.2553 37.2174L18.6016 37.8061L18.6101 37.801L18.2553 37.2174ZM19.7359 35.2767L19.094 35.0433L19.091 35.0519L19.7359 35.2767ZM20.2161 14.7489V14.0659H19.5332V14.7489H20.2161ZM27.4362 14.7489V32.3556H28.802V14.7489H27.4362ZM27.4362 32.3556C27.4362 34.723 26.9862 36.7458 26.1113 38.4455L27.3258 39.0705C28.3183 37.1421 28.802 34.8967 28.802 32.3556H27.4362ZM26.1123 38.4436C25.2454 40.1156 23.9477 41.4109 22.1978 42.3358L22.8361 43.5434C24.821 42.4942 26.3244 41.0018 27.3248 39.0724L26.1123 38.4436ZM22.2012 42.334C20.4585 43.2427 18.2342 43.7172 15.4943 43.7172V45.0831C18.3832 45.0831 20.8406 44.5839 22.8327 43.5451L22.2012 42.334ZM15.4943 43.7172C11.5787 43.7172 8.70048 42.7138 6.74748 40.81L5.79406 41.788C8.08268 44.019 11.3535 45.0831 15.4943 45.0831V43.7172ZM6.74748 40.81C4.79233 38.904 3.77249 36.1795 3.77249 32.5356H2.40663C2.40663 36.4413 3.5076 39.559 5.79406 41.788L6.74748 40.81ZM3.77249 32.5356V14.7489H2.40663V32.5356H3.77249ZM3.08956 15.4318H11.0326V14.0659H3.08956V15.4318ZM10.3497 14.7489V31.9154H11.7155V14.7489H10.3497ZM10.3497 31.9154C10.3497 34.0396 10.7418 35.736 11.6672 36.8528L12.7189 35.9814C12.097 35.2309 11.7155 33.9261 11.7155 31.9154H10.3497ZM11.6672 36.8528C12.6014 37.9804 13.9577 38.5006 15.6143 38.5006V37.1347C14.2565 37.1347 13.3319 36.7212 12.7189 35.9814L11.6672 36.8528ZM15.6143 38.5006C16.7734 38.5006 17.7846 38.2866 18.6016 37.8061L17.9091 36.6288C17.3656 36.9485 16.6161 37.1347 15.6143 37.1347V38.5006ZM18.6101 37.801C19.4482 37.2915 20.0312 36.5046 20.3808 35.5014L19.091 35.0519C18.827 35.8095 18.423 36.3163 17.9006 36.6338L18.6101 37.801ZM20.3777 35.5101C20.7348 34.5281 20.899 33.3076 20.899 31.8754H19.5332C19.5332 33.2176 19.3773 34.2645 19.0941 35.0433L20.3777 35.5101ZM20.899 31.8754V14.7489H19.5332V31.8754H20.899ZM20.2161 15.4318H28.1191V14.0659H20.2161V15.4318ZM48.827 21.0312L48.7304 21.7073L48.7399 21.7087L48.7494 21.7098L48.827 21.0312ZM49.8674 21.1713L50.5473 21.2358L50.6068 20.6083L49.9861 20.4988L49.8674 21.1713ZM49.1671 28.5541L48.9933 29.2146L49.771 29.4192L49.847 28.6186L49.1671 28.5541ZM48.1867 28.3941L48.0965 29.071L48.1076 29.0725L48.1188 29.0736L48.1867 28.3941ZM43.3249 29.0543L43.6739 29.6413L43.6785 29.6385L43.3249 29.0543ZM42.1044 30.4148L42.707 30.7362L42.7099 30.7307L42.1044 30.4148ZM41.6242 44V44.6829H42.3072V44H41.6242ZM33.8013 44H33.1183V44.6829H33.8013V44ZM33.8013 21.3314V20.6484H33.1183V21.3314H33.8013ZM39.6235 21.3314L40.2706 21.1133L40.114 20.6484H39.6235V21.3314ZM40.8439 24.9527L40.1968 25.1708L40.3534 25.6357H40.8439V24.9527ZM41.2241 24.9527V25.6357H41.6266L41.8216 25.2835L41.2241 24.9527ZM42.8047 22.932L43.2718 23.4302L43.2721 23.4299L42.8047 22.932ZM44.9855 21.4714L44.7091 20.8469L44.7053 20.8486L44.9855 21.4714ZM47.4865 21.6141C47.8778 21.6141 48.2923 21.6447 48.7304 21.7073L48.9236 20.3552C48.428 20.2844 47.9488 20.2483 47.4865 20.2483V21.6141ZM48.7494 21.7098C49.2136 21.7628 49.5433 21.8076 49.7487 21.8438L49.9861 20.4988C49.7379 20.455 49.3741 20.4064 48.9045 20.3527L48.7494 21.7098ZM49.1875 21.1068L48.4872 28.4896L49.847 28.6186L50.5473 21.2358L49.1875 21.1068ZM49.3409 27.8937C49.0396 27.8144 48.6738 27.7564 48.2547 27.7145L48.1188 29.0736C48.4999 29.1117 48.7878 29.1605 48.9933 29.2146L49.3409 27.8937ZM48.277 27.7171C47.8324 27.6578 47.2371 27.6311 46.5061 27.6311V28.997C47.2156 28.997 47.7408 29.0236 48.0965 29.071L48.277 27.7171ZM46.5061 27.6311C45.9698 27.6311 45.4051 27.6818 44.8132 27.7804L45.0378 29.1277C45.5663 29.0396 46.0553 28.997 46.5061 28.997V27.6311ZM44.8132 27.7804C44.164 27.8887 43.5489 28.1204 42.9713 28.4701L43.6785 29.6385C44.1146 29.3746 44.5666 29.2062 45.0378 29.1277L44.8132 27.7804ZM42.9759 28.4673C42.3528 28.8378 41.8656 29.3962 41.499 30.0989L42.7099 30.7307C42.9835 30.2064 43.3099 29.8578 43.6739 29.6413L42.9759 28.4673ZM41.5018 30.0934C41.1088 30.8303 40.9413 31.769 40.9413 32.8558H42.3072C42.3072 31.8884 42.4598 31.1998 42.707 30.7362L41.5018 30.0934ZM40.9413 32.8558V44H42.3072V32.8558H40.9413ZM41.6242 43.3171H33.8013V44.6829H41.6242V43.3171ZM34.4842 44V21.3314H33.1183V44H34.4842ZM33.8013 22.0143H39.6235V20.6484H33.8013V22.0143ZM38.9763 21.5495L40.1968 25.1708L41.4911 24.7346L40.2706 21.1133L38.9763 21.5495ZM40.8439 25.6357H41.2241V24.2698H40.8439V25.6357ZM41.8216 25.2835C42.1996 24.6006 42.682 23.9831 43.2718 23.4302L42.3376 22.4338C41.6469 23.0813 41.0755 23.811 40.6266 24.622L41.8216 25.2835ZM43.2721 23.4299C43.8718 22.8669 44.5358 22.4227 45.2658 22.0942L44.7053 20.8486C43.8346 21.2404 43.0447 21.7699 42.3373 22.4341L43.2721 23.4299ZM45.2619 22.0959C45.9923 21.7726 46.7321 21.6141 47.4865 21.6141V20.2483C46.5336 20.2483 45.606 20.4499 44.7091 20.8469L45.2619 22.0959ZM70.8354 23.072L70.383 23.5836L70.3854 23.5857L70.8354 23.072ZM73.2563 44V44.6829H73.9392V44H73.2563ZM67.8342 44L67.2234 44.3054L67.4122 44.6829H67.8342V44ZM66.3337 40.9989L66.9445 40.6934L66.7557 40.3159H66.3337V40.9989ZM66.1736 40.9989V40.3159H65.8454L65.6403 40.5722L66.1736 40.9989ZM64.1928 42.9596L64.5991 43.5086L64.6009 43.5072L64.1928 42.9596ZM61.892 44.04L61.7191 43.3792L61.7097 43.3819L61.892 44.04ZM61.6519 29.6946L61.6302 29.0119L61.6205 29.0123L61.6519 29.6946ZM65.4333 29.5745L65.455 30.2571L66.1162 30.2361V29.5745H65.4333ZM64.673 27.0936L64.2262 27.6101L64.2331 27.6159L64.673 27.0936ZM59.6711 26.9335L59.8556 27.5911L59.8608 27.5896L59.6711 26.9335ZM56.3699 28.134L55.7443 28.4079L56.0201 29.0376L56.6479 28.7577L56.3699 28.134ZM54.109 22.972L53.7986 22.3637L53.2252 22.6563L53.4834 23.246L54.109 22.972ZM65.4733 33.8761H66.1562V33.1622L65.443 33.1939L65.4733 33.8761ZM63.6726 33.9562L63.6979 34.6387L63.703 34.6384L63.6726 33.9562ZM60.6315 34.7165L61.0473 35.2582L61.0491 35.2569L60.6315 34.7165ZM60.3914 38.3378L59.9336 38.8447L59.9429 38.8528L60.3914 38.3378ZM64.4529 37.9777L64.0011 37.4656L63.9961 37.4701L64.4529 37.9777ZM64.1128 21.6141C66.8699 21.6141 68.9303 22.299 70.383 23.5836L71.2878 22.5604C69.5126 20.9906 67.0912 20.2483 64.1128 20.2483V21.6141ZM70.3854 23.5857C71.8186 24.8413 72.5734 26.6554 72.5734 29.1343H73.9392C73.9392 26.3579 73.08 24.1305 71.2854 22.5583L70.3854 23.5857ZM72.5734 29.1343V44H73.9392V29.1343H72.5734ZM73.2563 43.3171H67.8342V44.6829H73.2563V43.3171ZM68.4451 43.6946L66.9445 40.6934L65.7228 41.3043L67.2234 44.3054L68.4451 43.6946ZM66.3337 40.3159H66.1736V41.6818H66.3337V40.3159ZM65.6403 40.5722C65.0292 41.3361 64.4098 41.9463 63.7848 42.412L64.6009 43.5072C65.3364 42.9592 66.0375 42.2622 66.7069 41.4255L65.6403 40.5722ZM63.7866 42.4106C63.1951 42.8484 62.5087 43.1728 61.7192 43.3793L62.0648 44.7007C63.0092 44.4537 63.8567 44.0579 64.5991 43.5086L63.7866 42.4106ZM61.7097 43.3819C60.9202 43.6005 59.9252 43.7172 58.7108 43.7172V45.0831C60.0039 45.0831 61.1297 44.9597 62.0742 44.6982L61.7097 43.3819ZM58.7108 43.7172C57.499 43.7172 56.4341 43.4707 55.501 42.9922L54.8778 44.2075C56.0255 44.7961 57.3082 45.0831 58.7108 45.0831V43.7172ZM55.501 42.9922C54.588 42.524 53.8639 41.8166 53.3255 40.8473L52.1315 41.5106C52.7935 42.7021 53.71 43.6087 54.8778 44.2075L55.501 42.9922ZM53.3255 40.8473C52.7975 39.8969 52.5111 38.653 52.5111 37.0774H51.1452C51.1452 38.8096 51.459 40.3001 52.1315 41.5106L53.3255 40.8473ZM52.5111 37.0774C52.5111 34.8259 53.2778 33.2565 54.7401 32.2352L53.9581 31.1154C52.0591 32.4417 51.1452 34.4737 51.1452 37.0774H52.5111ZM54.7401 32.2352C56.2713 31.1658 58.5584 30.5206 61.6833 30.3768L61.6205 29.0123C58.3696 29.162 55.7882 29.8372 53.9581 31.1154L54.7401 32.2352ZM61.6735 30.3771L65.455 30.2571L65.4116 28.8919L61.6302 29.012L61.6735 30.3771ZM66.1162 29.5745V29.2544H64.7504V29.5745H66.1162ZM66.1162 29.2544C66.1162 28.1468 65.8406 27.184 65.1129 26.5712L64.2331 27.6159C64.5192 27.8568 64.7504 28.3345 64.7504 29.2544H66.1162ZM65.1198 26.577C64.4699 26.015 63.6283 25.7704 62.6723 25.7704V27.1362C63.3969 27.1362 63.8891 27.3185 64.2263 27.6101L65.1198 26.577ZM62.6723 25.7704C61.699 25.7704 60.6333 25.9444 59.4814 26.2774L59.8608 27.5896C60.9231 27.2824 61.8582 27.1362 62.6723 27.1362V25.7704ZM59.4867 26.2759C58.3589 26.5923 57.2272 27.004 56.0918 27.5102L56.6479 28.7577C57.7267 28.2768 58.7958 27.8883 59.8556 27.591L59.4867 26.2759ZM56.9954 27.86L54.7346 22.698L53.4834 23.246L55.7443 28.4079L56.9954 27.86ZM54.4194 23.5803C55.6653 22.9446 57.0873 22.456 58.6908 22.1198L58.4105 20.783C56.7062 21.1404 55.167 21.6655 53.7986 22.3637L54.4194 23.5803ZM58.6908 22.1198C60.2901 21.7845 62.0961 21.6141 64.1128 21.6141V20.2483C62.0213 20.2483 60.1192 20.4248 58.4105 20.783L58.6908 22.1198ZM65.443 33.1939L63.6423 33.2739L63.703 34.6384L65.5036 34.5584L65.443 33.1939ZM63.6474 33.2737C62.1778 33.3281 60.9786 33.5852 60.2139 34.1761L61.0491 35.2569C61.4582 34.9407 62.2864 34.6909 63.6979 34.6386L63.6474 33.2737ZM60.2157 34.1747C59.448 34.7639 59.0882 35.6126 59.0882 36.6172H60.4541C60.4541 35.9678 60.6679 35.5494 61.0473 35.2582L60.2157 34.1747ZM59.0882 36.6172C59.0882 37.5063 59.3278 38.2975 59.9336 38.8446L60.8491 37.831C60.628 37.6313 60.4541 37.2753 60.4541 36.6172H59.0882ZM59.9429 38.8528C60.5086 39.3455 61.228 39.561 62.032 39.561V38.1951C61.4755 38.1951 61.1012 38.0504 60.8399 37.8229L59.9429 38.8528ZM62.032 39.561C63.1375 39.561 64.1101 39.2051 64.9098 38.4853L63.9961 37.4701C63.462 37.9508 62.8206 38.1951 62.032 38.1951V39.561ZM64.9048 38.4898C65.7414 37.7516 66.1562 36.7801 66.1562 35.6368H64.7904C64.7904 36.4142 64.5249 37.0034 64.0011 37.4656L64.9048 38.4898ZM66.1562 35.6368V33.8761H64.7904V35.6368H66.1562ZM79.9188 23.9123L79.38 23.4928L79.9188 23.9123ZM90.4428 22.5718L89.9725 23.067L89.9788 23.073L89.9853 23.0788L90.4428 22.5718ZM91.8634 24.2525L91.2877 24.6199L91.4891 24.9354H91.8634V24.2525ZM92.0234 24.2525V24.9354H92.8265L92.6975 24.1427L92.0234 24.2525ZM91.7633 21.8916L91.0825 21.9453L91.0826 21.946L91.7633 21.8916ZM91.6433 12.8681V12.1852H90.9604V12.8681H91.6433ZM99.5263 12.8681H100.209V12.1852H99.5263V12.8681ZM99.5263 44V44.6829H100.209V44H99.5263ZM93.624 44L93.0352 44.3459L93.2332 44.6829H93.624V44ZM91.9434 41.1389L92.5323 40.793L92.3343 40.456H91.9434V41.1389ZM91.6433 41.1389V40.456H91.2566L91.0577 40.7875L91.6433 41.1389ZM90.2828 42.7795L89.8252 42.2725L89.819 42.2782L90.2828 42.7795ZM88.322 43.96L88.0798 43.3214L88.0761 43.3229L88.322 43.96ZM91.4632 37.0373L90.8906 36.6652L90.8891 36.6676L91.4632 37.0373ZM92.3035 33.396L92.9863 33.4128L92.9865 33.4044V33.396H92.3035ZM91.5433 28.6742L90.9358 28.9864L90.9411 28.9964L91.5433 28.6742ZM86.4213 28.5941L86.987 28.9768L86.4213 28.5941ZM86.4213 36.9373L85.8638 37.3319L85.8709 37.3415L86.4213 36.9373ZM85.621 43.7172C83.5169 43.7172 81.7914 42.8371 80.4029 41.0063L79.3147 41.8317C80.9407 43.9758 83.0566 45.0831 85.621 45.0831V43.7172ZM80.4029 41.0063C79.0225 39.1861 78.2809 36.45 78.2809 32.6957H76.915C76.915 36.5977 77.6806 39.6771 79.3147 41.8317L80.4029 41.0063ZM78.2809 32.6957C78.2809 28.9025 79.0421 26.1502 80.4577 24.3319L79.38 23.4928C77.7011 25.6493 76.915 28.7526 76.915 32.6957H78.2809ZM80.4577 24.3319C81.8795 22.5056 83.6839 21.6141 85.9211 21.6141V20.2483C83.2498 20.2483 81.0526 21.3443 79.38 23.4928L80.4577 24.3319ZM85.9211 21.6141C86.8715 21.6141 87.6548 21.752 88.2885 22.0055L88.7957 20.7373C87.9622 20.4039 86.9982 20.2483 85.9211 20.2483V21.6141ZM88.2885 22.0055C88.9477 22.2691 89.5062 22.624 89.9725 23.067L90.9132 22.0767C90.3124 21.5059 89.6038 21.0605 88.7957 20.7373L88.2885 22.0055ZM89.9853 23.0788C90.4863 23.5309 90.9202 24.0441 91.2877 24.6199L92.439 23.885C92.0063 23.207 91.4931 22.5998 90.9004 22.0648L89.9853 23.0788ZM91.8634 24.9354H92.0234V23.5696H91.8634V24.9354ZM92.6975 24.1427C92.6085 23.596 92.5235 22.8302 92.4441 21.8371L91.0826 21.946C91.1632 22.9537 91.2517 23.7619 91.3494 24.3622L92.6975 24.1427ZM92.4441 21.8378C92.3654 20.841 92.3262 19.8719 92.3262 18.9305H90.9604C90.9604 19.9098 91.0012 20.9148 91.0825 21.9453L92.4441 21.8378ZM92.3262 18.9305V12.8681H90.9604V18.9305H92.3262ZM91.6433 13.5511H99.5263V12.1852H91.6433V13.5511ZM98.8434 12.8681V44H100.209V12.8681H98.8434ZM99.5263 43.3171H93.624V44.6829H99.5263V43.3171ZM94.2129 43.6541L92.5323 40.793L91.3546 41.4848L93.0352 44.3459L94.2129 43.6541ZM91.9434 40.456H91.6433V41.8218H91.9434V40.456ZM91.0577 40.7875C90.7341 41.3269 90.3246 41.8219 89.8252 42.2725L90.7403 43.2865C91.3347 42.7501 91.8322 42.1514 92.2289 41.4903L91.0577 40.7875ZM89.819 42.2782C89.3581 42.7045 88.7828 43.0548 88.0798 43.3214L88.5642 44.5985C89.4086 44.2783 90.1403 43.8416 90.7465 43.2809L89.819 42.2782ZM88.0761 43.3229C87.4127 43.5789 86.5995 43.7172 85.621 43.7172V45.0831C86.7233 45.0831 87.7108 44.9279 88.5679 44.5971L88.0761 43.3229ZM88.8222 38.9007C90.2205 38.9007 91.3637 38.4531 92.0374 37.4071L90.8891 36.6676C90.549 37.1955 89.9316 37.5349 88.8222 37.5349V38.9007ZM92.0358 37.4095C92.6579 36.4524 92.9451 35.0877 92.9863 33.4128L91.6208 33.3792C91.582 34.9588 91.3089 36.0217 90.8906 36.6652L92.0358 37.4095ZM92.9865 33.396V32.7757H91.6206V33.396H92.9865ZM92.9865 32.7757C92.9865 30.9418 92.7295 29.4433 92.1454 28.3519L90.9411 28.9964C91.3708 29.7991 91.6206 31.035 91.6206 32.7757H92.9865ZM92.1507 28.362C91.5067 27.1089 90.2895 26.5507 88.7422 26.5507V27.9165C89.9426 27.9165 90.5928 28.3187 90.9358 28.9863L92.1507 28.362ZM88.7422 26.5507C87.54 26.5507 86.5709 27.1541 85.8557 28.2115L86.987 28.9768C87.4988 28.2201 88.077 27.9165 88.7422 27.9165V26.5507ZM85.8557 28.2115C85.1275 29.2879 84.818 30.8613 84.818 32.8157H86.1839C86.1839 30.9554 86.488 29.7144 86.987 28.9768L85.8557 28.2115ZM84.818 32.8157C84.818 34.7419 85.1268 36.2903 85.8639 37.3318L86.9788 36.5428C86.4887 35.8504 86.1839 34.651 86.1839 32.8157H84.818ZM85.8709 37.3415C86.6133 38.3525 87.6099 38.9007 88.8222 38.9007V37.5349C88.0872 37.5349 87.4831 37.2294 86.9717 36.5331L85.8709 37.3415ZM112.811 21.3314H113.494V20.6484H112.811V21.3314ZM112.811 44V44.6829H113.494V44H112.811ZM104.988 44H104.305V44.6829H104.988V44ZM104.988 21.3314V20.6484H104.305V21.3314H104.988ZM111.851 12.9082L111.515 13.5029L111.519 13.5051L111.851 12.9082ZM111.851 18.4303L112.187 19.025L112.19 19.0232L111.851 18.4303ZM105.989 18.4303L105.637 19.016L105.649 19.0226L105.989 18.4303ZM105.989 12.9082L105.649 12.3158L105.645 12.3183L105.989 12.9082ZM112.128 21.3314V44H113.494V21.3314H112.128ZM112.811 43.3171H104.988V44.6829H112.811V43.3171ZM105.671 44V21.3314H104.305V44H105.671ZM104.988 22.0143H112.811V20.6484H104.988V22.0143ZM108.93 12.8908C109.954 12.8908 110.808 13.1035 111.515 13.5029L112.187 12.3134C111.24 11.7792 110.147 11.525 108.93 11.525V12.8908ZM111.519 13.5051C112.054 13.802 112.429 14.4278 112.429 15.6892H113.794C113.794 14.1762 113.329 12.948 112.183 12.3112L111.519 13.5051ZM112.429 15.6892C112.429 16.8991 112.06 17.5241 111.512 17.8373L112.19 19.0232C113.322 18.376 113.794 17.1737 113.794 15.6892H112.429ZM111.515 17.8356C110.808 18.2349 109.954 18.4476 108.93 18.4476V19.8135C110.147 19.8135 111.24 19.5593 112.187 19.025L111.515 17.8356ZM108.93 18.4476C107.876 18.4476 107.018 18.2335 106.329 17.8379L105.649 19.0226C106.587 19.5607 107.69 19.8135 108.93 19.8135V18.4476ZM106.34 17.8447C105.829 17.5379 105.471 16.9131 105.471 15.6892H104.105C104.105 17.1596 104.548 18.3622 105.637 19.0159L106.34 17.8447ZM105.471 15.6892C105.471 14.4138 105.835 13.7884 106.333 13.4981L105.645 12.3183C104.542 12.9616 104.105 14.1903 104.105 15.6892H105.471ZM106.329 13.5005C107.018 13.1049 107.876 12.8908 108.93 12.8908V11.525C107.69 11.525 106.587 11.7777 105.649 12.3158L106.329 13.5005ZM131.639 44V44.6829H132.321V44H131.639ZM123.736 44H123.053V44.6829H123.736V44ZM123.736 21.2113H124.418V20.5284H123.736V21.2113ZM116.593 21.2113H115.91V21.8942H116.593V21.2113ZM116.593 14.7489V14.0659H115.91V14.7489H116.593ZM138.761 14.7489H139.444V14.0659H138.761V14.7489ZM138.761 21.2113V21.8942H139.444V21.2113H138.761ZM131.639 21.2113V20.5284H130.956V21.2113H131.639ZM131.639 43.3171H123.736V44.6829H131.639V43.3171ZM124.418 44V21.2113H123.053V44H124.418ZM123.736 20.5284H116.593V21.8942H123.736V20.5284ZM117.276 21.2113V14.7489H115.91V21.2113H117.276ZM116.593 15.4318H138.761V14.0659H116.593V15.4318ZM138.078 14.7489V21.2113H139.444V14.7489H138.078ZM138.761 20.5284H131.639V21.8942H138.761V20.5284ZM130.956 21.2113V44H132.321V21.2113H130.956ZM163.351 37.6576L162.707 37.4294L163.351 37.6576ZM161.09 41.359L161.576 41.8386L161.09 41.359ZM157.508 43.6399L157.741 44.2821L157.746 44.2801L157.508 43.6399ZM148.245 43.6399L148.001 44.2778L148.008 44.2806L148.245 43.6399ZM144.683 41.359L144.204 41.8451L144.683 41.359ZM142.323 37.6576L141.683 37.8961L141.685 37.9012L142.323 37.6576ZM142.863 26.2532L142.26 25.9331L142.258 25.9367L142.863 26.2532ZM146.784 22.2917L146.464 21.6886L146.462 21.6897L146.784 22.2917ZM158.689 22.2917L158.366 22.8938L158.689 22.2917ZM162.67 26.2532L162.073 26.5841L162.075 26.5876L162.67 26.2532ZM149.785 35.8969L149.123 36.0649L149.124 36.0673L149.785 35.8969ZM150.866 37.9177L150.397 38.4138L150.403 38.4203L150.41 38.4266L150.866 37.9177ZM154.787 37.9177L155.256 38.4142L155.263 38.4073L154.787 37.9177ZM155.828 35.8969L155.166 35.7289L155.164 35.736L155.828 35.8969ZM155.828 29.3744L155.165 29.5377L155.167 29.5472L155.828 29.3744ZM154.767 27.4137L154.306 27.9172L154.313 27.9233L154.767 27.4137ZM150.226 28.234L149.625 27.9092L149.621 27.9156L150.226 28.234ZM163.448 32.6157C163.448 34.4483 163.196 36.0494 162.707 37.4294L163.994 37.8858C164.545 36.3314 164.814 34.5712 164.814 32.6157H163.448ZM162.707 37.4294C162.217 38.8125 161.513 39.9576 160.604 40.8793L161.576 41.8386C162.64 40.7597 163.444 39.4371 163.994 37.8858L162.707 37.4294ZM160.604 40.8793C159.691 41.8043 158.584 42.512 157.271 42.9997L157.746 44.2801C159.234 43.7274 160.514 42.9145 161.576 41.8386L160.604 40.8793ZM157.276 42.9977C155.962 43.4732 154.462 43.7172 152.767 43.7172V45.0831C154.592 45.0831 156.254 44.8203 157.741 44.282L157.276 42.9977ZM152.767 43.7172C151.197 43.7172 149.771 43.4749 148.481 42.9991L148.008 44.2806C149.467 44.8185 151.055 45.0831 152.767 45.0831V43.7172ZM148.489 43.002C147.214 42.5147 146.108 41.8054 145.163 40.8729L144.204 41.8451C145.286 42.9134 146.554 43.7246 148.001 44.2778L148.489 43.002ZM145.163 40.8729C144.226 39.9479 143.49 38.7994 142.961 37.414L141.685 37.9012C142.276 39.4502 143.114 40.7694 144.204 41.8451L145.163 40.8729ZM142.963 37.4191C142.449 36.0423 142.185 34.4449 142.185 32.6157H140.819C140.819 34.5746 141.102 36.3384 141.683 37.8961L142.963 37.4191ZM142.185 32.6157C142.185 30.1881 142.624 28.1825 143.468 26.5698L142.258 25.9367C141.287 27.792 140.819 30.028 140.819 32.6157H142.185ZM143.466 26.5734C144.324 24.9564 145.535 23.7353 147.107 22.8938L146.462 21.6897C144.646 22.6621 143.242 24.0821 142.26 25.9331L143.466 26.5734ZM147.105 22.8948C148.694 22.0506 150.613 21.6141 152.887 21.6141V20.2483C150.438 20.2483 148.289 20.7188 146.464 21.6886L147.105 22.8948ZM152.887 21.6141C154.963 21.6141 156.784 22.0465 158.366 22.8938L159.011 21.6897C157.206 20.7229 155.158 20.2483 152.887 20.2483V21.6141ZM158.366 22.8938C159.941 23.7367 161.174 24.9613 162.073 26.5841L163.268 25.9224C162.246 24.0772 160.825 22.6608 159.011 21.6897L158.366 22.8938ZM162.075 26.5876C162.978 28.1962 163.448 30.1951 163.448 32.6157H164.814C164.814 30.021 164.31 27.7783 163.266 25.9189L162.075 26.5876ZM148.762 32.6157C148.762 33.9453 148.878 35.0992 149.123 36.0649L150.447 35.729C150.239 34.9073 150.128 33.8737 150.128 32.6157H148.762ZM149.124 36.0673C149.372 37.0311 149.783 37.8335 150.397 38.4138L151.335 37.4216C150.962 37.0682 150.652 36.5234 150.447 35.7266L149.124 36.0673ZM150.41 38.4266C151.066 39.0134 151.9 39.2809 152.847 39.2809V37.915C152.166 37.915 151.679 37.729 151.321 37.4087L150.41 38.4266ZM152.847 39.2809C153.792 39.2809 154.621 39.0137 155.256 38.4142L154.318 37.4212C153.993 37.7286 153.528 37.915 152.847 37.915V39.2809ZM155.263 38.4073C155.863 37.8244 156.258 37.0205 156.491 36.0578L155.164 35.736C154.971 36.534 154.672 37.0773 154.311 37.428L155.263 38.4073ZM156.49 36.0649C156.735 35.0992 156.851 33.9453 156.851 32.6157H155.485C155.485 33.8737 155.374 34.9073 155.166 35.729L156.49 36.0649ZM156.851 32.6157C156.851 31.2869 156.735 30.1439 156.488 29.2016L155.167 29.5472C155.374 30.339 155.485 31.3568 155.485 32.6157H156.851ZM156.491 29.2112C156.256 28.2562 155.849 27.4631 155.222 26.904L154.313 27.9233C154.673 28.2446 154.973 28.7587 155.165 29.5377L156.491 29.2112ZM155.229 26.9103C154.591 26.326 153.757 26.0705 152.807 26.0705V27.4364C153.51 27.4364 153.983 27.6211 154.306 27.9171L155.229 26.9103ZM152.807 26.0705C152.117 26.0705 151.483 26.2144 150.931 26.5312C150.377 26.8492 149.944 27.319 149.625 27.9093L150.826 28.5587C151.041 28.1619 151.305 27.8915 151.611 27.716C151.919 27.5392 152.309 27.4364 152.807 27.4364V26.0705ZM149.621 27.9156C149.024 29.0484 148.762 30.6411 148.762 32.6157H150.128C150.128 30.7221 150.386 29.3937 150.83 28.5524L149.621 27.9156Z" fill="#F4A93C"/>
<path d="M30.1679 14.7489V32.3556C30.1679 34.8098 29.701 36.944 28.7673 38.758C27.8336 40.5587 26.4331 41.9526 24.5657 42.9396C22.6983 43.9133 20.3575 44.4002 17.5431 44.4002C13.5149 44.4002 10.4403 43.3664 8.31954 41.299C6.19873 39.2315 5.13833 36.3104 5.13833 32.5356V14.7489H13.0814V31.9154C13.0814 33.9829 13.4682 35.4834 14.2418 36.4171C15.0154 37.3508 16.1559 37.8176 17.6631 37.8176C18.7435 37.8176 19.6238 37.6176 20.3041 37.2174C20.9844 36.8039 21.4779 36.157 21.7847 35.2767C22.1048 34.3963 22.2649 33.2626 22.2649 31.8754V14.7489H30.1679ZM49.5352 20.9312C49.9621 20.9312 50.4089 20.9646 50.8758 21.0313C51.3426 21.0846 51.6894 21.1313 51.9161 21.1713L51.2159 28.5541C50.9625 28.4874 50.6357 28.4341 50.2355 28.3941C49.8354 28.3407 49.2751 28.314 48.5549 28.314C48.0613 28.314 47.5345 28.3607 46.9743 28.4541C46.4141 28.5474 45.8805 28.7475 45.3737 29.0543C44.8801 29.3478 44.4733 29.8013 44.1532 30.4148C43.8331 31.0151 43.673 31.8287 43.673 32.8558V44H35.85V21.3314H41.6722L42.8927 24.9527H43.2729C43.6863 24.2058 44.2132 23.5322 44.8535 22.932C45.507 22.3184 46.234 21.8316 47.0343 21.4714C47.8479 21.1113 48.6816 20.9312 49.5352 20.9312ZM66.1616 20.9312C69.0293 20.9312 71.2702 21.6448 72.8841 23.072C74.4981 24.4859 75.3051 26.5067 75.3051 29.1343V44H69.883L68.3824 40.9989H68.2224C67.5821 41.7992 66.9219 42.4527 66.2416 42.9596C65.5747 43.4531 64.8077 43.8133 63.9407 44.04C63.0737 44.2801 62.0133 44.4002 60.7595 44.4002C59.4524 44.4002 58.2786 44.1334 57.2382 43.5998C56.1978 43.0663 55.3775 42.2593 54.7772 41.1789C54.177 40.0985 53.8769 38.7313 53.8769 37.0774C53.8769 34.6498 54.7172 32.8491 56.3979 31.6753C58.0785 30.5015 60.5128 29.8413 63.7006 29.6946L67.4821 29.5745V29.2544C67.4821 28.2407 67.2286 27.5204 66.7218 27.0936C66.2283 26.6667 65.5613 26.4533 64.721 26.4533C63.8274 26.4533 62.827 26.6134 61.7199 26.9335C60.6261 27.2403 59.5257 27.6404 58.4186 28.134L56.1578 22.972C57.4649 22.3051 58.9455 21.7982 60.5995 21.4514C62.2534 21.1046 64.1075 20.9312 66.1616 20.9312ZM67.5221 33.8761L65.7214 33.9562C64.2809 34.0095 63.2671 34.263 62.6802 34.7165C62.1067 35.1566 61.8199 35.7902 61.8199 36.6172C61.8199 37.3908 62.0267 37.9644 62.4402 38.3378C62.8536 38.698 63.4005 38.878 64.0808 38.878C65.0278 38.878 65.8348 38.5779 66.5017 37.9777C67.182 37.3775 67.5221 36.5972 67.5221 35.6368V33.8761ZM87.6698 44.4002C85.3355 44.4002 83.4148 43.4064 81.9076 41.419C80.4003 39.4316 79.6467 36.5238 79.6467 32.6957C79.6467 28.8276 80.4203 25.8998 81.9676 23.9123C83.5149 21.9249 85.5156 20.9312 87.9699 20.9312C88.9836 20.9312 89.8573 21.0779 90.5909 21.3714C91.3245 21.6648 91.9581 22.065 92.4916 22.5718C93.0385 23.0654 93.512 23.6256 93.9121 24.2525H94.0722C93.9788 23.6789 93.8921 22.892 93.8121 21.8916C93.7321 20.8779 93.6921 19.8908 93.6921 18.9305V12.8681H101.575V44H95.6728L93.9922 41.1389H93.6921C93.3319 41.7391 92.8784 42.286 92.3315 42.7795C91.798 43.2731 91.1444 43.6665 90.3708 43.96C89.6105 44.2534 88.7102 44.4002 87.6698 44.4002ZM90.871 38.2178C92.1248 38.2178 93.0051 37.8243 93.512 37.0373C94.0322 36.237 94.3123 35.0232 94.3523 33.396V32.7757C94.3523 30.9884 94.0989 29.6212 93.592 28.6742C93.0985 27.7138 92.1648 27.2336 90.791 27.2336C89.8573 27.2336 89.0836 27.6871 88.4701 28.5941C87.8565 29.5011 87.5497 30.9083 87.5497 32.8157C87.5497 34.6965 87.8565 36.0703 88.4701 36.9373C89.097 37.791 89.8973 38.2178 90.871 38.2178ZM114.86 21.3314V44H107.037V21.3314H114.86ZM110.979 12.2079C112.099 12.2079 113.073 12.4413 113.9 12.9082C114.74 13.375 115.16 14.302 115.16 15.6892C115.16 17.0364 114.74 17.9501 113.9 18.4303C113.073 18.8971 112.099 19.1305 110.979 19.1305C109.832 19.1305 108.851 18.8971 108.038 18.4303C107.237 17.9501 106.837 17.0364 106.837 15.6892C106.837 14.302 107.237 13.375 108.038 12.9082C108.851 12.4413 109.832 12.2079 110.979 12.2079ZM133.687 44H125.784V21.2113H118.642V14.7489H140.81V21.2113H133.687V44ZM166.18 32.6157C166.18 34.5097 165.92 36.1904 165.399 37.6576C164.879 39.1248 164.126 40.3586 163.139 41.359C162.151 42.3594 160.958 43.1197 159.557 43.6399C158.157 44.1467 156.576 44.4002 154.815 44.4002C153.175 44.4002 151.667 44.1467 150.294 43.6399C148.933 43.1197 147.746 42.3594 146.732 41.359C145.719 40.3586 144.932 39.1248 144.371 37.6576C143.824 36.1904 143.551 34.5097 143.551 32.6157C143.551 30.108 144.005 27.9872 144.912 26.2532C145.832 24.5192 147.139 23.1987 148.833 22.2917C150.54 21.3847 152.574 20.9312 154.935 20.9312C157.11 20.9312 159.044 21.3847 160.738 22.2917C162.432 23.1987 163.759 24.5192 164.719 26.2532C165.693 27.9872 166.18 30.108 166.18 32.6157ZM151.494 32.6157C151.494 33.9095 151.607 35.0032 151.834 35.8969C152.061 36.7772 152.421 37.4508 152.915 37.9177C153.421 38.3712 154.082 38.5979 154.895 38.5979C155.709 38.5979 156.356 38.3712 156.836 37.9177C157.316 37.4508 157.663 36.7772 157.876 35.8969C158.103 35.0032 158.217 33.9095 158.217 32.6157C158.217 31.3218 158.103 30.2414 157.876 29.3744C157.663 28.5074 157.31 27.8538 156.816 27.4137C156.336 26.9735 155.682 26.7534 154.855 26.7534C153.668 26.7534 152.808 27.247 152.274 28.234C151.754 29.221 151.494 30.6816 151.494 32.6157Z" fill="#F4A93C"/>
</svg>
