<svg width="58" height="58" viewBox="0 0 58 58" fill="none" xmlns="http://www.w3.org/2000/svg">
<path d="M34.872 45.4816C35.3312 45.4816 35.7904 45.3125 36.1529 44.95L50.822 30.2808C51.5229 29.58 51.5229 28.42 50.822 27.7191L36.1529 13.05C35.452 12.3491 34.292 12.3491 33.5912 13.05C32.8904 13.7508 32.8904 14.9108 33.5912 15.6116L46.9795 29L33.5912 42.3883C32.8904 43.0891 32.8904 44.2491 33.5912 44.95C33.9295 45.3125 34.4129 45.4816 34.872 45.4816Z" fill="#292D32"/>
<path d="M8.45836 30.8125H49.1309C50.1217 30.8125 50.9434 29.9908 50.9434 29C50.9434 28.0092 50.1217 27.1875 49.1309 27.1875H8.45836C7.46752 27.1875 6.64586 28.0092 6.64586 29C6.64586 29.9908 7.46752 30.8125 8.45836 30.8125Z" fill="#292D32"/>
</svg>
