<svg width="14" height="19" viewBox="0 0 14 19" fill="none" xmlns="http://www.w3.org/2000/svg">
<path d="M6.86648 18.2386C5.59375 18.2386 4.46023 18.0199 3.46591 17.5824C2.47727 17.1392 1.69602 16.5312 1.12216 15.7585C0.553977 14.9801 0.261364 14.0824 0.244318 13.0653H3.96023C3.98295 13.4915 4.12216 13.8665 4.37784 14.1903C4.6392 14.5085 4.9858 14.7557 5.41761 14.9318C5.84943 15.108 6.33523 15.196 6.875 15.196C7.4375 15.196 7.93466 15.0966 8.36648 14.8977C8.7983 14.6989 9.13636 14.4233 9.38068 14.071C9.625 13.7187 9.74716 13.3125 9.74716 12.8523C9.74716 12.3864 9.61648 11.9744 9.35511 11.6165C9.09943 11.2528 8.73011 10.9687 8.24716 10.7642C7.76989 10.5597 7.2017 10.4574 6.54261 10.4574H4.91477V7.74716H6.54261C7.09943 7.74716 7.59091 7.65057 8.01705 7.45739C8.44886 7.2642 8.78409 6.99716 9.02273 6.65625C9.26136 6.30966 9.38068 5.90625 9.38068 5.44602C9.38068 5.00852 9.27557 4.625 9.06534 4.29545C8.8608 3.96023 8.57102 3.69886 8.19602 3.51136C7.8267 3.32386 7.39489 3.23011 6.90057 3.23011C6.40057 3.23011 5.94318 3.32102 5.52841 3.50284C5.11364 3.67898 4.78125 3.93182 4.53125 4.26136C4.28125 4.59091 4.14773 4.97727 4.13068 5.42045H0.59375C0.610795 4.41477 0.897727 3.52841 1.45455 2.76136C2.01136 1.99432 2.76136 1.39489 3.70455 0.963068C4.65341 0.525568 5.72443 0.306818 6.91761 0.306818C8.12216 0.306818 9.17614 0.525568 10.0795 0.963068C10.983 1.40057 11.6847 1.99148 12.1847 2.73579C12.6903 3.47443 12.9403 4.30398 12.9347 5.22443C12.9403 6.2017 12.6364 7.01705 12.0227 7.67045C11.4148 8.32386 10.6222 8.73864 9.64489 8.91477V9.05114C10.929 9.21591 11.9063 9.66193 12.5767 10.3892C13.2528 11.1108 13.5881 12.0142 13.5824 13.0994C13.5881 14.0938 13.3011 14.9773 12.7216 15.75C12.1477 16.5227 11.3551 17.1307 10.3438 17.5739C9.33239 18.017 8.1733 18.2386 6.86648 18.2386Z" fill="#F4A93E"/>
</svg>
