<svg width="145" height="135" viewBox="0 0 145 135" fill="none" xmlns="http://www.w3.org/2000/svg">
<path d="M21.8429 124.031C49.8204 137.364 95.1787 137.369 123.156 124.031C151.134 110.694 151.13 89.0789 123.156 75.7459C95.1827 62.4128 49.8204 62.4128 21.8429 75.7459C-6.13456 89.0789 -6.1305 110.698 21.8429 124.031Z" fill="#F5F5F5"/>
<path d="M123.059 114.179C128.212 114.179 132.389 112.188 132.389 109.733C132.389 107.278 128.212 105.287 123.059 105.287C117.907 105.287 113.729 107.278 113.729 109.733C113.729 112.188 117.907 114.179 123.059 114.179Z" fill="#EBEBEB"/>
<path d="M19.7197 110.37L23.0204 108.466C24.8634 106.962 26.2661 104.989 27.0804 102.754C28.0995 99.9442 27.9574 97.8087 27.2266 96.7368C26.3293 95.4173 24.003 95.6488 23.9096 98.4258C23.7147 103.899 22.1191 107.695 19.7197 110.37Z" fill="#F4AD3C"/>
<path opacity="0.2" d="M19.7197 110.37L23.0204 108.466C24.8634 106.962 26.2661 104.989 27.0804 102.754C28.0995 99.9442 27.9574 97.8087 27.2266 96.7368C26.3293 95.4173 24.003 95.6488 23.9096 98.4258C23.7147 103.899 22.1191 107.695 19.7197 110.37Z" fill="black"/>
<path d="M19.72 110.572C19.677 110.571 19.6353 110.557 19.6009 110.531C19.5664 110.505 19.5411 110.469 19.5284 110.428C19.5158 110.387 19.5165 110.343 19.5305 110.303C19.5445 110.262 19.571 110.227 19.6063 110.202C27.2391 104.924 25.7613 97.5634 25.745 97.4903C25.7394 97.4637 25.7391 97.4362 25.7442 97.4094C25.7492 97.3826 25.7594 97.3571 25.7743 97.3343C25.7892 97.3115 25.8085 97.2919 25.831 97.2765C25.8534 97.2611 25.8787 97.2503 25.9054 97.2447C25.9321 97.2391 25.9596 97.2388 25.9863 97.2439C26.0131 97.2489 26.0386 97.2591 26.0614 97.274C26.0842 97.2889 26.1039 97.3082 26.1193 97.3307C26.1346 97.3531 26.1454 97.3784 26.151 97.4051C26.151 97.4822 27.7101 105.095 19.8499 110.535C19.8118 110.561 19.7661 110.574 19.72 110.572V110.572Z" fill="white"/>
<path d="M13.1063 114.19C13.1063 114.19 11.9573 113.257 12.2334 111.99C12.5095 110.723 13.2524 109.814 11.9817 108.182C10.7109 106.55 10.3577 104.373 11.8761 103.196C13.0332 102.283 14.8399 103.574 15.4895 101.166C15.9686 99.404 15.8062 95.5023 18.0514 94.2031C20.2965 92.9039 21.7054 94.8608 21.3521 97.508C21.0436 99.8749 20.6051 102.153 20.9461 102.786C21.6039 104.004 22.7285 103.837 22.6757 106.062C22.631 108.133 20.6701 109.846 20.6701 109.846L13.1063 114.19Z" fill="#F4AD3C"/>
<path d="M16.8783 112.204C16.8287 112.203 16.7809 112.185 16.7436 112.152C16.7063 112.119 16.6821 112.074 16.6753 112.025C16.0947 107.214 17.4873 98.9073 18.6241 96.4388C18.6337 96.4114 18.649 96.3864 18.669 96.3655C18.6891 96.3445 18.7134 96.3281 18.7403 96.3173C18.7673 96.3065 18.7962 96.3017 18.8252 96.303C18.8541 96.3044 18.8825 96.3119 18.9083 96.3251C18.9325 96.336 18.9543 96.3517 18.9724 96.3712C18.9905 96.3907 19.0045 96.4136 19.0136 96.4385C19.0227 96.4635 19.0266 96.4901 19.0253 96.5166C19.0239 96.5432 19.0173 96.5692 19.0057 96.5931C17.8811 99.0291 16.5372 107.36 17.0935 111.96C17.0992 112.013 17.0836 112.067 17.0501 112.109C17.0167 112.15 16.968 112.177 16.9148 112.183L16.8783 112.204Z" fill="white"/>
<path d="M16.7681 108.458C16.7371 108.459 16.7062 108.452 16.6788 108.438C15.27 107.751 14.3768 105.303 14.3402 105.19C14.3303 105.164 14.3255 105.137 14.3262 105.11C14.3268 105.083 14.3329 105.056 14.3441 105.032C14.3553 105.007 14.3713 104.985 14.3912 104.966C14.4111 104.948 14.4345 104.934 14.4601 104.924C14.4856 104.915 14.5127 104.911 14.5398 104.912C14.5669 104.914 14.5935 104.921 14.6179 104.933C14.6423 104.944 14.6641 104.961 14.6819 104.982C14.6998 105.002 14.7134 105.026 14.7219 105.052C14.7219 105.076 15.5948 107.447 16.8574 108.06C16.8989 108.08 16.9322 108.114 16.9521 108.155C16.972 108.197 16.9771 108.244 16.9667 108.289C16.9563 108.333 16.931 108.373 16.895 108.402C16.8589 108.43 16.8141 108.446 16.7681 108.446V108.458Z" fill="white"/>
<path d="M16.7437 110.082C16.703 110.082 16.6633 110.069 16.6299 110.046C16.5965 110.023 16.5711 109.99 16.557 109.952C16.5367 109.902 16.5369 109.847 16.5575 109.797C16.578 109.748 16.6172 109.708 16.6666 109.688C19.0376 108.738 20.5155 105.916 20.5317 105.883C20.5565 105.836 20.5992 105.799 20.6506 105.783C20.702 105.767 20.7578 105.771 20.8057 105.796C20.8537 105.821 20.8898 105.864 20.9061 105.915C20.9225 105.967 20.9178 106.022 20.893 106.07C20.8281 106.192 19.3299 109.058 16.833 110.065C16.8052 110.078 16.7744 110.084 16.7437 110.082V110.082Z" fill="white"/>
<path d="M99.6205 88.2386C99.6205 88.2386 97.8463 85.3641 97.6717 82.242C97.4971 79.1198 98.1832 77.8206 99.1252 77.4471C100.067 77.0736 100.14 78.2226 100.623 78.9006C101.106 79.5786 102.093 79.1929 102.458 77.0777C102.824 74.9624 104.156 71.3937 106.924 70.6994C109.969 69.9442 108.337 73.517 107.57 74.9096C106.803 76.3022 106.21 78.2023 106.713 78.7179C107.217 79.2335 108 78.2794 108.743 79.1645C109.649 80.2323 106.835 84.0771 105.219 85.0068L99.6205 88.2386Z" fill="#F4AD3C"/>
<path d="M102.052 87.0329C102.026 87.0319 102 87.0256 101.975 87.0144C101.951 87.0032 101.929 86.9874 101.911 86.9678C101.893 86.9482 101.879 86.9252 101.87 86.9001C101.861 86.8751 101.856 86.8485 101.858 86.8218C102.132 81.7994 103.699 76.9329 106.405 72.693C106.42 72.6709 106.44 72.6522 106.462 72.6379C106.485 72.6236 106.511 72.6141 106.537 72.6099C106.564 72.6057 106.591 72.607 106.617 72.6136C106.643 72.6202 106.668 72.632 106.689 72.6483C106.731 72.68 106.76 72.727 106.768 72.7793C106.777 72.8317 106.764 72.8852 106.734 72.9285C104.076 77.1064 102.538 81.8979 102.268 86.8421C102.266 86.8688 102.259 86.8949 102.248 86.9189C102.236 86.943 102.22 86.9645 102.2 86.9822C102.18 86.9999 102.156 87.0135 102.131 87.0222C102.106 87.0309 102.079 87.0346 102.052 87.0329Z" fill="white"/>
<path d="M102.284 84.6339C102.25 84.6336 102.217 84.6252 102.187 84.6095C101.05 83.9802 100.421 82.1126 100.396 82.0355C100.387 82.0102 100.384 81.9833 100.385 81.9565C100.387 81.9297 100.393 81.9035 100.405 81.8793C100.417 81.8551 100.433 81.8335 100.453 81.8157C100.473 81.7979 100.497 81.7843 100.522 81.7757C100.573 81.759 100.629 81.7633 100.677 81.7877C100.725 81.8121 100.761 81.8545 100.778 81.9056C100.778 81.9056 101.387 83.7042 102.402 84.2523C102.448 84.2794 102.482 84.3233 102.496 84.3748C102.51 84.4262 102.504 84.4813 102.479 84.5283C102.461 84.5633 102.432 84.592 102.398 84.6108C102.363 84.6296 102.324 84.6376 102.284 84.6339Z" fill="white"/>
<path d="M102.483 83.4038C102.438 83.4034 102.395 83.3879 102.36 83.36C102.324 83.3321 102.299 83.2932 102.289 83.2496C102.282 83.224 102.28 83.1973 102.284 83.1711C102.288 83.1449 102.297 83.1197 102.311 83.0971C102.324 83.0744 102.342 83.0546 102.363 83.039C102.385 83.0234 102.409 83.0121 102.435 83.006C105.366 82.263 106.381 80.7283 106.389 80.7121C106.404 80.6894 106.422 80.6698 106.444 80.6544C106.466 80.6389 106.491 80.628 106.517 80.6222C106.543 80.6163 106.571 80.6157 106.597 80.6203C106.623 80.6249 106.649 80.6347 106.671 80.6491C106.694 80.6635 106.714 80.6822 106.729 80.7042C106.744 80.7262 106.755 80.751 106.761 80.7772C106.767 80.8034 106.768 80.8305 106.763 80.8569C106.758 80.8834 106.749 80.9086 106.734 80.9313C106.69 81.0003 105.634 82.6121 102.536 83.3998L102.483 83.4038Z" fill="white"/>
<path d="M55.4484 81.9293C55.4484 81.9293 51.5548 80.9792 51.3518 73.6874C51.1366 65.8192 52.3059 56.6355 47.6978 55.8925C43.0897 55.1495 40.5319 60.7645 40.5888 67.3214C40.6415 73.0622 42.9557 85.5264 55.4321 87.9705L55.4484 81.9293Z" fill="#F4AD3C"/>
<path opacity="0.2" d="M55.4484 81.9293C55.4484 81.9293 51.5548 80.9792 51.3518 73.6874C51.1366 65.8192 52.3059 56.6355 47.6978 55.8925C43.0897 55.1495 40.5319 60.7645 40.5888 67.3214C40.6415 73.0622 42.9557 85.5264 55.4321 87.9705L55.4484 81.9293Z" fill="black"/>
<path d="M55.4484 87.224H55.4119C52.6064 86.7124 50.3206 85.1655 48.6195 82.6321C43.577 75.1089 45.1644 61.0613 45.6882 58.6091C45.6999 58.5569 45.7314 58.5112 45.776 58.4817C45.8207 58.4521 45.8751 58.4411 45.9277 58.4508C45.9803 58.4634 46.026 58.4957 46.0554 58.541C46.0849 58.5863 46.0959 58.6412 46.0861 58.6943C45.5704 61.1303 43.9911 74.9993 48.9565 82.4047C49.6792 83.5532 50.6328 84.5389 51.7566 85.2993C52.8805 86.0597 54.1501 86.5782 55.4849 86.822C55.5114 86.8269 55.5367 86.837 55.5593 86.8517C55.5818 86.8664 55.6012 86.8855 55.6163 86.9078C55.6314 86.9301 55.642 86.9551 55.6473 86.9815C55.6526 87.008 55.6526 87.0352 55.6474 87.0616C55.6387 87.1078 55.614 87.1494 55.5776 87.1792C55.5412 87.2089 55.4954 87.2248 55.4484 87.224V87.224Z" fill="white"/>
<path d="M55.4485 105.936C51.425 106.48 44.8925 106.472 41.1207 103.5C37.349 100.528 38.1366 97.9699 39.586 96.9021C41.0355 95.8343 42.2941 94.6163 39.8012 92.2453C37.3084 89.8742 33.3052 86.066 32.006 80.3535C30.7068 74.6411 31.3483 71.0683 33.898 69.8787C36.3705 68.7257 37.0242 70.5608 38.5386 74.3447C40.0529 78.1286 43.4593 74.8847 46.3744 76.0662C49.2894 77.2476 49.1717 79.5862 49.3544 81.5959C49.5371 83.6056 50.4993 84.1618 52.1517 84.1618C53.8042 84.1618 55.4485 85.1119 55.4485 87.0038V105.936Z" fill="#F4AD3C"/>
<path d="M55.4483 99.3021C55.4309 99.306 55.4129 99.306 55.3955 99.3021C55.2209 99.2534 51.0594 98.0435 44.9978 92.4773C38.5424 86.5497 35.4974 77.6583 35.465 77.5689C35.4494 77.5178 35.4542 77.4626 35.4784 77.4149C35.5027 77.3672 35.5444 77.3308 35.5949 77.3132C35.6455 77.2963 35.7007 77.3001 35.7486 77.3236C35.7964 77.3472 35.8331 77.3887 35.8507 77.439C35.8791 77.5284 38.8957 86.3223 45.2739 92.1768C51.2502 97.67 55.4605 98.9002 55.5051 98.9124C55.5307 98.9198 55.5546 98.9323 55.5754 98.949C55.5962 98.9656 55.6135 98.9863 55.6263 99.0096C55.6391 99.033 55.6472 99.0587 55.6501 99.0852C55.653 99.1117 55.6506 99.1385 55.6432 99.1641C55.63 99.2051 55.6039 99.2407 55.5687 99.2656C55.5336 99.2905 55.4913 99.3033 55.4483 99.3021Z" fill="white"/>
<path d="M46.6906 93.8891C46.6498 93.8897 46.6098 93.8775 46.5763 93.8542C46.5428 93.8309 46.5175 93.7976 46.5039 93.7591C45.2006 90.4137 44.9042 83.2559 44.8799 82.9514C44.8787 82.8978 44.8984 82.8459 44.9347 82.8065C44.9711 82.7672 45.0213 82.7434 45.0747 82.7403C45.1278 82.7411 45.1786 82.7614 45.2176 82.7973C45.2566 82.8333 45.2809 82.8824 45.2859 82.9352C45.2859 83.0082 45.5904 90.3284 46.8693 93.613C46.879 93.638 46.8838 93.6648 46.8831 93.6916C46.8825 93.7185 46.8765 93.745 46.8656 93.7695C46.8546 93.7941 46.8389 93.8162 46.8193 93.8346C46.7997 93.8531 46.7767 93.8674 46.7515 93.8769C46.7319 93.8839 46.7114 93.888 46.6906 93.8891V93.8891Z" fill="white"/>
<path d="M46.658 98.7005C46.2837 98.7034 45.9095 98.6844 45.5375 98.6436C45.5108 98.6404 45.485 98.632 45.4616 98.6189C45.4382 98.6057 45.4176 98.5881 45.401 98.567C45.3845 98.5458 45.3722 98.5217 45.3649 98.4958C45.3577 98.47 45.3556 98.4429 45.3588 98.4163C45.362 98.3896 45.3704 98.3639 45.3836 98.3405C45.3967 98.3171 45.4144 98.2965 45.4355 98.2799C45.4566 98.2633 45.4808 98.251 45.5066 98.2438C45.5325 98.2365 45.5595 98.2344 45.5862 98.2376C45.6227 98.2376 49.4026 98.668 51.1362 96.9019C51.1551 96.8829 51.1775 96.8678 51.2023 96.8575C51.227 96.8472 51.2535 96.8419 51.2803 96.8419C51.3071 96.8419 51.3337 96.8472 51.3584 96.8575C51.3831 96.8678 51.4056 96.8829 51.4245 96.9019C51.4434 96.9204 51.4584 96.9425 51.4686 96.9669C51.4789 96.9913 51.4842 97.0175 51.4842 97.044C51.4842 97.0705 51.4789 97.0967 51.4686 97.1211C51.4584 97.1455 51.4434 97.1676 51.4245 97.1861C50.1699 98.4812 47.9816 98.7005 46.658 98.7005Z" fill="white"/>
<path d="M59.4594 111.367L97.6234 89.3295C97.7075 89.3 97.7803 89.245 97.8319 89.1723C97.8834 89.0996 97.911 89.0127 97.911 88.9235C97.911 88.8344 97.8834 88.7475 97.8319 88.6748C97.7803 88.602 97.7075 88.5471 97.6234 88.5175L94.0953 86.4875C93.8768 86.3776 93.6355 86.3203 93.3909 86.3203C93.1462 86.3203 92.905 86.3776 92.6865 86.4875L54.5103 108.505C54.4262 108.534 54.3534 108.589 54.3018 108.662C54.2503 108.735 54.2227 108.822 54.2227 108.911C54.2227 109 54.2503 109.087 54.3018 109.16C54.3534 109.232 54.4262 109.287 54.5103 109.317L58.0506 111.347C58.2675 111.46 58.508 111.521 58.7526 111.524C58.9972 111.528 59.2393 111.474 59.4594 111.367V111.367Z" fill="#E0E0E0"/>
<path d="M96.5758 4.24573L62.1632 24.1154C61.6517 24.4492 61.226 24.8989 60.9205 25.4279C60.6151 25.9569 60.4386 26.5504 60.4053 27.1604V108.795C60.4053 109.915 61.1929 110.37 62.1632 109.81L96.5758 89.9402C97.088 89.607 97.5143 89.1576 97.8198 88.6284C98.1253 88.0992 98.3014 87.5053 98.3338 86.8952V5.26073C98.3338 4.14017 97.5502 3.68545 96.5758 4.24573Z" fill="#455A64"/>
<path d="M62.1634 24.1145L96.5759 4.24488C97.4448 3.74144 98.1634 4.05406 98.3096 4.92696C98.2284 4.37814 98.0319 3.85274 97.7331 3.38529C97.4343 2.91785 97.0399 2.51896 96.5759 2.21488L95.1468 1.40287C94.602 1.12647 93.9997 0.982422 93.3888 0.982422C92.7779 0.982422 92.1756 1.12647 91.6308 1.40287L57.2142 21.2563C56.6959 21.5813 56.2684 22.0325 55.9719 22.5677L60.921 25.4097C61.2175 24.8787 61.6452 24.4328 62.1634 24.1145V24.1145Z" fill="#37474F"/>
<path d="M55.4481 105.936C55.4814 106.546 55.658 107.139 55.9634 107.668C56.2688 108.197 56.6945 108.647 57.2061 108.981L58.6393 109.793C59.1353 110.041 59.6782 110.181 60.2323 110.205C60.7864 110.229 61.3393 110.135 61.8548 109.931C61.0428 110.247 60.3973 109.781 60.3973 108.778V27.1595C60.4176 26.547 60.5952 25.9499 60.9129 25.4259L55.9637 22.5839C55.6505 23.104 55.4731 23.6946 55.4481 24.3012V105.936Z" fill="#263238"/>
<path d="M63.1098 34.9918L95.6426 16.2143C96.2272 15.8814 96.6982 16.1534 96.6982 16.8233V77.2443C96.6787 77.6104 96.5729 77.9668 96.3894 78.2843C96.206 78.6018 95.9501 78.8715 95.6426 79.0713L63.122 97.8488C62.5374 98.1857 62.0664 97.9137 62.0664 97.2398V36.8188C62.0849 36.4538 62.1889 36.0982 62.3702 35.7809C62.5515 35.4635 62.8048 35.1932 63.1098 34.9918V34.9918Z" fill="white"/>
<path d="M79.3701 17.2728C79.1905 17.3906 79.0411 17.549 78.9339 17.7352C78.8267 17.9214 78.7647 18.1301 78.7529 18.3446C78.7529 18.7506 79.029 18.9008 79.3701 18.7019C79.5503 18.5847 79.7002 18.4265 79.8075 18.2402C79.9148 18.0538 79.9763 17.8447 79.9872 17.63C79.9872 17.2362 79.7111 17.0779 79.3701 17.2728Z" fill="#37474F"/>
<path d="M79.3696 91.3474C78.6598 91.8117 78.0694 92.4366 77.6462 93.1716C77.223 93.9066 76.9789 94.731 76.9336 95.5779C76.9336 97.1329 78.0257 97.7662 79.3696 96.9867C80.0791 96.5222 80.6693 95.8971 81.0925 95.1622C81.5157 94.4273 81.76 93.603 81.8056 92.7562C81.8137 91.2012 80.7175 90.5678 79.3696 91.3474Z" fill="#37474F"/>
<path d="M73.5276 23.559C73.1708 23.7959 72.8746 24.1133 72.663 24.4857C72.4515 24.858 72.3304 25.2749 72.3096 25.7027C72.3096 26.4903 72.8617 26.8111 73.5276 26.4172C73.8882 26.1826 74.1883 25.8662 74.4034 25.4937C74.6186 25.1212 74.7428 24.7031 74.7659 24.2736C74.7659 23.4859 74.2137 23.1652 73.5276 23.559Z" fill="#37474F"/>
<path d="M76.5605 23.2898C76.5605 23.8176 76.9666 24.0165 77.4416 23.7364L85.5616 19.039C85.8131 18.8819 86.024 18.6676 86.1771 18.4137C86.3302 18.1597 86.4211 17.8731 86.4426 17.5774C86.4426 17.0536 86.0366 16.8547 85.5616 17.1348L77.4416 21.8322C77.1906 21.9889 76.98 22.2025 76.8269 22.4558C76.6739 22.709 76.5826 22.9947 76.5605 23.2898V23.2898Z" fill="#37474F"/>
<path d="M58.1927 37.6059C58.4808 37.7936 58.7207 38.0465 58.8928 38.3442C59.0649 38.6419 59.1644 38.9759 59.1833 39.3192C59.1833 39.9526 58.7408 40.2084 58.1927 39.8917C57.9056 39.7033 57.6667 39.4502 57.4953 39.1526C57.3239 38.855 57.2249 38.5213 57.2061 38.1784C57.2061 37.5491 57.6487 37.2933 58.1927 37.6059Z" fill="#37474F"/>
<path d="M58.1926 45.2315C58.4808 45.4192 58.7206 45.6721 58.8927 45.9698C59.0648 46.2675 59.1644 46.6015 59.1833 46.9449C59.1833 47.5742 58.7407 47.8299 58.1926 47.5173C57.9055 47.329 57.6666 47.0758 57.4953 46.7782C57.3239 46.4806 57.2248 46.1469 57.2061 45.804C57.2061 45.1706 57.6486 44.9149 58.1926 45.2315Z" fill="#37474F"/>
<path d="M57.8842 37.7594C58.1723 37.9471 58.4122 38.2 58.5843 38.4977C58.7564 38.7953 58.8559 39.1294 58.8748 39.4727C58.8748 40.102 58.4323 40.3578 57.8842 40.0452C57.5961 39.8575 57.3562 39.6046 57.1841 39.3069C57.012 39.0092 56.9125 38.6752 56.8936 38.3319C56.8976 37.6985 57.3402 37.4549 57.8842 37.7594Z" fill="#455A64"/>
<path d="M57.8842 45.3814C58.1728 45.5694 58.413 45.823 58.5852 46.1214C58.7573 46.4199 58.8566 46.7547 58.8748 47.0988C58.8748 47.7281 58.4323 47.9838 57.8842 47.6671C57.5954 47.4802 57.355 47.2274 57.1828 46.9296C57.0106 46.6318 56.9115 46.2974 56.8936 45.9538C56.8976 45.3245 57.3402 45.0688 57.8842 45.3814Z" fill="#455A64"/>
<path d="M103.283 18.734C103.283 18.0601 102.812 17.7881 102.228 18.125L98.334 20.3702L69.707 36.9025C69.3995 37.1023 69.1436 37.372 68.9601 37.6895C68.7767 38.007 68.6709 38.3634 68.6514 38.7295V99.1342C68.6514 99.8082 69.1223 100.08 69.707 99.7432L98.3462 83.2068L102.228 80.9657C102.535 80.7659 102.791 80.4963 102.974 80.1788C103.158 79.8613 103.264 79.5049 103.283 79.1387V18.734Z" fill="white" stroke="#F4AD3C" stroke-miterlimit="10"/>
<path d="M69.2524 100.094C69.109 100.096 68.968 100.056 68.8464 99.9803C68.7081 99.8861 68.5975 99.7566 68.5262 99.6053C68.4548 99.4539 68.4252 99.2862 68.4404 99.1196V38.7312C68.459 38.3293 68.5738 37.9377 68.7752 37.5894C68.9765 37.2411 69.2585 36.9462 69.5975 36.7296L98.2246 20.1973L98.4276 20.5505L69.8005 37.0787C69.5245 37.2616 69.2946 37.506 69.1291 37.7927C68.9635 38.0794 68.8668 38.4007 68.8464 38.7312V99.1358C68.8183 99.2318 68.8233 99.3345 68.8604 99.4273C68.8976 99.5201 68.9649 99.5978 69.0515 99.6479C69.138 99.698 69.2389 99.7175 69.3379 99.7035C69.4369 99.6894 69.5284 99.6425 69.5975 99.5703L98.2368 83.0339L98.4398 83.3871L69.8005 99.9235C69.6348 100.025 69.4465 100.084 69.2524 100.094V100.094Z" fill="#F4AD3C" stroke="#F4AD3C" stroke-miterlimit="10"/>
<path d="M98.4476 83.3865L98.2446 83.0333L102.126 80.7922C102.402 80.6093 102.632 80.365 102.797 80.0782C102.963 79.7915 103.06 79.4702 103.08 79.1398V18.7351C103.108 18.6391 103.103 18.5365 103.066 18.4436C103.029 18.3508 102.962 18.2731 102.875 18.223C102.788 18.1729 102.688 18.1534 102.589 18.1675C102.49 18.1815 102.398 18.2284 102.329 18.3007L98.4354 20.5499L98.2324 20.1967L102.138 17.9677C102.27 17.8605 102.432 17.7958 102.601 17.7822C102.771 17.7687 102.94 17.8068 103.088 17.8917C103.235 17.9767 103.353 18.1043 103.427 18.2577C103.5 18.4112 103.525 18.5833 103.498 18.7513V79.1398C103.479 79.5421 103.364 79.9341 103.163 80.283C102.962 80.6319 102.68 80.9276 102.341 81.1454L98.4476 83.3865Z" fill="#F4AD3C" stroke="#F4AD3C" stroke-miterlimit="10"/>
<path d="M85.9676 32.7712C89.6216 30.6682 92.5651 32.3652 92.5651 36.5836C92.5651 40.8019 89.6094 45.9216 85.9676 48.0084C82.3258 50.0953 79.3701 48.4144 79.3701 44.2001C79.3701 39.9859 82.3258 34.8784 85.9676 32.7712Z" fill="#F4AD3C"/>
<path d="M85.9668 36.0837C87.1482 35.4016 88.1064 35.9538 88.1064 37.3017C88.0663 38.0443 87.8516 38.7669 87.4798 39.411C87.1081 40.055 86.5897 40.6023 85.9668 41.0085C84.7853 41.6906 83.8271 41.1384 83.8271 39.7905C83.8673 39.0479 84.0819 38.3253 84.4537 37.6813C84.8255 37.0372 85.3439 36.4899 85.9668 36.0837V36.0837Z" fill="#F4AD3C"/>
<path d="M90.1366 43.3594C90.1366 41.1182 88.5654 40.2088 86.6207 41.3294L85.4027 42.0317C83.462 43.1523 81.8867 45.8806 81.8867 48.1217V48.7267C83.0113 49.0961 84.4242 48.8972 85.9467 48.0081C87.6333 46.9677 89.0596 45.5554 90.1163 43.879L90.1366 43.3594Z" fill="#F4AD3C"/>
<path opacity="0.7" d="M85.9668 36.0837C87.1482 35.4016 88.1064 35.9538 88.1064 37.3017C88.0663 38.0443 87.8516 38.7669 87.4798 39.411C87.1081 40.055 86.5897 40.6023 85.9668 41.0085C84.7853 41.6906 83.8271 41.1384 83.8271 39.7905C83.8673 39.0479 84.0819 38.3253 84.4537 37.6813C84.8255 37.0372 85.3439 36.4899 85.9668 36.0837V36.0837Z" fill="white"/>
<path opacity="0.7" d="M90.1366 43.3594C90.1366 41.1182 88.5654 40.2088 86.6207 41.3294L85.4027 42.0317C83.462 43.1523 81.8867 45.8806 81.8867 48.1217V48.7267C83.0113 49.0961 84.4242 48.8972 85.9467 48.0081C87.6333 46.9677 89.0596 45.5554 90.1163 43.879L90.1366 43.3594Z" fill="white"/>
<path d="M73.2024 57.2855L81.6918 52.3851C82.0978 52.1618 82.3942 52.3404 82.3942 52.7911V53.0712C82.3814 53.3152 82.311 53.5527 82.189 53.7644C82.0669 53.9761 81.8966 54.1559 81.6918 54.2892L73.2024 59.1897C72.8167 59.413 72.5 59.2303 72.5 58.7837V58.5035C72.5132 58.2596 72.5836 58.0222 72.7057 57.8106C72.8277 57.599 72.9979 57.4191 73.2024 57.2855V57.2855Z" fill="#F4AD3C"/>
<path opacity="0.1" d="M73.2024 57.2855L81.6918 52.3851C82.0978 52.1618 82.3942 52.3404 82.3942 52.7911V53.0712C82.3814 53.3152 82.311 53.5527 82.189 53.7644C82.0669 53.9761 81.8966 54.1559 81.6918 54.2892L73.2024 59.1897C72.8167 59.413 72.5 59.2303 72.5 58.7837V58.5035C72.5132 58.2596 72.5836 58.0222 72.7057 57.8106C72.8277 57.599 72.9979 57.4191 73.2024 57.2855V57.2855Z" fill="black"/>
<path d="M72.8532 63.2006L98.5368 48.3735C98.7276 48.2598 98.8859 48.3491 98.8859 48.5765V51.5728C98.8788 51.6944 98.8435 51.8127 98.783 51.9183C98.7224 52.024 98.6381 52.1142 98.5368 52.1818L72.8532 67.0089C72.6583 67.1226 72.5 67.0292 72.5 66.8059V63.8096C72.507 63.6875 72.5426 63.5688 72.6039 63.463C72.6653 63.3572 72.7507 63.2673 72.8532 63.2006V63.2006Z" fill="#F4AD3C"/>
<path opacity="0.2" d="M72.8532 63.2006L98.5368 48.3735C98.7276 48.2598 98.8859 48.3491 98.8859 48.5765V51.5728C98.8788 51.6944 98.8435 51.8127 98.783 51.9183C98.7224 52.024 98.6381 52.1142 98.5368 52.1818L72.8532 67.0089C72.6583 67.1226 72.5 67.0292 72.5 66.8059V63.8096C72.507 63.6875 72.5426 63.5688 72.6039 63.463C72.6653 63.3572 72.7507 63.2673 72.8532 63.2006V63.2006Z" fill="white"/>
<path d="M73.2024 70.6129L81.6918 65.7125C82.0978 65.4892 82.3942 65.6719 82.3942 66.1185V66.3986C82.3817 66.6427 82.3115 66.8803 82.1894 67.092C82.0673 67.3038 81.8968 67.4835 81.6918 67.6166L73.2024 72.517C72.8167 72.7444 72.5 72.5617 72.5 72.111V71.8309C72.5138 71.5871 72.5845 71.35 72.7065 71.1385C72.8285 70.927 72.9983 70.747 73.2024 70.6129V70.6129Z" fill="#F4AD3C"/>
<path opacity="0.1" d="M73.2024 70.6129L81.6918 65.7125C82.0978 65.4892 82.3942 65.6719 82.3942 66.1185V66.3986C82.3817 66.6427 82.3115 66.8803 82.1894 67.092C82.0673 67.3038 81.8968 67.4835 81.6918 67.6166L73.2024 72.517C72.8167 72.7444 72.5 72.5617 72.5 72.111V71.8309C72.5138 71.5871 72.5845 71.35 72.7065 71.1385C72.8285 70.927 72.9983 70.747 73.2024 70.6129V70.6129Z" fill="black"/>
<path d="M72.8532 76.53L98.5368 61.7028C98.7276 61.5892 98.8859 61.6825 98.8859 61.9058V64.9021C98.8788 65.0237 98.8435 65.142 98.783 65.2477C98.7224 65.3533 98.6381 65.4435 98.5368 65.5111L72.8532 80.3382C72.6583 80.4519 72.5 80.3626 72.5 80.1352V77.139C72.507 77.0169 72.5426 76.8981 72.6039 76.7923C72.6653 76.6865 72.7507 76.5966 72.8532 76.53V76.53Z" fill="#F4AD3C"/>
<path opacity="0.2" d="M72.8532 76.53L98.5368 61.7028C98.7276 61.5892 98.8859 61.6825 98.8859 61.9058V64.9021C98.8788 65.0237 98.8435 65.142 98.783 65.2477C98.7224 65.3533 98.6381 65.4435 98.5368 65.5111L72.8532 80.3382C72.6583 80.4519 72.5 80.3626 72.5 80.1352V77.139C72.507 77.0169 72.5426 76.8981 72.6039 76.7923C72.6653 76.6865 72.7507 76.5966 72.8532 76.53V76.53Z" fill="white"/>
<path d="M83.0969 78.2295L93.2469 72.3791C93.6529 72.1517 93.9534 72.3344 93.9534 72.7851V75.9194C93.94 76.1637 93.8691 76.4015 93.7463 76.6132C93.6235 76.8249 93.4524 77.0045 93.2469 77.1374L83.0969 82.9919C82.6909 83.2152 82.3945 83.0325 82.3945 82.5859V79.4475C82.4087 79.2038 82.4795 78.9668 82.6015 78.7553C82.7234 78.5439 82.8931 78.3638 83.0969 78.2295Z" fill="#F4AD3C"/>
<path opacity="0.1" d="M83.0969 78.2295L93.2469 72.3791C93.6529 72.1517 93.9534 72.3344 93.9534 72.7851V75.9194C93.94 76.1637 93.8691 76.4015 93.7463 76.6132C93.6235 76.8249 93.4524 77.0045 93.2469 77.1374L83.0969 82.9919C82.6909 83.2152 82.3945 83.0325 82.3945 82.5859V79.4475C82.4087 79.2038 82.4795 78.9668 82.6015 78.7553C82.7234 78.5439 82.8931 78.3638 83.0969 78.2295Z" fill="black"/>
<path d="M107.131 65.0039C107.131 65.0039 102.146 58.1262 101.853 57.2899C101.622 56.6728 101.853 55.7552 101.927 55.3289C102 54.9026 102.065 53.9526 102.138 53.7049C102.259 53.2421 101.663 53.3354 101.326 53.7577C100.989 54.1799 100.875 55.0244 100.7 55.1624C100.526 55.3005 99.1982 53.3638 98.504 52.4706C97.8097 51.5774 97.3753 51.0334 96.949 51.3663C96.6445 51.6059 96.8719 52.1255 97.3753 52.8888C97.6693 53.2998 97.9404 53.7268 98.1873 54.1677C98.2644 54.3342 97.8503 54.3464 97.627 54.6915C97.4524 54.9594 97.627 55.3939 97.3834 55.6009C97.2335 55.715 97.1308 55.8802 97.0948 56.0652C97.0589 56.2501 97.0922 56.4418 97.1885 56.6037C97.6405 57.3134 98.2233 57.9307 98.9059 58.4226C99.653 58.9382 99.9534 59.1209 100.396 59.8233C100.838 60.5257 104.809 67.6997 105.077 68.1301C105.345 68.5604 105.861 69.4374 106.644 69.4618C107.428 69.4861 113.843 63.9645 114.172 63.6884C115.227 62.8074 115.564 62.6775 115.743 63.4733C115.804 63.7547 115.851 64.0393 115.881 64.3258C116.007 65.3327 116.693 68.9299 116.693 68.9299C116.693 68.9299 119.941 70.5011 122.608 69.7419C125.276 68.9827 126.177 67.8499 126.177 67.8499L124.841 65.6738C125.203 64.7765 126.871 61.1387 127.411 58.5931L119.048 57.2411C118.877 57.2046 118.601 57.1356 118.236 57.0422C117.777 56.9204 116.612 56.5185 115.731 57.2899C112.856 59.7949 107.14 65.0039 107.14 65.0039" fill="#FFA8A7"/>
<path d="M123.713 107.202L122.215 109.284C122.896 109.602 123.64 109.762 124.391 109.751C125.735 109.8 126.104 109.345 126.153 109.256C126.38 108.769 126.027 107.892 125.93 107.137L123.713 107.202Z" fill="#37474F"/>
<path d="M122.3 108.287C122.3 108.287 120.481 108.169 119.226 108.015C117.972 107.86 116.977 108.469 117.269 108.985C117.562 109.5 118.256 109.931 119.336 110.292C120.257 110.605 121.366 110.828 122.324 111.104C123.282 111.38 123.948 111.742 124.504 111.547C125.125 111.332 125.393 111.084 125.341 110.629C125.205 109.982 125.037 109.343 124.837 108.713L122.3 108.287Z" fill="#37474F"/>
<path d="M126.152 105.112C126.152 105.112 125.925 107.004 125.909 107.41C125.892 107.816 124.061 107.946 123.712 107.203L123.655 104.889L126.152 105.112Z" fill="#F28F8F"/>
<path d="M124.309 106.273L124.963 109.148C124.963 109.148 125.024 109.497 123.53 109.72C122.036 109.944 119.689 108.937 119.287 108.734C118.885 108.531 118.841 108.121 120.31 108.202C121.78 108.283 122.3 108.287 122.3 108.287L121.821 107.016L124.309 106.273Z" fill="#FFA8A7"/>
<path d="M127.387 58.5678L128.422 58.2795C128.422 58.2795 130.586 65.1288 130.826 65.7905C131.065 66.4523 131.337 67.1506 130.87 67.9667C130.314 68.937 127.387 72.8387 127.387 72.8387L125.527 71.0198L127.639 67.1547L125.771 63.3789L127.387 58.5678Z" fill="#F28F8F"/>
<path d="M116.754 49.6723C116.511 49.2167 116.388 48.707 116.396 48.1908C116.404 47.6746 116.542 47.1688 116.799 46.7207C117.83 44.8085 120.128 43.8787 122.864 44.2319C124.131 44.3984 125.625 45.4499 126.441 47.0212C127.342 48.7629 127.428 52.2707 127.659 53.5984L116.754 49.6723Z" fill="#37474F"/>
<path d="M116.68 50.4238C116.68 50.4238 116.031 51.6621 116.144 51.7758C116.313 51.8742 116.497 51.9428 116.688 51.9788L116.68 50.4238Z" fill="#FFA8A7"/>
<path d="M118.653 46.5097C117.947 46.9685 116.729 47.813 116.676 50.5941C116.619 53.4361 117.025 54.3739 117.448 54.7028C117.732 54.9261 119.401 54.8124 120.115 54.646C120.83 54.4795 122.888 53.4604 123.631 51.9136C124.504 50.0947 124.325 47.4476 123.03 46.6356C122.371 46.2458 121.624 46.0297 120.858 46.0077C120.093 45.9857 119.334 46.1584 118.653 46.5097V46.5097Z" fill="#FFA8A7"/>
<path d="M126.153 67.832C127.403 69.7808 128.589 71.486 128.849 73.6865C129.385 78.3109 127.631 83.597 127.253 87.0196C127.963 87.9931 128.372 89.1533 128.43 90.3569C128.43 91.7738 126.153 105.111 126.153 105.111C126.153 105.111 124.496 105.614 123.656 104.888L122.093 80.3531L122.905 77.3649L126.153 67.832Z" fill="#F4AD3C"/>
<path opacity="0.2" d="M126.153 67.832C127.403 69.7808 128.589 71.486 128.849 73.6865C129.385 78.3109 127.631 83.597 127.253 87.0196C127.963 87.9931 128.372 89.1533 128.43 90.3569C128.43 91.7738 126.153 105.111 126.153 105.111C126.153 105.111 124.496 105.614 123.656 104.888L122.093 80.3531L122.905 77.3649L126.153 67.832Z" fill="black"/>
<path d="M122.093 80.3542L122.905 77.366C124.46 76.9567 125.959 76.361 127.371 75.5918C127.371 75.5918 126.526 77.1305 124.098 77.975L122.844 81.8117L122.738 90.6016L122.093 80.3542Z" fill="#F4AD3C"/>
<path opacity="0.3" d="M122.093 80.3542L122.905 77.366C124.46 76.9567 125.959 76.361 127.371 75.5918C127.371 75.5918 126.526 77.1305 124.098 77.975L122.844 81.8117L122.738 90.6016L122.093 80.3542Z" fill="black"/>
<path d="M126.152 67.832C126.822 68.9282 128.422 70.7958 128.081 72.5944C127.675 74.7706 126.498 76.3012 122.917 77.3649L119.555 89.5449C119.555 89.5449 121.305 91.1689 121.841 92.7401C122.377 94.3114 124.309 106.28 124.309 106.28C124.309 106.28 123.708 107.259 121.82 107.023C121.82 107.023 115.239 92.0012 114.776 91.0228C114.215 90.0318 114.018 88.8754 114.22 87.7545C114.427 86.1792 116.656 68.9363 116.656 68.9363L126.152 67.832Z" fill="#F4AD3C"/>
<path opacity="0.2" d="M126.152 67.832C126.822 68.9282 128.422 70.7958 128.081 72.5944C127.675 74.7706 126.498 76.3012 122.917 77.3649L119.555 89.5449C119.555 89.5449 121.305 91.1689 121.841 92.7401C122.377 94.3114 124.309 106.28 124.309 106.28C124.309 106.28 123.708 107.259 121.82 107.023C121.82 107.023 115.239 92.0012 114.776 91.0228C114.215 90.0318 114.018 88.8754 114.22 87.7545C114.427 86.1792 116.656 68.9363 116.656 68.9363L126.152 67.832Z" fill="black"/>
<path d="M127.387 58.5685L119.023 57.2165C118.853 57.18 118.576 57.111 118.211 57.0176C118.211 57.0176 117.854 62.2631 115.706 63.4649C115.759 63.7166 115.803 63.9967 115.844 64.3175C115.97 65.3243 116.656 68.9215 116.656 68.9215C116.656 68.9215 119.904 70.4927 122.572 69.7335C125.239 68.9743 126.14 67.8415 126.14 67.8415L124.805 65.6654C125.178 64.76 126.859 61.1222 127.387 58.5685Z" fill="#F4AD3C"/>
<path opacity="0.7" d="M127.387 58.5685L119.023 57.2165C118.853 57.18 118.576 57.111 118.211 57.0176C118.211 57.0176 117.854 62.2631 115.706 63.4649C115.759 63.7166 115.803 63.9967 115.844 64.3175C115.97 65.3243 116.656 68.9215 116.656 68.9215C116.656 68.9215 119.904 70.4927 122.572 69.7335C125.239 68.9743 126.14 67.8415 126.14 67.8415L124.805 65.6654C125.178 64.76 126.859 61.1222 127.387 58.5685Z" fill="white"/>
<path d="M125.183 64.8008C124.072 65.4677 122.908 66.0421 121.703 66.5182C122.797 66.4963 123.868 66.2004 124.817 65.6574L125.183 64.8008Z" fill="#F4AD3C"/>
<path d="M118.447 46.6477C118.447 46.6477 118.041 49.2867 118.999 50.8376C118.999 50.8376 119.356 49.786 120.245 49.985C121.134 50.1839 121.183 51.3573 120.558 52.015C120.398 52.1998 120.19 52.3359 119.957 52.4077C119.723 52.4796 119.474 52.4841 119.238 52.421C119.238 52.421 119.1 54.3292 119.023 55.9288C118.946 57.5285 118.524 61.016 120.322 62.4248C122.121 63.8336 126.636 64.329 128.751 61.3733C129.928 59.729 128.365 56.822 127.639 53.5618C126.969 50.5656 126.591 46.1239 123.412 45.4094C120.233 44.6948 118.447 46.6477 118.447 46.6477Z" fill="#37474F"/>
</svg>
