<svg width="564" height="564" viewBox="0 0 564 564" fill="none" xmlns="http://www.w3.org/2000/svg">
<path d="M102.918 485.909C203.231 554.57 365.866 554.57 466.134 485.909C566.402 417.247 566.447 305.925 466.134 237.252C365.821 168.58 203.198 168.591 102.918 237.252C2.63918 305.914 2.60534 417.247 102.918 485.909Z" fill="#FAFAFA"/>
<path d="M383.058 500.651C411.216 500.651 434.043 486.47 434.043 468.977C434.043 451.484 411.216 437.303 383.058 437.303C354.899 437.303 332.072 451.484 332.072 468.977C332.072 486.47 354.899 500.651 383.058 500.651Z" fill="#EBEBEB"/>
<path d="M409.137 441.149C409.21 433.302 411.391 425.619 415.454 418.905C420.845 409.745 427.952 403.609 433.93 405.481C439.502 407.218 438.273 414.776 429.903 422.999C424.038 428.775 418.082 436.107 415.363 444.431L410.66 455.215L409.137 441.149Z" fill="#F4A93E"/>
<path d="M409.137 441.149C409.21 433.302 411.391 425.619 415.454 418.905C420.845 409.745 427.952 403.609 433.93 405.481C439.502 407.218 438.273 414.776 429.903 422.999C424.038 428.775 418.082 436.107 415.363 444.431L410.66 455.215L409.137 441.149Z" fill="#F4A93E"/>
<g opacity="0.1">
<path opacity="0.1" d="M409.137 441.149C409.21 433.302 411.391 425.619 415.454 418.905C420.845 409.745 427.952 403.609 433.93 405.481C439.502 407.218 438.273 414.776 429.903 422.999C424.038 428.775 418.082 436.107 415.363 444.431L410.66 455.215L409.137 441.149Z" fill="black"/>
</g>
<path d="M410.062 444.95C410.136 444.943 410.206 444.913 410.263 444.864C410.319 444.816 410.359 444.751 410.378 444.679C413.965 430.083 423.056 414.719 431.516 408.944C431.557 408.918 431.592 408.884 431.619 408.844C431.646 408.804 431.665 408.759 431.674 408.711C431.684 408.664 431.684 408.615 431.674 408.568C431.664 408.521 431.645 408.476 431.618 408.436C431.561 408.359 431.477 408.306 431.382 408.289C431.288 408.272 431.19 408.293 431.11 408.346C422.515 414.212 413.299 429.778 409.678 444.51C409.658 444.602 409.675 444.699 409.726 444.779C409.776 444.86 409.857 444.917 409.949 444.938C409.985 444.951 410.024 444.955 410.062 444.95Z" fill="white"/>
<path d="M409.08 457.697C411.904 460.199 415.334 461.918 419.029 462.683C425.402 464.082 428.414 461.171 428.414 461.171C428.414 461.171 426.248 454.99 422.695 453.084C426.595 454.201 430.276 455.975 433.58 458.329C433.58 458.329 437.506 458.622 439.423 452.689C439.423 452.689 437.314 448.944 429.621 446.53C433.519 446.056 437.474 446.481 441.183 447.771C441.691 447.996 444.341 440.382 445.21 436.852C446.079 433.321 444.646 433.265 441.905 432.34C439.164 431.415 429.7 430.4 427.861 431.821C426.023 433.242 424.827 438.442 424.827 438.442C423.995 436.686 423.671 434.733 423.891 432.802C421.981 432.13 419.911 432.055 417.958 432.588C414.754 433.49 414.867 435.036 414.731 437.314C414.583 439.606 414.762 441.908 415.262 444.15C415.262 444.15 413.209 442.153 413.547 435.25C413.547 435.25 409.103 438.634 407.219 441.634C405.335 444.635 405.279 452.813 409.08 457.697Z" fill="#F4A93E"/>
<path d="M409.058 458.058C409.126 458.064 409.194 458.051 409.254 458.019C409.314 457.987 409.364 457.938 409.396 457.878C415.228 447.399 435.273 436.029 442.266 435.092C442.314 435.087 442.359 435.072 442.4 435.048C442.442 435.024 442.477 434.993 442.506 434.955C442.534 434.917 442.555 434.873 442.566 434.827C442.577 434.781 442.579 434.733 442.571 434.686C442.565 434.639 442.55 434.593 442.527 434.551C442.503 434.509 442.472 434.473 442.434 434.443C442.396 434.414 442.353 434.392 442.307 434.38C442.261 434.367 442.212 434.364 442.165 434.37C435.058 435.318 414.687 446.88 408.765 457.517C408.741 457.558 408.725 457.604 408.719 457.652C408.713 457.699 408.716 457.747 408.729 457.793C408.741 457.84 408.763 457.883 408.792 457.921C408.822 457.958 408.858 457.99 408.9 458.013C408.947 458.044 409.002 458.059 409.058 458.058Z" fill="white"/>
<path d="M181.19 421.218L177.964 419.357C176.584 418.46 175.436 417.249 174.613 415.824C173.789 414.399 173.314 412.8 173.227 411.156V122.309C173.315 120.665 173.79 119.064 174.614 117.637C175.437 116.21 176.585 114.998 177.964 114.098L308.18 38.9163C309.65 38.1764 311.273 37.791 312.918 37.791C314.563 37.791 316.186 38.1764 317.656 38.9163L320.882 40.7775C322.261 41.6776 323.409 42.8903 324.232 44.317C325.055 45.7438 325.531 47.3445 325.619 48.9893V337.836C325.531 339.481 325.055 341.082 324.232 342.509C323.409 343.935 322.261 345.148 320.882 346.048L190.632 421.218C189.168 421.958 187.551 422.343 185.911 422.343C184.271 422.343 182.654 421.958 181.19 421.218Z" fill="#37474F"/>
<path d="M192.278 127.826L174.614 117.674C173.76 119.086 173.282 120.694 173.227 122.344V411.157C173.314 412.8 173.789 414.4 174.613 415.825C175.436 417.25 176.584 418.46 177.964 419.357L181.19 421.219C182.658 421.964 184.281 422.352 185.928 422.352C187.574 422.352 189.197 421.964 190.665 421.219L192.278 420.294V127.826Z" fill="#263238"/>
<path d="M185.928 129.642V418.489C185.928 421.512 188.048 422.73 190.665 421.219L320.882 346.049C322.261 345.149 323.409 343.936 324.232 342.509C325.055 341.083 325.531 339.482 325.619 337.837V48.9901C325.619 45.967 323.499 44.7488 320.882 46.249L190.631 121.43C189.258 122.334 188.117 123.548 187.3 124.975C186.483 126.401 186.013 128 185.928 129.642Z" fill="#455A64"/>
<path d="M196.339 150.025L314.779 81.6683C317.035 80.3824 318.84 81.4314 318.84 84.0146V309.276C318.759 310.683 318.349 312.052 317.644 313.272C316.939 314.493 315.958 315.531 314.779 316.304L196.339 384.66C194.083 385.958 192.278 384.909 192.278 382.314V157.086C192.354 155.673 192.761 154.298 193.467 153.072C194.172 151.845 195.156 150.801 196.339 150.025Z" fill="white"/>
<path d="M255.774 91.4367C257.522 90.4215 258.943 91.2449 258.943 93.2753C258.883 94.3754 258.564 95.4457 258.014 96.3999C257.463 97.3542 256.696 98.1656 255.774 98.7687C254.014 99.7839 252.593 98.9605 252.593 96.9413C252.652 95.8382 252.971 94.7646 253.524 93.808C254.077 92.8515 254.848 92.039 255.774 91.4367Z" fill="#263238"/>
<path d="M246.603 107.297C253.055 103.732 264.561 96.8851 270.923 93.1402C272.051 92.5085 272.874 92.9484 272.874 94.1215C272.825 94.7807 272.622 95.4191 272.281 95.9853C271.94 96.5516 271.471 97.0298 270.912 97.3814L246.558 111.448C245.43 112.079 244.584 111.628 244.584 110.455C244.641 109.805 244.855 109.178 245.206 108.628C245.558 108.078 246.037 107.621 246.603 107.297Z" fill="#263238"/>
<path d="M240.444 110.848C241.437 110.284 242.238 110.746 242.238 111.874C242.205 112.495 242.025 113.098 241.713 113.636C241.401 114.173 240.967 114.629 240.444 114.965C239.463 115.54 238.662 115.078 238.662 113.939C238.697 113.32 238.876 112.718 239.185 112.181C239.495 111.644 239.926 111.188 240.444 110.848Z" fill="#263238"/>
<path d="M256.901 357.824C261.03 355.444 264.369 357.373 264.369 362.144C264.231 364.738 263.483 367.263 262.185 369.513C260.888 371.763 259.077 373.675 256.901 375.094C252.773 377.474 249.423 375.545 249.423 370.773C249.565 368.179 250.317 365.655 251.616 363.406C252.915 361.156 254.726 359.244 256.901 357.824Z" fill="#263238"/>
<path d="M411.461 19.3224L407.276 16.9197C406.875 16.7267 406.428 16.6468 405.985 16.6885C405.542 16.7303 405.118 16.8921 404.76 17.1566L301.695 76.636C300.667 77.3078 299.811 78.2124 299.198 79.2766C298.584 80.3408 298.23 81.5345 298.164 82.7611V278.807C298.122 279.237 298.192 279.67 298.365 280.065C298.539 280.461 298.812 280.804 299.157 281.063L303.331 283.477L404.715 221.325C405.744 220.653 406.599 219.748 407.213 218.684C407.826 217.62 408.18 216.426 408.246 215.2L411.461 19.3224Z" fill="#F4A93E"/>
<path d="M303.308 283.478L299.202 281.098C298.854 280.84 298.58 280.497 298.405 280.101C298.231 279.706 298.164 279.271 298.209 278.842V82.7613C298.253 81.4572 298.642 80.1882 299.337 79.084L303.511 81.4979C302.812 82.6003 302.422 83.8704 302.383 85.1752V281.233C302.337 281.655 302.398 282.081 302.559 282.473C302.721 282.865 302.978 283.211 303.308 283.478Z" fill="#F4A93E"/>
<path opacity="0.3" d="M303.308 283.478L299.202 281.098C298.854 280.84 298.58 280.497 298.405 280.101C298.231 279.706 298.164 279.271 298.209 278.842V82.7613C298.253 81.4572 298.642 80.1882 299.337 79.084L303.511 81.4979C302.812 82.6003 302.422 83.8704 302.383 85.1752V281.233C302.337 281.655 302.398 282.081 302.559 282.473C302.721 282.865 302.978 283.211 303.308 283.478Z" fill="white"/>
<path d="M305.88 79.0615L408.946 19.5595C410.897 18.4315 412.476 19.3452 412.476 21.6012V217.704C412.41 218.93 412.056 220.124 411.443 221.188C410.83 222.253 409.974 223.157 408.946 223.829L305.892 283.331C303.929 284.459 302.35 283.545 302.35 281.289V85.1752C302.416 83.9504 302.771 82.7586 303.384 81.6964C303.998 80.6342 304.853 79.7315 305.88 79.0615Z" fill="#F4A93E"/>
<path opacity="0.6" d="M305.88 79.0615L408.946 19.5595C410.897 18.4315 412.476 19.3452 412.476 21.6012V217.704C412.41 218.93 412.056 220.124 411.443 221.188C410.83 222.253 409.974 223.157 408.946 223.829L305.892 283.331C303.929 284.459 302.35 283.545 302.35 281.289V85.1752C302.416 83.9504 302.771 82.7586 303.384 81.6964C303.998 80.6342 304.853 79.7315 305.88 79.0615Z" fill="white"/>
<path d="M407.264 16.92L411.302 19.255C410.912 19.111 410.492 19.0646 410.079 19.1196C409.666 19.1746 409.273 19.3295 408.933 19.5708L305.868 79.0615C304.888 79.667 304.07 80.5035 303.488 81.498L299.314 79.0841C299.893 78.0838 300.711 77.2427 301.695 76.6364L404.749 17.1456C405.106 16.8794 405.53 16.7174 405.974 16.6776C406.418 16.6378 406.865 16.7217 407.264 16.92Z" fill="#F4A93E"/>
<path opacity="0.8" d="M407.264 16.92L411.302 19.255C410.912 19.111 410.492 19.0646 410.079 19.1196C409.666 19.1746 409.273 19.3295 408.933 19.5708L305.868 79.0615C304.888 79.667 304.07 80.5035 303.488 81.498L299.314 79.0841C299.893 78.0838 300.711 77.2427 301.695 76.6364L404.749 17.1456C405.106 16.8794 405.53 16.7174 405.974 16.6776C406.418 16.6378 406.865 16.7217 407.264 16.92Z" fill="white"/>
<path d="M343.491 226.909C350.029 215.584 350.028 203.344 343.489 199.569C336.95 195.793 326.349 201.913 319.811 213.238C313.273 224.562 313.274 236.803 319.812 240.578C326.351 244.353 336.952 238.233 343.491 226.909Z" fill="#455A64"/>
<path d="M338.986 222.26L335.05 218.47L339.235 209.627L335.569 206.107L331.395 214.951L327.458 211.172L324.3 217.872L328.225 221.663L324.052 230.506L327.706 234.025L331.88 225.182L335.817 228.961L338.986 222.26Z" fill="white"/>
<path d="M397.89 195.501C404.428 184.176 404.427 171.936 397.889 168.16C391.35 164.385 380.749 170.505 374.21 181.829C367.672 193.154 367.673 205.394 374.212 209.17C380.751 212.945 391.352 206.825 397.89 195.501Z" fill="#455A64"/>
<path d="M396.774 179.352C396.837 178.721 396.747 178.084 396.511 177.494C396.276 176.905 395.902 176.382 395.421 175.968C394.439 175.269 392.995 175.302 391.405 176.216C388.664 177.795 386.408 182.556 386.058 185.815C385.72 182.95 383.464 180.796 380.723 182.431C379.012 183.504 377.624 185.021 376.707 186.819C375.869 188.323 375.405 190.006 375.354 191.726C375.354 196.633 379.29 199.227 382.595 200.536L386.07 201.901L389.555 196.52C392.838 191.343 396.774 184.202 396.774 179.352Z" fill="white"/>
<path d="M344.762 246.334L340.803 248.623V243.04L344.762 240.75V246.334Z" fill="white"/>
<path d="M339.968 243.512L321.131 254.386V251.272L315.852 260.229L321.131 263.083V259.969L339.968 249.095V243.512Z" fill="white"/>
<path d="M347.424 244.787L345.597 245.847V240.275L347.424 239.203V244.787Z" fill="white"/>
<path d="M372.928 224.483L376.898 222.193V227.777L372.928 230.067V224.483Z" fill="white"/>
<path d="M377.722 227.303L396.559 216.429V219.531L401.838 210.586L396.559 207.732V210.846L377.722 221.72V227.303Z" fill="white"/>
<path d="M370.266 226.029L372.104 224.969V230.541L370.266 231.601V226.029Z" fill="white"/>
<path d="M317.577 85.6149L400.112 37.9682C401.59 37.1109 402.797 37.799 402.797 39.5136V144.575C402.747 145.505 402.478 146.41 402.011 147.216C401.545 148.022 400.894 148.705 400.112 149.212L317.577 196.779C316.099 197.637 314.903 196.937 314.903 195.234V90.2397C314.956 89.3135 315.226 88.4127 315.69 87.6095C316.154 86.8063 316.801 86.1231 317.577 85.6149Z" fill="white"/>
<mask id="mask0_78_723" style="mask-type:alpha" maskUnits="userSpaceOnUse" x="314" y="37" width="89" height="161">
<path d="M317.577 85.6149L400.112 37.9682C401.59 37.1109 402.797 37.799 402.797 39.5136V144.575C402.747 145.505 402.478 146.41 402.011 147.216C401.545 148.022 400.894 148.705 400.112 149.212L317.577 196.779C316.099 197.637 314.903 196.937 314.903 195.234V90.2397C314.956 89.3135 315.226 88.4127 315.69 87.6095C316.154 86.8063 316.801 86.1231 317.577 85.6149Z" fill="white"/>
</mask>
<g mask="url(#mask0_78_723)">
<path d="M375.251 130.012C375.251 130.012 381.737 128.005 387.14 136.532C390.817 142.33 403.654 164.337 403.654 164.337C403.654 164.337 428.639 151.151 430.026 149.358C431.414 147.564 431.346 144.112 431.56 142.217C431.91 139.059 430.748 136.341 430.59 135.201C430.297 133.216 433.151 133.103 434.572 135.867C435.599 137.875 435.7 140.176 436.569 140.198C437.829 139.313 439.003 138.313 440.077 137.209C441.622 135.517 444.42 132.697 446.54 133.081C446.901 133.164 447.228 133.354 447.479 133.626C447.73 133.897 447.894 134.238 447.95 134.603C448.011 135.769 448.278 136.915 448.74 137.987C449.084 138.394 449.365 138.851 449.575 139.341C449.642 140.069 449.642 140.801 449.575 141.529C449.665 142.578 450.703 143.018 450.827 144.045C450.785 144.835 450.694 145.623 450.556 146.402C450.556 146.91 450.725 147.35 450.714 147.857C450.605 148.9 450.153 149.876 449.428 150.632C447.319 153.097 444.814 155.193 442.017 156.836C439.761 158.325 436.738 159.645 434.121 161.044C431.504 162.442 402.131 184.991 398.183 182.352C394.235 179.712 374.619 151.061 374.619 151.061C370.152 138.427 375.251 130.012 375.251 130.012Z" fill="#FFA8A7"/>
<path d="M363.858 130.205C363.858 130.205 371.01 127.306 375.646 127.61C380.282 127.915 383.722 129.223 387.118 134.694C391.63 141.992 399.176 154.603 399.176 154.603C395.987 161.16 390.897 166.604 384.568 170.226L370.728 149.336L363.858 130.205Z" fill="#455A64"/>
<path d="M341.174 142.838C338.782 144.755 337.018 147.344 336.109 150.272C335.051 153.806 334.534 157.479 334.575 161.168V184.913L334.271 229.852C349.341 234.985 368.494 230.461 384.568 212.594C384.568 212.594 383.677 155.066 383.677 145.669C383.677 145.241 383.677 144.812 383.677 144.372C383.102 131.051 371.596 124.869 360.271 131.276L350.762 136.645L341.208 142.838H341.174Z" fill="#FAFAFA"/>
<path d="M351.483 93.9732C351.483 104.125 358.601 110.408 367.366 108.051C376.13 105.693 383.259 95.5863 383.259 85.4907C383.259 75.3951 375.679 75.3387 366.903 77.7075C358.127 80.0763 351.483 83.8325 351.483 93.9732Z" fill="#263238"/>
<path d="M343.193 110.002C343.193 110.002 345.528 122.072 346.476 123.91C346.757 124.443 347.168 124.898 347.671 125.231C348.173 125.564 348.751 125.765 349.352 125.817L349.183 116.928L343.193 110.002Z" fill="#263238"/>
<path d="M346.126 91.0292C345.2 91.1777 344.318 91.5248 343.539 92.0466C342.76 92.5685 342.103 93.2526 341.614 94.0522C339.685 96.8384 340.756 103.674 343.159 110.002L347.57 109.404L346.126 91.0292Z" fill="#263238"/>
<path d="M348.923 109.056C348.043 109.902 346.78 108.277 345.686 107.251C344.592 106.224 341.038 105.378 339.268 110.172C337.497 114.966 340.824 119.975 343.633 120.245C348.461 120.696 349.183 116.929 349.183 116.929L349.352 137.538C357.451 146.133 371.641 136.003 365.268 132.202V126.077C367.487 125.885 369.676 125.431 371.788 124.723C375.33 123.133 377.563 119.309 378.646 114.571C380.372 106.98 381.037 101.035 379.56 87.4205C377.958 72.4858 362.47 76.4789 354.112 84.7922C345.754 93.1056 348.923 109.056 348.923 109.056Z" fill="#FFA8A7"/>
<path d="M356.289 104.905C356.291 103.372 356.765 101.877 357.648 100.624C358.53 99.3702 359.776 98.419 361.218 97.8996L361.985 97.6966C364.704 96.9634 366.904 98.9261 366.904 102.062C366.904 105.198 364.704 108.345 361.985 109.078L361.218 109.281C358.5 110.003 356.289 108.04 356.289 104.905ZM361.218 98.8584C360.018 99.2905 358.981 100.083 358.248 101.126C357.515 102.17 357.123 103.415 357.124 104.69C357.124 107.296 358.962 108.92 361.218 108.322L361.985 108.119C363.185 107.686 364.221 106.893 364.954 105.85C365.686 104.806 366.08 103.563 366.08 102.288C366.08 99.6819 364.241 98.0463 361.985 98.6554L361.218 98.8584Z" fill="#263238"/>
<path d="M371.314 100.889C371.314 99.3542 371.787 97.8569 372.67 96.6013C373.552 95.3456 374.8 94.3927 376.244 93.8727L377 93.6696C379.718 92.9477 381.929 94.8992 381.929 98.035C381.929 101.171 379.673 104.318 377 105.051L376.244 105.254C373.525 106.033 371.314 104.025 371.314 100.889ZM376.244 94.8315C375.045 95.265 374.008 96.0574 373.276 97.1009C372.543 98.1443 372.15 99.3882 372.149 100.663C372.149 103.269 373.988 104.893 376.244 104.295L377 104.092C378.2 103.66 379.237 102.868 379.97 101.824C380.703 100.781 381.095 99.536 381.094 98.2606C381.094 95.6549 379.267 94.0306 377 94.6284L376.244 94.8315Z" fill="#263238"/>
<path d="M366.847 100.955C367.383 99.888 368.32 99.0767 369.453 98.6992C369.822 98.5227 370.236 98.4638 370.639 98.5303C371.043 98.5969 371.416 98.7858 371.709 99.0714L372.374 98.3156C372 97.9199 371.511 97.6523 370.977 97.551C370.442 97.4497 369.889 97.5199 369.396 97.7516C368.689 97.989 368.035 98.3644 367.473 98.8563C366.912 99.3481 366.454 99.9465 366.125 100.617L366.847 100.955Z" fill="#263238"/>
<path d="M346.272 107.385L356.752 104.576V103.617L346.272 106.426V107.385Z" fill="#263238"/>
<path d="M348.923 110.769C348.483 110.905 346.791 108.118 345.685 107.25C344.163 106.054 346.125 91.0292 346.125 91.0292C344.366 87.1488 347.614 81.2945 351.021 78.9144C353.455 77.3471 356.205 76.3379 359.075 75.9591C361.511 75.5079 363.948 75.1695 366.362 74.9439C369.326 74.7883 372.277 74.4341 375.194 73.8836C377.695 73.3504 380.068 72.3309 382.176 70.8831C382.887 70.3868 383.609 70.8831 383.383 71.8306C383.179 72.6079 382.899 73.3634 382.548 74.0866C381.923 75.5498 381.136 76.9384 380.202 78.2264C379.169 79.5714 378.038 80.8382 376.818 82.0164C370.287 88.1979 362.03 89.9124 354.755 90.6908C353.119 90.8712 352.769 92.8001 351.878 98.0453C351.066 102.704 350.412 110.341 348.923 110.769Z" fill="#263238"/>
<path d="M346.137 92.1464L340.79 90.24C341.546 88.266 343.362 87.0816 344.84 87.6005C346.317 88.1194 346.893 90.24 346.137 92.1464Z" fill="#263238"/>
<path d="M365.245 126.076C365.245 126.076 357.349 126.358 354.552 125.4C352.88 124.817 351.503 123.602 350.717 122.016C351.099 123.683 351.842 125.246 352.894 126.595C354.924 129.043 365.245 128.479 365.245 128.479V126.076Z" fill="#F28F8F"/>
<path d="M363.35 102.897C363.359 103.403 363.211 103.899 362.926 104.317C362.641 104.735 362.234 105.054 361.76 105.232C360.88 105.457 360.169 104.792 360.169 103.743C360.161 103.238 360.31 102.744 360.595 102.328C360.88 101.912 361.287 101.594 361.76 101.419C362.64 101.182 363.35 101.848 363.35 102.897Z" fill="#263238"/>
<path d="M360.79 95.9928L357.406 99.0723C357.172 98.4957 357.122 97.8609 357.263 97.2549C357.405 96.6489 357.73 96.1017 358.195 95.6883C358.361 95.4884 358.574 95.3331 358.815 95.2366C359.056 95.1401 359.317 95.1053 359.575 95.1356C359.833 95.1659 360.079 95.2602 360.292 95.4099C360.504 95.5596 360.675 95.76 360.79 95.9928Z" fill="#263238"/>
<path d="M364.535 115.258L368.156 115.856C368.052 116.431 367.748 116.952 367.298 117.325C366.849 117.699 366.281 117.901 365.696 117.897C364.693 117.739 364.174 116.555 364.535 115.258Z" fill="#F28F8F"/>
<path d="M377.879 93.0153L374.788 91.0865C375.42 89.9585 376.627 89.3606 377.484 89.8908C377.915 90.2768 378.192 90.8053 378.265 91.3794C378.337 91.9534 378.2 92.5343 377.879 93.0153Z" fill="#263238"/>
<path d="M376.559 98.8342C376.568 99.34 376.42 99.8361 376.135 100.254C375.85 100.672 375.443 100.992 374.969 101.169C374.089 101.395 373.378 100.729 373.378 99.6802C373.37 99.1759 373.519 98.6815 373.804 98.2653C374.089 97.8491 374.496 97.5315 374.969 97.3565C375.849 97.1196 376.559 97.7851 376.559 98.8342Z" fill="#263238"/>
<path d="M368.708 99.4668L368.888 110.544L374.585 107.566L368.708 99.4668Z" fill="#F28F8F"/>
<path d="M318.761 210.779C322.145 165.004 328.913 148.592 340.023 143.775C343.87 146.652 344.806 160.109 340.779 170.329C340.779 170.329 332.116 200.841 331.62 211.219C331.375 220.87 331.972 230.525 333.402 240.073C333.47 240.648 333.662 241.202 333.964 241.696C334.265 242.191 334.67 242.614 335.151 242.938C337.587 244.528 337.407 246.829 339.177 249.018C340.542 250.721 341.817 251.026 341.558 251.657C341.291 252.306 340.809 252.842 340.192 253.176C339.575 253.509 338.862 253.618 338.174 253.485C337.083 253.136 336.066 252.589 335.173 251.872C335.878 254.272 336.939 256.553 338.32 258.64C341.501 263.49 341.343 266.75 333.898 267.855C329.24 268.543 325.845 265.599 323.498 253.958C322.821 250.574 321.242 244.528 320.565 240.163C318.659 227.665 318.219 218.156 318.761 210.779Z" fill="#FFA8A7"/>
<path d="M343.193 141.529C343.193 141.529 335.071 144.372 330.965 151.027C326.859 157.682 322.945 168.376 320.204 187.382C320.204 187.382 325.348 194.41 338.748 188.51C338.748 188.51 344.591 164.27 345.11 154.67C345.674 144.282 343.193 141.529 343.193 141.529Z" fill="#455A64"/>
</g>
<path d="M107.351 396.616L103.245 394.236C102.899 393.978 102.626 393.634 102.452 393.239C102.278 392.843 102.21 392.41 102.253 391.98V195.889C102.3 194.589 102.689 193.324 103.381 192.223L107.566 194.637C106.862 195.737 106.472 197.008 106.438 198.314V394.36C106.391 394.783 106.45 395.21 106.609 395.604C106.769 395.998 107.024 396.346 107.351 396.616Z" fill="#F4A93E"/>
<path opacity="0.3" d="M107.351 396.616L103.245 394.236C102.899 393.978 102.626 393.634 102.452 393.239C102.278 392.843 102.21 392.41 102.253 391.98V195.889C102.3 194.589 102.689 193.324 103.381 192.223L107.566 194.637C106.862 195.737 106.472 197.008 106.438 198.314V394.36C106.391 394.783 106.45 395.21 106.609 395.604C106.769 395.998 107.024 396.346 107.351 396.616Z" fill="white"/>
<path d="M109.923 192.188L212.989 132.686C214.94 131.558 216.519 132.483 216.519 134.728V330.786C216.453 332.012 216.099 333.206 215.486 334.27C214.872 335.334 214.017 336.239 212.989 336.911L109.934 396.401C107.983 397.529 106.393 396.616 106.393 394.36V198.313C106.458 197.087 106.812 195.893 107.426 194.829C108.039 193.765 108.895 192.86 109.923 192.188Z" fill="#F4A93E"/>
<path opacity="0.6" d="M109.923 192.188L212.989 132.686C214.94 131.558 216.519 132.483 216.519 134.728V330.786C216.453 332.012 216.099 333.206 215.486 334.27C214.872 335.334 214.017 336.239 212.989 336.911L109.934 396.401C107.983 397.529 106.393 396.616 106.393 394.36V198.313C106.458 197.087 106.812 195.893 107.426 194.829C108.039 193.765 108.895 192.86 109.923 192.188Z" fill="white"/>
<path d="M211.308 130.036L215.346 132.371C214.956 132.228 214.536 132.184 214.125 132.243C213.713 132.302 213.323 132.462 212.989 132.709L109.923 192.189C108.931 192.788 108.108 193.631 107.532 194.636L103.358 192.222C103.934 191.217 104.752 190.371 105.738 189.763L208.793 130.273C209.151 130.009 209.575 129.848 210.019 129.809C210.462 129.769 210.908 129.851 211.308 130.047V130.036Z" fill="#F4A93E"/>
<path opacity="0.8" d="M211.308 130.036L215.346 132.371C214.956 132.228 214.536 132.184 214.125 132.243C213.713 132.302 213.323 132.462 212.989 132.709L109.923 192.189C108.931 192.788 108.108 193.631 107.532 194.636L103.358 192.222C103.934 191.217 104.752 190.371 105.738 189.763L208.793 130.273C209.151 130.009 209.575 129.848 210.019 129.809C210.462 129.769 210.908 129.851 211.308 130.047V130.036Z" fill="white"/>
<path d="M147.527 340.036C154.065 328.712 154.064 316.471 147.525 312.696C140.986 308.921 130.385 315.04 123.847 326.365C117.309 337.689 117.31 349.93 123.849 353.705C130.387 357.48 140.989 351.361 147.527 340.036Z" fill="#455A64"/>
<path d="M143.03 335.388L139.094 331.609L143.279 322.765L139.613 319.246L135.439 328.09L131.502 324.3L128.344 331.011L132.269 334.79L128.096 343.633L131.75 347.153L135.924 338.309L139.861 342.099L143.03 335.388Z" fill="white"/>
<path d="M201.943 308.62C208.481 297.295 208.48 285.055 201.941 281.28C195.402 277.504 184.801 283.624 178.263 294.948C171.725 306.273 171.726 318.514 178.265 322.289C184.803 326.064 195.405 319.944 201.943 308.62Z" fill="#455A64"/>
<path d="M200.784 292.422C200.84 291.8 200.747 291.173 200.512 290.594C200.276 290.015 199.905 289.501 199.43 289.095C198.449 288.395 197.005 288.418 195.415 289.343C192.674 290.911 190.418 295.682 190.079 298.931C189.73 296.077 187.474 293.923 184.733 295.547C183.026 296.624 181.639 298.139 180.717 299.935C179.879 301.434 179.414 303.113 179.363 304.83C179.363 309.737 183.3 312.332 186.605 313.64L190.091 315.016L193.565 309.624C196.881 304.481 200.784 297.329 200.784 292.422Z" fill="white"/>
<path d="M148.805 359.459L144.846 361.748V356.165L148.805 353.875V359.459Z" fill="white"/>
<path d="M144.011 356.651L125.185 367.525V364.411L119.895 373.368L125.185 376.21V373.097L144.011 362.223V356.651Z" fill="white"/>
<path d="M151.467 357.925L149.64 358.986V353.402L151.467 352.342V357.925Z" fill="white"/>
<path d="M176.972 337.621L180.942 335.32V340.904L176.972 343.194V337.621Z" fill="white"/>
<path d="M181.766 340.43L200.603 329.556V332.669L205.882 323.713L200.603 320.859V323.972L181.766 334.846V340.43Z" fill="white"/>
<path d="M174.31 339.156L176.148 338.096V343.679L174.31 344.74V339.156Z" fill="white"/>
<mask id="mask1_78_723" style="mask-type:alpha" maskUnits="userSpaceOnUse" x="118" y="150" width="89" height="161">
<path d="M121.621 198.753L204.168 151.152C205.657 150.294 206.853 150.994 206.853 152.697V257.77C206.8 258.699 206.53 259.603 206.063 260.409C205.597 261.214 204.948 261.898 204.168 262.406L121.632 309.974C120.155 310.82 118.959 310.132 118.959 308.418V203.389C119.007 202.462 119.273 201.559 119.736 200.753C120.198 199.948 120.844 199.263 121.621 198.753Z" fill="white"/>
</mask>
<g mask="url(#mask1_78_723)">
<path d="M121.621 198.753L204.168 151.152C205.657 150.294 206.853 150.994 206.853 152.697V257.77C206.8 258.699 206.53 259.603 206.063 260.409C205.597 261.214 204.948 261.898 204.168 262.406L121.632 309.974C120.155 310.82 118.959 310.132 118.959 308.418V203.389C119.007 202.462 119.273 201.559 119.736 200.753C120.198 199.948 120.844 199.263 121.621 198.753Z" fill="white"/>
<path d="M187.248 304.097C177.299 260.444 165.331 252.525 175.968 243.445C188.376 241.55 193.125 245.441 195.031 258.233C195.967 264.482 197.986 290.652 200.524 300.431C202.78 309.027 205.758 319.664 209.097 325.811C209.37 326.327 209.763 326.77 210.241 327.103C210.72 327.437 211.271 327.651 211.85 327.729C214.963 328.169 215.877 329.917 218.415 331.214C220.389 332.218 221.855 331.959 221.799 332.658C221.651 333.432 221.272 334.143 220.713 334.696C220.153 335.25 219.438 335.621 218.663 335.76C217.421 335.888 216.166 335.804 214.952 335.512C216.445 337.48 218.279 339.164 220.366 340.487C225.239 343.634 226.006 346.713 218.313 350.83C213.474 353.414 208.939 352.15 202.938 342.337C200.616 338.712 198.59 334.906 196.881 330.955C192.719 320.352 188.906 311.114 187.248 304.097Z" fill="#B16668"/>
<path d="M193.531 233.878L160.999 242.598C153.273 244.673 147.001 239.112 147.001 230.19V217.613C147.001 203.31 157.04 189.029 169.426 185.713L171.106 185.262C183.514 181.945 193.531 190.845 193.531 205.148V233.878Z" fill="#263238"/>
<path d="M154.536 197.004C155.856 195.244 155.946 192.83 154.728 191.635C153.51 190.439 151.445 190.879 150.114 192.639L154.536 197.004Z" fill="#263238"/>
<path d="M154.738 197.274C154.69 196.849 154.535 196.443 154.288 196.093C154.041 195.744 153.71 195.463 153.325 195.276C152.94 195.089 152.514 195.003 152.086 195.025C151.659 195.047 151.244 195.176 150.88 195.401C149.989 195.903 149.271 196.663 148.82 197.582C148.369 198.5 148.206 199.533 148.354 200.545L154.738 197.274Z" fill="#263238"/>
<path d="M161.112 247.922C161.112 247.922 147.576 251.125 145.895 252.434C155.731 262.969 147.688 285.225 147.688 285.225L153.148 304.232C148.337 312.262 144.573 320.875 141.947 329.86C138.687 340.655 136.6 348.776 134.051 381.285C146.955 391.561 189.943 380.326 200.874 360.857C200.874 360.857 197.489 339.538 193.169 319.742C189.988 305.292 186.852 297.475 187.631 292.263C193.384 270.245 193.835 264.763 192.82 260.465C189.943 248.384 178.596 242.733 175.798 243.489L161.112 247.922Z" fill="#37474F"/>
<path d="M184.766 193.225C187.225 194.24 190.271 200.557 189.966 215.604C189.707 228.351 186.153 232.434 184.326 233.821C182.499 235.209 179.103 235.57 175.742 235.829V243.432C175.742 243.432 180.378 248.406 180.085 251.971C179.791 255.535 173.396 258.073 169.064 255.829C164.733 253.584 161.078 247.933 161.078 247.933L161.157 230.415C161.157 230.415 159.183 233.156 155.844 230.674C154.439 229.553 153.503 227.948 153.217 226.173C152.931 224.398 153.317 222.581 154.299 221.075C156.453 217.973 160.424 217.601 161.958 220.782C161.958 220.782 163.819 214.318 171.534 209.332C178.539 204.82 182.329 200.782 184.766 193.225Z" fill="#B16668"/>
<path d="M177.704 215.706C177.727 216.145 177.613 216.579 177.379 216.951C177.145 217.322 176.801 217.612 176.396 217.781C175.64 218.03 174.986 217.499 174.952 216.586C174.929 216.148 175.041 215.715 175.273 215.343C175.505 214.972 175.846 214.681 176.249 214.51C177.016 214.319 177.671 214.804 177.704 215.706Z" fill="#263238"/>
<path d="M178.077 226.355L181.28 226.671C181.199 227.177 180.949 227.64 180.569 227.985C180.19 228.329 179.705 228.534 179.194 228.566C178.314 228.476 177.806 227.483 178.077 226.355Z" fill="#9A4A4D"/>
<path d="M189.03 207.777L186.232 206.288C186.74 205.228 187.778 204.698 188.556 205.16C188.939 205.465 189.198 205.898 189.285 206.38C189.372 206.861 189.281 207.358 189.03 207.777Z" fill="#263238"/>
<path d="M173.711 213.067L176.509 210.078C175.99 209.288 174.952 209.322 174.185 210.145C173.813 210.523 173.568 211.007 173.483 211.531C173.398 212.054 173.478 212.591 173.711 213.067Z" fill="#263238"/>
<path d="M188.376 211.691C188.393 212.129 188.277 212.562 188.044 212.932C187.81 213.303 187.47 213.594 187.067 213.767C186.3 214.015 185.657 213.485 185.612 212.639C185.594 212.2 185.709 211.765 185.943 211.393C186.177 211.02 186.517 210.727 186.921 210.552C187.699 210.248 188.376 210.789 188.376 211.691Z" fill="#263238"/>
<path d="M181.867 212.525L182.093 222.057L186.469 219.327L181.867 212.525Z" fill="#9A4A4D"/>
<path d="M175.776 235.83C172.245 236.236 164.981 235.83 163.853 232.762C164.248 234.214 165.153 235.475 166.402 236.315C168.568 237.872 175.776 238.368 175.776 238.368V235.83Z" fill="#9A4A4D"/>
<path d="M150.509 295.039L160.435 307.661L153.148 304.221L150.509 295.039Z" fill="#263238"/>
<path d="M122.478 320.587C130.882 278.648 136.702 258.84 145.895 252.422C150.509 252.884 151.907 259.021 152.392 262.517C153.272 268.812 151.772 277.588 147.689 285.213C147.689 285.213 136.228 313.3 134.277 324.456C132.562 334.213 130.622 346.429 130.724 354.416C130.696 355.728 131.181 356.999 132.077 357.958C134.333 360.214 134.333 362.47 135.788 365.143C136.916 367.264 138.168 367.839 137.819 368.527C137.479 369.166 136.911 369.655 136.227 369.895C135.544 370.135 134.796 370.11 134.13 369.824C133.068 369.215 132.125 368.42 131.344 367.478C131.724 370.239 132.483 372.934 133.6 375.487C136.127 381.375 135.506 384.883 127.836 384.601C123.042 384.42 120.019 380.608 119.297 367.467C118.951 362.567 118.909 357.651 119.173 352.746C120.154 339.785 120.899 328.472 122.478 320.587Z" fill="#B16668"/>
</g>
<path opacity="0.1" d="M189.425 350.513L212.989 336.91C214.017 336.238 214.873 335.333 215.486 334.269C216.099 333.205 216.453 332.011 216.519 330.785V134.727C216.519 132.471 214.94 131.569 212.989 132.685L189.425 146.3V350.513Z" fill="black"/>
<path d="M189.424 146.301L212.977 132.697C213.315 132.454 213.708 132.297 214.121 132.24C214.533 132.183 214.954 132.228 215.346 132.37L211.307 130.035C210.907 129.84 210.462 129.757 210.018 129.797C209.575 129.837 209.151 129.997 208.792 130.261L185.239 143.876L189.424 146.301Z" fill="#F4A93E"/>
<path opacity="0.5" d="M189.424 146.301L212.977 132.697C213.315 132.454 213.708 132.297 214.121 132.24C214.533 132.183 214.954 132.228 215.346 132.37L211.307 130.035C210.907 129.84 210.462 129.757 210.018 129.797C209.575 129.837 209.151 129.997 208.792 130.261L185.239 143.876L189.424 146.301Z" fill="white"/>
<path d="M321.48 100.256L317.295 97.8307C316.895 97.6385 316.449 97.5581 316.007 97.5978C315.564 97.6375 315.14 97.7959 314.78 98.0563L211.715 157.558C210.687 158.228 209.832 159.131 209.219 160.193C208.605 161.255 208.251 162.447 208.184 163.672V359.741C208.14 360.171 208.208 360.605 208.382 361C208.556 361.396 208.83 361.739 209.177 361.997L213.35 364.411L314.769 302.303C315.796 301.633 316.651 300.731 317.265 299.668C317.878 298.606 318.233 297.414 318.299 296.19L321.48 100.256Z" fill="#F4A93E"/>
<path opacity="0.1" d="M213.317 364.411L209.211 362.087C208.864 361.83 208.59 361.486 208.416 361.091C208.242 360.695 208.174 360.261 208.218 359.831V163.684C208.26 162.383 208.65 161.117 209.346 160.018L213.52 162.431C212.821 163.534 212.431 164.804 212.392 166.109V362.166C212.347 362.588 212.408 363.014 212.57 363.406C212.731 363.798 212.988 364.143 213.317 364.411Z" fill="black"/>
<path opacity="0.5" d="M317.273 97.8307L321.311 100.166C320.919 100.023 320.499 99.9787 320.086 100.036C319.673 100.093 319.281 100.25 318.942 100.493L215.877 159.984C214.896 160.593 214.079 161.434 213.497 162.431L209.323 160.017C209.899 159.015 210.717 158.173 211.703 157.57L314.712 98.0676C315.071 97.8037 315.495 97.6432 315.938 97.6034C316.382 97.5637 316.828 97.6462 317.228 97.842L317.273 97.8307Z" fill="white"/>
<path d="M253.487 307.833C260.025 296.508 260.024 284.268 253.485 280.492C246.946 276.717 236.345 282.837 229.807 294.161C223.269 305.486 223.27 317.726 229.808 321.502C236.347 325.277 246.948 319.157 253.487 307.833Z" fill="#455A64"/>
<path d="M248.995 303.183L245.059 299.404L249.243 290.56L245.577 287.041L241.404 295.885L237.467 292.094L234.309 298.806L238.234 302.585L234.061 311.428L237.715 314.948L241.889 306.115L245.826 309.894L248.995 303.183Z" fill="white"/>
<path d="M307.897 276.425C314.435 265.1 314.434 252.86 307.895 249.084C301.356 245.309 290.755 251.429 284.217 262.753C277.679 274.078 277.68 286.318 284.219 290.094C290.758 293.869 301.359 287.749 307.897 276.425Z" fill="#455A64"/>
<path d="M306.816 260.217C306.873 259.595 306.779 258.968 306.544 258.389C306.308 257.81 305.938 257.296 305.463 256.889C304.842 256.533 304.131 256.367 303.418 256.411C302.704 256.455 302.019 256.708 301.447 257.138C298.706 258.706 296.45 263.477 296.1 266.726C295.762 263.872 293.506 261.717 290.765 263.342C289.056 264.422 287.669 265.941 286.749 267.741C285.911 269.24 285.447 270.919 285.396 272.636C285.396 277.543 289.332 280.138 292.637 281.457L296.112 282.822L299.597 277.43C302.846 272.275 306.816 265.135 306.816 260.217Z" fill="white"/>
<path d="M254.771 327.255L250.812 329.545V323.962L254.771 321.672V327.255Z" fill="white"/>
<path d="M249.976 324.445L231.138 335.319V332.206L225.859 341.162L231.138 344.005V340.892L249.976 330.018V324.445Z" fill="white"/>
<path d="M257.432 325.72L255.594 326.781V321.197L257.432 320.137V325.72Z" fill="white"/>
<path d="M282.937 305.417L286.896 303.127V308.699L282.937 310.989V305.417Z" fill="white"/>
<path d="M287.73 308.226L306.568 297.352V300.465L311.847 291.509L306.568 288.666V291.768L287.73 302.642V308.226Z" fill="white"/>
<path d="M280.274 306.951L282.113 305.891V311.474L280.274 312.535V306.951Z" fill="white"/>
<mask id="mask2_78_723" style="mask-type:alpha" maskUnits="userSpaceOnUse" x="224" y="118" width="89" height="161">
<path d="M227.586 166.548L310.122 118.89C311.599 118.033 312.806 118.732 312.806 120.435V225.509C312.754 226.438 312.483 227.341 312.017 228.147C311.551 228.952 310.901 229.637 310.122 230.145L227.586 277.712C226.108 278.558 224.901 277.87 224.901 276.167V171.184C224.954 170.255 225.224 169.351 225.691 168.546C226.157 167.74 226.806 167.056 227.586 166.548Z" fill="white"/>
</mask>
<g mask="url(#mask2_78_723)">
<path d="M227.586 166.548L310.122 118.89C311.599 118.033 312.806 118.732 312.806 120.435V225.509C312.754 226.438 312.483 227.341 312.017 228.147C311.551 228.952 310.901 229.637 310.122 230.145L227.586 277.712C226.108 278.558 224.901 277.87 224.901 276.167V171.184C224.954 170.255 225.224 169.351 225.691 168.546C226.157 167.74 226.806 167.056 227.586 166.548Z" fill="white"/>
<path d="M291.362 274.882C282.102 234.274 271.51 227.089 281.402 218.629C291.554 214.76 296.833 220.287 298.604 232.165C299.473 237.986 301.357 262.339 303.725 271.442C305.801 279.44 308.598 289.343 311.7 295.062C311.953 295.543 312.317 295.956 312.763 296.266C313.209 296.576 313.722 296.775 314.261 296.845C317.16 297.262 318.006 298.898 320.363 300.093C322.213 301.03 323.578 300.793 323.488 301.447C323.35 302.166 322.997 302.826 322.475 303.34C321.953 303.854 321.288 304.197 320.566 304.323C319.412 304.449 318.243 304.373 317.115 304.098C318.505 305.929 320.213 307.496 322.157 308.722C326.669 311.655 327.436 314.52 320.239 318.356C315.727 320.758 311.52 319.585 305.936 310.46C303.771 307.088 301.885 303.546 300.296 299.868C296.416 289.998 292.863 281.425 291.362 274.882Z" fill="#FFA8A7"/>
<path d="M265.08 223.535C255.007 227.032 254.308 232.83 251.781 239.643C249.946 244.488 249.779 249.807 251.307 254.758L258.369 276.359C255.528 282.754 253.156 289.348 251.274 296.088C268.882 302.721 290.866 290.865 296.157 281.165C296.382 279.348 295.029 265.982 294.183 257.24C297.285 247.426 298.097 241.515 296.788 235.932C294.408 225.509 284.933 217.297 280.76 218.831L265.08 223.535Z" fill="#455A64"/>
<path d="M277.093 209.65L269.671 211.68C259.327 214.5 250.901 207.168 250.856 195.189C250.799 180.886 260.805 166.56 273.19 163.176C285.598 159.792 295.671 168.647 295.75 182.938C295.784 194.873 287.437 206.83 277.093 209.65Z" fill="#263238"/>
<path d="M267.393 158.641C270.596 163.232 267.201 167.868 262.475 172.831C257.748 177.795 253.507 181.212 250.303 176.622C247.1 172.031 248.871 165.477 253.586 160.514C258.301 155.55 264.189 154.05 267.393 158.641Z" fill="#263238"/>
<path d="M255.842 178.585L251.094 183.92C250.607 183.168 250.392 182.273 250.485 181.383C250.577 180.492 250.971 179.66 251.601 179.025C252.91 177.558 254.816 177.355 255.842 178.585Z" fill="#263238"/>
<path d="M287.077 170.992C289.457 171.962 292.412 178.042 292.175 192.537C291.972 204.821 288.554 208.78 286.829 210.123C285.103 211.465 281.786 211.837 278.549 212.097L278.729 219.474C278.729 219.474 284.178 223.162 283.918 226.603C283.659 230.043 276.361 233.551 272.165 231.408C269.422 229.922 266.888 228.078 264.629 225.926C264.568 225.866 264.52 225.794 264.489 225.714C264.458 225.634 264.444 225.549 264.449 225.463V206.942C264.449 206.942 262.554 209.592 259.317 207.224C257.954 206.152 257.044 204.609 256.764 202.898C256.484 201.188 256.855 199.435 257.805 197.985C259.869 194.985 263.705 194.601 265.182 197.658C265.182 197.658 270.348 196.53 277.195 190.247C282.687 185.218 286.194 178.386 287.077 170.992Z" fill="#FFA8A7"/>
<path d="M280.33 192.695C280.353 193.118 280.245 193.537 280.021 193.896C279.797 194.255 279.468 194.537 279.078 194.703C278.345 194.951 277.713 194.432 277.68 193.575C277.657 193.152 277.765 192.733 277.989 192.374C278.213 192.014 278.542 191.733 278.932 191.567C279.665 191.319 280.297 191.826 280.33 192.695Z" fill="#263238"/>
<path d="M280.726 202.961L283.828 203.254C283.752 203.742 283.511 204.189 283.146 204.522C282.781 204.854 282.313 205.051 281.82 205.082C280.963 205.003 280.478 204.044 280.726 202.961Z" fill="#F28F8F"/>
<path d="M291.238 184.992L288.531 183.571C289.028 182.544 290.02 182.037 290.787 182.443C291.165 182.736 291.421 183.159 291.504 183.63C291.587 184.102 291.493 184.587 291.238 184.992Z" fill="#263238"/>
<path d="M290.629 188.771C290.652 189.195 290.545 189.616 290.321 189.977C290.097 190.339 289.767 190.622 289.377 190.79C288.644 191.027 288.012 190.519 287.967 189.662C287.947 189.239 288.056 188.819 288.28 188.458C288.503 188.098 288.831 187.814 289.219 187.643C289.964 187.395 290.584 187.903 290.629 188.771Z" fill="#263238"/>
<path d="M284.628 188.77L284.583 198.797L288.802 196.135L284.628 188.77Z" fill="#F28F8F"/>
<path d="M278.549 212.063C275.165 212.481 268.126 212.063 267.021 209.176C267.416 210.561 268.292 211.761 269.491 212.56C271.589 214.049 278.605 214.5 278.605 214.5L278.549 212.063Z" fill="#F28F8F"/>
<path d="M269.592 293.279C263.806 293.279 260.14 287.481 261.696 280.443C261.764 280.172 261.82 279.935 261.877 279.755C263.005 276.303 265.441 276.066 265.441 276.066C263.185 274.938 262.057 272.231 261.55 269.298L258.91 255.593C258.65 253.155 258.833 250.69 259.452 248.317L252.368 240.76L251.071 242.17C249.987 246.306 250.085 250.663 251.353 254.747L258.369 276.359C255.487 282.738 253.114 289.335 251.274 296.088C264.246 300.972 279.586 295.817 288.892 288.891C282.836 291.684 276.261 293.179 269.592 293.279Z" fill="#37474F"/>
<path d="M233.248 290.403C241.076 251.363 247.156 233.879 255.718 227.889C258.493 225.949 261.482 227.133 261.933 230.393C262.757 236.247 261.279 245.644 257.421 252.739C257.421 252.739 246.006 283.623 244.178 294.012C242.588 303.093 240.794 314.463 240.873 321.896C240.849 323.117 241.302 324.299 242.137 325.19C244.235 327.243 244.235 329.352 245.588 331.879C246.649 333.853 247.844 334.383 247.483 334.981C247.168 335.565 246.649 336.012 246.024 336.237C245.4 336.462 244.715 336.448 244.099 336.199C243.103 335.638 242.219 334.896 241.494 334.011C241.836 336.579 242.531 339.088 243.558 341.467C245.904 346.938 245.329 350.209 238.189 349.95C233.677 349.781 230.913 346.239 230.293 334C229.952 329.458 229.892 324.9 230.112 320.351C231.094 308.27 231.782 297.791 233.248 290.403Z" fill="#FFA8A7"/>
</g>
<path d="M416.661 317.091C417.563 283.488 414.867 275.434 405.922 269.275L402.459 288.767C402.459 288.767 406.531 311.711 406.091 319.359C405.708 326.07 405.065 334.474 403.474 339.899C403.171 340.841 402.538 341.642 401.692 342.155C399.436 343.577 398.5 345.043 396.774 346.837C395.432 348.247 394.292 348.596 394.518 349.093C394.784 349.578 395.22 349.949 395.742 350.134C396.264 350.32 396.836 350.306 397.349 350.097C398.49 349.639 399.573 349.048 400.575 348.337C399.784 350.382 398.668 352.287 397.27 353.977C394.078 357.902 393.886 360.305 400.384 360.361C404.422 360.361 407.648 357.902 410.693 349.002C411.872 345.737 412.822 342.394 413.536 338.997C415.025 330.21 416.514 322.494 416.661 317.091Z" fill="#FFA8A7"/>
<path d="M398.398 266.727C402.662 266.106 408.471 266.997 412.216 273.709C415.961 280.42 416.886 291.949 417.36 303.432C417.36 303.432 409.915 309.658 400.982 306.59L398.398 266.727Z" fill="#F4A93E"/>
<path opacity="0.1" d="M398.398 266.727C402.662 266.106 408.471 266.997 412.216 273.709C415.961 280.42 416.886 291.949 417.36 303.432C417.36 303.432 409.915 309.658 400.982 306.59L398.398 266.727Z" fill="black"/>
<path d="M410.964 451.549C411.641 451.797 411.811 453.094 411.912 455.666C411.991 457.606 412.408 461.001 410.13 461.678C407.851 462.355 404.49 462.005 403.057 460.178C401.241 457.922 400.012 455.88 397.417 453.083C395.161 450.669 392.725 448.402 391.777 445.018C390.954 441.949 391.642 440.618 393.729 439.727C396.605 438.498 401.128 442.502 403.384 443.111C405.358 443.675 410.288 451.289 410.964 451.549Z" fill="#263238"/>
<path d="M410.964 449.169V452.327C409.781 453.086 408.412 453.507 407.007 453.545C405.601 453.583 404.212 453.236 402.989 452.541C402.854 452.248 402.166 448.029 402.166 448.029L410.964 449.169Z" fill="#FFA8A7"/>
<path d="M385.426 469.721C385.426 469.721 386.328 472.462 386.813 474.853C387.208 476.759 387.761 479.952 387.095 481.384C386.43 482.817 383.824 483.742 379.786 483.708C377.169 483.708 373.097 485.468 370.3 487.024C367.502 488.581 361.433 489.28 358.388 488.908C354.79 488.491 351.067 486.404 350.492 484.926C349.917 483.448 350.684 481.892 359.144 478.282C359.223 478.282 370.909 474.447 375.003 469.924L385.426 469.721Z" fill="#263238"/>
<path d="M385.427 466.303C385.427 466.303 385.427 468.649 385.427 469.98C385.427 471.311 383.859 473.364 379.787 473.172C376.91 473.071 374.902 472.292 375.015 469.924V466.54L385.427 466.303Z" fill="#FFA8A7"/>
<path d="M413.006 407.32C412.313 401.736 411.066 396.234 409.284 390.897C409.284 390.897 410.412 376.729 410.953 363.306C411.54 348.788 410.953 330.594 411.201 326.928C411.201 326.928 364.378 317.464 363.543 334.237C362.709 351.011 365.393 393.705 365.946 401.071C366.499 408.437 367.773 414.957 369.33 426.903C370.887 438.848 375.038 466.518 375.038 466.518C376.658 467.344 378.458 467.757 380.276 467.72C382.094 467.682 383.875 467.196 385.46 466.304C385.46 466.304 388.754 432.768 388.404 424.263C388.143 417.964 387.062 411.727 385.19 405.707C385.19 405.707 386.07 391.878 386.859 379.854C387.649 367.829 388.472 362.043 388.653 356.809L389.657 356.312C389.657 356.312 390.683 377.067 391.236 384.433C391.788 391.799 392.962 398.86 395.094 412.554C396.943 424.421 402.459 449.541 402.459 449.541C407.806 452.44 410.998 449.169 410.998 449.169C410.998 449.169 414.45 417.63 413.006 407.32Z" fill="#37474F"/>
<path d="M388.618 356.808C388.618 356.808 399.977 351.168 405.662 346.16C405.662 346.16 400.383 353.605 393.457 356.899C393.457 356.899 390.987 382.673 390.998 382.166L389.577 356.763L388.618 356.808Z" fill="#263238"/>
<path d="M378.512 261.413L381.275 276.663L395.059 275.659L392.161 258.367L378.512 261.413Z" fill="#FFA8A7"/>
<path d="M409.6 274.544C408.235 270.393 402.978 265.881 397.711 266.863C389.893 268.187 382.189 270.11 374.666 272.615C369.849 274.341 365.45 278.504 365.055 294.352C365.055 294.352 363.442 331.305 363.408 338.457C375.512 343.239 388.1 343.093 395.06 341.57C409.532 338.412 411.28 332.399 411.28 332.399C411.28 332.399 411.472 305.835 411.032 294.352C410.671 284.606 410.592 277.387 409.6 274.544Z" fill="#F4A93E"/>
<path d="M367.886 242.869C367.886 242.869 364.389 248.43 364.818 248.961C365.246 249.491 367.908 249.919 367.908 249.919L367.886 242.869Z" fill="#F28F8F"/>
<path d="M377.586 227.46C370.299 229.164 368.258 232.435 367.829 244.076C367.378 256.236 368.709 260.026 370.345 261.627C371.473 262.755 377.44 262.755 380.44 261.864C384.196 260.736 392.668 257.521 396.525 251.317C401.037 244.031 402.087 234.251 396.965 230.371C389.746 224.911 380.542 226.727 377.586 227.46Z" fill="#FFA8A7"/>
<path d="M367.909 230.484C370.052 234.15 374.677 235.898 374.677 235.898C376.076 237.489 375.309 243.693 377.756 244.674C377.756 244.674 378.817 240.162 382.618 240.636C386.419 241.11 387.062 245.96 384.727 248.972C382.392 251.984 380.125 250.889 380.125 250.889C380.125 250.889 380.396 257.308 383.317 260.883C383.317 260.883 386.577 261.854 392.499 260.455C396.143 259.586 401.207 254.894 403.272 250.01C407.648 239.666 407.784 230.439 401.162 227.822C400.339 223.118 396.583 221.054 392.319 220.208C383.159 218.313 377.249 224.043 370.187 223.592C366.16 223.253 365.405 226.198 367.909 230.484Z" fill="#263238"/>
<path d="M401.32 229.401L405.64 226.716C405.284 226.144 404.715 225.735 404.058 225.582C403.401 225.429 402.71 225.543 402.137 225.899C401.565 226.255 401.157 226.824 401.003 227.48C400.85 228.137 400.964 228.828 401.32 229.401Z" fill="#263238"/>
<path d="M375.241 272.863C370.818 273.538 366.8 275.824 363.961 279.282C359.821 284.369 345.45 304.707 345.45 304.707C345.45 304.707 322.89 293.427 321.83 292.107C320.769 290.787 321.345 288.069 321.649 286.591C321.954 285.113 322.461 281.797 322.777 280.872C323.353 279.259 320.961 279.688 319.551 281.199C318.141 282.711 317.509 285.711 316.81 286.185C316.111 286.659 310.753 280.545 308.147 277.556C305.541 274.567 304.334 272.514 302.586 273.732C301.334 274.623 302.146 276.383 304.007 278.932C304.879 280.008 305.681 281.138 306.41 282.316C306.636 282.767 305.947 283.139 305.677 283.376C305.169 283.827 304.278 284.572 304.21 285.271C304.22 285.649 304.197 286.026 304.143 286.399C303.895 287.245 302.845 287.64 302.552 288.475C302.338 289.073 302.552 289.738 302.451 290.37C302.372 290.776 302.157 291.137 302.078 291.498C302.054 291.901 302.116 292.305 302.26 292.682C302.404 293.059 302.627 293.402 302.913 293.686C304.741 295.852 307.233 296.687 309.625 298.006C311.621 299.134 313.674 299.597 315.964 300.612C318.254 301.627 345.292 322.382 349.522 320.059C353.752 317.735 374.834 293.28 374.834 293.28C382.008 281.797 375.241 272.863 375.241 272.863Z" fill="#FFA8A7"/>
<path d="M377.215 271.746C374.271 272.084 369.319 272.31 364.593 277.736C358.953 284.075 351.609 294.43 351.609 294.43C352.364 297.482 353.983 300.251 356.272 302.405C358.561 304.56 361.422 306.009 364.514 306.579C364.514 306.579 374.666 296.235 377.429 290.539C380.193 284.842 380.678 275.593 377.215 271.746Z" fill="#F4A93E"/>
<path opacity="0.1" d="M377.215 271.746C374.271 272.084 369.319 272.31 364.593 277.736C358.953 284.075 351.609 294.43 351.609 294.43C352.364 297.482 353.983 300.251 356.272 302.405C358.561 304.56 361.422 306.009 364.514 306.579C364.514 306.579 374.666 296.235 377.429 290.539C380.193 284.842 380.678 275.593 377.215 271.746Z" fill="black"/>
</svg>
