<svg width="42" height="21" viewBox="0 0 42 21" fill="none" xmlns="http://www.w3.org/2000/svg">
<path fill-rule="evenodd" clip-rule="evenodd" d="M30.8311 0.45543C30.6597 0.526581 30.5039 0.630861 30.3728 0.762297C30.2414 0.8934 30.1371 1.04915 30.066 1.22061C29.9948 1.39208 29.9582 1.5759 29.9582 1.76154C29.9582 1.94719 29.9948 2.13101 30.066 2.30247C30.1371 2.47394 30.2414 2.62969 30.3728 2.76079L36.4326 8.81832H1.77172C1.3974 8.81832 1.03841 8.96702 0.773731 9.2317C0.509049 9.49638 0.360352 9.85537 0.360352 10.2297C0.360352 10.604 0.509049 10.963 0.773731 11.2277C1.03841 11.4924 1.3974 11.6411 1.77172 11.6411H36.4327L30.3728 17.6987C30.1078 17.9637 29.9589 18.3231 29.9589 18.6979C29.9589 19.0727 30.1078 19.4321 30.3728 19.6972C30.6378 19.9622 30.9973 20.1111 31.3721 20.1111C31.7469 20.1111 32.1063 19.9622 32.3713 19.6972L40.8395 11.229C40.9709 11.0979 41.0752 10.9421 41.1464 10.7707C41.2175 10.5992 41.2541 10.4154 41.2541 10.2297C41.2541 10.0441 41.2175 9.86027 41.1464 9.6888C41.0752 9.51733 40.9709 9.36159 40.8395 9.23048L32.3713 0.762297C32.2402 0.630861 32.0845 0.526581 31.913 0.45543C31.7415 0.384279 31.5577 0.347656 31.3721 0.347656C31.1864 0.347656 31.0026 0.384279 30.8311 0.45543Z" fill="black"/>
</svg>
