<svg width="221" height="221" viewBox="0 0 221 221" fill="none" xmlns="http://www.w3.org/2000/svg">
<mask id="path-1-inside-1_2_555" fill="white">
<path d="M218.601 110.146C219.745 110.146 220.674 111.074 220.653 112.218C220.158 138.486 210.275 163.737 192.754 183.375C175.233 203.014 151.269 215.703 125.227 219.179C124.093 219.33 123.066 218.512 122.936 217.376V217.376C122.806 216.239 123.623 215.214 124.756 215.062C149.787 211.702 172.819 199.497 189.663 180.618C206.507 161.738 216.016 137.468 216.509 112.218C216.532 111.074 217.457 110.146 218.601 110.146V110.146Z"/>
</mask>
<path d="M218.601 110.146C219.745 110.146 220.674 111.074 220.653 112.218C220.158 138.486 210.275 163.737 192.754 183.375C175.233 203.014 151.269 215.703 125.227 219.179C124.093 219.33 123.066 218.512 122.936 217.376V217.376C122.806 216.239 123.623 215.214 124.756 215.062C149.787 211.702 172.819 199.497 189.663 180.618C206.507 161.738 216.016 137.468 216.509 112.218C216.532 111.074 217.457 110.146 218.601 110.146V110.146Z" stroke="#E1E1E1" stroke-width="6.15172" mask="url(#path-1-inside-1_2_555)"/>
<mask id="path-2-inside-2_2_555" fill="white">
<path d="M110.673 2.21714C110.673 1.0732 111.6 0.143819 112.744 0.165345C139.012 0.659712 164.263 10.5432 183.902 28.0639C203.541 45.5847 216.229 69.5491 219.705 95.5909C219.856 96.7248 219.039 97.7522 217.902 97.8822V97.8822C216.765 98.0122 215.741 97.1955 215.589 96.0618C212.229 71.0306 200.024 47.9987 181.144 31.1551C162.264 14.3115 137.995 4.80249 112.744 4.30868C111.6 4.28631 110.673 3.36108 110.673 2.21714V2.21714Z"/>
</mask>
<path d="M110.673 2.21714C110.673 1.0732 111.6 0.143819 112.744 0.165345C139.012 0.659712 164.263 10.5432 183.902 28.0639C203.541 45.5847 216.229 69.5491 219.705 95.5909C219.856 96.7248 219.039 97.7522 217.902 97.8822V97.8822C216.765 98.0122 215.741 97.1955 215.589 96.0618C212.229 71.0306 200.024 47.9987 181.144 31.1551C162.264 14.3115 137.995 4.80249 112.744 4.30868C111.6 4.28631 110.673 3.36108 110.673 2.21714V2.21714Z" stroke="#E1E1E1" stroke-width="6.15172" mask="url(#path-2-inside-2_2_555)"/>
<mask id="path-3-inside-3_2_555" fill="white">
<path d="M2.74471 110.146C1.60077 110.146 0.671387 109.218 0.692912 108.074C1.18728 81.8059 11.0708 56.5548 28.5915 36.9162C46.1122 17.2775 70.0767 4.58885 96.1185 1.113C97.2524 0.961655 98.2799 1.77959 98.4098 2.91612V2.91612C98.5398 4.05265 97.7232 5.07731 96.5894 5.22949C71.5582 8.58921 48.5263 20.7943 31.6827 39.674C14.8391 58.5536 5.33005 82.8232 4.83624 108.074C4.81388 109.218 3.88865 110.146 2.74471 110.146V110.146Z"/>
</mask>
<path d="M2.74471 110.146C1.60077 110.146 0.671387 109.218 0.692912 108.074C1.18728 81.8059 11.0708 56.5548 28.5915 36.9162C46.1122 17.2775 70.0767 4.58885 96.1185 1.113C97.2524 0.961655 98.2799 1.77959 98.4098 2.91612V2.91612C98.5398 4.05265 97.7232 5.07731 96.5894 5.22949C71.5582 8.58921 48.5263 20.7943 31.6827 39.674C14.8391 58.5536 5.33005 82.8232 4.83624 108.074C4.81388 109.218 3.88865 110.146 2.74471 110.146V110.146Z" stroke="#E1E1E1" stroke-width="6.15172" mask="url(#path-3-inside-3_2_555)"/>
<mask id="path-4-inside-4_2_555" fill="white">
<path d="M110.673 218.074C110.673 219.218 109.745 220.148 108.602 220.126C82.3335 219.632 57.0824 209.748 37.4437 192.228C17.805 174.707 5.11641 150.742 1.64055 124.701C1.48921 123.567 2.30715 122.539 3.44368 122.409V122.409C4.58021 122.279 5.60487 123.096 5.75704 124.23C9.11676 149.261 21.3219 172.293 40.2015 189.136C59.0812 205.98 83.3508 215.489 108.602 215.983C109.745 216.005 110.673 216.931 110.673 218.074V218.074Z"/>
</mask>
<path d="M110.673 218.074C110.673 219.218 109.745 220.148 108.602 220.126C82.3335 219.632 57.0824 209.748 37.4437 192.228C17.805 174.707 5.11641 150.742 1.64055 124.701C1.48921 123.567 2.30715 122.539 3.44368 122.409V122.409C4.58021 122.279 5.60487 123.096 5.75704 124.23C9.11676 149.261 21.3219 172.293 40.2015 189.136C59.0812 205.98 83.3508 215.489 108.602 215.983C109.745 216.005 110.673 216.931 110.673 218.074V218.074Z" stroke="#E1E1E1" stroke-width="6.15172" mask="url(#path-4-inside-4_2_555)"/>
</svg>
