<svg width="106" height="17" viewBox="0 0 106 17" fill="none" xmlns="http://www.w3.org/2000/svg">
<path d="M100.259 7.36901V9.56131H101.8V11.7364C101.804 11.903 101.797 12.0808 101.773 12.2339L101.761 12.3082C101.758 12.3247 101.755 12.3418 101.751 12.3592L101.739 12.4127C101.736 12.4218 101.734 12.431 101.731 12.4402L101.713 12.4966C101.575 12.8972 101.158 13.4047 100.22 13.4047C99.2219 13.4047 98.8211 12.8221 98.7115 12.4127L98.6986 12.3592L98.689 12.3082C98.6614 12.1404 98.6496 11.9308 98.6496 11.7364V4.86633C98.6496 4.65032 98.6626 4.41616 98.7017 4.2254L98.728 4.10948C98.73 4.10145 98.732 4.09329 98.7342 4.08501L98.7488 4.03396C98.7515 4.02524 98.7543 4.01641 98.7572 4.00749L98.7764 3.95291C98.9188 3.57333 99.2956 3.06779 100.212 3.06779C100.92 3.06779 101.301 3.35607 101.504 3.65404L101.54 3.70995C101.552 3.72858 101.562 3.74718 101.572 3.76568L101.601 3.82082L101.626 3.87497L101.648 3.9277L101.666 3.97863L101.682 4.02733L101.695 4.0734L101.706 4.11644L101.715 4.15602C101.719 4.17571 101.722 4.19661 101.726 4.21834L101.735 4.28563C101.736 4.29714 101.737 4.30875 101.738 4.32043L101.748 4.42595L101.754 4.52715L101.759 4.66514L101.761 4.73585V5.57008H105.546L105.547 5.05077L105.549 4.86504L105.549 4.72108L105.545 4.55345L105.542 4.4632L105.535 4.32253L105.526 4.17844L105.517 4.0821C105.261 1.54427 103.354 0.567862 101.033 0.397959L100.877 0.387819L100.721 0.380018C100.642 0.376695 100.564 0.37423 100.484 0.372596L100.325 0.370428C100.299 0.370159 100.272 0.370159 100.245 0.370159L100.086 0.371248C100.059 0.371612 100.033 0.372069 100.006 0.372618L99.8483 0.377039L99.6913 0.383742L99.5356 0.392777L99.3811 0.40419C99.3298 0.408397 99.2788 0.413008 99.228 0.418032L99.0762 0.434349C99.0511 0.437278 99.026 0.440312 99.001 0.443452L98.8515 0.463575C98.5047 0.513541 98.1711 0.584721 97.8549 0.679889L97.7204 0.722151C96.2536 1.20337 95.1876 2.2265 94.9688 4.0821L94.9463 4.28808L94.9307 4.44756L94.9163 4.61476L94.9043 4.7811C94.8974 4.88981 94.8931 4.99222 94.8931 5.07691L94.8934 11.4778L94.8944 11.5572L94.8978 11.678L94.9015 11.7626L94.9067 11.853L94.9135 11.9514L94.9221 12.0597L94.9389 12.2455L94.9529 12.3881C95.1654 14.7464 96.9529 15.7955 99.1401 16.043L99.2933 16.0589C99.5497 16.0834 99.8111 16.0972 100.076 16.1011L100.235 16.1023L100.395 16.1011C100.661 16.0972 100.924 16.0834 101.181 16.0589L101.335 16.043C103.529 15.7955 105.305 14.7464 105.521 12.3881L105.539 12.1801L105.552 12.0041L105.563 11.807L105.57 11.6372L105.576 11.3967V7.36901H100.259ZM74.1562 0.774533H70.3545V11.8949C70.3605 12.0887 70.3545 12.3064 70.3211 12.466L70.3099 12.5144L70.296 12.5659C70.2909 12.5836 70.2853 12.6017 70.2793 12.6201L70.2594 12.6765C70.116 13.0589 69.7506 13.5578 68.8765 13.5578C68.0569 13.5578 67.6826 13.1075 67.5259 12.7347L67.5029 12.6765C67.4994 12.667 67.496 12.6575 67.4927 12.6481L67.4748 12.5927L67.46 12.5398C67.4578 12.5312 67.4557 12.5228 67.4537 12.5144L67.4432 12.466C67.4052 12.3064 67.4003 12.0887 67.4052 11.8949V0.774533H63.6046V11.5498L63.6039 11.6364L63.6053 11.7879L63.6106 12.0108L63.621 12.2816L63.6283 12.418L63.6332 12.4904L63.638 12.5436C63.8242 14.5372 64.9938 15.5749 66.6455 16.0091L66.7862 16.0444C67.0935 16.1177 67.4165 16.1711 67.7522 16.2068L67.908 16.222L68.0655 16.2348L68.2246 16.2451C68.3046 16.2497 68.3852 16.2533 68.4663 16.2561L68.6294 16.2606L68.7938 16.2628C68.8213 16.2631 68.8489 16.2631 68.8765 16.2631L69.042 16.262C69.0694 16.2616 69.0968 16.2612 69.1242 16.2606L69.2875 16.2561C69.3688 16.2533 69.4495 16.2497 69.5296 16.2451L69.689 16.2348L69.8468 16.222L70.0028 16.2068C72.2263 15.9707 73.8942 14.9584 74.1239 12.5436L74.127 12.5196L74.1332 12.4564L74.1424 12.3302L74.1506 12.1775L74.1551 12.0672L74.1598 11.8979L74.1611 11.7879L74.1606 11.6845L74.1582 11.5914C74.1576 11.5769 74.1569 11.563 74.1562 11.5498V0.774533ZM39.2256 0.774533L37.3292 12.5247L35.434 0.774533H29.3016L28.9763 15.8064H32.7332L32.835 1.89095L35.4199 15.8064H39.2316L41.8188 1.89095L41.9209 15.8064H45.6873L45.3511 0.774533H39.2256ZM16.5207 0.774533L13.7362 15.8064H17.7967L19.895 1.89095L21.9429 15.8064H25.9753L23.2024 0.774533H16.5207ZM87.4424 12.877L83.9024 0.774533H78.3242V15.6497H82.0143L81.8001 3.16005L85.6018 15.6497H90.9517V0.774533H87.2374L87.4424 12.877ZM53.3094 4.68663C53.2426 4.38977 53.2619 4.07438 53.2965 3.90954C53.3062 3.86579 53.3178 3.82169 53.3314 3.77765L53.3535 3.71169C53.5035 3.29497 53.8543 2.90353 54.6588 2.90353C55.527 2.90353 56.036 3.44475 56.036 4.25697V5.17613H59.7419V4.12842C59.7419 1.76406 58.1945 0.854546 56.541 0.53577L56.4049 0.510882L56.2685 0.488547L56.132 0.46866L55.9955 0.451114L55.8593 0.435801L55.7235 0.422616C55.6783 0.418564 55.6332 0.414848 55.5882 0.411452L55.4537 0.402201L55.3202 0.394758L55.1878 0.389017L55.0567 0.384869L54.9271 0.382209L54.7358 0.380775L54.6515 0.381073L54.4838 0.383465C54.456 0.384065 54.4282 0.384767 54.4005 0.38557L54.235 0.391624C54.1801 0.394054 54.1255 0.3969 54.0711 0.400168L53.9088 0.411242C51.6479 0.584187 49.8836 1.51287 49.5307 3.69066C49.4263 4.35387 49.4004 4.94257 49.5666 5.6938C49.8282 6.92827 50.8565 7.80672 52.037 8.54352L52.2197 8.65579C52.2504 8.67432 52.2811 8.69277 52.3118 8.71114L52.4972 8.82038L52.6838 8.92781L52.871 9.03362L53.152 9.18966L53.8902 9.59423L54.0696 9.69368L54.2459 9.79281L54.4186 9.89179L54.5872 9.99079C55.3918 10.4696 56.0364 10.9552 56.2684 11.5357C56.3967 11.8806 56.3687 12.3154 56.3066 12.5927L56.296 12.6374C56.2806 12.7041 56.2614 12.7709 56.2371 12.8364L56.2112 12.9016C56.0404 13.3005 55.6672 13.6406 54.8472 13.6406C53.9118 13.6406 53.3488 13.1028 53.3488 12.2923L53.3476 10.8497H49.3587V11.9964C49.3587 14.6879 51.0663 15.8571 53.2049 16.2042L53.3641 16.2284C53.4707 16.2435 53.5783 16.2567 53.6868 16.2681L53.85 16.2836C54.0411 16.3002 54.2345 16.3111 54.4293 16.3169L54.5966 16.3206C54.6246 16.321 54.6525 16.3213 54.6805 16.3215L54.7646 16.3218C54.8205 16.3218 54.8762 16.3214 54.9317 16.3206L55.0976 16.317C55.1251 16.3161 55.1526 16.3152 55.18 16.3142L55.3438 16.3069C55.3982 16.304 55.4523 16.3008 55.5062 16.2971L55.6669 16.2847C55.7736 16.2756 55.8791 16.2647 55.9835 16.2521L56.1391 16.2319L56.2929 16.2089C56.3438 16.2008 56.3944 16.1923 56.4447 16.1833L56.5945 16.1548C58.4049 15.7921 59.7519 14.8086 60.0224 12.9175C60.0596 12.6355 60.0825 12.375 60.0949 12.1369L60.1016 11.9815C60.1024 11.9561 60.1032 11.9311 60.1038 11.9063L60.1063 11.7609V11.6223L60.104 11.4905L60.0997 11.3655L60.0936 11.2475C60.0925 11.2284 60.0913 11.2096 60.09 11.191L60.0818 11.0835L60.0724 10.9829L60.0622 10.8895L60.0457 10.7627L60.0286 10.6521L60.0063 10.5303L59.9959 10.4805C59.7349 9.17146 58.5889 8.24687 57.3158 7.4858L57.1331 7.37816L56.9492 7.27261L56.7645 7.169L56.4872 7.01689L56.1195 6.81954L55.4923 6.48595L55.2342 6.34631C55.206 6.33088 55.1779 6.31547 55.15 6.30008L54.9849 6.20798L54.8244 6.11625C54.0345 5.65824 53.4374 5.20853 53.3094 4.68663ZM4.42303 4.64976C4.35481 4.36567 4.36548 4.06681 4.40048 3.89315L4.41496 3.82813L4.43141 3.76379C4.5566 3.31241 4.8989 2.84717 5.78362 2.84717C6.66282 2.84717 7.18049 3.3936 7.18049 4.21238V5.14273H10.9299V4.08673C10.9299 1.83048 9.52626 0.882924 7.95782 0.512265L7.82105 0.48147C7.70678 0.456989 7.59183 0.435427 7.47668 0.416504L7.33843 0.395045L7.20016 0.376013L7.06205 0.359302L6.92429 0.344803C6.87845 0.340327 6.8327 0.336202 6.78706 0.332411L6.65054 0.322017L6.5149 0.313516L6.38033 0.306801L6.24702 0.301764L6.11514 0.298298L5.92039 0.295654H5.85639C5.80018 0.295654 5.74418 0.296047 5.68842 0.296839L5.52182 0.300419C5.41122 0.303613 5.30159 0.308429 5.19302 0.314918L5.03097 0.325913C5.00409 0.327956 4.97729 0.330106 4.95056 0.332363L4.79102 0.347194C4.73814 0.35257 4.68554 0.35838 4.63326 0.36463L4.47734 0.38471C4.34819 0.402555 4.22103 0.423193 4.09606 0.446724L3.94716 0.476356L3.80042 0.508803L3.65593 0.544103C3.60814 0.55635 3.56074 0.569078 3.51374 0.582295L3.37394 0.623417C1.91885 1.07071 0.870222 2.00881 0.605514 3.63661C0.496266 4.31044 0.477543 4.9032 0.635432 5.66272C0.913403 6.97525 2.04711 7.88932 3.31545 8.65735L3.50194 8.76873C3.53315 8.78713 3.56443 8.80545 3.59575 8.8237L3.78418 8.93228L4.06792 9.09213L4.44564 9.30052L5.00279 9.60583L5.27345 9.75649L5.53656 9.90662L5.70695 10.0067C5.73497 10.0234 5.76281 10.0401 5.79044 10.0568L5.95373 10.1572C6.65006 10.5934 7.19543 11.0426 7.40594 11.5693C7.54382 11.9118 7.51158 12.3464 7.44642 12.6328L7.43528 12.6791C7.41919 12.7451 7.39943 12.811 7.375 12.876L7.34898 12.9405C7.17382 13.3465 6.79792 13.6946 5.96718 13.6946C5.02815 13.6946 4.46646 13.1476 4.46646 12.3259L4.46125 10.8794H0.427551V12.0289C0.427551 15.2553 2.86014 16.3157 5.55414 16.3954L5.72284 16.3991L5.8921 16.4003L6.05946 16.3992C6.14282 16.398 6.22569 16.3959 6.30803 16.3929L6.47198 16.3856C6.55359 16.3814 6.63464 16.3762 6.71509 16.3701L6.87517 16.3566L7.03358 16.3405C7.0861 16.3347 7.13832 16.3285 7.19024 16.3218L7.34508 16.3005C7.39639 16.2929 7.44737 16.2849 7.49803 16.2765L7.64902 16.2498C9.52374 15.8987 10.9209 14.9043 11.2022 12.9592C11.241 12.6813 11.2652 12.4243 11.2787 12.1887L11.2862 12.0348L11.2908 11.8874C11.2919 11.8393 11.2925 11.7923 11.2927 11.7464L11.2922 11.6119L11.2896 11.484L11.285 11.3627L11.2788 11.248L11.2712 11.14L11.2625 11.0387L11.2478 10.8995L11.2321 10.7758L11.2107 10.6351L11.1864 10.4986C10.9263 9.20511 9.81446 8.28487 8.56358 7.52798L8.37962 7.41836C8.34882 7.40027 8.31796 7.38228 8.28705 7.36438L8.10103 7.25798L7.91428 7.15355L7.72727 7.05094L7.54051 6.95L6.71647 6.51259L6.45295 6.37136L6.28183 6.27805L6.11492 6.18525L5.95272 6.09281C5.92611 6.07742 5.89972 6.06204 5.87355 6.04667L5.71936 5.95449C5.03852 5.53977 4.53857 5.12484 4.42303 4.64976Z" fill="#7B7B7B"/>
</svg>
