<svg width="106" height="17" viewBox="0 0 106 17" fill="none" xmlns="http://www.w3.org/2000/svg">
<path d="M14.7743 16.5355V12.2725H10.1318C8.86934 12.2725 7.69988 12.9352 7.05328 14.0172L5.54822 16.5355H14.7743Z" fill="#7B7B7B"/>
<path d="M-0.000549316 0.15918V4.42222H12.2272L14.7751 0.15918H-0.000549316Z" fill="#7B7B7B"/>
<path d="M5.85187 6.82259L0.0132446 16.5372H4.98762L11.9696 4.91504H9.2227C7.84105 4.91504 6.56103 5.6394 5.85187 6.82259Z" fill="#7B7B7B"/>
<path d="M25.3587 12.4476C22.8574 12.4476 21.0168 10.6295 21.0168 8.18961C21.0168 5.7732 22.8692 3.93157 25.3705 3.93157C27.8718 3.93157 29.7242 5.79666 29.7242 8.18961C29.7242 10.606 27.86 12.4476 25.3587 12.4476ZM25.3705 10.9579C26.9515 10.9579 28.0842 9.78491 28.0842 8.18961C28.0842 6.61777 26.9515 5.4213 25.3705 5.4213C23.7777 5.4213 22.645 6.61777 22.645 8.18961C22.645 9.78491 23.7777 10.9579 25.3705 10.9579ZM31.3992 14.9931V6.12511H32.9095V6.91103H32.9921C33.1572 6.65296 33.7236 5.97262 34.8563 5.97262C36.5907 5.97262 37.7823 7.26293 37.7823 9.18667C37.7823 11.1104 36.6025 12.4476 34.9035 12.4476C33.8062 12.4476 33.2162 11.8377 33.0157 11.4975H32.9331V14.9931H31.3992ZM34.5613 11.0635C35.5524 11.0635 36.2249 10.301 36.2249 9.21013C36.2249 8.08404 35.5524 7.35677 34.5495 7.35677C33.5348 7.35677 32.8977 8.16615 32.8977 9.21013C32.8977 10.3597 33.6056 11.0635 34.5613 11.0635ZM42.171 12.4476C40.3422 12.4476 39.0444 11.087 39.0444 9.24532C39.0444 7.29812 40.354 5.97262 42.171 5.97262C44.165 5.97262 45.2505 7.43888 45.2505 9.17494V9.65588H40.531C40.5782 10.5943 41.2271 11.2277 42.2182 11.2277C42.9733 11.2277 43.5515 10.8758 43.7639 10.3714H45.1915C44.8847 11.6265 43.7757 12.4476 42.171 12.4476ZM40.5546 8.5767H43.7875C43.7167 7.74387 43.0677 7.19255 42.171 7.19255C41.3097 7.19255 40.649 7.80252 40.5546 8.5767ZM46.9019 12.2952V6.12511H48.3649V6.87584H48.4475C48.6953 6.41836 49.3088 5.97262 50.1937 5.97262C51.586 5.97262 52.4355 6.94622 52.4355 8.25999V12.2952H50.9017V8.65882C50.9017 7.90809 50.4179 7.40369 49.71 7.40369C48.9667 7.40369 48.4357 7.9902 48.4357 8.76439V12.2952H46.9019ZM53.9571 12.2952V10.8993L58.2518 5.51514V5.43303H54.1105V4.08407H60.2104V5.46822L55.9157 10.8524V10.9462H60.234V12.2952H53.9571ZM64.3867 12.4476C62.5579 12.4476 61.2601 11.087 61.2601 9.24532C61.2601 7.29812 62.5697 5.97262 64.3867 5.97262C66.3807 5.97262 67.4662 7.43888 67.4662 9.17494V9.65588H62.7467C62.7939 10.5943 63.4428 11.2277 64.4339 11.2277C65.189 11.2277 65.7672 10.8758 65.9796 10.3714H67.4072C67.1004 11.6265 65.9914 12.4476 64.3867 12.4476ZM62.7703 8.5767H66.0032C65.9324 7.74387 65.2834 7.19255 64.3867 7.19255C63.5254 7.19255 62.8647 7.80252 62.7703 8.5767ZM69.1176 14.9931V6.12511H70.6278V6.91103H70.7104C70.8756 6.65296 71.4419 5.97262 72.5746 5.97262C74.309 5.97262 75.5007 7.26293 75.5007 9.18667C75.5007 11.1104 74.3208 12.4476 72.6218 12.4476C71.5245 12.4476 70.9346 11.8377 70.734 11.4975H70.6514V14.9931H69.1176ZM72.2796 11.0635C73.2707 11.0635 73.9433 10.301 73.9433 9.21013C73.9433 8.08404 73.2707 7.35677 72.2678 7.35677C71.2532 7.35677 70.616 8.16615 70.616 9.21013C70.616 10.3597 71.3239 11.0635 72.2796 11.0635ZM77.1521 14.9931V6.12511H78.6623V6.91103H78.7449C78.9101 6.65296 79.4764 5.97262 80.6091 5.97262C82.3435 5.97262 83.5352 7.26293 83.5352 9.18667C83.5352 11.1104 82.3553 12.4476 80.6563 12.4476C79.559 12.4476 78.9691 11.8377 78.7685 11.4975H78.6859V14.9931H77.1521ZM80.3141 11.0635C81.3052 11.0635 81.9778 10.301 81.9778 9.21013C81.9778 8.08404 81.3052 7.35677 80.3023 7.35677C79.2877 7.35677 78.6505 8.16615 78.6505 9.21013C78.6505 10.3597 79.3584 11.0635 80.3141 11.0635ZM87.9239 12.4476C86.0951 12.4476 84.7972 11.087 84.7972 9.24532C84.7972 7.29812 86.1069 5.97262 87.9239 5.97262C89.9179 5.97262 91.0034 7.43888 91.0034 9.17494V9.65588H86.2839C86.3311 10.5943 86.98 11.2277 87.9711 11.2277C88.7262 11.2277 89.3043 10.8758 89.5167 10.3714H90.9444C90.6376 11.6265 89.5285 12.4476 87.9239 12.4476ZM86.3075 8.5767H89.5403C89.4695 7.74387 88.8206 7.19255 87.9239 7.19255C87.0626 7.19255 86.4018 7.80252 86.3075 8.5767ZM94.165 12.2952C93.0795 12.2952 92.466 11.65 92.466 10.5591V3.49756H93.9998V10.4183C93.9998 10.7702 94.1768 10.9579 94.4953 10.9579H94.7431V12.2952H94.165ZM96.9844 5.304C96.4299 5.304 96.0405 4.96383 96.0405 4.41251C96.0405 3.88465 96.4299 3.53275 96.9844 3.53275C97.539 3.53275 97.9283 3.88465 97.9283 4.41251C97.9283 4.96383 97.539 5.304 96.9844 5.304ZM96.2175 12.2952V6.12511H97.7514V12.2952H96.2175ZM99.6151 12.2952V6.12511H101.078V6.87584H101.161C101.409 6.41836 102.022 5.97262 102.907 5.97262C104.299 5.97262 105.149 6.94622 105.149 8.25999V12.2952H103.615V8.65882C103.615 7.90809 103.131 7.40369 102.423 7.40369C101.68 7.40369 101.149 7.9902 101.149 8.76439V12.2952H99.6151Z" fill="#7B7B7B"/>
</svg>
