<svg width="48" height="48" viewBox="0 0 48 48" fill="none" xmlns="http://www.w3.org/2000/svg">
<path d="M12.566 26.183C10.856 27.354 10 29.293 10 32C10 36.06 14.975 43 19.462 43H30.942C35.331 43 38 39.15 38 36.06V23.01C38 22.2144 37.6839 21.4513 37.1213 20.8887C36.5587 20.3261 35.7956 20.01 35 20.01H34.99C34.197 20.01 33.4365 20.325 32.8758 20.8858C32.315 21.4465 32 22.207 32 23" stroke="black" stroke-width="4" stroke-linecap="round"/>
<path d="M13.9814 28.4451V8.00606C13.9814 7.21094 14.2973 6.44838 14.8595 5.88615C15.4218 5.32392 16.1843 5.00806 16.9794 5.00806H16.9874C17.7856 5.01018 18.5503 5.32879 19.1138 5.89401C19.6774 6.45924 19.9937 7.2249 19.9934 8.02306V23.5931" stroke="black" stroke-width="4" stroke-linecap="round"/>
<path d="M19.9932 23.009V19.016C20.0134 18.2298 20.34 17.4826 20.9032 16.9337C21.4664 16.3848 22.2217 16.0776 23.0082 16.0776C23.7946 16.0776 24.5499 16.3848 25.1132 16.9337C25.6764 17.4826 26.0029 18.2298 26.0232 19.016V23.009" stroke="black" stroke-width="4" stroke-linecap="round" stroke-linejoin="round"/>
<path d="M26 22.7162V20.0042C26 19.2085 26.3161 18.4454 26.8787 17.8828C27.4413 17.3202 28.2044 17.0042 29 17.0042C29.7956 17.0042 30.5587 17.3202 31.1213 17.8828C31.6839 18.4454 32 19.2085 32 20.0042V23.0042" stroke="black" stroke-width="4" stroke-linecap="round" stroke-linejoin="round"/>
</svg>
