<svg width="48" height="48" viewBox="0 0 48 48" fill="none" xmlns="http://www.w3.org/2000/svg">
<path d="M29.0599 24.8401L26.1599 21.9401L28.9599 19.1401C29.5399 18.5601 29.5399 17.6001 28.9599 17.0201C28.3799 16.4401 27.4199 16.4401 26.8399 17.0201L24.0399 19.8201L21.1399 16.9201C20.5599 16.3401 19.5999 16.3401 19.0199 16.9201C18.4399 17.5001 18.4399 18.4601 19.0199 19.0401L21.9199 21.9401L18.9399 24.9201C18.3599 25.5001 18.3599 26.4601 18.9399 27.0401C19.2399 27.3401 19.6199 27.4801 19.9999 27.4801C20.3799 27.4801 20.7599 27.3401 21.0599 27.0401L24.0399 24.0601L26.9399 26.9601C27.2399 27.2601 27.6199 27.4001 27.9999 27.4001C28.3799 27.4001 28.7599 27.2601 29.0599 26.9601C29.6399 26.3801 29.6399 25.4401 29.0599 24.8401Z" fill="white"/>
<path opacity="0.4" d="M41.24 17.4C39.16 8.14 31.08 4 24 4C24 4 24 4 23.98 4C16.92 4 8.85999 8.14 6.75999 17.38C4.39999 27.7 10.72 36.44 16.44 41.96C18.56 44 21.28 45.02 24 45.02C26.72 45.02 29.44 44 31.54 41.96C37.26 36.44 43.58 27.72 41.24 17.4Z" fill="white"/>
</svg>
