<svg width="24" height="24" viewBox="0 0 24 24" fill="none" xmlns="http://www.w3.org/2000/svg">
<g id="linkedin">
<path id="linkedin_2" d="M21.1799 1.19998H2.81995C1.95595 1.19998 1.19995 1.85119 1.19995 2.71954V21.2804C1.19995 22.1487 1.95595 22.7999 2.81995 22.7999H21.1799C22.0439 22.7999 22.7999 22.1487 22.7999 21.2804V2.71954C22.7999 1.95974 22.0439 1.19998 21.1799 1.19998ZM7.57195 19.7608H4.33195V9.4492H7.57195V19.7608ZM5.95195 7.92957C4.87195 7.92957 4.11595 7.06128 4.11595 6.0844C4.11595 5.10752 4.97995 4.23916 5.95195 4.23916C6.92395 4.23916 7.78795 5.10752 7.78795 6.0844C7.89595 7.16983 7.03195 7.92957 5.95195 7.92957ZM19.5599 19.7608H16.3199V14.7678C16.3199 13.5738 16.3199 12.0542 14.6999 12.0542C13.0799 12.0542 12.756 13.3568 12.756 14.7678V19.8693H9.51596V9.55771H12.5399V10.9688C12.9719 10.1005 14.0519 9.34068 15.5639 9.34068C18.8039 9.34068 19.452 11.5115 19.452 14.2251V19.7608H19.5599Z" fill="#0077B5"/>
</g>
</svg>
