<svg width="24" height="24" viewBox="0 0 24 24" fill="none" xmlns="http://www.w3.org/2000/svg">
<g id="twitter">
<path id="twitter_2" fill-rule="evenodd" clip-rule="evenodd" d="M24 5.84643C23.1724 6.20111 22.2266 6.43754 21.1626 6.55576C22.1084 5.96463 22.936 5.0188 23.2906 3.95476C22.3448 4.5459 21.2808 4.90058 20.2168 5.13703C19.3892 4.19122 18.0887 3.6001 16.67 3.6001C13.9507 3.6001 11.8227 5.72818 11.8227 8.32916C11.8227 8.68384 11.8227 9.03855 11.9409 9.39323C7.92118 9.15678 4.37439 7.26514 1.89163 4.4277C1.41872 5.13706 1.18227 5.96464 1.18227 6.79223C1.18227 8.4474 2.00985 9.86608 3.31034 10.8119C2.48276 10.8119 1.7734 10.5754 1.06404 10.2208C1.06404 10.2208 1.06404 10.2208 1.06404 10.339C1.06404 12.7036 2.71921 14.5952 4.96552 15.0681C4.61084 15.1863 4.13793 15.1863 3.66503 15.1863C3.31035 15.1863 3.07389 15.1863 2.71921 15.0681C3.31034 16.9597 5.08375 18.3784 7.21182 18.3784C5.55665 19.6789 3.42858 20.3883 1.18227 20.3883C0.82759 20.3883 0.354683 20.3882 3.60799e-06 20.27C2.12808 21.6887 4.72906 22.3982 7.44827 22.3982C16.3153 22.3982 21.2808 15.0681 21.2808 8.8021C21.2808 8.56564 21.2808 8.32919 21.2808 8.21096C22.5813 7.61983 23.4089 6.79224 24 5.84643Z" fill="#26A7DE"/>
</g>
</svg>
