<svg width="24" height="24" viewBox="0 0 24 24" fill="none" xmlns="http://www.w3.org/2000/svg">
<path fill-rule="evenodd" clip-rule="evenodd" d="M12 2.65419C15.044 2.65419 15.4045 2.66582 16.6067 2.72067C17.7182 2.7714 18.3217 2.95707 18.7235 3.11319C19.2186 3.29594 19.6665 3.58734 20.0343 3.96597C20.4129 4.33369 20.7043 4.78159 20.887 5.27675C21.0431 5.67845 21.2289 6.28208 21.2795 7.39356C21.3344 8.59569 21.346 8.95622 21.346 12.0003C21.346 15.0443 21.3344 15.4047 21.2795 16.6069C21.2288 17.7184 21.0431 18.322 20.887 18.7238C20.6974 19.2154 20.4069 19.6619 20.0343 20.0346C19.6616 20.4072 19.2151 20.6977 18.7235 20.8873C18.3218 21.0434 17.7182 21.2292 16.6067 21.2798C15.4048 21.3347 15.0443 21.3463 12 21.3463C8.95579 21.3463 8.5954 21.3347 7.39337 21.2798C6.28189 21.2291 5.67832 21.0434 5.27658 20.8873C4.78142 20.7046 4.33352 20.4132 3.96581 20.0345C3.58718 19.6668 3.29578 19.2189 3.11303 18.7238C2.95691 18.3221 2.7712 17.7184 2.72052 16.6069C2.66567 15.4049 2.65404 15.0443 2.65404 12.0003C2.65404 8.95622 2.66567 8.59578 2.72052 7.39356C2.77124 6.28208 2.95691 5.6785 3.11303 5.27675C3.2958 4.78157 3.58723 4.33365 3.9659 3.96592C4.33362 3.5873 4.78152 3.2959 5.27667 3.11314C5.67837 2.95702 6.28199 2.77131 7.39347 2.72062C8.59558 2.66578 8.95611 2.65415 12.0001 2.65415L12 2.65419ZM12 0.600098C8.90406 0.600098 8.5157 0.613221 7.29997 0.6687C6.08654 0.724089 5.25789 0.916774 4.53277 1.19861C3.77211 1.48486 3.08305 1.93358 2.51362 2.5135C1.93358 3.08289 1.48473 3.77197 1.19837 4.53266C0.916771 5.25783 0.724088 6.08649 0.668926 7.29994C0.613221 8.51569 0.600098 8.90404 0.600098 12.0001C0.600098 15.0962 0.613221 15.4846 0.668926 16.7003C0.724314 17.9137 0.916997 18.7424 1.19883 19.4675C1.48508 20.2282 1.9338 20.9173 2.51371 21.4867C3.08313 22.0666 3.7722 22.5153 4.53286 22.8016C5.25802 23.0834 6.08668 23.2761 7.30007 23.3315C8.51599 23.387 8.9042 23.4001 12.0002 23.4001C15.0962 23.4001 15.4846 23.387 16.7004 23.3315C17.9138 23.2761 18.7424 23.0834 19.4676 22.8016C20.2248 22.5087 20.9126 22.0608 21.4867 21.4867C22.0608 20.9126 22.5087 20.2248 22.8016 19.4675C23.0834 18.7424 23.2761 17.9137 23.3315 16.7003C23.387 15.4844 23.4001 15.0962 23.4001 12.0001C23.4001 8.90409 23.387 8.51569 23.3315 7.29994C23.2761 6.08649 23.0834 5.25783 22.8016 4.53271C22.5153 3.77204 22.0666 3.08297 21.4867 2.51355C20.9173 1.93351 20.2282 1.48469 19.4674 1.19838C18.7423 0.916774 17.9136 0.724089 16.7002 0.668927C15.4844 0.613221 15.0961 0.600098 12 0.600098ZM12 6.14599C10.8421 6.14599 9.71032 6.48932 8.74763 7.13258C7.78494 7.77583 7.03461 8.69011 6.59154 9.7598C6.14846 10.8295 6.03253 12.0066 6.25841 13.1421C6.48429 14.2777 7.04183 15.3208 7.86053 16.1395C8.67923 16.9582 9.72232 17.5158 10.8579 17.7416C11.9935 17.9675 13.1705 17.8516 14.2402 17.4085C15.3099 16.9654 16.2241 16.2151 16.8674 15.2524C17.5106 14.2897 17.854 13.1579 17.854 12.0001C17.854 10.4475 17.2372 8.95846 16.1394 7.86061C15.0415 6.76275 13.5525 6.14599 12 6.14599ZM12 15.8C11.2484 15.8 10.5137 15.5772 9.88883 15.1596C9.26393 14.7421 8.77689 14.1486 8.48929 13.4542C8.20169 12.7599 8.12644 11.9958 8.27307 11.2587C8.4197 10.5216 8.78161 9.84449 9.31304 9.31305C9.84448 8.78162 10.5216 8.41971 11.2587 8.2731C11.9958 8.12648 12.7598 8.20173 13.4542 8.48934C14.1485 8.77696 14.742 9.26401 15.1595 9.88891C15.5771 10.5138 15.7999 11.2485 15.7999 12.0001C15.7999 13.0079 15.3996 13.9744 14.6869 14.6871C13.9743 15.3997 13.0078 15.8 12 15.8ZM19.4533 5.91479C19.4533 6.67031 18.8409 7.28278 18.0854 7.28278C17.3299 7.28278 16.7174 6.67031 16.7174 5.91479C16.7174 5.15928 17.3299 4.54681 18.0854 4.54681C18.8409 4.54681 19.4533 5.15928 19.4533 5.91479Z" fill="url(#paint0_radial_78_5732)"/>
<defs>
<radialGradient id="paint0_radial_78_5732" cx="0" cy="0" r="1" gradientUnits="userSpaceOnUse" gradientTransform="translate(8.0101 26.6776) rotate(-70.5462) scale(32.9459 32.8921)">
<stop stop-color="#FFD87B"/>
<stop offset="0.246305" stop-color="#F3A85C"/>
<stop offset="0.37931" stop-color="#F16449"/>
<stop offset="0.388642" stop-color="#F16449"/>
<stop offset="0.699507" stop-color="#C53F8B"/>
<stop offset="0.707834" stop-color="#C53F8B"/>
<stop offset="0.985222" stop-color="#6472B5"/>
<stop offset="1" stop-color="#6472B5"/>
</radialGradient>
</defs>
</svg>
