<svg width="13" height="18" viewBox="0 0 13 18" fill="none" xmlns="http://www.w3.org/2000/svg">
<path d="M0.414773 18V15.3409L6.62784 9.58807C7.15625 9.0767 7.59943 8.61648 7.95739 8.20739C8.32102 7.7983 8.59659 7.39773 8.78409 7.00568C8.97159 6.60795 9.06534 6.17898 9.06534 5.71875C9.06534 5.20739 8.94886 4.76705 8.71591 4.39773C8.48295 4.02273 8.16477 3.7358 7.76136 3.53693C7.35795 3.33239 6.90057 3.23011 6.3892 3.23011C5.85511 3.23011 5.3892 3.33807 4.99148 3.55398C4.59375 3.76989 4.28693 4.07955 4.07102 4.48295C3.85511 4.88636 3.74716 5.36648 3.74716 5.92329H0.244318C0.244318 4.78125 0.502841 3.78977 1.01989 2.94886C1.53693 2.10795 2.26136 1.45739 3.19318 0.997158C4.125 0.536931 5.19886 0.306818 6.41477 0.306818C7.66477 0.306818 8.75284 0.528409 9.67898 0.971591C10.6108 1.40909 11.3352 2.01705 11.8523 2.79545C12.3693 3.57386 12.6278 4.46591 12.6278 5.47159C12.6278 6.13068 12.4972 6.78125 12.2358 7.4233C11.9801 8.06534 11.5227 8.77841 10.8636 9.5625C10.2045 10.3409 9.27557 11.2756 8.0767 12.3665L5.52841 14.8636V14.983H12.858V18H0.414773Z" fill="#F4A93E"/>
</svg>
