<svg width="121" height="121" viewBox="0 0 121 121" fill="none" xmlns="http://www.w3.org/2000/svg">
<path d="M20.9693 63.0724C-1.21 75.8839 -1.21 96.6548 20.9717 109.466C43.1534 122.278 79.1388 122.278 101.316 109.466C123.493 96.6548 123.505 75.8839 101.316 63.0724C79.1267 50.2609 43.1583 50.2634 20.9693 63.0724Z" fill="#FAFAFA"/>
<path d="M84.5528 64.372C77.6606 68.3505 77.6606 74.7998 84.5528 78.7807C91.4449 82.7616 102.618 82.7592 109.51 78.7807C116.402 74.8022 116.402 68.3505 109.51 64.372C102.618 60.3935 91.4449 60.379 84.5528 64.372Z" fill="#E0E0E0"/>
<path d="M50.3994 110.627L17.3083 91.5094C16.8437 91.2408 16.8437 90.8052 17.3083 90.5414L57.5626 67.2755C57.8227 67.1431 58.1104 67.0741 58.4023 67.0741C58.6942 67.0741 58.9819 67.1431 59.2421 67.2755L92.3356 86.3935C92.8002 86.6621 92.8002 87.0953 92.3356 87.3615L52.0813 110.627C51.8207 110.76 51.5326 110.829 51.2403 110.829C50.9481 110.829 50.6599 110.76 50.3994 110.627Z" fill="#E0E0E0"/>
<path d="M25.698 113.072L37.844 106.054C38.207 105.844 38.207 105.503 37.844 105.292L18.9123 94.3803C18.7084 94.2766 18.4828 94.2225 18.2541 94.2225C18.0253 94.2225 17.7997 94.2766 17.5958 94.3803L5.44984 101.398C5.08684 101.609 5.08684 101.95 5.44984 102.161L24.3791 113.089C24.5846 113.191 24.8113 113.242 25.0406 113.239C25.2698 113.236 25.4951 113.179 25.698 113.072Z" fill="#E0E0E0"/>
<path d="M88.3879 42.0102C88.3954 41.9236 88.4261 41.8405 88.4768 41.7699C88.5275 41.6992 88.5963 41.6434 88.6759 41.6085C88.8914 41.4987 89.1298 41.4414 89.3717 41.4414C89.6135 41.4414 89.8519 41.4987 90.0674 41.6085C90.1475 41.6431 90.2168 41.6987 90.268 41.7694C90.3191 41.8401 90.3501 41.9233 90.3578 42.0102L82.9599 72.7225C82.9526 72.7823 82.9301 72.8394 82.8945 72.8881C82.8589 72.9368 82.8114 72.9756 82.7566 73.0008C82.604 73.0783 82.4353 73.1188 82.2641 73.1188C82.093 73.1188 81.9242 73.0783 81.7717 73.0008C81.7166 72.976 81.6688 72.9373 81.6332 72.8885C81.5976 72.8397 81.5752 72.7825 81.5684 72.7225L88.3879 42.0102Z" fill="#455A64"/>
<path d="M105.435 42.01C105.427 41.9233 105.397 41.8403 105.346 41.7696C105.295 41.6989 105.226 41.6432 105.147 41.6083C104.931 41.4986 104.692 41.4414 104.45 41.4414C104.208 41.4414 103.969 41.4986 103.753 41.6083C103.673 41.6432 103.604 41.6989 103.554 41.7696C103.503 41.8403 103.472 41.9233 103.465 42.01L110.86 72.7222C110.867 72.7822 110.89 72.8394 110.925 72.8882C110.961 72.937 111.009 72.9757 111.064 73.0005C111.216 73.0781 111.385 73.1185 111.556 73.1185C111.727 73.1185 111.896 73.0781 112.049 73.0005C112.103 72.9752 112.15 72.9363 112.185 72.8876C112.221 72.8388 112.243 72.7819 112.249 72.7222L105.435 42.01Z" fill="#455A64"/>
<path d="M98.0099 43.0239C98.0025 42.9373 97.9718 42.8542 97.9211 42.7835C97.8704 42.7128 97.8016 42.6571 97.722 42.6222C97.5065 42.5123 97.2681 42.4551 97.0262 42.4551C96.7844 42.4551 96.5459 42.5123 96.3305 42.6222C96.2503 42.6568 96.1811 42.7123 96.1299 42.7831C96.0788 42.8538 96.0478 42.937 96.0401 43.0239L96.3305 77.6614C96.3373 77.7214 96.3597 77.7786 96.3953 77.8274C96.4309 77.8762 96.4786 77.9149 96.5337 77.9397C96.6863 78.0173 96.8551 78.0577 97.0262 78.0577C97.1974 78.0577 97.3661 78.0173 97.5187 77.9397C97.5735 77.9145 97.621 77.8757 97.6566 77.827C97.6921 77.7783 97.7147 77.7213 97.722 77.6614L98.0099 43.0239Z" fill="#455A64"/>
<path d="M114.679 47.1902H114.662C114.662 44.5814 112.956 41.9751 109.51 39.9858C102.618 36.0073 91.4445 36.0073 84.5524 39.9858C81.1063 41.9751 79.3978 44.5838 79.4002 47.1902H79.376V48.5913C79.4171 51.1638 81.145 53.729 84.5451 55.694C91.4373 59.6725 102.61 59.6725 109.503 55.694C112.903 53.729 114.631 51.1638 114.672 48.5913L114.679 47.1902Z" fill="#F4AD3C"/>
<path d="M84.5529 39.978C77.6608 43.9565 77.6608 50.4082 84.5529 54.3867C91.4451 58.3652 102.618 58.3652 109.51 54.3867C116.403 50.4082 116.403 43.9565 109.51 39.978C102.618 35.9995 91.4451 35.9995 84.5529 39.978Z" fill="#F4AD3C"/>
<path opacity="0.45" d="M84.5529 39.978C77.6608 43.9565 77.6608 50.4082 84.5529 54.3867C91.4451 58.3652 102.618 58.3652 109.51 54.3867C116.403 50.4082 116.403 43.9565 109.51 39.978C102.618 35.9995 91.4451 35.9995 84.5529 39.978Z" fill="white"/>
<g opacity="0.1">
<path opacity="0.1" d="M109.265 43.4822C111.17 44.5833 111.17 46.3693 109.265 47.4704C107.361 48.5715 104.268 48.569 102.361 47.4704C100.454 46.3717 100.454 44.5833 102.361 43.4822C104.268 42.3811 107.358 42.3811 109.265 43.4822Z" fill="black"/>
</g>
<path d="M102.775 45.7209C101.112 44.0269 100.137 39.7968 101.758 38.4609H109.998C111.62 39.8065 110.645 44.0269 108.984 45.7209L108.939 45.7669L108.883 45.8226C108.834 45.8686 108.786 45.9121 108.733 45.9557L108.692 45.9871C108.651 46.0186 108.612 46.0525 108.566 46.0815C108.497 46.1314 108.426 46.1775 108.353 46.2195C106.986 47.0084 104.771 47.0084 103.406 46.2195C103.334 46.1783 103.264 46.1323 103.191 46.0815C103.118 46.0307 103.114 46.0234 103.075 45.992L103.026 45.9557C102.973 45.9121 102.925 45.8686 102.881 45.825L102.816 45.7621L102.775 45.7209Z" fill="#EBEBEB"/>
<path d="M109.285 37.9117C111.165 38.9958 111.165 40.7576 109.285 41.8418C107.404 42.9259 104.355 42.9283 102.475 41.8418C100.594 40.7552 100.594 38.9958 102.475 37.9117C104.355 36.8275 107.404 36.8251 109.285 37.9117Z" fill="#FAFAFA"/>
<path d="M107.951 38.681C109.093 39.3417 109.093 40.4113 107.951 41.072C106.809 41.7327 104.95 41.7327 103.808 41.072C102.666 40.4113 102.663 39.3417 103.808 38.681C104.952 38.0204 106.806 38.0204 107.951 38.681Z" fill="#EBEBEB"/>
<path d="M103.818 39.8158C104.96 39.1551 106.817 39.1551 107.961 39.8158C108.238 39.9661 108.473 40.1822 108.646 40.445C108.472 40.7064 108.237 40.9215 107.961 41.0718C106.817 41.7324 104.96 41.7324 103.818 41.0718C103.542 40.9218 103.306 40.7067 103.131 40.445C103.304 40.1817 103.541 39.9655 103.818 39.8158Z" fill="#E0E0E0"/>
<path d="M107.689 40.4451C108.276 39.8501 108.781 39.1795 109.19 38.451C109.882 37.241 110.008 35.5881 109.652 35.3873C109.296 35.1864 107.837 36.8199 107.837 36.8199C107.971 36.1323 108.022 35.4312 107.99 34.7315C107.929 33.64 107.663 32.6503 107.351 32.4494C107.039 32.2485 106.342 33.6255 106.041 34.6274C105.741 35.6293 105.557 36.4424 105.557 36.4424C105.438 35.665 105.258 34.898 105.02 34.1482C104.657 33.1149 104.328 32.8802 104.074 32.9842C103.82 33.0883 103.648 33.5674 103.573 34.9468C103.547 35.6041 103.568 36.2624 103.636 36.9167C103.636 36.9167 103.123 36.3529 102.552 35.8059C101.927 35.2034 101.659 35.1211 101.48 35.2348C101.301 35.3486 101.252 36.2851 102.22 38.0396C102.702 38.9356 103.319 39.7519 104.05 40.4596C104.05 40.4596 105.405 41.309 107.689 40.4451Z" fill="#F4AD3C"/>
<path opacity="0.3" d="M107.689 40.4451C108.276 39.8501 108.781 39.1795 109.19 38.451C109.882 37.241 110.008 35.5881 109.652 35.3873C109.296 35.1864 107.837 36.8199 107.837 36.8199C107.971 36.1323 108.022 35.4312 107.99 34.7315C107.929 33.64 107.663 32.6503 107.351 32.4494C107.039 32.2485 106.342 33.6255 106.041 34.6274C105.741 35.6293 105.557 36.4424 105.557 36.4424C105.438 35.665 105.258 34.898 105.02 34.1482C104.657 33.1149 104.328 32.8802 104.074 32.9842C103.82 33.0883 103.648 33.5674 103.573 34.9468C103.547 35.6041 103.568 36.2624 103.636 36.9167C103.636 36.9167 103.123 36.3529 102.552 35.8059C101.927 35.2034 101.659 35.1211 101.48 35.2348C101.301 35.3486 101.252 36.2851 102.22 38.0396C102.702 38.9356 103.319 39.7519 104.05 40.4596C104.05 40.4596 105.405 41.309 107.689 40.4451Z" fill="black"/>
<path d="M94.9801 44.3367C94.9801 43.6518 94.5324 42.967 93.6273 42.4442C91.8172 41.3988 88.8817 41.3988 87.0716 42.4442C86.1665 42.967 85.7188 43.6542 85.7188 44.3367V44.7699C85.7309 45.4475 86.1834 46.1202 87.0764 46.6357C88.8866 47.6811 91.822 47.6811 93.6322 46.6357C94.5252 46.1202 94.9777 45.4475 94.9898 44.7699L94.9801 44.3367Z" fill="#37474F"/>
<path d="M87.0666 42.4442C85.2565 43.4897 85.2565 45.1837 87.0666 46.2291C88.8768 47.2746 91.8122 47.2746 93.6224 46.2291C95.4326 45.1837 95.4326 43.4897 93.6224 42.4442C91.8122 41.3988 88.8768 41.3988 87.0666 42.4442Z" fill="#455A64"/>
<path d="M89.7813 30.9902H90.9405V43.7001C90.9429 43.7558 90.9281 43.811 90.8983 43.8581C90.8685 43.9053 90.8249 43.9422 90.7735 43.9639C90.6467 44.0294 90.506 44.0636 90.3633 44.0636C90.2205 44.0636 90.0799 44.0294 89.9531 43.9639C89.9017 43.9424 89.8583 43.9054 89.8288 43.8582C89.7993 43.8109 89.7852 43.7557 89.7885 43.7001L89.7813 30.9902Z" fill="#37474F"/>
<path d="M82.8415 28.3664L86.3819 19.3398H94.3389L97.8769 28.3664C98.3803 29.7773 97.6882 31.3019 95.7909 32.3982C92.7925 34.1285 87.9307 34.1285 84.9323 32.3982C83.0302 31.3019 82.3381 29.7773 82.8415 28.3664Z" fill="#F4AD3C"/>
<g opacity="0.4">
<path opacity="0.4" d="M82.8415 28.3664L86.3819 19.3398H94.3389L97.8769 28.3664C98.3803 29.7773 97.6882 31.3019 95.7909 32.3982C92.7925 34.1285 87.9307 34.1285 84.9323 32.3982C83.0302 31.3019 82.3381 29.7773 82.8415 28.3664Z" fill="white"/>
</g>
<path opacity="0.2" d="M86.7566 30.0798C85.3167 27.7397 87.1607 23.3038 88.5159 19.606V19.3398H86.379L82.8386 28.3664C82.3352 29.7773 83.0273 31.3019 84.9246 32.3982C87.923 34.1285 92.7848 34.1285 95.7832 32.3982C93.0752 33.4605 88.1989 32.4272 86.7566 30.0798Z" fill="#F4AD3C"/>
<path d="M93.2349 21.5017C91.645 22.4213 89.0677 22.4213 87.4777 21.5017C85.8878 20.5821 85.8878 19.0962 87.4777 18.179C89.0677 17.2618 91.645 17.2594 93.2349 18.179C94.8248 19.0986 94.8248 20.5845 93.2349 21.5017Z" fill="#F4AD3C"/>
<g opacity="0.6">
<path opacity="0.6" d="M93.2349 21.5017C91.645 22.4213 89.0677 22.4213 87.4777 21.5017C85.8878 20.5821 85.8878 19.0962 87.4777 18.179C89.0677 17.2618 91.645 17.2594 93.2349 18.179C94.8248 19.0986 94.8248 20.5845 93.2349 21.5017Z" fill="white"/>
</g>
<path d="M90.3575 21.7194C91.2768 21.7405 92.186 21.5247 92.9977 21.0927C93.6148 20.7369 93.9657 20.2916 93.9657 19.8415C93.9657 19.3914 93.6245 18.9437 92.9977 18.588C92.1782 18.1758 91.2736 17.9611 90.3563 17.9611C89.439 17.9611 88.5344 18.1758 87.7149 18.588C87.0978 18.9437 86.7469 19.389 86.7469 19.8415C86.7469 20.2941 87.0881 20.7369 87.7149 21.0927C88.5273 21.525 89.4374 21.7408 90.3575 21.7194Z" fill="#F4AD3C"/>
<path d="M51.5147 108.668L52.0737 100.66L55.953 98.4218L53.7338 107.388L51.5147 108.668Z" fill="#B16668"/>
<path d="M51.5145 108.668L49.2978 107.388L49.339 99.0822L52.0736 100.66L51.5145 108.668Z" fill="#9A4A4D"/>
<path d="M24.336 92.9786L24.895 84.9708L28.7719 82.7323L26.5551 91.6984L24.336 92.9786Z" fill="#B16668"/>
<path d="M24.3354 92.9781L22.1163 91.6979L22.1598 83.3925L24.8944 84.9703L24.3354 92.9781Z" fill="#9A4A4D"/>
<path d="M88.9911 87.0334L88.4321 79.6718L84.5528 81.9103L86.7719 88.316L88.9911 87.0334Z" fill="#B16668"/>
<path d="M86.7712 88.3155L84.552 87.0329L81.8174 80.3319L84.552 81.9122L86.7712 88.3155Z" fill="#9A4A4D"/>
<path d="M51.5147 100.339L89.3514 78.496V81.0588L51.5147 102.899V100.339Z" fill="#B16668"/>
<path d="M20.4542 84.9665L51.5149 102.899V100.338L20.4542 82.4061V84.9665Z" fill="#9A4A4D"/>
<path d="M51.5149 100.338L89.3516 78.4946L58.2909 60.5624L20.4542 82.4053L51.5149 100.338Z" fill="#9A4A4D"/>
<path d="M89.3924 62.725V76.2577C89.3924 77.6347 88.4244 79.3287 87.2144 80.0135L86.5876 80.3789L86.5561 80.3935C85.7171 80.8062 84.777 80.9683 83.8482 80.8605L56.5022 95.3999C56.4417 96.743 55.5051 98.3305 54.358 99.0057H54.3387L53.7143 99.3687C53.6617 99.4026 53.6058 99.431 53.5473 99.4534C53.5188 99.4711 53.4888 99.4865 53.4578 99.4994C53.4578 99.4994 53.4384 99.4994 53.4336 99.4994C52.3643 99.9438 51.1729 99.9986 50.0674 99.6542C49.9394 99.6159 49.814 99.569 49.6923 99.5139L49.6318 99.4897C49.5422 99.4485 49.4575 99.405 49.3753 99.359L21.1605 83.0893C19.965 82.3972 18.9825 80.7105 18.9825 79.3335V50.0176C18.9825 48.6406 19.9505 46.9515 21.1605 46.2618L54.6702 26.9018C55.8802 26.2097 57.8162 26.2097 59.0093 26.9018L60.7759 27.9182C61.9689 28.6103 63.0967 30.2874 63.2757 31.6547L64.9697 46.1263L87.2192 58.974C88.4147 59.6541 89.3924 61.3481 89.3924 62.725Z" fill="#37474F"/>
<path d="M60.771 27.9147L59.0069 26.8959C57.7969 26.2038 55.8609 26.2038 54.6678 26.8959L21.1581 46.2559C21.0322 46.3285 20.8943 46.4253 20.9354 46.3963C19.891 47.1835 19.2003 48.3518 19.0139 49.6463C19.1737 48.538 20.0739 48.1387 21.1556 48.7606L22.9247 49.7794C24.1347 50.4716 26.0707 50.4716 27.2637 49.7794L60.771 30.4194C61.9689 29.7273 61.9689 28.6069 60.771 27.9147Z" fill="#455A64"/>
<path d="M89.3923 62.7246V76.2572C89.3923 77.6342 88.4243 79.3282 87.2143 80.0131L86.5875 80.3785L86.556 80.393C85.7735 80.7937 84.8925 80.9617 84.0175 80.877C83.3988 80.8421 82.7951 80.6728 82.2484 80.3809L62.1624 68.7843C60.9694 68.0994 59.9844 66.4054 59.9844 65.0284V51.4934C59.9844 50.1164 60.9524 48.4224 62.1624 47.7375L64.9527 46.121L87.2022 58.9688C88.4146 59.6536 89.3923 61.3476 89.3923 62.7246Z" fill="#263238"/>
<path d="M64.9743 46.121L62.1937 47.7351C61.0006 48.4248 61.0006 49.5525 62.1937 50.2398L82.2797 61.8316C83.4727 62.5213 84.4577 64.2105 84.4577 65.5875V79.1346C84.4577 80.5116 85.4257 81.0706 86.6357 80.3858L87.26 80.0228C88.4531 79.3355 89.438 77.6439 89.438 76.2669V62.7222C89.438 61.3452 88.47 59.6536 87.26 58.9663L64.9743 46.121Z" fill="#455A64"/>
<path d="M84.4287 65.5812V79.1332C84.4287 80.5101 85.3967 81.0692 86.6067 80.3843L87.231 80.0213C88.4241 79.334 89.409 77.6424 89.409 76.2655V62.7207C89.382 61.9659 89.1629 61.2305 88.7726 60.5839L83.8116 63.4516C84.1939 64.0979 84.4063 64.8306 84.4287 65.5812Z" fill="#37474F"/>
<path d="M83.5264 80.8737C83.3178 81.3054 83.0516 81.7067 82.735 82.0668C82.2728 82.5822 81.283 83.1485 80.6925 83.4946C73.0647 87.9014 66.7558 91.5556 59.1255 95.96C58.7883 96.1323 58.4151 96.2221 58.0365 96.2221C57.6579 96.2221 57.2847 96.1323 56.9475 95.96L49.9053 91.8871L35.7943 83.7438C34.5988 83.0517 33.6163 81.44 33.6163 80.1429C33.6163 78.8457 34.5843 77.2389 35.7943 76.5395L43.8021 71.9173L49.9077 68.3962L57.3541 64.0837C58.027 63.7448 58.7701 63.5682 59.5236 63.5682C60.2771 63.5682 61.0201 63.7448 61.6931 64.0837L81.767 75.678C82.977 76.3701 83.945 76.9049 83.945 78.4948C83.9257 79.0006 83.7756 80.3437 83.5264 80.8737Z" fill="#263238"/>
<path d="M59.1282 91.2626L82.8442 77.5533C83.4443 77.2096 83.9283 77.4879 83.9283 78.18V80.375C83.9082 80.7512 83.7995 81.1174 83.6111 81.4438C83.4227 81.7701 83.16 82.0473 82.8442 82.2529L59.1282 95.9598C58.528 96.3058 58.0416 96.0251 58.044 95.3354V93.1405C58.0649 92.7644 58.1739 92.3985 58.3622 92.0723C58.5506 91.7461 58.8129 91.4687 59.1282 91.2626Z" fill="#37474F"/>
<path d="M57.0971 56.4252L35.8011 68.7382C34.6032 69.4303 33.6231 71.1122 33.6231 72.494V73.946C33.6231 75.3303 34.5911 77.0122 35.8011 77.7019L55.8871 89.2937C57.0971 89.9858 59.0331 89.9858 60.2262 89.2937L81.5222 76.9807C82.7201 76.291 83.7002 74.6091 83.7002 73.2249V71.7729C83.7002 70.3886 82.7322 68.7067 81.5222 68.017L61.4362 56.4252C60.2358 55.7331 58.295 55.7331 57.0971 56.4252Z" fill="#37474F"/>
<path d="M58.0437 83.3497V89.8208C57.2851 89.8374 56.5349 89.6582 55.8657 89.3005L35.7797 77.7111C34.5842 77.019 33.6017 75.3371 33.6017 73.9528V72.5008C33.6017 71.2037 34.4584 69.6452 35.5498 68.8829C34.5818 69.5799 34.6544 70.6011 35.77 71.2473L55.856 82.8391C56.5296 83.1935 57.2828 83.3693 58.0437 83.3497Z" fill="#263238"/>
<path d="M60.2118 82.8347L81.5077 70.5217C82.7056 69.8296 82.7056 68.7067 81.5077 68.017L61.4217 56.4252C60.2118 55.7331 58.2757 55.7331 57.0851 56.4252L35.7891 68.7382C34.5912 69.4303 34.5912 70.5508 35.7891 71.2429L55.8751 82.8347C57.0706 83.5244 59.0138 83.5244 60.2118 82.8347Z" fill="#455A64"/>
<path d="M45.8225 45.0747C44.4334 44.9367 43.2839 46.5267 40.968 47.6689C36.6555 49.7792 34.7123 51.6982 32.7037 54.0408C30.6951 56.3833 29.9352 55.9768 29.3157 57.4433C28.6961 58.9098 30.3974 59.5293 31.2081 61.5984C32.5706 65.0881 34.2646 67.4306 36.0312 68.8851C39.1457 71.4527 38.669 73.2411 40.0871 73.2217C41.5972 73.2048 41.4883 71.9101 43.8599 70.988C49.4743 68.81 51.7781 66.874 54.3723 63.0262C55.3863 61.5258 56.6762 61.6517 56.923 60.2045C57.044 59.4785 55.9913 59.0913 55.0403 56.8165C53.4624 53.0413 50.9408 49.4984 48.4845 47.6592C47.4173 46.8582 47.2358 45.215 45.8225 45.0747Z" fill="#F4AD3C"/>
<path opacity="0.3" d="M45.8225 45.0747C44.4334 44.9367 43.2839 46.5267 40.968 47.6689C36.6555 49.7792 34.7123 51.6982 32.7037 54.0408C30.6951 56.3833 29.9352 55.9768 29.3157 57.4433C28.6961 58.9098 30.3974 59.5293 31.2081 61.5984C32.5706 65.0881 34.2646 67.4306 36.0312 68.8851C39.1457 71.4527 38.669 73.2411 40.0871 73.2217C41.5972 73.2048 41.4883 71.9101 43.8599 70.988C49.4743 68.81 51.7781 66.874 54.3723 63.0262C55.3863 61.5258 56.6762 61.6517 56.923 60.2045C57.044 59.4785 55.9913 59.0913 55.0403 56.8165C53.4624 53.0413 50.9408 49.4984 48.4845 47.6592C47.4173 46.8582 47.2358 45.215 45.8225 45.0747Z" fill="black"/>
<path opacity="0.2" d="M30.8502 59.8759C32.036 61.5699 31.8787 63.2349 34.3181 66.3252C36.6607 69.2921 38.3571 70.1246 39.0589 71.458C39.6421 72.564 40.4383 73.0819 40.6295 71.7872C40.8206 70.4925 39.8018 66.7923 37.4399 63.6221C34.7222 59.9751 32.9871 58.5788 31.8134 58.0561C29.9742 57.2042 29.9161 58.5643 30.8502 59.8759Z" fill="black"/>
<path opacity="0.2" d="M43.9618 69.5598C42.413 70.0946 42.3452 71.4691 41.5684 72.5291C42.2075 71.847 42.9938 71.3198 43.8674 70.9876C46.4254 69.9929 48.296 69.0516 49.8182 67.9529C47.8362 68.9983 45.0871 69.1726 43.9618 69.5598ZM53.6612 62.4353C52.6932 63.321 52.7948 64.894 51.6405 66.4113C52.6647 65.3765 53.5824 64.2415 54.3799 63.0233C55.3068 61.6536 56.4611 61.6367 56.841 60.5428C55.9916 61.6197 54.8155 61.3777 53.6612 62.4353Z" fill="black"/>
<path opacity="0.3" d="M43.8913 48.4167C40.5856 49.0362 37.2799 50.7399 35.0051 53.2833C34.5584 53.8173 34.3409 54.5062 34.4001 55.1999C34.4284 55.6331 34.5657 56.0521 34.7993 56.4181C35.0328 56.784 35.355 57.085 35.7359 57.2932C36.5127 57.7312 37.6501 57.7337 38.4608 57.6296C40.1718 57.4094 41.1809 56.9617 43.3928 56.9278C44.2065 56.935 45.0065 57.1375 45.7257 57.5183C46.8171 58.1257 47.6326 58.8106 48.5885 59.3236C49.905 60.0278 52.2427 59.706 53.0534 58.8928C53.9198 58.0265 54.1158 56.7148 53.339 55.0886C51.616 51.4586 48.3998 47.9157 43.8913 48.4167Z" fill="#F4AD3C"/>
<path d="M51.5456 98.1255V84.5904C51.5456 83.2134 50.5776 81.5218 49.3676 80.8346L27.1278 68.0013L25.4338 53.5321C25.2523 52.1648 24.127 50.4853 22.9339 49.7956L21.1673 48.7768C19.9767 48.0871 18.9893 48.651 18.9893 50.0279V79.3317C18.9893 80.7087 19.9573 82.3979 21.1673 83.0876L49.3676 99.379C50.5776 100.066 51.5456 99.5024 51.5456 98.1255Z" fill="#263238"/>
<path d="M56.5068 81.7206V95.2581C56.5092 95.3049 56.5092 95.3517 56.5068 95.3985C56.4463 96.7416 55.5098 98.3291 54.3627 99.0043H54.3433L53.719 99.3673C53.6664 99.4012 53.6104 99.4296 53.552 99.452C53.5234 99.4697 53.4935 99.4851 53.4624 99.4979C53.4624 99.4979 53.4431 99.4979 53.4382 99.4979C53.3807 99.5232 53.3217 99.545 53.2616 99.5633C52.2361 99.9375 51.1169 99.969 50.072 99.6528C49.944 99.6144 49.8187 99.5676 49.6969 99.5125C50.7375 99.9432 51.5458 99.3576 51.5506 98.1113V84.5907C51.5506 83.2138 50.5826 81.5222 49.3726 80.8349L45.4377 78.5601L27.128 68.0016L29.9255 66.3827C31.1162 65.6978 33.0715 65.6978 34.2622 66.3827L50.406 75.7045L54.3385 77.9745C55.5339 78.6496 56.5068 80.3436 56.5068 81.7206Z" fill="#455A64"/>
<path d="M51.5462 84.5904V98.1303C51.5462 99.3766 50.733 99.9622 49.6924 99.5315C49.8142 99.5865 49.9395 99.6334 50.0675 99.6718C51.1124 99.988 52.2316 99.9565 53.2571 99.5823C53.3172 99.564 53.3762 99.5422 53.4338 99.5169C53.4338 99.5169 53.4483 99.5169 53.458 99.5169C53.489 99.504 53.5189 99.4887 53.5475 99.471C53.6059 99.4486 53.6619 99.4202 53.7145 99.3863L54.3388 99.0233H54.3582C55.5053 98.3481 56.4418 96.7606 56.5023 95.4175C56.5047 95.3707 56.5047 95.3239 56.5023 95.2771V81.7203C56.4763 80.966 56.2572 80.2311 55.8659 79.5858L50.9024 82.4535C51.2956 83.0993 51.5172 83.8349 51.5462 84.5904Z" fill="#37474F"/>
<g opacity="0.2">
<path opacity="0.2" d="M27.1284 68.0013C27.8181 67.5874 29.3064 66.6896 29.9816 66.3073C30.6548 65.9708 31.3975 65.7966 32.1501 65.7987C32.9028 65.8008 33.6445 65.9791 34.3158 66.3193C38.6258 68.7635 46.336 73.2212 50.6169 75.7235L54.4357 77.9692C55.0517 78.3909 55.56 78.9513 55.9198 79.6053C56.2796 80.2594 56.4808 80.9887 56.5072 81.7348C56.459 81.0008 56.2415 80.2881 55.8716 79.6524C55.5016 79.0167 54.9895 78.4754 54.3752 78.0709L50.525 75.8929C46.2077 73.4317 38.5073 68.9886 34.2311 66.4742C33.5836 66.1376 32.8671 65.9553 32.1375 65.9414C31.4079 65.9275 30.6849 66.0826 30.0252 66.3944C29.3451 66.7622 27.8181 67.6334 27.1212 68.0133L27.1284 68.0013Z" fill="white"/>
</g>
<path d="M69.3842 79.1335L73.2562 74.1895L79.1514 78.6229C75.1656 81.268 70.7757 84.5737 69.6916 85.8587C69.6916 85.8587 66.3302 84.3898 66.1318 82.4925C65.9333 80.5952 68.3243 79.5401 69.3842 79.1335Z" fill="#C8856A"/>
<path d="M65.0085 80.5117C64.6494 80.6769 64.3275 80.9132 64.0623 81.2063C63.7695 81.4991 63.5203 83.1423 63.1573 83.8489C62.7943 84.5555 62.5861 84.7298 62.0392 85.6058C61.4342 86.5738 60.5049 87.3869 60.8098 90.245C61.1148 93.103 62.2013 94.6494 63.2008 95.5278C63.578 95.8288 64.0221 96.0347 64.4955 96.128C64.4955 96.128 66.0854 95.8594 66.0298 94.9398C65.9741 94.0202 65.0085 80.5117 65.0085 80.5117Z" fill="#263238"/>
<path d="M70.9066 84.7439C70.8098 85.0125 70.3379 85.3634 70.1371 85.5594C69.457 86.2177 69.0094 87.1978 68.6488 88.0641C66.9378 92.1539 68.2059 94.6538 65.5971 95.8081C64.8494 96.0961 63.4942 95.7113 61.926 92.6113C61.125 91.0286 61.0693 88.0859 61.7397 86.8904C62.41 85.6949 63.1433 84.9738 63.6055 84.0445C64.0677 83.1152 64.2903 81.2542 64.9994 80.5186C65.445 80.1108 65.9769 79.8089 66.5555 79.6353C67.0104 79.4683 67.9639 79.3158 68.4261 79.1513C68.8883 78.9867 69.1691 78.7737 69.3748 79.1271L68.7891 79.6183C67.8381 80.5065 68.0171 80.7001 67.9276 81.2542C67.8381 81.8084 67.521 82.4037 67.3032 82.9482C67.9663 82.382 68.3003 81.8375 68.8593 82.0553C69.4183 82.2731 69.4958 82.2585 70.1734 83.2023C70.851 84.1461 71.001 84.5043 70.9066 84.7439Z" fill="#F4AD3C"/>
<path opacity="0.4" d="M70.9066 84.7439C70.8098 85.0125 70.3379 85.3634 70.1371 85.5594C69.457 86.2177 69.0094 87.1978 68.6488 88.0641C66.9378 92.1539 68.2059 94.6538 65.5971 95.8081C64.8494 96.0961 63.4942 95.7113 61.926 92.6113C61.125 91.0286 61.0693 88.0859 61.7397 86.8904C62.41 85.6949 63.1433 84.9738 63.6055 84.0445C64.0677 83.1152 64.2903 81.2542 64.9994 80.5186C65.445 80.1108 65.9769 79.8089 66.5555 79.6353C67.0104 79.4683 67.9639 79.3158 68.4261 79.1513C68.8883 78.9867 69.1691 78.7737 69.3748 79.1271L68.7891 79.6183C67.8381 80.5065 68.0171 80.7001 67.9276 81.2542C67.8381 81.8084 67.521 82.4037 67.3032 82.9482C67.9663 82.382 68.3003 81.8375 68.8593 82.0553C69.4183 82.2731 69.4958 82.2585 70.1734 83.2023C70.851 84.1461 71.001 84.5043 70.9066 84.7439Z" fill="black"/>
<path opacity="0.3" d="M61.9358 92.6034C61.1348 91.0207 61.0791 88.078 61.7494 86.8825C61.9695 86.4882 62.2119 86.1068 62.4754 85.7402C62.4391 85.8225 62.3956 85.9072 62.3714 85.9822C62.3109 86.1444 62.2576 86.3041 62.2092 86.4662C61.9833 87.0997 61.9249 87.7807 62.0398 88.4434C62.1778 89.0218 62.4706 90.4641 63.1821 90.6335C63.5862 90.7303 64.0073 90.3915 64.2517 89.9777C64.3558 89.7986 64.5663 89.3025 64.5663 89.3025C65.1944 89.585 65.7736 89.9657 66.2821 90.4302C67.1872 91.3232 67.1194 91.4684 67.1194 91.4684C66.9983 91.7569 66.9263 92.0636 66.9065 92.3759C66.901 92.7157 66.9721 93.0523 67.1146 93.3608C67.1777 93.4575 67.2525 93.5461 67.3372 93.6246C67.0952 94.5926 66.6911 95.3186 65.5972 95.8026C64.8567 96.0882 63.5039 95.7034 61.9358 92.6034Z" fill="black"/>
<path d="M68.658 88.0633C68.2128 89.1399 67.8984 90.2659 67.7215 91.4174C67.114 92.4314 66.7777 92.3322 66.843 91.7562C66.9083 91.1802 68.1208 88.9829 69.0646 87.1582C68.9145 87.4583 68.7814 87.768 68.658 88.0633Z" fill="#37474F"/>
<path d="M67.4095 80.7166C67.4717 80.1549 67.7286 79.6326 68.1355 79.2404C68.2468 79.2114 68.3533 79.1824 68.438 79.1557C68.9365 78.9888 69.181 78.7782 69.3867 79.1315L68.7889 79.618C67.8379 80.5061 68.0169 80.6997 67.9274 81.2539C67.8379 81.8081 67.5208 82.4034 67.303 82.9479C66.5044 84.7121 65.9866 85.2541 65.4372 86.9602C64.8879 88.6663 65.0065 89.9126 64.7403 89.9635C64.4741 90.0143 64.0143 89.7215 64.2006 88.2985C64.3869 86.8755 65.4663 84.6467 66.1221 83.6158C66.7779 82.5849 67.3514 81.4814 67.4095 80.7166Z" fill="#37474F"/>
<path d="M64.4284 89.3979C64.4477 89.4279 64.4755 89.4515 64.5082 89.4657C65.6867 89.9497 66.2796 90.3974 66.9814 91.6437C67.0052 91.684 67.0437 91.7136 67.0888 91.7262C67.1339 91.7389 67.1822 91.7336 67.2234 91.7115C67.2643 91.6881 67.2942 91.6496 67.3069 91.6043C67.3196 91.5591 67.3139 91.5106 67.2912 91.4695C66.5483 90.1433 65.8973 89.652 64.6461 89.1269C64.6241 89.1163 64.6 89.1103 64.5755 89.1095C64.551 89.1086 64.5266 89.1129 64.5038 89.122C64.4811 89.1311 64.4605 89.1449 64.4433 89.1624C64.4261 89.1799 64.4128 89.2008 64.4041 89.2237C64.3921 89.2522 64.388 89.2835 64.3923 89.3142C64.3965 89.3448 64.409 89.3738 64.4284 89.3979Z" fill="#EBEBEB"/>
<path d="M64.9366 87.9837C64.9557 88.0123 64.9826 88.035 65.014 88.0491C66.224 88.5936 66.8605 89.0921 67.6058 90.4158C67.6288 90.457 67.6671 90.4875 67.7124 90.5007C67.7577 90.5138 67.8064 90.5085 67.8478 90.486C67.8877 90.4618 67.917 90.4235 67.93 90.3787C67.943 90.3339 67.9387 90.2858 67.918 90.244C67.1291 88.8501 66.4418 88.308 65.1568 87.7248C65.1125 87.7051 65.0622 87.7038 65.0169 87.721C64.9715 87.7382 64.9349 87.7726 64.9148 87.8168C64.9044 87.8442 64.901 87.8738 64.9048 87.903C64.9086 87.9321 64.9195 87.9598 64.9366 87.9837Z" fill="#EBEBEB"/>
<path d="M65.2216 86.3719C65.242 86.404 65.2715 86.4292 65.3063 86.4445C66.6421 87.0446 67.3802 87.64 68.2103 89.1065C68.2372 89.1527 68.281 89.1867 68.3325 89.2011C68.384 89.2156 68.4391 89.2094 68.4862 89.1839C68.5092 89.1711 68.5295 89.1538 68.5458 89.133C68.5622 89.1122 68.5742 89.0884 68.5811 89.063C68.5881 89.0375 68.59 89.0109 68.5865 88.9847C68.5831 88.9585 68.5745 88.9333 68.5612 88.9105C67.6948 87.3762 66.8962 86.7204 65.4805 86.0839C65.441 86.0686 65.3978 86.0662 65.3568 86.0769C65.3159 86.0877 65.2794 86.1111 65.2525 86.1438C65.2257 86.1766 65.2099 86.217 65.2074 86.2592C65.2049 86.3015 65.2158 86.3434 65.2385 86.3791L65.2216 86.3719Z" fill="#EBEBEB"/>
<path d="M65.7253 85.0454C65.7455 85.0767 65.774 85.1019 65.8076 85.118C67.1192 85.7036 67.8307 86.2771 68.639 87.7122C68.6658 87.7566 68.7085 87.7891 68.7584 87.803C68.8084 87.817 68.8617 87.8113 68.9076 87.7872C68.9303 87.7746 68.9503 87.7576 68.9663 87.7373C68.9824 87.7169 68.9943 87.6936 69.0012 87.6686C69.0082 87.6436 69.0102 87.6175 69.007 87.5917C69.0038 87.566 68.9955 87.5411 68.9826 87.5186C68.1356 86.0134 67.3588 85.3793 65.9697 84.7574C65.9219 84.7361 65.8676 84.7346 65.8186 84.7532C65.7697 84.7717 65.73 84.8089 65.7084 84.8566C65.6948 84.8869 65.6892 84.9201 65.6922 84.9532C65.6951 84.9863 65.7066 85.018 65.7253 85.0454Z" fill="#EBEBEB"/>
<path d="M66.4895 83.8089C66.5099 83.841 66.5394 83.8663 66.5742 83.8815C67.8834 84.4696 68.5949 85.0407 69.4056 86.4757C69.4319 86.5206 69.4747 86.5535 69.5248 86.5675C69.5749 86.5815 69.6285 86.5755 69.6742 86.5508C69.7196 86.5249 69.7528 86.4821 69.7669 86.4319C69.7809 86.3816 69.7746 86.3278 69.7492 86.2821C68.8974 84.7769 68.123 84.1453 66.7339 83.5209C66.7104 83.5104 66.6851 83.5047 66.6593 83.504C66.6336 83.5033 66.6079 83.5077 66.5839 83.5169C66.5599 83.5261 66.5379 83.54 66.5192 83.5577C66.5005 83.5754 66.4855 83.5966 66.475 83.6201C66.461 83.6502 66.4551 83.6834 66.4576 83.7164C66.4601 83.7495 66.4711 83.7813 66.4895 83.8089Z" fill="#EBEBEB"/>
<path d="M65.1443 56.2363C65.2194 57.3447 71.5646 59.2008 76.4361 60.5778C82.0287 62.1605 84.7076 63.3439 86.8179 65.3258C88.0085 66.4463 88.7224 67.8886 88.4441 69.7762C88.2408 71.1508 87.1397 73.4062 84.6132 75.5455C79.8241 79.6184 77.467 80.5864 74.0741 82.9604C74.0741 82.9604 70.4441 80.734 69.7907 78.0308L74.5557 72.4406L60.21 68.7284L65.1443 56.2363Z" fill="#F4AD3C"/>
<path opacity="0.4" d="M65.1443 56.2363C65.2194 57.3447 71.5646 59.2008 76.4361 60.5778C82.0287 62.1605 84.7076 63.3439 86.8179 65.3258C88.0085 66.4463 88.7224 67.8886 88.4441 69.7762C88.2408 71.1508 87.1397 73.4062 84.6132 75.5455C79.8241 79.6184 77.467 80.5864 74.0741 82.9604C74.0741 82.9604 70.4441 80.734 69.7907 78.0308L74.5557 72.4406L60.21 68.7284L65.1443 56.2363Z" fill="white"/>
<path opacity="0.5" d="M76.7798 77.7715C77.0774 78.7637 77.5687 80.5424 77.5735 80.6755C76.7047 81.2224 75.0301 82.2848 74.0742 82.9503C74.0742 82.9503 70.4442 80.7239 69.7908 78.0208L73.9653 73.1251C75.4778 74.536 75.9884 75.1531 76.7798 77.7715Z" fill="#F4AD3C"/>
<path opacity="0.5" d="M75.9061 69.4059C74.713 70.5288 74.229 70.4659 71.7921 69.994L70.8483 69.8077L65.6816 65.6937C66.2527 63.7964 66.4681 62.3057 65.8316 60.723L63.4963 58.8281L60.21 68.7283L61.9669 69.1857L74.5509 72.4479C76.2836 70.2021 78.1373 68.0919 79.9402 67.816C78.7447 67.5716 77.5638 67.845 75.9061 69.4059Z" fill="#F4AD3C"/>
<path d="M76.8063 101.037L72.5713 93.7935L79.5893 89.3867C81.2446 93.9363 82.5272 99.3353 83.8267 101.177C83.8267 101.177 81.8738 104.512 79.7466 104.226C77.6194 103.941 76.9781 102.278 76.8063 101.037Z" fill="#C8856A"/>
<path d="M77.293 104.9C77.3838 105.33 77.5599 105.736 77.8108 106.096C78.0528 106.485 79.7831 107.185 80.4728 107.761C81.1625 108.337 81.2884 108.603 82.1039 109.419C83.0066 110.324 83.6551 111.529 86.8592 111.957C90.1069 112.393 92.038 111.635 93.2577 110.798C93.6819 110.476 94.0209 110.054 94.2451 109.571C94.2451 109.571 94.3636 107.802 93.3448 107.618C92.326 107.434 77.293 104.9 77.293 104.9Z" fill="#263238"/>
<path d="M83.4493 99.7032C83.7179 99.875 83.9793 100.473 84.1414 100.741C84.6859 101.642 85.6443 102.377 86.4961 102.992C90.5302 105.896 93.5915 105.206 94.1723 108.299C94.2958 109.173 93.5214 110.521 89.7268 111.377C87.7908 111.815 84.5577 111.097 83.4348 110.066C82.3119 109.035 81.7021 108.059 80.8043 107.319C79.9064 106.578 77.9293 105.852 77.3049 104.899C76.9395 104.34 76.8209 103.65 76.7411 103.004C76.6757 102.472 76.5596 100.671 76.5596 100.671C77.2856 101.922 78.2996 101.736 78.8828 101.98C79.466 102.225 80.0347 102.706 80.5768 103.096C80.1291 102.235 79.6209 101.736 80.0032 101.194C80.3856 100.652 80.388 100.57 81.598 100.093C82.808 99.6161 83.2097 99.5483 83.4493 99.7032Z" fill="#F4AD3C"/>
<path opacity="0.4" d="M83.4493 99.7032C83.7179 99.875 83.9793 100.473 84.1414 100.741C84.6859 101.642 85.6443 102.377 86.4961 102.992C90.5302 105.896 93.5915 105.206 94.1723 108.299C94.2958 109.173 93.5214 110.521 89.7268 111.377C87.7908 111.815 84.5577 111.097 83.4348 110.066C82.3119 109.035 81.7021 108.059 80.8043 107.319C79.9064 106.578 77.9293 105.852 77.3049 104.899C76.9395 104.34 76.8209 103.65 76.7411 103.004C76.6757 102.472 76.5596 100.671 76.5596 100.671C77.2856 101.922 78.2996 101.736 78.8828 101.98C79.466 102.225 80.0347 102.706 80.5768 103.096C80.1291 102.235 79.6209 101.736 80.0032 101.194C80.3856 100.652 80.388 100.57 81.598 100.093C82.808 99.6161 83.2097 99.5483 83.4493 99.7032Z" fill="black"/>
<path opacity="0.3" d="M89.7268 111.378C87.7908 111.816 84.5576 111.097 83.4348 110.066C83.0611 109.725 82.7072 109.362 82.3748 108.98C82.4571 109.038 82.5369 109.108 82.6168 109.154C82.7765 109.258 82.9411 109.36 83.1008 109.454C83.7397 109.822 84.4681 110.149 85.2207 110.156C85.8886 110.156 87.5415 110.231 87.9118 109.515C88.1223 109.108 87.8706 108.571 87.4689 108.198C87.3019 108.038 86.8131 107.683 86.8131 107.683C87.2858 107.084 87.8521 106.566 88.4901 106.148C89.7001 105.422 89.8405 105.527 89.8405 105.527C90.1167 105.731 90.4239 105.889 90.7504 105.996C91.1211 106.088 91.5072 106.101 91.883 106.032C92.0045 105.99 92.1206 105.934 92.229 105.865C93.2358 106.374 93.923 107.003 94.165 108.3C94.2933 109.173 93.5213 110.521 89.7268 111.378Z" fill="black"/>
<path d="M86.4965 102.994C87.5616 103.755 88.7126 104.389 89.9257 104.881C90.8767 105.798 90.6807 106.132 90.0685 105.91C89.4562 105.687 87.3629 103.819 85.6084 102.318C85.9109 102.56 86.2061 102.785 86.4965 102.994Z" fill="#37474F"/>
<path d="M78.14 102.391C77.5543 102.202 77.0824 102.127 76.6372 101.733C76.3516 101.491 76.3419 100.726 76.4363 100.404L76.8332 101.077C77.6366 101.682 78.2852 101.738 78.8708 101.982C79.4565 102.227 80.0227 102.708 80.5648 103.098C82.2903 104.417 82.7428 105.114 84.4731 106.152C86.2034 107.19 87.6046 107.391 87.5828 107.691C87.561 107.991 87.1254 108.402 85.6226 107.829C84.1198 107.255 81.9539 105.513 80.998 104.545C80.0421 103.577 78.9604 102.655 78.14 102.391Z" fill="#37474F"/>
<path d="M86.8641 107.867C86.902 107.855 86.935 107.832 86.9585 107.8C87.803 106.672 88.4347 106.154 89.9883 105.735C90.0385 105.721 90.0811 105.688 90.1069 105.643C90.1327 105.597 90.1396 105.544 90.1263 105.493C90.1111 105.444 90.0775 105.402 90.0324 105.377C89.9873 105.352 89.9343 105.345 89.8843 105.358C88.2411 105.801 87.5393 106.367 86.639 107.567C86.615 107.602 86.6026 107.643 86.6036 107.685C86.6045 107.727 86.6188 107.768 86.6444 107.801C86.67 107.835 86.7055 107.859 86.7459 107.871C86.7862 107.883 86.8293 107.882 86.8689 107.867H86.8641Z" fill="#EBEBEB"/>
<path d="M85.4485 106.949C85.4855 106.936 85.5182 106.913 85.5429 106.883C86.4504 105.734 87.157 105.189 88.8002 104.739C88.8254 104.733 88.849 104.721 88.8697 104.706C88.8904 104.69 88.9077 104.67 88.9205 104.647C88.9334 104.625 88.9416 104.6 88.9446 104.574C88.9477 104.548 88.9455 104.522 88.9382 104.497C88.923 104.448 88.8895 104.406 88.8445 104.38C88.7995 104.355 88.7465 104.347 88.6962 104.359C86.9659 104.843 86.189 105.424 85.2259 106.644C85.1975 106.679 85.1819 106.723 85.1816 106.769C85.1814 106.814 85.1964 106.859 85.2243 106.895C85.2522 106.931 85.2913 106.956 85.3355 106.967C85.3797 106.979 85.4263 106.974 85.4679 106.956L85.4485 106.949Z" fill="#EBEBEB"/>
<path d="M83.7587 106.22C83.7989 106.205 83.8347 106.18 83.8627 106.148C84.8622 104.877 85.7043 104.248 87.5121 103.754C87.5405 103.747 87.5672 103.734 87.5905 103.716C87.6139 103.699 87.6333 103.676 87.6478 103.651C87.6623 103.625 87.6714 103.597 87.6747 103.568C87.678 103.539 87.6754 103.509 87.667 103.481C87.6471 103.425 87.6076 103.379 87.5559 103.35C87.5042 103.322 87.4439 103.313 87.3862 103.326C85.4841 103.849 84.5645 104.536 83.5021 105.874C83.4845 105.898 83.4716 105.924 83.4642 105.953C83.4568 105.981 83.4551 106.011 83.4592 106.04C83.4632 106.069 83.4729 106.096 83.4878 106.122C83.5026 106.147 83.5223 106.169 83.5457 106.187C83.5762 106.208 83.6112 106.223 83.6482 106.229C83.6852 106.234 83.723 106.232 83.7587 106.22Z" fill="#EBEBEB"/>
<path d="M82.4397 105.333C82.4791 105.32 82.5138 105.296 82.5389 105.263C83.519 104.017 84.3321 103.407 86.1084 102.92C86.1633 102.905 86.2099 102.868 86.2379 102.818C86.266 102.768 86.2734 102.709 86.2584 102.654C86.2416 102.598 86.2036 102.551 86.1526 102.523C86.1015 102.494 86.0414 102.487 85.985 102.502C84.1192 103.012 83.2262 103.675 82.188 104.994C82.1704 105.017 82.1575 105.043 82.15 105.071C82.1426 105.098 82.1407 105.127 82.1445 105.155C82.1483 105.184 82.1578 105.211 82.1723 105.236C82.1869 105.261 82.2062 105.282 82.2291 105.299C82.2586 105.322 82.2933 105.337 82.3301 105.343C82.3669 105.349 82.4046 105.346 82.4397 105.333Z" fill="#EBEBEB"/>
<path d="M81.2858 104.189C81.3246 104.174 81.3588 104.149 81.3851 104.116C82.3676 102.872 83.1759 102.262 84.9546 101.776C85.01 101.76 85.057 101.723 85.0851 101.673C85.1133 101.622 85.1203 101.563 85.1046 101.507C85.0872 101.452 85.0491 101.405 84.9981 101.377C84.9471 101.349 84.8873 101.342 84.8311 101.357C82.9629 101.868 82.0723 102.531 81.0317 103.85C80.9968 103.896 80.9815 103.954 80.9893 104.011C80.997 104.068 81.027 104.12 81.0729 104.155C81.1028 104.178 81.1379 104.193 81.1751 104.199C81.2123 104.205 81.2503 104.201 81.2858 104.189Z" fill="#EBEBEB"/>
<path d="M65.1883 56.3008C58.7076 56.9711 51.8614 57.9415 45.4 58.5853C45.233 61.7095 44.7611 64.3061 45.7654 67.503C46.6826 70.4312 49.3833 72.827 52.0743 74.4943C55.2663 76.4715 61.568 78.8915 64.0848 80.2225C67.7148 82.1464 66.5532 82.8845 67.7632 86.2459C68.54 88.3924 69.6726 90.2703 71.8772 93.6051C73.2542 95.6887 73.8422 96.6373 75.1394 98.4306C77.4747 99.2509 80.398 97.7917 81.8863 95.8799C80.0326 90.1227 78.0918 84.1501 76.359 78.4559C75.391 75.2808 74.5779 74.1725 71.761 71.8783C69.5588 70.0778 66.9888 68.183 64.0872 66.0582C67.1461 61.5691 65.2658 58.7232 65.1883 56.3008Z" fill="#F4AD3C"/>
<path opacity="0.4" d="M65.1883 56.3008C58.7076 56.9711 51.8614 57.9415 45.4 58.5853C45.233 61.7095 44.7611 64.3061 45.7654 67.503C46.6826 70.4312 49.3833 72.827 52.0743 74.4943C55.2663 76.4715 61.568 78.8915 64.0848 80.2225C67.7148 82.1464 66.5532 82.8845 67.7632 86.2459C68.54 88.3924 69.6726 90.2703 71.8772 93.6051C73.2542 95.6887 73.8422 96.6373 75.1394 98.4306C77.4747 99.2509 80.398 97.7917 81.8863 95.8799C80.0326 90.1227 78.0918 84.1501 76.359 78.4559C75.391 75.2808 74.5779 74.1725 71.761 71.8783C69.5588 70.0778 66.9888 68.183 64.0872 66.0582C67.1461 61.5691 65.2658 58.7232 65.1883 56.3008Z" fill="white"/>
<path d="M81.3782 94.0488C79.9552 96.3841 76.6737 97.2432 74.1182 97.0859C74.532 97.8119 75.0426 98.4581 75.454 99.1792C78.162 99.6826 80.3835 98.5428 82.0388 96.418C81.8307 95.6243 81.6081 94.8353 81.3782 94.0488Z" fill="#F4AD3C"/>
<path d="M56.2676 33.0466C60.2122 32.7465 61.8336 33.0248 65.42 38.7336C67.9368 42.7484 73.406 49.9817 73.406 49.9817L67.8666 54.8024C65.3571 51.1022 62.6322 48.5394 58.6077 43.1452L56.2676 33.0466Z" fill="#E0E0E0"/>
<path d="M62.7486 40.8793C61.6572 34.8462 59.3921 32.9901 56.2678 33.0482C56.2098 33.0482 51.9893 33.7742 49.5499 34.3163C48.3956 34.5752 44.0904 36.4725 42.8731 37.2203C41.3171 38.1665 40.6032 41.0753 40.9589 45.3853C41.3304 49.5364 41.9707 53.6591 42.8756 57.7273C43.6161 61.2025 43.7468 62.7851 45.2278 67.221C49.6395 68.2689 66.8795 62.5794 66.2649 57.1538C65.7131 55.9438 64.8129 54.5789 64.2466 52.0888C63.4044 47.6989 63.0898 42.7742 62.7486 40.8793Z" fill="#FAFAFA"/>
<path d="M47.4711 31.9609C47.2437 30.2427 45.6077 28.3986 44.8963 26.8789C44.209 25.4269 43.9283 24.2919 43.9428 22.9391C43.9839 18.0314 48.4391 15.3234 52.6838 15.805C60.3843 16.6786 59.6558 22.322 59.4598 23.3505C59.363 23.8636 58.7338 24.6985 58.4241 25.1268C58.1143 25.5551 57.6327 25.5551 57.1221 25.5019C56.6115 25.4487 56.113 25.6423 55.5975 25.7439C55.0022 25.8528 54.3875 25.9351 53.8019 26.0367L52.178 26.3126C52.0837 26.3295 51.5972 26.3416 51.5367 26.4215L47.4711 31.9609Z" fill="#263238"/>
<path d="M45.3194 28.8824C46.4956 29.6423 47.3353 28.8969 47.3353 28.8969L47.207 35.3317C48.0565 37.7759 51.6816 37.9017 53.2038 37.2677C54.726 36.6336 54.5808 35.6584 54.1258 34.7896L54.2638 33.8724C54.9419 33.9082 55.6216 33.9026 56.299 33.8555C57.6445 33.72 58.6899 32.6721 59.1255 31.2346C59.5805 29.7342 59.762 27.3215 59.4982 25.492C59.4275 25.0109 59.4226 24.5224 59.4837 24.04C59.7765 21.7579 58.2568 19.442 56.2433 18.474C55.6165 18.4425 56.2433 18.9822 56.2893 19.5484C56.3256 19.9574 55.8416 20.243 55.435 20.3059C54.9075 20.348 54.3777 20.2582 53.8935 20.0445C52.744 19.6331 51.5679 19.1395 50.3506 19.2338C50.0941 19.2532 49.7747 19.3742 49.7771 19.6307C49.7867 19.7171 49.8165 19.8001 49.8642 19.8727C50.0747 20.2599 50.3337 20.635 50.5224 21.0295C50.8201 21.6442 51.1129 22.6412 50.8951 23.3261C50.754 23.7242 50.5277 24.0868 50.232 24.3884C50.1449 24.4852 49.2035 25.1411 49.2035 25.1386C49.2495 25.6517 49.2665 26.9464 48.4267 26.8907C47.8241 26.852 47.6499 25.2959 47.0522 24.6062C46.4544 23.9165 45.0145 23.6842 44.4168 24.6474C43.5819 26.0002 44.0441 28.0499 45.3194 28.8824Z" fill="#C8856A"/>
<path d="M54.2641 33.88C52.149 33.5509 50.5421 33.2629 49.4918 31.6826C49.0047 30.8727 48.6064 30.0127 48.3036 29.1174C48.3036 29.1174 48.4512 31.0075 49.0998 32.307C49.5983 33.3089 50.8301 34.2236 54.1503 34.6302L54.2641 33.88Z" fill="#AF6152"/>
<path d="M55.8053 28.45C53.8693 28.3799 53.545 28.8832 51.7542 29.1252C49.3535 29.4495 49.0486 26.9811 49.2035 25.8824L47.495 25.2871C47.979 26.4366 47.6136 28.4888 48.0927 30.4732C48.5719 32.4576 49.7867 33.1352 51.4347 33.6555C53.0828 34.1758 56.2142 34.425 57.9131 33.474C59.9023 32.3632 59.5659 28.6872 59.5659 28.6872C58.2954 29.2051 57.7461 28.5226 55.8053 28.45Z" fill="#263238"/>
<path d="M55.4184 29.524C54.3318 29.4514 53.6058 29.766 53.3469 30.5162C53.088 31.2664 53.1848 31.7915 53.5478 31.8544C53.9108 31.9173 54.7747 31.8544 54.8376 31.4842C54.9005 31.1139 54.3536 30.7073 55.1982 30.7872C56.0428 30.8671 55.4571 31.2906 55.4402 31.5955C55.4233 31.9004 55.8395 32.1255 56.8075 31.9899C57.3375 31.9149 57.2262 31.1696 57.1511 30.6928C57.0761 30.2161 56.5219 29.5845 55.4184 29.524Z" fill="#C8856A"/>
<path d="M55.4035 30.2506C55.3391 30.2433 55.2742 30.2433 55.2099 30.2506H55.038C54.9449 30.2437 54.8525 30.2283 54.7622 30.2046C54.6634 30.1775 54.5684 30.1385 54.479 30.0884C54.3839 30.0149 54.2818 29.9508 54.1741 29.8972C54.1281 29.8851 54.0483 29.9142 54.0507 29.9698C54.0602 30.0202 54.0805 30.0679 54.1102 30.1096C54.1398 30.1514 54.1781 30.1863 54.2225 30.2118C54.3014 30.2724 54.3876 30.3228 54.479 30.3619C54.6569 30.4351 54.8459 30.4776 55.038 30.4877C55.1412 30.495 55.2447 30.495 55.3478 30.4877C55.4059 30.4877 55.4785 30.4877 55.5027 30.4151C55.5269 30.3425 55.4712 30.2506 55.4035 30.2506Z" fill="#AF6152"/>
<path d="M51.0963 23.6191L46.8008 24.3766C47.0443 24.5454 47.2375 24.7771 47.3598 25.0469L51.1302 24.5629L51.0963 23.6191Z" fill="#37474F"/>
<path d="M60.4762 23.1932L60.2124 23.1714C59.3606 23.1158 58.2401 23.14 57.5504 23.382C56.6744 23.6893 56.3404 24.0015 55.871 24.0257C55.4015 24.0499 55.0796 23.7619 54.2012 23.5417C53.5018 23.3626 52.2966 23.4449 51.3625 23.5852L51.0721 23.6312C50.9661 23.6689 50.8733 23.7365 50.805 23.8258C50.7367 23.9152 50.6958 24.0224 50.6873 24.1346C50.6911 24.339 50.7607 24.5367 50.8858 24.6984C50.9223 24.7691 50.9437 24.8466 50.9487 24.9259C50.9947 25.3228 50.9487 26.0972 51.0915 26.5207C51.1511 26.7287 51.2515 26.9229 51.3867 27.0918C51.4383 27.1515 51.495 27.2065 51.5561 27.2564C51.5876 27.2827 51.6207 27.307 51.6553 27.329C51.7507 27.3923 51.854 27.4428 51.9627 27.479L52.0159 27.496L52.0982 27.5202L52.1877 27.5395C52.2812 27.5576 52.3758 27.569 52.4709 27.5734H52.5943H52.7564C53.1976 27.5741 53.6302 27.452 54.0059 27.2208C54.3816 26.9896 54.6855 26.6583 54.8836 26.2642C55.2442 25.6398 55.2587 24.7831 55.8032 24.7614H55.854H55.9C56.292 24.8412 56.1662 25.6301 56.3646 26.1892C56.4358 26.4113 56.5464 26.6187 56.6913 26.8014C56.718 26.8329 56.747 26.8643 56.776 26.8934L56.822 26.9394L56.868 26.9805C56.8823 26.9931 56.8977 27.0045 56.914 27.0144L56.96 27.0507L56.9987 27.0749L57.0253 27.0942C57.1678 27.1786 57.3231 27.2391 57.4851 27.2733H57.5262C57.7168 27.309 57.9112 27.3204 58.1046 27.3072C58.4864 27.3007 58.858 27.1827 59.1736 26.9677C59.4892 26.7528 59.7351 26.4502 59.8809 26.0972C60.0939 25.6543 60.2197 24.8872 60.3383 24.4758C60.3614 24.3974 60.401 24.3247 60.4544 24.2628C60.6029 24.094 60.7032 23.8884 60.7448 23.6675C60.7642 23.4279 60.6214 23.2077 60.4762 23.1932ZM54.6271 25.6979C54.5269 26.0242 54.353 26.3231 54.1189 26.5715C53.9401 26.7485 53.7282 26.8883 53.4952 26.983C53.2622 27.0777 53.0128 27.1254 52.7613 27.1233C52.1127 27.1426 51.7691 26.8813 51.5851 26.5522C51.5851 26.5304 51.5634 26.511 51.5537 26.4917L51.5246 26.4312L51.5029 26.3755C51.495 26.3592 51.4885 26.3422 51.4835 26.3247L51.469 26.286C51.469 26.286 51.469 26.2618 51.4569 26.2497L51.4399 26.1892C51.4241 26.131 51.4112 26.072 51.4012 26.0125C51.4012 25.9762 51.3891 25.9399 51.3843 25.906C51.3794 25.8721 51.3698 25.7874 51.3649 25.7342C51.3649 25.7342 51.3649 25.7124 51.3649 25.7027C51.3649 25.6931 51.3649 25.681 51.3649 25.6713C51.3286 25.2502 51.3286 24.425 51.5537 24.2193C51.7787 24.0136 52.3378 23.8079 53.1993 23.8563H53.2912C53.4228 23.8658 53.5537 23.8827 53.6833 23.9071L53.8333 23.941C53.9598 23.971 54.0843 24.009 54.206 24.0547L54.3197 24.1007C54.3614 24.1171 54.4019 24.1365 54.4407 24.1588H54.4649L54.5109 24.183C54.6073 24.2317 54.6903 24.3031 54.7529 24.3911C54.8909 24.6694 54.7771 25.2187 54.6271 25.6979ZM59.7744 25.2817C59.68 25.6156 59.4768 26.344 58.8306 26.6925C58.6224 26.8017 58.3927 26.8636 58.1579 26.874C57.4512 26.92 57.081 26.632 56.8898 26.2884C56.8898 26.2884 56.8753 26.2618 56.8704 26.2497C56.8612 26.2353 56.8539 26.2199 56.8486 26.2037C56.8437 26.197 56.8396 26.1896 56.8365 26.1819C56.8365 26.1601 56.8172 26.1359 56.8099 26.1141C56.7988 26.0889 56.7891 26.0631 56.7809 26.0367C56.7809 26.0367 56.7809 26.0125 56.7688 26.0004V25.9786V25.9472V25.9205C56.7432 25.8172 56.7254 25.712 56.7155 25.6059C56.6696 25.1389 56.6744 24.592 56.8656 24.3282C57.0568 24.0644 57.7247 23.7522 58.3515 23.6433C58.4844 23.62 58.6185 23.6038 58.7532 23.5949H59.1065H59.213C59.2796 23.5996 59.3459 23.6085 59.4114 23.6215H59.4574H59.4889H59.5348L59.5905 23.6385C59.6219 23.6475 59.6527 23.6588 59.6825 23.6724H59.6994C59.7744 23.7035 59.8432 23.7478 59.9027 23.803C60.0721 24.0208 59.9027 24.8533 59.7744 25.2817Z" fill="#455A64"/>
<path d="M57.9086 27.7041L55.7766 28.3139L55.3144 25.1679C55.4208 24.9259 55.5564 24.7735 55.7984 24.7614C55.8149 24.7565 55.8326 24.7565 55.8492 24.7614C55.8652 24.759 55.8815 24.759 55.8976 24.7614C55.9211 24.7653 55.9439 24.7726 55.9653 24.7832C55.9653 24.7832 55.9653 24.7832 55.9774 24.7832C55.9895 24.7832 56.0452 24.8437 56.0767 24.88C56.3173 25.1395 56.5336 25.4206 56.7228 25.7197C56.9237 26.0222 57.1342 26.361 57.3399 26.7095C57.4561 26.9055 57.5674 27.1015 57.6835 27.2975C57.7513 27.4452 57.8384 27.5734 57.9086 27.7041Z" fill="#AF6152"/>
<path d="M53.7974 25.4554C53.7893 25.5722 53.7472 25.684 53.6761 25.777C53.6051 25.87 53.5083 25.9401 53.3978 25.9786C53.2873 26.0171 53.168 26.0223 53.0545 25.9936C52.9411 25.9649 52.8385 25.9036 52.7597 25.8171C52.6808 25.7307 52.629 25.623 52.6107 25.5075C52.5924 25.3919 52.6085 25.2735 52.6569 25.1669C52.7053 25.0604 52.7839 24.9704 52.883 24.9081C52.982 24.8458 53.0972 24.814 53.2142 24.8165C53.2946 24.8196 53.3736 24.8387 53.4466 24.8726C53.5196 24.9065 53.5852 24.9546 53.6394 25.014C53.6937 25.0734 53.7356 25.1431 53.7627 25.2189C53.7899 25.2946 53.8017 25.3751 53.7974 25.4554Z" fill="#263238"/>
<path d="M53.6497 22.9898L52.2388 23.3746C52.1916 23.1826 52.2204 22.9797 52.3191 22.8084C52.4179 22.637 52.579 22.5104 52.7688 22.455C52.8618 22.4319 52.9584 22.4274 53.0531 22.4419C53.1478 22.4563 53.2387 22.4893 53.3206 22.539C53.4025 22.5887 53.4737 22.6542 53.5302 22.7315C53.5867 22.8089 53.6273 22.8967 53.6497 22.9898Z" fill="#263238"/>
<path d="M59.0485 23.0439L57.5965 22.7704C57.6096 22.6754 57.6419 22.5841 57.6914 22.502C57.7409 22.4199 57.8065 22.3487 57.8844 22.2928C57.9623 22.2369 58.0507 22.1974 58.1444 22.1767C58.238 22.1561 58.3348 22.1547 58.429 22.1727C58.6245 22.2104 58.7979 22.322 58.9132 22.4842C59.0286 22.6465 59.077 22.8469 59.0485 23.0439Z" fill="#263238"/>
<path d="M58.4478 25.3393C58.4296 25.4549 58.3778 25.5626 58.2989 25.649C58.2201 25.7355 58.1175 25.7969 58.0041 25.8256C57.8907 25.8544 57.7713 25.8491 57.6608 25.8107C57.5502 25.7722 57.4535 25.7021 57.3824 25.6091C57.3114 25.5161 57.2692 25.4043 57.2611 25.2876C57.253 25.1708 57.2793 25.0542 57.3368 24.9523C57.3944 24.8504 57.4805 24.7676 57.5847 24.7143C57.6888 24.6609 57.8063 24.6392 57.9227 24.652C58.0024 24.6624 58.0792 24.6885 58.1488 24.7288C58.2184 24.769 58.2794 24.8226 58.3282 24.8864C58.377 24.9503 58.4127 25.0232 58.4332 25.1009C58.4537 25.1786 58.4587 25.2597 58.4478 25.3393Z" fill="#263238"/>
<path d="M52.2726 38.0153C49.2936 38.3468 46.7187 36.677 46.4065 36.0357C46.0944 35.3944 46.7816 34.1941 46.772 33.6569C46.7623 33.1196 46.8978 32.6743 47.3334 32.8244L47.2995 33.5286C47.2995 33.5286 47.7835 34.545 50.5375 34.9322C53.2914 35.3194 54.1675 34.4966 54.1675 34.4966L54.228 34.0973C54.453 34.0973 54.6902 34.0973 54.9177 34.0973C54.8657 34.4842 54.887 34.8775 54.9806 35.2565C55.1573 35.8566 55.2565 37.6837 52.2726 38.0153Z" fill="#EBEBEB"/>
<path d="M74.1464 45.2366C74.1464 45.2366 74.0206 44.6026 74.7829 43.8742C75.5452 43.1458 76.5809 42.5045 76.7382 40.9121L77.9845 41.4324L76.4551 44.9656L74.1464 45.2366Z" fill="#F4AD3C"/>
<path opacity="0.75" d="M74.1464 45.2366C74.1464 45.2366 74.0206 44.6026 74.7829 43.8742C75.5452 43.1458 76.5809 42.5045 76.7382 40.9121L77.9845 41.4324L76.4551 44.9656L74.1464 45.2366Z" fill="white"/>
<path d="M74.1472 45.2377C74.1472 45.2377 72.7993 44.7537 70.0986 45.6951C67.3978 46.6364 65.2223 47.6601 59.8789 48.2288L61.3648 48.8483L75.1031 46.2638L74.1472 45.2377Z" fill="#F4AD3C"/>
<path opacity="0.75" d="M74.1472 45.2377C74.1472 45.2377 72.7993 44.7537 70.0986 45.6951C67.3978 46.6364 65.2223 47.6601 59.8789 48.2288L61.3648 48.8483L75.1031 46.2638L74.1472 45.2377Z" fill="white"/>
<path d="M59.8787 48.2285L56.9795 64.7934L58.4654 65.4129L61.3621 48.848L59.8787 48.2285Z" fill="#F4AD3C"/>
<path opacity="0.8" d="M59.8787 48.2285L56.9795 64.7934L58.4654 65.4129L61.3621 48.848L59.8787 48.2285Z" fill="white"/>
<path opacity="0.1" d="M59.8787 48.2285L56.9795 64.7934L58.4654 65.4129L61.3621 48.848L59.8787 48.2285Z" fill="black"/>
<g opacity="0.1">
<path opacity="0.1" d="M76.8476 41.7676C76.7608 42.1169 76.6063 42.4458 76.3926 42.7356C76.1772 43.0243 75.9428 43.2984 75.6908 43.556C75.4358 43.8022 75.2056 44.0729 75.0036 44.3642C74.9116 44.5101 74.8384 44.6671 74.7858 44.8313C74.734 44.9872 74.7208 45.1532 74.747 45.3153L74.5801 45.3613C74.5524 45.1671 74.574 44.969 74.643 44.7853C74.705 44.613 74.7905 44.4502 74.8971 44.3013C75.113 44.0133 75.3561 43.7466 75.6231 43.5051C75.8818 43.2598 76.1243 42.9978 76.3491 42.7211C76.5759 42.4388 76.7452 42.1149 76.8476 41.7676Z" fill="black"/>
<path opacity="0.1" d="M76.7413 42.6953C76.6507 42.9109 76.5319 43.1136 76.388 43.2979C76.25 43.4842 76.1072 43.6682 75.9741 43.8569C75.8393 44.0429 75.7226 44.2415 75.6257 44.4498C75.5299 44.6499 75.4819 44.8694 75.4853 45.0911H75.3135C75.3232 44.8459 75.3903 44.6063 75.5095 44.3917C75.6223 44.1838 75.7544 43.9869 75.904 43.8037C76.0516 43.6222 76.204 43.4479 76.3517 43.2689C76.5069 43.0962 76.6379 42.9032 76.7413 42.6953Z" fill="black"/>
<path opacity="0.1" d="M65.2217 47.6608C65.9716 47.4941 66.7117 47.2856 67.4384 47.0364C68.1644 46.7944 68.8783 46.5113 69.5995 46.2426C70.3196 45.966 71.0678 45.7688 71.8307 45.6546C72.2135 45.594 72.6 45.56 72.9875 45.5529C73.1832 45.5511 73.3789 45.5624 73.5731 45.5868C73.7782 45.6108 73.9756 45.6793 74.1515 45.7877L74.0498 45.9256C73.8969 45.8321 73.7264 45.7712 73.5489 45.7465C73.363 45.7186 73.1754 45.7041 72.9875 45.703C72.6069 45.703 72.2269 45.7297 71.8501 45.7828C71.0919 45.8817 70.347 46.0635 69.6285 46.3249C68.9025 46.579 68.1765 46.8452 67.4505 47.0775C66.719 47.3133 65.9749 47.508 65.2217 47.6608Z" fill="black"/>
<path opacity="0.1" d="M68.873 47.1201C69.2965 47.0064 69.7079 46.8636 70.1242 46.7281C70.5404 46.5926 70.9542 46.4571 71.3777 46.3457C71.8014 46.231 72.2335 46.1501 72.67 46.1037C73.1135 46.0445 73.5642 46.0691 73.9986 46.1763L73.9502 46.3409C73.538 46.2257 73.1079 46.1888 72.6821 46.232C72.2497 46.2665 71.8207 46.3361 71.3995 46.4401C70.9736 46.5393 70.5549 46.6579 70.1363 46.7789C69.7176 46.8999 69.299 47.0209 68.873 47.1201Z" fill="black"/>
</g>
<path d="M77.8859 40.6348L76.1048 44.8214L72.9951 62.5817L73.7381 62.8915L75.403 57.8289L78.6265 40.9445L77.8859 40.6348Z" fill="#F4AD3C"/>
<path opacity="0.2" d="M76.848 45.13L78.6267 40.9434L75.4032 57.8277L73.7383 62.8903L76.848 45.13Z" fill="black"/>
<path d="M73.9992 46.4258L60.4593 49.0587L57.3496 66.8191L58.0926 67.1313L71.63 64.4983L74.7422 46.738L73.9992 46.4258Z" fill="#F4AD3C"/>
<path opacity="0.2" d="M61.2025 49.3688L58.0928 67.1316L71.6302 64.4987L74.7424 46.7383L61.2025 49.3688Z" fill="black"/>
<path opacity="0.35" d="M60.4593 49.0586L61.2022 49.3684L58.0926 67.1312L57.3496 66.819L60.4593 49.0586Z" fill="black"/>
<path d="M74.742 46.7377L76.8474 45.1309L73.7377 62.8912C73.4957 63.8592 72.7697 64.3699 71.6299 64.4981L74.742 46.7377Z" fill="#F4AD3C"/>
<path opacity="0.35" d="M74.742 46.7377L76.8474 45.1309L73.7377 62.8912C73.4642 63.9173 72.7092 64.3916 71.6299 64.4981L74.742 46.7377Z" fill="black"/>
<path d="M76.022 44.7846C75.567 44.5935 74.7297 44.7846 74.1465 45.2372C73.5632 45.6897 73.464 46.2052 73.919 46.3891L74.7418 46.7376L76.8472 45.1307L76.1042 44.8209L76.022 44.7846Z" fill="#455A64"/>
<path d="M76.1044 44.8203C76.0536 45.4907 75.2695 46.0085 73.999 46.4248L74.742 46.737C75.8431 46.4635 76.5279 45.9142 76.8474 45.1301L76.1044 44.8203Z" fill="#F4AD3C"/>
<path d="M42.8349 37.7109C40.0398 39.3517 38.566 40.3608 38.3555 44.2135C38.1135 48.5477 38.0433 51.9309 38.5007 59.0432C38.6071 60.7372 38.2877 62.8281 42.1307 63.3799C47.0433 64.0865 54.1314 64.0817 55.9029 64.0696C57.0354 64.0696 59.5329 64.0696 60.3968 63.8784C63.1048 63.3049 64.4164 61.5431 65.1981 60.6162C65.6313 60.1032 66.0427 59.4861 65.9725 58.8182C65.9253 58.6079 65.9066 58.3922 65.9168 58.1769C65.9816 57.9732 66.0676 57.7769 66.1734 57.5912C66.2649 57.3696 66.2827 57.1244 66.2242 56.8919C66.1458 56.6921 66.0858 56.4855 66.0451 56.2748C66.0161 55.844 66.3815 55.4979 66.5291 55.089C66.5551 55.0288 66.5635 54.9625 66.5533 54.8978C66.5243 54.7598 66.3645 54.6872 66.2242 54.6679C65.6482 54.588 64.8738 54.9099 64.4092 55.2511C62.7733 56.4611 61.9021 57.8623 59.4796 58.1551C58.9013 58.2229 58.1801 58.051 58.2696 57.4775L58.4681 56.3425C57.1056 56.7491 56.4813 58.1841 55.3584 58.5205C54.3638 58.8206 45.8962 56.812 45.8962 56.812L45.8429 48.3081C45.8429 48.3081 46.4044 40.0825 42.8349 37.7109Z" fill="#C8856A"/>
<path d="M42.8731 37.209C40.6516 38.402 38.5413 39.5854 38.2534 43.0872C37.9654 46.5889 37.9557 52.2565 38.1687 57.0433C38.3816 61.8301 38.4881 62.2439 39.9425 62.9796C42.5464 64.296 50.4405 64.0008 50.4405 64.0008C50.4405 64.0008 49.654 63.1756 49.879 60.9661C50.1041 58.7567 50.8954 57.9072 50.8954 57.9072L46.1668 56.7166C46.1668 56.7166 46.2757 48.8105 46.191 46.4147C46.1063 44.0189 45.3948 39.1498 42.8731 37.209Z" fill="#E0E0E0"/>
<path d="M76.7508 50.7639C76.6395 51.3447 76.2329 52.1143 76.0054 52.6104C75.778 53.1065 75.8748 53.6074 76.1894 53.7115L75.6279 56.6542C75.6279 56.6542 76.0345 56.6542 76.7823 55.6136C77.53 54.573 77.939 52.6951 78.0092 51.6981C78.0794 50.701 78.0382 48.9296 77.167 48.5859L76.7508 50.7639Z" fill="#C8856A"/>
<path d="M35.62 105.02L24.9914 111.021L8.6709 101.656L19.2971 95.6543L35.62 105.02Z" fill="#F4AD3C"/>
<path opacity="0.6" d="M35.62 105.02L24.9914 111.021L8.6709 101.656L19.2971 95.6543L35.62 105.02Z" fill="black"/>
<path d="M24.8752 110.595L35.1457 104.76C34.9037 104.034 34.9037 103.817 35.1989 102.854L24.9913 108.628C24.9913 108.628 24.805 108.603 24.8752 110.595Z" fill="#F5F5F5"/>
<path d="M25.4897 107.825C25.2169 108.002 24.9897 108.24 24.8265 108.521C24.6633 108.802 24.5689 109.117 24.5508 109.442V110.703C24.5508 111.298 24.9719 111.54 25.4897 111.242L35.6174 105.49V105.03L25.6156 110.676C25.3058 110.855 25.0541 110.71 25.0541 110.354V109.229C25.0648 109.035 25.1213 108.846 25.2188 108.677C25.3164 108.509 25.4524 108.366 25.6156 108.261L35.6174 102.61V102.08L25.4897 107.825Z" fill="#F4AD3C"/>
<path opacity="0.5" d="M25.4897 107.825C25.2169 108.002 24.9897 108.24 24.8265 108.521C24.6633 108.802 24.5689 109.117 24.5508 109.442V110.703C24.5508 111.298 24.9719 111.54 25.4897 111.242L35.6174 105.49V105.03L25.6156 110.676C25.3058 110.855 25.0541 110.71 25.0541 110.354V109.229C25.0648 109.035 25.1213 108.846 25.2188 108.677C25.3164 108.509 25.4524 108.366 25.6156 108.261L35.6174 102.61V102.08L25.4897 107.825Z" fill="black"/>
<path d="M35.6176 102.072L19.2971 92.707L9.16942 98.4594C8.89617 98.6355 8.66845 98.8738 8.50484 99.1547C8.34124 99.4357 8.24639 99.7513 8.22804 100.076V101.339C8.21612 101.455 8.23541 101.572 8.28391 101.678C8.33242 101.784 8.40838 101.875 8.50392 101.942L24.8244 111.307C24.7285 111.241 24.6522 111.15 24.6037 111.044C24.5551 110.938 24.5361 110.821 24.5485 110.705V109.441C24.5661 109.117 24.6602 108.802 24.8229 108.521C24.9857 108.24 25.2126 108.001 25.4851 107.825L35.6176 102.072Z" fill="#F4AD3C"/>
<path opacity="0.35" d="M35.6176 102.072L19.2971 92.707L9.16942 98.4594C8.89617 98.6355 8.66845 98.8738 8.50484 99.1547C8.34124 99.4357 8.24639 99.7513 8.22804 100.076V101.339C8.21612 101.455 8.23541 101.572 8.28391 101.678C8.33242 101.784 8.40838 101.875 8.50392 101.942L24.8244 111.307C24.7285 111.241 24.6522 111.15 24.6037 111.044C24.5551 110.938 24.5361 110.821 24.5485 110.705V109.441C24.5661 109.117 24.6602 108.802 24.8229 108.521C24.9857 108.24 25.2126 108.001 25.4851 107.825L35.6176 102.072Z" fill="black"/>
<path d="M24.8244 108.522C24.6562 108.8 24.562 109.117 24.5509 109.441V110.705C24.5385 110.821 24.5576 110.938 24.6061 111.044C24.6547 111.15 24.7309 111.241 24.8268 111.307L8.50634 101.942C8.41036 101.875 8.33392 101.784 8.28498 101.678C8.23604 101.572 8.21638 101.455 8.22804 101.339V100.076C8.23888 99.7507 8.33393 99.4339 8.50392 99.1564L24.8244 108.522Z" fill="#F4AD3C"/>
<path opacity="0.25" d="M24.8244 108.522C24.6562 108.8 24.562 109.117 24.5509 109.441V110.705C24.5385 110.821 24.5576 110.938 24.6061 111.044C24.6547 111.15 24.7309 111.241 24.8268 111.307L8.50634 101.942C8.41036 101.875 8.33392 101.784 8.28498 101.678C8.23604 101.572 8.21638 101.455 8.22804 101.339V100.076C8.23888 99.7507 8.33393 99.4339 8.50392 99.1564L24.8244 108.522Z" fill="black"/>
<path d="M10.7113 100.408C10.4063 101.73 10.4112 102.245 10.7113 103.215L11.4905 103.663C11.1904 102.695 11.1856 102.18 11.4905 100.858L10.7113 100.408Z" fill="#F4AD3C"/>
<path d="M21.4144 106.559C21.1095 107.88 21.1143 108.378 21.4144 109.349L22.1912 109.797C21.8911 108.829 21.8887 108.328 22.1912 107.009L21.4144 106.559Z" fill="#F4AD3C"/>
<path d="M37.764 101.914L27.1354 107.916L10.8125 98.5504L21.4411 92.5488L37.764 101.914Z" fill="#F4AD3C"/>
<path opacity="0.4" d="M37.764 101.914L27.1354 107.916L10.8125 98.5504L21.4411 92.5488L37.764 101.914Z" fill="black"/>
<path d="M27.0197 107.479L37.2902 101.642C37.0337 100.916 37.0482 100.594 37.3434 99.6309L27.1359 105.405C27.1359 105.405 26.9495 105.497 27.0197 107.479Z" fill="#F5F5F5"/>
<path d="M27.6341 104.616C27.361 104.792 27.1336 105.03 26.9704 105.311C26.8072 105.592 26.7128 105.908 26.6951 106.232V107.597C26.6951 108.193 27.1138 108.435 27.6341 108.137L37.7521 102.382V101.915L27.7503 107.561C27.4405 107.74 27.1888 107.595 27.1888 107.237V106.01C27.2007 105.816 27.2579 105.627 27.3559 105.459C27.4538 105.291 27.5897 105.148 27.7527 105.042L37.7521 99.3934V98.8634L27.6341 104.616Z" fill="#F4AD3C"/>
<path opacity="0.25" d="M27.6341 104.616C27.361 104.792 27.1336 105.03 26.9704 105.311C26.8072 105.592 26.7128 105.908 26.6951 106.232V107.597C26.6951 108.193 27.1138 108.435 27.6341 108.137L37.7521 102.382V101.915L27.7503 107.561C27.4405 107.74 27.1888 107.595 27.1888 107.237V106.01C27.2007 105.816 27.2579 105.627 27.3559 105.459C27.4538 105.291 27.5897 105.148 27.7527 105.042L37.7521 99.3934V98.8634L27.6341 104.616Z" fill="black"/>
<path d="M37.7521 98.8634L21.4413 89.498L11.3136 95.2504C11.0408 95.4268 10.8136 95.6652 10.6504 95.9461C10.4872 96.2271 10.3927 96.5426 10.3747 96.8669V98.2318C10.3625 98.3479 10.3815 98.465 10.4295 98.5713C10.4776 98.6776 10.553 98.7693 10.6481 98.8368L26.971 108.202C26.8755 108.136 26.7995 108.044 26.751 107.939C26.7025 107.833 26.6832 107.716 26.6951 107.6V106.24C26.7131 105.916 26.8073 105.601 26.9701 105.32C27.1328 105.04 27.3595 104.802 27.6317 104.625L37.7521 98.8634Z" fill="#F4AD3C"/>
<path d="M26.9686 105.313C26.8004 105.59 26.7062 105.906 26.6951 106.23V107.6C26.6832 107.716 26.7025 107.833 26.751 107.939C26.7995 108.045 26.8755 108.136 26.971 108.202L10.6481 98.8369C10.553 98.7693 10.4776 98.6777 10.4295 98.5714C10.3815 98.4651 10.3625 98.3479 10.3747 98.2319V96.867C10.3857 96.5421 10.4799 96.2255 10.6481 95.9474L26.9686 105.313Z" fill="#F4AD3C"/>
<path opacity="0.15" d="M26.9686 105.313C26.8004 105.59 26.7062 105.906 26.6951 106.23V107.6C26.6832 107.716 26.7025 107.833 26.751 107.939C26.7995 108.045 26.8755 108.136 26.971 108.202L10.6481 98.8369C10.553 98.7693 10.4776 98.6777 10.4295 98.5714C10.3815 98.4651 10.3625 98.3479 10.3747 98.2319V96.867C10.3857 96.5421 10.4799 96.2255 10.6481 95.9474L26.9686 105.313Z" fill="black"/>
<path d="M12.853 97.1992C12.5505 98.5205 12.5553 99.1352 12.853 100.103L13.6298 100.551C13.3322 99.5829 13.3273 98.961 13.6298 97.6469L12.853 97.1992Z" fill="#F4AD3C"/>
<path d="M23.5588 103.357C23.2539 104.679 23.2587 105.276 23.5588 106.247L24.3356 106.695C24.0356 105.727 24.0307 105.124 24.3356 103.803L23.5588 103.357Z" fill="#F4AD3C"/>
<g opacity="0.4">
<path opacity="0.4" d="M12.853 97.1992C12.5505 98.5205 12.5553 99.1352 12.853 100.103L13.6298 100.551C13.3322 99.5829 13.3273 98.961 13.6298 97.6469L12.853 97.1992Z" fill="white"/>
<path opacity="0.4" d="M23.5589 103.357C23.254 104.679 23.2588 105.276 23.5589 106.247L24.3357 106.695C24.0356 105.727 24.0308 105.124 24.3357 103.803L23.5589 103.357Z" fill="white"/>
</g>
<path d="M36.4355 98.4658L35.9902 98.2238L36.3968 98.127C36.4357 98.1734 36.4601 98.2303 36.467 98.2905C36.4739 98.3508 36.4629 98.4117 36.4355 98.4658Z" fill="#F4AD3C"/>
<path opacity="0.5" d="M36.4355 98.4658L35.9902 98.2238L36.3968 98.127C36.4357 98.1734 36.4601 98.2303 36.467 98.2905C36.4739 98.3508 36.4629 98.4117 36.4355 98.4658Z" fill="black"/>
<path d="M24.6208 104.417C24.7616 104.487 24.917 104.524 25.0745 104.524C25.232 104.524 25.3874 104.487 25.5283 104.417L35.7092 98.5363L20.4632 89.8776L20.1051 89.6719L9.92169 95.4073C9.86614 95.4252 9.8177 95.4602 9.78334 95.5074C9.74898 95.5546 9.73047 95.6115 9.73047 95.6698C9.73047 95.7282 9.74898 95.7851 9.78334 95.8323C9.8177 95.8794 9.86614 95.9145 9.92169 95.9324L24.6208 104.417Z" fill="#F4AD3C"/>
<path d="M28.4441 93.4531L31.9942 95.498L34.2932 94.1694L36.9552 95.7158V97.4994C36.9552 97.7414 36.6939 98.0656 36.5971 98.01C36.4212 98.0532 36.2501 98.114 36.0864 98.1915C35.8239 98.3448 35.5803 98.5284 35.3604 98.7384L27.2002 94.1694L28.4441 93.4531Z" fill="#F4AD3C"/>
<path opacity="0.15" d="M28.4441 93.4531L31.9942 95.498L34.2932 94.1694L36.9552 95.7158V97.4994C36.9552 97.7414 36.6939 98.0656 36.5971 98.01C36.4212 98.0532 36.2501 98.114 36.0864 98.1915C35.8239 98.3448 35.5803 98.5284 35.3604 98.7384L27.2002 94.1694L28.4441 93.4531Z" fill="black"/>
<path d="M35.501 95.9273V97.8633L35.5324 97.844C35.6632 97.7632 35.8121 97.7166 35.9656 97.7084C36.0662 97.698 36.1674 97.7209 36.2536 97.7738V95.4941L35.501 95.9273Z" fill="#37474F"/>
<path d="M35 98.5312C35.0089 98.4104 35.0535 98.295 35.1283 98.1996C35.1662 98.1487 35.2083 98.1009 35.2541 98.0569L35.2977 98.0157C35.3151 97.9991 35.3337 97.9837 35.3533 97.9697L35.3993 97.9334L35.5009 97.8657V95.9297L35.0024 96.2177V98.5239L35 98.5312Z" fill="#E0E0E0"/>
<path opacity="0.4" d="M36.9676 97.4986C36.9676 97.7406 36.7062 98.0649 36.6094 98.0092L36.2537 97.7794V96.3177L36.6119 95.703L36.8055 95.6328L36.9676 95.7272V97.4986Z" fill="black"/>
<path d="M25.0732 101.95V104.159C25.1785 104.162 25.2827 104.138 25.3757 104.089L26.4938 103.445L35.0025 98.5327V96.2168L25.0732 101.95Z" fill="#EBEBEB"/>
<path d="M10.1826 93.6562V95.326C10.1905 95.4283 10.2218 95.5274 10.2743 95.6156C10.3268 95.7038 10.3989 95.7786 10.4851 95.8343L23.6548 103.44L24.7704 104.084C24.8635 104.133 24.9677 104.157 25.0729 104.154V102.194L10.1826 93.6562Z" fill="#F5F5F5"/>
<path d="M20.4678 87.0059L35.7138 95.8075V96.0132C35.7138 96.1269 35.8735 96.1681 36.0695 96.0543C36.2655 95.9406 36.4253 95.8002 36.4253 95.6042L36.4446 95.4106L20.9082 86.4445L20.8453 86.4082C20.8295 86.4373 20.8204 86.4695 20.8187 86.5026V86.597C20.8114 86.7083 20.6614 86.8801 20.4678 87.0059Z" fill="#F4AD3C"/>
<path opacity="0.1" d="M20.4678 87.0059L35.7138 95.8075V96.0132C35.7138 96.1269 35.8735 96.1681 36.0695 96.0543C36.2655 95.9406 36.4253 95.8002 36.4253 95.6042L36.4446 95.4106L20.9082 86.4445L20.8453 86.4082C20.8295 86.4373 20.8204 86.4695 20.8187 86.5026V86.597C20.8114 86.7083 20.6614 86.8801 20.4678 87.0059Z" fill="black"/>
<path d="M25.5283 101.688L35.4842 95.9382C35.61 95.8729 35.7262 95.8197 35.7746 95.8439L35.7092 95.8076L20.4632 87.006L20.2841 86.9044C20.2033 86.8793 20.1179 86.8727 20.0342 86.8848C19.9505 86.8969 19.8705 86.9276 19.8001 86.9746L9.92169 92.6882C9.86614 92.7061 9.8177 92.7412 9.78334 92.7883C9.74898 92.8355 9.73047 92.8924 9.73047 92.9508C9.73047 93.0091 9.74898 93.066 9.78334 93.1132C9.8177 93.1603 9.86614 93.1954 9.92169 93.2133L24.6135 101.698C24.7561 101.768 24.9131 101.804 25.072 101.802C25.2309 101.8 25.3872 101.761 25.5283 101.688Z" fill="#F4AD3C"/>
<path d="M20.8456 86.4078L20.9085 86.4441L36.4401 95.4102C36.4478 95.3932 36.4594 95.3783 36.4739 95.3666L36.5248 95.3376L36.6385 95.2723L36.7764 95.1924C36.8029 95.1746 36.8348 95.1666 36.8666 95.1697C36.8984 95.1728 36.9281 95.1868 36.9507 95.2093C36.9582 95.2126 36.9648 95.2175 36.97 95.2239C36.9878 95.2438 37.0033 95.2657 37.016 95.2892C37.0326 95.3168 37.0464 95.346 37.0572 95.3763C37.0694 95.4096 37.0799 95.4435 37.0886 95.478L37.1104 95.5965C37.1117 95.6199 37.1117 95.6433 37.1104 95.6667C37.1092 95.6861 37.1092 95.7055 37.1104 95.7248C37.1104 95.7684 37.1104 95.8143 37.1104 95.8627V95.4247C37.0941 95.2811 37.0445 95.1433 36.9655 95.0223C36.8865 94.9013 36.7804 94.8004 36.6554 94.7278L21.983 86.2432C21.8618 86.1719 21.7258 86.1296 21.5856 86.1195C21.4454 86.1095 21.3048 86.1319 21.1747 86.1852L20.9884 86.2941C20.9884 86.2941 20.9448 86.3207 20.9109 86.34C20.8821 86.3546 20.8591 86.3785 20.8456 86.4078Z" fill="#F4AD3C"/>
<path d="M25.5286 104.414L26.136 104.061L35.3538 98.7368C35.3617 98.6162 35.4055 98.5007 35.4797 98.4053C35.589 98.2613 35.7265 98.1411 35.8838 98.052C36.0144 97.9708 36.1634 97.9242 36.317 97.9164C36.4209 97.9143 36.5225 97.9475 36.605 98.0108C36.7235 97.7737 36.7816 97.5111 36.7744 97.2461H37.1228C37.1228 97.7301 36.9631 98.2141 36.7695 98.323L36.5929 98.4271C36.4912 98.4851 36.4138 98.4876 36.4138 98.4271V98.3327C36.4138 98.2286 36.2541 98.2335 36.058 98.3472C35.862 98.4609 35.7023 98.6352 35.7023 98.7417V98.836C35.7023 98.8893 35.5668 99.0103 35.4022 99.1071L26.4869 104.254L25.5189 104.811C25.3793 104.884 25.2238 104.92 25.0664 104.917V104.513C25.2265 104.522 25.3861 104.488 25.5286 104.414Z" fill="#F4AD3C"/>
<path opacity="0.3" d="M25.5286 104.414L26.136 104.061L35.3538 98.7368C35.3617 98.6162 35.4055 98.5007 35.4797 98.4053C35.589 98.2613 35.7265 98.1411 35.8838 98.052C36.0144 97.9708 36.1634 97.9242 36.317 97.9164C36.4209 97.9143 36.5225 97.9475 36.605 98.0108C36.7235 97.7737 36.7816 97.5111 36.7744 97.2461H37.1228C37.1228 97.7301 36.9631 98.2141 36.7695 98.323L36.5929 98.4271C36.4912 98.4851 36.4138 98.4876 36.4138 98.4271V98.3327C36.4138 98.2286 36.2541 98.2335 36.058 98.3472C35.862 98.4609 35.7023 98.6352 35.7023 98.7417V98.836C35.7023 98.8893 35.5668 99.0103 35.4022 99.1071L26.4869 104.254L25.5189 104.811C25.3793 104.884 25.2238 104.92 25.0664 104.917V104.513C25.2265 104.522 25.3861 104.488 25.5286 104.414Z" fill="black"/>
<path d="M9.74219 92.9297V93.3387C9.74642 93.3938 9.76523 93.4469 9.7967 93.4924C9.82816 93.5379 9.87115 93.5742 9.92127 93.5976L23.6475 101.523L24.6155 102.082C24.7552 102.155 24.9107 102.191 25.068 102.189V101.787C24.9104 101.79 24.7545 101.752 24.6155 101.678L24.0008 101.322L9.92127 93.2031C9.86872 93.179 9.82404 93.1406 9.79236 93.0922C9.76068 93.0438 9.74329 92.9875 9.74219 92.9297Z" fill="#F4AD3C"/>
<path opacity="0.2" d="M9.74219 92.9297V93.3387C9.74642 93.3938 9.76523 93.4469 9.7967 93.4924C9.82816 93.5379 9.87115 93.5742 9.92127 93.5976L23.6475 101.523L24.6155 102.082C24.7552 102.155 24.9107 102.191 25.068 102.189V101.787C24.9104 101.79 24.7545 101.752 24.6155 101.678L24.0008 101.322L9.92127 93.2031C9.86872 93.179 9.82404 93.1406 9.79236 93.0922C9.76068 93.0438 9.74329 92.9875 9.74219 92.9297Z" fill="black"/>
<path d="M9.74219 95.6641V96.0755C9.74634 96.1303 9.76515 96.1831 9.79665 96.2282C9.82815 96.2733 9.87119 96.3092 9.92127 96.332L23.6475 104.257L24.6155 104.814C24.7552 104.887 24.9107 104.923 25.068 104.921V104.516C24.9102 104.521 24.7541 104.483 24.6155 104.408L24.0057 104.061L9.92127 95.9303C9.86963 95.9069 9.82552 95.8696 9.79389 95.8226C9.76225 95.7756 9.74435 95.7207 9.74219 95.6641Z" fill="#F4AD3C"/>
<path opacity="0.2" d="M9.74219 95.6641V96.0755C9.74634 96.1303 9.76515 96.1831 9.79665 96.2282C9.82815 96.2733 9.87119 96.3092 9.92127 96.332L23.6475 104.257L24.6155 104.814C24.7552 104.887 24.9107 104.923 25.068 104.921V104.516C24.9102 104.521 24.7541 104.483 24.6155 104.408L24.0057 104.061L9.92127 95.9303C9.86963 95.9069 9.82552 95.8696 9.79389 95.8226C9.76225 95.7756 9.74435 95.7207 9.74219 95.6641Z" fill="black"/>
<path d="M36.544 93.3669L24.6376 100.148L8.80355 91.0606L20.71 84.2773L36.544 93.3669Z" fill="#F4AD3C"/>
<path opacity="0.2" d="M36.544 93.3669L24.6376 100.148L8.80355 91.0606L20.71 84.2773L36.544 93.3669Z" fill="white"/>
<path d="M24.529 99.7307L36.0966 93.1072C35.8546 92.4215 35.8707 91.6221 36.145 90.709L24.6379 97.2841C24.6379 97.2841 24.4612 97.8552 24.529 99.7307Z" fill="#F5F5F5"/>
<path d="M25.1097 96.529C24.8508 96.695 24.6352 96.9204 24.4807 97.1864C24.3263 97.4523 24.2374 97.7513 24.2215 98.0584V99.8444C24.2215 100.408 24.6184 100.636 25.1097 100.355L36.5417 93.8065V93.366L25.2307 99.8105C24.9354 99.9775 24.6983 99.842 24.6983 99.5032V97.8479C24.7087 97.6636 24.7626 97.4845 24.8555 97.3251C24.9485 97.1657 25.0779 97.0305 25.2331 96.9307L36.5417 90.4838V89.9805L25.1097 96.529Z" fill="#F4AD3C"/>
<path opacity="0.4" d="M25.1097 96.529C24.8508 96.695 24.6352 96.9204 24.4807 97.1864C24.3263 97.4523 24.2374 97.7513 24.2215 98.0584V99.8444C24.2215 100.408 24.6184 100.636 25.1097 100.355L36.5417 93.8065V93.366L25.2307 99.8105C24.9354 99.9775 24.6983 99.842 24.6983 99.5032V97.8479C24.7087 97.6636 24.7626 97.4845 24.8555 97.3251C24.9485 97.1657 25.0779 97.0305 25.2331 96.9307L36.5417 90.4838V89.9805L25.1097 96.529Z" fill="white"/>
<path d="M36.5421 89.9836L20.708 80.8965L9.27592 87.4426C9.01785 87.6095 8.80288 87.8351 8.64854 88.1009C8.4942 88.3666 8.40485 88.6651 8.38778 88.972V90.7507C8.37623 90.8606 8.39439 90.9716 8.44037 91.072C8.48634 91.1725 8.55844 91.2588 8.64914 91.3218L24.4832 100.409C24.3925 100.346 24.3204 100.26 24.2744 100.159C24.2285 100.059 24.2103 99.9477 24.2218 99.8378V98.0591C24.2377 97.752 24.3266 97.453 24.4811 97.1871C24.6355 96.9211 24.8511 96.6957 25.11 96.5297L36.5421 89.9836Z" fill="#F4AD3C"/>
<path opacity="0.85" d="M36.5421 89.9836L20.708 80.8965L9.27592 87.4426C9.01785 87.6095 8.80288 87.8351 8.64854 88.1009C8.4942 88.3666 8.40485 88.6651 8.38778 88.972V90.7507C8.37623 90.8606 8.39439 90.9716 8.44037 91.072C8.48634 91.1725 8.55844 91.2588 8.64914 91.3218L24.4832 100.409C24.3925 100.346 24.3204 100.26 24.2744 100.159C24.2285 100.059 24.2103 99.9477 24.2218 99.8378V98.0591C24.2377 97.752 24.3266 97.453 24.4811 97.1871C24.6355 96.9211 24.8511 96.6957 25.11 96.5297L36.5421 89.9836Z" fill="white"/>
<path d="M24.4808 97.1879C24.3215 97.4514 24.2323 97.7513 24.2218 98.0591V99.845C24.2103 99.9549 24.2284 100.066 24.2744 100.166C24.3204 100.267 24.3925 100.353 24.4832 100.416L8.64912 91.3291C8.55725 91.2654 8.48441 91.1779 8.43838 91.076C8.39235 90.9742 8.37485 90.8617 8.38776 90.7507V88.9647C8.39866 88.6567 8.48867 88.3567 8.64912 88.0935L24.4808 97.1879Z" fill="#F4AD3C"/>
<path opacity="0.6" d="M24.4808 97.1879C24.3215 97.4514 24.2323 97.7513 24.2218 98.0591V99.845C24.2103 99.9549 24.2284 100.066 24.2744 100.166C24.3204 100.267 24.3925 100.353 24.4832 100.416L8.64912 91.3291C8.55725 91.2654 8.48441 91.1779 8.43838 91.076C8.39235 90.9742 8.37485 90.8617 8.38776 90.7507V88.9647C8.39866 88.6567 8.48867 88.3567 8.64912 88.0935L24.4808 97.1879Z" fill="white"/>
<path d="M10.7355 89.2988C10.4475 90.55 10.4524 91.6293 10.7355 92.5465L11.4615 92.9724C11.1784 92.0552 11.1735 90.9735 11.4615 89.7248L10.7355 89.2988Z" fill="white"/>
<path d="M21.2521 95.3496C20.9641 96.6007 20.969 97.6801 21.2521 98.5973L21.9781 99.0232C21.695 98.106 21.6901 97.0267 21.9781 95.7755L21.2521 95.3496Z" fill="white"/>
</svg>
