<svg width="32" height="32" viewBox="0 0 32 32" fill="none" xmlns="http://www.w3.org/2000/svg">
<path d="M11.1867 24.6532V11.1066C11.1867 10.5732 11.3467 10.0532 11.64 9.61322L15.28 4.19989C15.8533 3.33322 17.28 2.71989 18.4933 3.17322C19.8 3.61322 20.6667 5.07989 20.3867 6.38655L19.6933 10.7466C19.64 11.1466 19.7467 11.5066 19.9733 11.7866C20.2 12.0399 20.5333 12.1999 20.8933 12.1999H26.3733C27.4267 12.1999 28.3333 12.6266 28.8667 13.3732C29.3733 14.0932 29.4667 15.0266 29.1333 15.9732L25.8533 25.9599C25.44 27.6132 23.64 28.9599 21.8533 28.9599H16.6533C15.76 28.9599 14.5067 28.6532 13.9333 28.0799L12.2267 26.7599C11.5733 26.2666 11.1867 25.4799 11.1867 24.6532Z" fill="#292D32"/>
<path d="M6.94667 8.50659H5.57333C3.50667 8.50659 2.66667 9.30659 2.66667 11.2799V24.6933C2.66667 26.6666 3.50667 27.4666 5.57333 27.4666H6.94667C9.01333 27.4666 9.85333 26.6666 9.85333 24.6933V11.2799C9.85333 9.30659 9.01333 8.50659 6.94667 8.50659Z" fill="#292D32"/>
</svg>
