<svg width="32" height="32" viewBox="0 0 32 32" fill="none" xmlns="http://www.w3.org/2000/svg">
<path d="M21.653 2.66675H10.3463C6.66634 2.66675 5.33301 4.00008 5.33301 7.74675V24.2534C5.33301 28.0001 6.66634 29.3334 10.3463 29.3334H21.6397C25.333 29.3334 26.6663 28.0001 26.6663 24.2534V7.74675C26.6663 4.00008 25.333 2.66675 21.653 2.66675ZM15.9997 25.7334C14.7197 25.7334 13.6663 24.6801 13.6663 23.4001C13.6663 22.1201 14.7197 21.0667 15.9997 21.0667C17.2797 21.0667 18.333 22.1201 18.333 23.4001C18.333 24.6801 17.2797 25.7334 15.9997 25.7334ZM18.6663 8.33342H13.333C12.7863 8.33342 12.333 7.88008 12.333 7.33342C12.333 6.78675 12.7863 6.33341 13.333 6.33341H18.6663C19.213 6.33341 19.6663 6.78675 19.6663 7.33342C19.6663 7.88008 19.213 8.33342 18.6663 8.33342Z" fill="#292D32"/>
</svg>
